<?xml version="1.0" encoding="UTF-8" standalone="no"?>
<!-- Created with Inkscape (http://www.inkscape.org/) -->

<svg
   xmlns:dc="http://purl.org/dc/elements/1.1/"
   xmlns:cc="http://creativecommons.org/ns#"
   xmlns:rdf="http://www.w3.org/1999/02/22-rdf-syntax-ns#"
   xmlns:svg="http://www.w3.org/2000/svg"
   xmlns="http://www.w3.org/2000/svg"
   xmlns:sodipodi="http://sodipodi.sourceforge.net/DTD/sodipodi-0.dtd"
   xmlns:inkscape="http://www.inkscape.org/namespaces/inkscape"
   width="14in"
   height="11in"
   viewBox="0 0 1260 990.00005"
   id="svg2"
   version="1.1"
   inkscape:version="0.91 r13725"
   sodipodi:docname="failure.svg">
  <defs
     id="defs4" />
  <sodipodi:namedview
     id="base"
     pagecolor="#ffffff"
     bordercolor="#666666"
     borderopacity="1.0"
     inkscape:pageopacity="0.0"
     inkscape:pageshadow="2"
     inkscape:zoom="0.35415414"
     inkscape:cx="684.75301"
     inkscape:cy="531.12894"
     inkscape:document-units="px"
     inkscape:current-layer="layer2"
     showgrid="false"
     showguides="true"
     inkscape:guide-bbox="true"
     inkscape:window-width="1436"
     inkscape:window-height="855"
     inkscape:window-x="0"
     inkscape:window-y="1"
     inkscape:window-maximized="1"
     units="in" />
  <metadata
     id="metadata7">
    <rdf:RDF>
      <cc:Work
         rdf:about="">
        <dc:format>image/svg+xml</dc:format>
        <dc:type
           rdf:resource="http://purl.org/dc/dcmitype/StillImage" />
        <dc:title />
      </cc:Work>
    </rdf:RDF>
  </metadata>
  <g
     inkscape:label="Layer 1"
     inkscape:groupmode="layer"
     id="layer1"
     transform="translate(0,-62.362159)" />
  <g
     inkscape:groupmode="layer"
     id="layer2"
     inkscape:label="Layer 2"
     transform="translate(0,-62.362159)">
    <g
       id="g819748"
       transform="translate(-100.7384,17.682616)">
      <path
         sodipodi:nodetypes="csssssssssssssssssssssssssssssssssssssssssccc"
         inkscape:connector-curvature="0"
         id="path4202"
         d="m 392.62392,560.03365 c 29.57964,-17.43548 61.09921,-27.57571 93.12503,-45.25183 4.76572,-2.63036 -6.79998,-4.63544 -2.78338,-35.56002 1.53146,-11.79057 10.1263,-11.36414 9.91075,-18.29703 -0.14944,-4.79249 -7.38034,-7.40939 -7.62366,-12.19801 -0.87653,-17.25267 18.95764,-29.67918 22.87128,-46.50494 4.37553,-18.81137 -6.08888,-39.61197 0,-57.94057 7.89959,-23.77901 32.07612,-38.74917 44.9802,-60.22771 20.25618,-33.71582 28.13344,-74.25234 50.31677,-106.73264 85.61943,-125.361723 234.24803,-106.842646 359.07903,-52.60394 37.0589,16.102 84.44436,45.85485 102.92076,64.03959 23.7427,23.36803 75.2437,44.9507 93.7721,70.90098 4.4649,6.25317 -4.8676,7.27178 -12.5905,14.219 -10.8628,9.77195 -12.3278,24.54342 -36.2014,31.52354 -15.5589,4.54907 -36.6079,-23.64836 -47.2673,-11.43565 -4.1272,4.72862 1.3539,14.52445 6.8613,17.53466 2.2742,1.24292 3.5733,1.09174 5.737,2.51835 4.1194,2.71623 1.6522,6.75949 4.9365,10.44203 3.2091,3.59852 11.3025,0.40398 13.7225,4.57426 1.9021,3.27759 -1.6275,6.97975 -2.6475,10.94302 -1.0726,4.16793 0.2594,8.59609 -1.9266,11.92826 -6.1096,9.313 -24.0903,8.43867 -27.4456,19.0594 -6.4423,20.39239 16.0604,39.71501 22.1089,60.2277 5.2309,17.74025 18.9787,36.92108 12.1981,54.1287 -2.4808,6.29549 -10.3063,9.44107 -16.7723,11.43564 -12.3845,3.82025 -39.8878,-6.59063 -38.8812,0 0,0 6.505,25.61563 2.2871,37.35643 -1.7628,4.90716 -6.8149,7.92828 -10.6733,11.43563 -3.0841,2.80354 -7.2598,4.4076 -9.9108,7.62375 -2.1685,2.63088 -1.6422,7.40853 -4.5743,9.14852 0,0 -11.5155,-0.68955 -16.01,2.28713 -15.58786,10.32391 -27.33096,29.40491 -28.97016,48.02968 -0.3104,3.52592 4.1182,6.3846 3.8119,9.9109 -0.1283,1.47625 -2.2173,2.33172 -2.2873,3.81187 -0.3054,6.47176 9.2803,11.11767 8.3862,17.53464 -0.7948,5.70631 -7.4077,8.84099 -11.4356,12.9604 -3.1432,3.21456 -9.8039,4.65389 -9.9107,9.14851 -0.5438,22.8605 6.7191,38.762 -5.3368,53.36632 -13.8572,16.78631 -37.1842,7.06729 -40.7102,13.32136 -11.6067,20.58725 -27.1142,7.11131 -34.1107,14.60522 -9.1647,9.81608 -23.6164,7.57715 -31.8276,11.33232 0,0 5.5691,27.08231 7.9561,40.69715 3.3811,19.2841 9.1839,39.75036 9.0137,58.03907 -64.7519,-0.16695 -400.50815,-0.51505 -475.24186,-0.76744 0.80996,-70.47351 8.7e-4,-272.55888 1.14354,-296.56425 z"
         style="fill:#000000;fill-opacity:1;fill-rule:evenodd;stroke:none;stroke-width:1px;stroke-linecap:butt;stroke-linejoin:miter;stroke-opacity:1" />
      <g
         id="text4204"
         style="font-style:normal;font-weight:normal;font-size:104.75473785px;line-height:117.99999475%;font-family:sans-serif;text-align:start;letter-spacing:0px;word-spacing:0px;text-anchor:start;fill:#000000;fill-opacity:1;stroke:none;stroke-width:1px;stroke-linecap:butt;stroke-linejoin:miter;stroke-opacity:1"
         transform="matrix(1.5094235,0.00340149,-0.00340149,1.5094235,2538.2338,-378.12402)">
        <path
           id="path4497"
           style="font-style:normal;font-variant:normal;font-weight:normal;font-stretch:condensed;font-family:Impact;-inkscape-font-specification:'Impact Condensed';fill:#000000;fill-opacity:1"
           d="m -1420.1797,828.78959 36.4698,0 0,16.57253 -14.9358,0 0,15.70298 13.299,0 0,15.75413 -13.299,0 0,34.78184 -21.534,0 0,-82.81148 z"
           inkscape:connector-curvature="0" />
        <path
           id="path4499"
           style="font-style:normal;font-variant:normal;font-weight:normal;font-stretch:condensed;font-family:Impact;-inkscape-font-specification:'Impact Condensed';fill:#000000;fill-opacity:1"
           d="m -1341.2556,828.78959 12.3271,82.81148 -22.0456,0 -1.0741,-14.88458 -7.7237,0 -1.2787,14.88458 -22.3013,0 10.9461,-82.81148 31.1502,0 z m -11.4064,53.24691 q -1.6368,-14.06618 -3.2736,-34.73069 -3.2736,23.73349 -4.092,34.73069 l 7.3656,0 z"
           inkscape:connector-curvature="0" />
        <path
           id="path4501"
           style="font-style:normal;font-variant:normal;font-weight:normal;font-stretch:condensed;font-family:Impact;-inkscape-font-specification:'Impact Condensed';fill:#000000;fill-opacity:1"
           d="m -1303.7117,828.78959 0,82.81148 -21.5341,0 0,-82.81148 21.5341,0 z"
           inkscape:connector-curvature="0" />
        <path
           id="path4503"
           style="font-style:normal;font-variant:normal;font-weight:normal;font-stretch:condensed;font-family:Impact;-inkscape-font-specification:'Impact Condensed';fill:#000000;fill-opacity:1"
           d="m -1273.6356,828.78959 0,66.23896 13.0943,0 0,16.57252 -34.6284,0 0,-82.81148 21.5341,0 z"
           inkscape:connector-curvature="0" />
        <path
           id="path4505"
           style="font-style:normal;font-variant:normal;font-weight:normal;font-stretch:condensed;font-family:Impact;-inkscape-font-specification:'Impact Condensed';fill:#000000;fill-opacity:1"
           d="m -1206.3225,828.78959 0,55.34406 q 0,9.41155 -0.6138,13.24779 -0.6138,3.78508 -3.6317,7.82591 -3.0178,3.98968 -7.9793,6.08683 -4.9104,2.04599 -11.611,2.04599 -7.4167,0 -13.0944,-2.45519 -5.6776,-2.45519 -8.4908,-6.39372 -2.8133,-3.93854 -3.3248,-8.28627 -0.5115,-4.39888 -0.5115,-18.41392 l 0,-49.00148 21.5341,0 0,62.09583 q 0,5.42187 0.5626,6.95636 0.6138,1.48335 2.4041,1.48335 2.046,0 2.6086,-1.63679 0.6138,-1.68795 0.6138,-7.87707 l 0,-61.02168 21.5341,0 z"
           inkscape:connector-curvature="0" />
        <path
           id="path4507"
           style="font-style:normal;font-variant:normal;font-weight:normal;font-stretch:condensed;font-family:Impact;-inkscape-font-specification:'Impact Condensed';fill:#000000;fill-opacity:1"
           d="m -1197.9851,828.78959 15.2426,0 q 15.2427,0 20.6134,1.17644 5.4219,1.17645 8.7977,6.03568 3.4271,4.80808 3.4271,15.39608 0,9.66731 -2.4041,12.99204 -2.404,3.32474 -9.4627,3.98968 6.3938,1.58565 8.5932,4.24544 2.1994,2.65978 2.7109,4.91037 0.5627,2.19944 0.5627,12.2248 l 0,21.84095 -19.9996,0 0,-27.51857 q 0,-6.64948 -1.0741,-8.23512 -1.023,-1.58564 -5.4731,-1.58564 l 0,37.33933 -21.534,0 0,-82.81148 z m 21.534,14.16849 0,18.41392 q 3.6317,0 5.0639,-0.97185 1.4833,-1.023 1.4833,-6.49602 l 0,-4.55233 q 0,-3.93853 -1.4322,-5.16613 -1.381,-1.22759 -5.115,-1.22759 z"
           inkscape:connector-curvature="0" />
        <path
           id="path4509"
           style="font-style:normal;font-variant:normal;font-weight:normal;font-stretch:condensed;font-family:Impact;-inkscape-font-specification:'Impact Condensed';fill:#000000;fill-opacity:1"
           d="m -1141.5158,828.78959 35.9072,0 0,16.57253 -14.3731,0 0,15.70298 13.4524,0 0,15.75413 -13.4524,0 0,18.20932 15.8053,0 0,16.57252 -37.3394,0 0,-82.81148 z"
           inkscape:connector-curvature="0" />
      </g>
    </g>
  </g>
</svg>
