<?xml version="1.0" encoding="UTF-8" standalone="no"?>
<!-- Created with Inkscape (http://www.inkscape.org/) -->

<svg
   xmlns:dc="http://purl.org/dc/elements/1.1/"
   xmlns:cc="http://creativecommons.org/ns#"
   xmlns:rdf="http://www.w3.org/1999/02/22-rdf-syntax-ns#"
   xmlns:svg="http://www.w3.org/2000/svg"
   xmlns="http://www.w3.org/2000/svg"
   xmlns:sodipodi="http://sodipodi.sourceforge.net/DTD/sodipodi-0.dtd"
   xmlns:inkscape="http://www.inkscape.org/namespaces/inkscape"
   width="28in"
   height="22in"
   viewBox="0 0 2520 1980"
   id="svg2"
   version="1.1"
   inkscape:version="0.91 r13725"
   sodipodi:docname="hug.svg">
  <defs
     id="defs4" />
  <sodipodi:namedview
     id="base"
     pagecolor="#ffffff"
     bordercolor="#666666"
     borderopacity="1.0"
     inkscape:pageopacity="0.0"
     inkscape:pageshadow="2"
     inkscape:zoom="0.24748737"
     inkscape:cx="1204.6083"
     inkscape:cy="843.24881"
     inkscape:document-units="px"
     inkscape:current-layer="layer1"
     showgrid="false"
     units="in"
     inkscape:window-width="1436"
     inkscape:window-height="855"
     inkscape:window-x="0"
     inkscape:window-y="1"
     inkscape:window-maximized="1"
     showguides="true"
     inkscape:guide-bbox="true" />
  <metadata
     id="metadata7">
    <rdf:RDF>
      <cc:Work
         rdf:about="">
        <dc:format>image/svg+xml</dc:format>
        <dc:type
           rdf:resource="http://purl.org/dc/dcmitype/StillImage" />
        <dc:title></dc:title>
      </cc:Work>
    </rdf:RDF>
  </metadata>
  <g
     inkscape:label="Layer 1"
     inkscape:groupmode="layer"
     id="layer1"
     transform="translate(0,927.63785)">
    <g
       style="font-style:normal;font-weight:normal;font-size:722.13690186px;line-height:117.99999475%;font-family:sans-serif;text-align:start;letter-spacing:0px;word-spacing:0px;text-anchor:start;fill:#000000;fill-opacity:1;stroke:none;stroke-width:1px;stroke-linecap:butt;stroke-linejoin:miter;stroke-opacity:1"
       id="text4146">
      <path
         d="m 794.23863,-663.02435 q -2.16641,45.49463 -3.61068,85.9343 -0.72214,40.43966 -1.44428,80.15719 -0.72213,38.99539 -1.44427,79.43506 0,39.71753 0,85.21215 0,53.43814 0,116.26405 0.72214,62.82591 1.44427,143.70524 l -119.87472,0 q 1.44427,-43.32821 2.16641,-90.26711 0.72214,-47.66104 1.44427,-108.32054 l -106.87626,0 q 0,42.60608 0,91.71139 0.72214,48.38317 1.44427,106.87626 l -119.87472,0 q 0.72214,-31.77402 1.44427,-64.99232 0.72214,-33.2183 1.44428,-71.49155 0.72213,-38.27326 0.72213,-83.76789 0,-45.49462 0,-101.09916 0,-49.10531 0,-84.49002 0,-36.10684 -0.72213,-65.71446 0,-29.60761 0,-57.04881 0,-28.16334 0,-62.10378 l 122.04113,0 q -2.88854,59.93737 -4.33282,111.20909 -1.44427,50.54958 -2.16641,102.54344 l 106.87626,0 q 0,-33.2183 0,-59.93737 0,-27.4412 -0.72213,-51.99385 0,-25.27479 0,-49.10531 0,-24.55266 0,-52.716 l 122.04113,0 z"
         style="font-style:normal;font-variant:normal;font-weight:normal;font-stretch:normal;font-family:Ranchers;-inkscape-font-specification:Ranchers;text-align:center;text-anchor:middle"
         id="path4172" />
      <path
         d="m 1017.6272,-72.31636 0,-38.27326 q -17.3313,20.941974 -41.88396,33.940438 -24.55266,12.276327 -49.82745,12.276327 -15.88701,0 -31.05188,-5.054958 -14.44274,-4.332821 -26.71907,-12.276327 -12.27633,-7.943506 -21.66411,-18.77556 -8.66564,-11.55419 -12.99846,-24.55265 -2.88855,-10.10992 -5.05496,-28.88548 -1.44427,-19.4977 -1.44427,-41.1618 l 0,-309.0746 106.15412,0 0,216.64107 q 0,21.66411 10.10992,34.66257 10.10991,12.27633 27.4412,12.27633 8.66564,0 17.33129,-3.61068 9.38778,-3.61069 15.88703,-9.38778 7.2213,-5.7771 11.5542,-13.7206 4.3328,-7.94351 4.3328,-16.60915 l 0,-220.25176 106.1541,0 q -0.7221,23.83052 -1.4443,50.54959 -0.7221,25.99692 -1.4442,52.71599 -0.7222,25.99693 -1.4443,51.99386 0,25.99692 0,49.10531 0,13.7206 0,41.1618 0,27.4412 0,59.93736 0.7221,32.49616 0.7221,66.4366 0,33.940431 0,59.93736 l -104.7098,0 z"
         style="font-style:normal;font-variant:normal;font-weight:normal;font-stretch:normal;font-family:Ranchers;-inkscape-font-specification:Ranchers;text-align:center;text-anchor:middle"
         id="path4174" />
      <path
         d="m 1409.7362,-122.86594 q -27.4412,21.6641 -50.5496,31.051883 -22.3862,9.38778 -49.1053,9.38778 -36.1068,0 -65.7144,-14.442738 -29.6077,-15.164875 -51.2718,-41.161805 -20.9419,-26.71906 -33.2183,-63.54805 -11.5542,-36.82898 -11.5542,-80.87933 0,-47.66103 12.9985,-88.82284 13.7206,-41.88394 36.829,-72.93582 23.8305,-31.77403 54.8824,-49.82745 31.0519,-18.05342 66.4366,-18.05342 52.716,0 90.2671,44.05035 l 0,-36.10685 102.5434,0 0,232.52808 q 0,64.27019 -2.1664,109.04268 -1.4442,44.77248 -5.0549,70.769413 -10.8321,76.546512 -58.4931,116.986178 -46.9389,41.161804 -124.2076,41.161804 -32.4961,0 -62.1037,-7.221369 -28.8855,-7.221369 -53.4382,-20.94197 l 0,-88.822839 q 52.716,26.719065 105.432,26.719065 47.6611,0 72.2137,-20.219833 25.2748,-20.219834 25.2748,-57.770949 l 0,-20.94197 z m -123.4854,-210.14184 q 0,29.60761 15.887,47.66103 15.887,18.05343 41.8839,18.05343 13.7206,0 25.2748,-5.05496 12.2764,-5.7771 20.942,-15.16488 9.3878,-9.38778 14.4427,-21.6641 5.055,-12.99847 5.055,-27.44121 0,-13.7206 -5.055,-25.99693 -4.3328,-12.27632 -12.9984,-20.94197 -8.6657,-9.38777 -20.2199,-14.44273 -11.5541,-5.05496 -24.5526,-5.05496 -25.9969,0 -43.3282,19.49769 -17.3313,19.4977 -17.3313,50.54959 z"
         style="font-style:normal;font-variant:normal;font-weight:normal;font-stretch:normal;font-family:Ranchers;-inkscape-font-specification:Ranchers;text-align:center;text-anchor:middle"
         id="path4176" />
      <path
         d="m 2074.2488,-72.31636 -98.9328,0 0,-35.38471 q -25.9969,20.941971 -54.8824,32.496162 -28.8854,10.832053 -56.3266,10.832053 -32.4962,0 -59.9374,-15.887011 -27.4412,-15.887012 -47.661,-44.050354 -19.4977,-28.88547 -31.0519,-68.603 -11.5542,-39.71753 -11.5542,-86.65643 0,-49.10531 12.2763,-91.71139 12.2763,-42.60608 33.2183,-73.65796 21.6641,-31.77403 50.5496,-49.10531 29.6076,-18.05342 63.548,-18.05342 29.6076,0 56.3267,12.99846 26.7191,12.27633 45.4946,31.05189 l 0,-36.10685 102.5435,0 -3.6107,431.83787 z m -222.4182,-260.69142 q 0,29.60761 15.887,47.66103 16.6092,18.05343 41.884,18.05343 27.4412,0 46.2167,-19.4977 19.4977,-19.4977 19.4977,-49.82745 0,-13.7206 -5.0549,-25.99693 -4.3328,-12.27632 -12.9985,-20.94197 -8.6656,-9.38777 -20.2198,-14.44273 -11.5542,-5.05496 -24.5527,-5.05496 -25.9969,0 -43.3282,19.49769 -17.3313,19.4977 -17.3313,50.54959 z"
         style="font-style:normal;font-variant:normal;font-weight:normal;font-stretch:normal;font-family:Ranchers;-inkscape-font-specification:Ranchers;text-align:center;text-anchor:middle"
         id="path4178" />
      <path
         d="m 96.970319,335.69095 q 0,-46.21676 17.331281,-75.82437 18.05343,-30.32975 44.77249,-47.66104 27.44121,-18.05342 59.93737,-24.55265 33.21829,-7.22137 63.54804,-7.22137 8.66565,0 21.66411,0.72213 13.7206,0.72214 28.16334,2.16641 15.16487,1.44428 30.32975,4.33283 15.88701,2.16641 29.60761,6.49923 1.44428,18.77556 2.16641,35.38471 0.72214,15.88701 0.72214,36.82898 0,20.94197 -0.72214,40.43967 -0.72213,18.77555 -2.16641,36.10684 -5.77709,-0.72214 -15.16487,-2.16641 -8.66565,-1.44427 -18.77556,-2.16641 -9.38778,-0.72214 -19.4977,-1.44427 -9.38778,-0.72214 -18.05342,-0.72214 -34.66257,0 -50.54958,10.83205 -15.88702,10.83206 -15.88702,29.60761 0,10.83206 5.05496,20.94197 5.05496,9.38778 12.99847,18.05343 8.66564,8.66564 18.77556,16.60915 10.83205,7.9435 21.6641,15.16487 17.33129,12.27633 34.66257,27.4412 18.05343,14.44274 32.49616,35.38471 14.44274,20.21983 23.83052,47.66104 9.38778,26.71906 9.38778,62.10377 0,46.21676 -15.88701,77.99079 -15.88701,31.77402 -41.1618,51.99385 -24.55266,19.4977 -55.60454,28.88548 -30.32975,8.66564 -60.6595,8.66564 -13.72061,0 -33.94044,-2.16641 -19.49769,-1.44427 -39.71753,-5.05496 -20.21983,-2.88854 -38.27325,-7.22137 -18.05343,-5.05495 -28.88548,-11.55419 -2.888548,-12.99846 -5.054958,-26.71906 -1.444274,-13.7206 -1.444274,-30.32975 0,-11.55419 0.722137,-28.16334 1.444274,-16.60915 2.888547,-33.94044 1.444274,-17.33128 2.888548,-33.21829 2.16641,-15.88701 3.61068,-26.71907 7.94351,4.33282 23.10839,10.10992 15.16487,5.05496 32.49616,10.10991 18.05342,5.05496 36.10684,8.66565 18.05342,3.61068 31.77402,3.61068 23.10839,0 34.66258,-9.38778 11.55419,-10.10991 11.55419,-26.71906 0,-18.05343 -12.99847,-31.77403 -12.99846,-14.44273 -32.49616,-28.16334 -19.49769,-13.7206 -42.60608,-28.88547 Q 161.96264,474.34124 142.46494,453.39927 122.96725,432.4573 109.96878,404.29396 96.970319,375.40848 96.970319,335.69095 Z"
         style="font-style:normal;font-variant:normal;font-weight:normal;font-stretch:normal;font-family:Ranchers;-inkscape-font-specification:Ranchers;text-align:center;text-anchor:middle"
         id="path4180" />
      <path
         d="m 634.91718,340.02377 q 42.60608,0 77.26865,12.27633 0,12.27633 0,26.71907 0.72214,13.7206 0.72214,28.16333 0,15.16488 -0.72214,30.32975 0,15.16488 0,28.16334 -23.83051,-20.21983 -58.49309,-20.21983 -21.6641,0 -36.10684,7.22137 -14.44274,6.49923 -23.83052,17.33128 -8.66564,10.83206 -12.27633,23.83052 -3.61068,12.27633 -3.61068,23.83052 0,15.88701 5.77709,30.32975 5.7771,13.7206 15.88702,24.55266 10.10991,10.83205 23.10838,17.33128 13.7206,5.7771 28.88547,5.7771 14.44274,0 30.32975,-5.7771 15.88702,-5.77709 30.32975,-15.88701 0,23.83052 0,49.82745 0.72214,25.27479 0.72214,51.27172 0,25.27479 -0.72214,51.99385 0,25.99693 0,51.99386 -40.43966,8.66564 -80.15719,8.66564 -49.10531,0 -87.37857,-15.16487 -38.27325,-15.88702 -64.99232,-44.77249 -26.71906,-28.88548 -41.1618,-70.04728 -13.7206,-41.88394 -13.7206,-93.15566 0,-48.38317 12.99846,-89.54498 12.99846,-41.88394 38.99539,-71.49155 26.71907,-29.60761 65.71446,-46.21676 39.71753,-17.33129 92.43352,-17.33129 z"
         style="font-style:normal;font-variant:normal;font-weight:normal;font-stretch:normal;font-family:Ranchers;-inkscape-font-specification:Ranchers;text-align:center;text-anchor:middle"
         id="path4182" />
      <path
         d="m 746.62275,359.52147 106.15412,0 0,420.28368 -106.15412,0 0,-420.28368 z m 55.60454,-179.08995 q 17.33129,0 31.05189,7.22137 14.44274,6.49923 23.83052,17.33128 9.38778,10.83206 14.44273,24.55266 5.05496,12.99846 5.05496,25.27479 0,16.60915 -6.49923,31.05188 -5.7771,13.72061 -16.60915,24.55266 -10.10992,10.10992 -23.83052,16.60915 -12.99846,5.77709 -28.16334,5.77709 -18.77556,0 -33.21829,-5.77709 -14.44274,-6.49923 -24.55266,-15.88701 -9.38778,-10.10992 -14.44274,-23.10838 -4.33282,-12.99847 -4.33282,-26.71907 0,-13.7206 5.05496,-28.16334 5.7771,-14.44274 15.16488,-25.99693 10.10991,-12.27632 24.55265,-19.49769 14.44274,-7.22137 32.49616,-7.22137 z"
         style="font-style:normal;font-variant:normal;font-weight:normal;font-stretch:normal;font-family:Ranchers;-inkscape-font-specification:Ranchers;text-align:center;text-anchor:middle;fill:none"
         id="path4184" />
      <path
         d="m 1039.2123,552.33202 q 9.3878,31.05189 31.0519,50.54958 21.6641,19.4977 59.9373,19.4977 11.5542,0 24.5527,-1.44427 13.7206,-2.16641 26.7191,-5.05496 12.9984,-3.61069 24.5526,-7.22137 11.5542,-4.33282 20.2199,-7.94351 1.4442,20.94197 1.4442,44.77249 0.7222,23.10838 0.7222,46.21676 0,38.27326 -2.1664,68.60301 -56.3267,27.4412 -126.374,27.4412 -32.4962,0 -65.7145,-7.22137 -33.2183,-7.22137 -64.27014,-27.4412 -27.44121,-18.05342 -45.49463,-41.88394 -17.33128,-24.55265 -27.4412,-49.82745 -10.10992,-25.99692 -13.7206,-50.54958 -3.61069,-24.55265 -3.61069,-44.05035 0,-28.88548 6.49923,-59.93736 7.22137,-31.77403 21.66411,-59.93737 14.44274,-28.88547 36.82898,-52.71599 22.38625,-23.83052 52.716,-37.55112 36.82894,-16.60915 77.99074,-16.60915 43.3283,0 77.9908,17.33129 34.6626,17.33128 56.3267,47.66103 20.942,28.88548 25.9969,64.27019 5.7771,35.38471 5.7771,83.04574 l -202.1983,0 z m 41.1618,-134.31746 q -15.1649,0 -28.8855,12.99846 -13.7206,12.27633 -18.0534,44.05035 l 94.5999,0 q -2.8885,-28.88547 -17.3312,-42.60607 -13.7206,-14.44274 -30.3298,-14.44274 z"
         style="font-style:normal;font-variant:normal;font-weight:normal;font-stretch:normal;font-family:Ranchers;-inkscape-font-specification:Ranchers;text-align:center;text-anchor:middle"
         id="path4186" />
      <path
         d="m 1373.8777,347.96728 0,38.99539 q 17.3313,-21.66411 41.8839,-33.94043 25.2748,-12.99847 51.2717,-12.99847 31.7741,0 56.3267,17.33129 24.5527,17.33128 32.4962,41.1618 3.6107,10.83206 5.7771,30.32975 2.8885,18.77556 2.8885,42.60608 l 0,308.35246 -106.1541,0 0,-209.41971 q 0,-32.49616 -12.2763,-43.32821 -11.5542,-11.55419 -27.4412,-11.55419 -20.942,0 -33.2183,13.7206 -11.5542,12.99847 -11.5542,33.94044 l 0,216.64107 -104.7099,0 q 0,-23.83052 0,-49.82745 0.7222,-26.71907 0.7222,-52.71599 0,-26.71907 0,-52.716 0,-25.99693 0,-49.10531 0,-13.7206 0,-41.1618 0,-27.4412 -0.7222,-59.93736 0,-32.49616 0,-66.4366 0,-33.94043 0,-59.93736 l 104.7099,0 z"
         style="font-style:normal;font-variant:normal;font-weight:normal;font-stretch:normal;font-family:Ranchers;-inkscape-font-specification:Ranchers;text-align:center;text-anchor:middle"
         id="path4188" />
      <path
         d="m 1635.3137,264.1994 98.9328,0 0,83.76788 55.6045,0 0,192.08841 -57.0488,0 0,101.09917 q 0,29.60761 5.055,39.71753 5.0549,9.38778 23.1084,9.38778 5.0549,0 13.7206,-0.72214 8.6656,-0.72213 12.9984,-2.16641 1.4443,5.05496 1.4443,20.94197 0,15.16488 0,31.05189 0,13.7206 0,25.27479 0,10.83205 -0.7221,15.16488 -8.6657,1.44427 -19.4977,2.16641 -10.11,1.44427 -20.2199,2.16641 -9.3878,0.72213 -18.0534,0.72213 -7.9435,0.72214 -12.9985,0.72214 -25.9969,0 -42.606,-10.10992 -16.6092,-10.10991 -25.997,-26.71906 -9.3877,-17.33129 -12.9984,-38.27326 -3.6107,-21.6641 -3.6107,-44.05035 0,-8.66564 0,-25.27479 0.7221,-17.33128 0.7221,-36.10684 0.7222,-18.77556 1.4443,-36.10685 0.7221,-18.05342 0.7221,-28.88548 l -43.3282,0 0,-192.08841 43.3282,0 0,-83.76788 z"
         style="font-style:normal;font-variant:normal;font-weight:normal;font-stretch:normal;font-family:Ranchers;-inkscape-font-specification:Ranchers;text-align:center;text-anchor:middle"
         id="path4190" />
      <path
         d="m 1818.5447,359.52147 106.1542,0 0,420.28368 -106.1542,0 0,-420.28368 z m 55.6046,-179.08995 q 17.3313,0 31.0519,7.22137 14.4427,6.49923 23.8305,17.33128 9.3878,10.83206 14.4427,24.55266 5.055,12.99846 5.055,25.27479 0,16.60915 -6.4992,31.05188 -5.7771,13.72061 -16.6092,24.55266 -10.1099,10.10992 -23.8305,16.60915 -12.9985,5.77709 -28.1633,5.77709 -18.7756,0 -33.2183,-5.77709 -14.4428,-6.49923 -24.5527,-15.88701 -9.3878,-10.10992 -14.4427,-23.10838 -4.3329,-12.99847 -4.3329,-26.71907 0,-13.7206 5.055,-28.16334 5.7771,-14.44274 15.1649,-25.99693 10.1099,-12.27632 24.5526,-19.49769 14.4428,-7.22137 32.4962,-7.22137 z"
         style="font-style:normal;font-variant:normal;font-weight:normal;font-stretch:normal;font-family:Ranchers;-inkscape-font-specification:Ranchers;text-align:center;text-anchor:middle"
         id="path4192" />
      <path
         d="m 2004.258,374.68634 q 24.5526,-19.49769 52.716,-26.71906 28.1633,-7.94351 57.0488,-7.94351 20.942,0 41.1618,3.61069 20.942,3.61068 39.7175,9.38778 1.4443,44.05035 1.4443,72.21369 0.7221,27.4412 0.7221,42.60607 0,21.66411 -0.7221,31.05189 -0.7221,8.66564 -1.4443,16.60915 -1.4443,0 -7.2214,-1.44427 -5.777,-1.44428 -13.7206,-2.88855 -7.9435,-1.44428 -17.3312,-2.16641 -8.6657,-1.44428 -17.3313,-1.44428 -12.9985,0 -22.3863,3.61069 -8.6656,2.88855 -8.6656,12.27633 0,7.9435 5.7771,15.16487 5.7771,6.49923 13.7206,13.7206 8.6656,6.49923 18.0534,12.99847 10.1099,5.77709 18.7756,10.83205 19.4977,12.99846 36.1068,35.38471 17.3313,21.6641 17.3313,57.77095 0,31.77402 -14.4427,54.16027 -13.7206,22.38624 -35.3848,36.82898 -21.6641,14.44274 -49.1053,20.94197 -26.719,6.49923 -52.716,6.49923 -10.1099,0 -23.1083,-0.72214 -12.9985,-0.72213 -26.7191,-2.88854 -12.9985,-2.16641 -25.9969,-5.05496 -12.9985,-3.61069 -23.8305,-8.66564 -3.6107,-12.27633 -5.055,-25.99693 -1.4443,-14.44274 -1.4443,-28.16334 0,-6.49923 0,-15.88701 0.7222,-9.38778 1.4443,-18.77556 0.7221,-10.10992 2.1664,-19.4977 1.4443,-9.38778 2.8886,-15.88701 7.9435,3.61068 18.0534,7.9435 10.832,3.61069 22.3862,7.22137 11.5542,3.61069 22.3863,6.49924 11.5542,2.16641 21.6641,2.16641 14.4427,0 22.3862,-5.7771 7.9435,-5.77709 7.9435,-15.88701 0,-8.66564 -5.0549,-15.16488 -5.055,-7.22136 -12.2764,-12.99846 -7.2213,-6.49923 -15.887,-10.83205 -8.6656,-5.05496 -15.887,-8.66565 -13.7206,-7.22136 -28.1633,-15.88701 -14.4428,-8.66564 -25.997,-20.94197 -11.5541,-12.99846 -18.7755,-31.05188 -7.2214,-18.05343 -7.2214,-44.05036 0,-30.32975 11.5542,-60.6595 12.2763,-30.32975 40.4397,-53.43813 z"
         style="font-style:normal;font-variant:normal;font-weight:normal;font-stretch:normal;font-family:Ranchers;-inkscape-font-specification:Ranchers;text-align:center;text-anchor:middle"
         id="path4194" />
      <path
         d="m 2272.8252,264.1994 98.9328,0 0,83.76788 55.6045,0 0,192.08841 -57.0488,0 0,101.09917 q 0,29.60761 5.0549,39.71753 5.055,9.38778 23.1084,9.38778 5.055,0 13.7206,-0.72214 8.6657,-0.72213 12.9985,-2.16641 1.4443,5.05496 1.4443,20.94197 0,15.16488 0,31.05189 0,13.7206 0,25.27479 0,10.83205 -0.7222,15.16488 -8.6656,1.44427 -19.4977,2.16641 -10.1099,1.44427 -20.2198,2.16641 -9.3878,0.72213 -18.0534,0.72213 -7.9435,0.72214 -12.9985,0.72214 -25.9969,0 -42.6061,-10.10992 -16.6091,-10.10991 -25.9969,-26.71906 -9.3878,-17.33129 -12.9985,-38.27326 -3.6106,-21.6641 -3.6106,-44.05035 0,-8.66564 0,-25.27479 0.7221,-17.33128 0.7221,-36.10684 0.7221,-18.77556 1.4443,-36.10685 0.7221,-18.05342 0.7221,-28.88548 l -43.3282,0 0,-192.08841 43.3282,0 0,-83.76788 z"
         style="font-style:normal;font-variant:normal;font-weight:normal;font-stretch:normal;font-family:Ranchers;-inkscape-font-specification:Ranchers;text-align:center;text-anchor:middle"
         id="path4196" />
    </g>
    <g
       transform="matrix(1.1188462,0,0,1.3247547,1305.9533,507.77058)"
       inkscape:label="Layer 1"
       id="layer1-3">
      <g
         id="g4145">
        <path
           transform="translate(-93.579,54.668)"
           inkscape:connector-curvature="0"
           sodipodi:nodetypes="ccsssccc"
           d="m -282.04,-184.54 -12.122,20.812 0,259.19 c 0,33.24 -26.76,60 -60,60 -33.24,0 -60,-26.76 -60,-60 l 0,-259.19 -12.122,-20.812 z"
           style="fill:#6f917c"
           id="rect4130" />
        <path
           d="m -401.19,-11.631 0,159.1 c 0,25.791 -20.763,46.554 -46.554,46.554 -25.791,0 -46.554,-20.763 -46.554,-46.554 l 0,-159.1 z"
           inkscape:connector-curvature="0"
           style="fill:#decd87"
           sodipodi:nodetypes="cssscc"
           id="path4133" />
        <circle
           transform="translate(-186.51,6.1811)"
           style="fill:#decd87"
           id="path4135"
           cx="-239.40616"
           cy="-37.463547"
           r="11.111678" />
        <circle
           transform="translate(-226.92,46.587)"
           style="fill:#6f917c"
           id="path4137"
           cx="-239.40616"
           cy="-37.463547"
           r="11.111678" />
        <circle
           transform="matrix(1.3499,0,0,1.3499,-117.03,88.133)"
           style="fill:#6f917c"
           id="path4139"
           cx="-239.40616"
           cy="-37.463547"
           r="11.111678" />
        <circle
           transform="translate(-184.49,-115.04)"
           style="fill:#decd87"
           id="path4141"
           cx="-239.40616"
           cy="-37.463547"
           r="11.111678" />
        <circle
           transform="matrix(1.5749,0,0,1.5749,-82.891,-118.07)"
           style="fill:#decd87"
           id="path4143"
           cx="-239.40616"
           cy="-37.463547"
           r="11.111678" />
      </g>
    </g>
  </g>
</svg>
