<?xml version="1.0" encoding="UTF-8" standalone="no"?>
<!-- Created with Inkscape (http://www.inkscape.org/) -->

<svg
   xmlns:dc="http://purl.org/dc/elements/1.1/"
   xmlns:cc="http://creativecommons.org/ns#"
   xmlns:rdf="http://www.w3.org/1999/02/22-rdf-syntax-ns#"
   xmlns:svg="http://www.w3.org/2000/svg"
   xmlns="http://www.w3.org/2000/svg"
   xmlns:sodipodi="http://sodipodi.sourceforge.net/DTD/sodipodi-0.dtd"
   xmlns:inkscape="http://www.inkscape.org/namespaces/inkscape"
   width="28in"
   height="22in"
   viewBox="0 0 2520 1980"
   id="svg2"
   version="1.1"
   inkscape:version="0.91 r13725"
   sodipodi:docname="pc-sa.svg">
  <defs
     id="defs4" />
  <sodipodi:namedview
     id="base"
     pagecolor="#ffffff"
     bordercolor="#666666"
     borderopacity="1.0"
     inkscape:pageopacity="0.0"
     inkscape:pageshadow="2"
     inkscape:zoom="0.175"
     inkscape:cx="948.27453"
     inkscape:cy="634.28571"
     inkscape:document-units="px"
     inkscape:current-layer="g4238"
     showgrid="false"
     inkscape:window-width="1436"
     inkscape:window-height="855"
     inkscape:window-x="0"
     inkscape:window-y="1"
     inkscape:window-maximized="1"
     units="in" />
  <metadata
     id="metadata7">
    <rdf:RDF>
      <cc:Work
         rdf:about="">
        <dc:format>image/svg+xml</dc:format>
        <dc:type
           rdf:resource="http://purl.org/dc/dcmitype/StillImage" />
        <dc:title />
      </cc:Work>
    </rdf:RDF>
  </metadata>
  <g
     inkscape:label="Layer 1"
     inkscape:groupmode="layer"
     id="layer1"
     transform="translate(0,927.63785)">
    <g
       id="g4208"
       transform="matrix(1.2244498,0,0,1.2244498,-282.80676,-55.679224)">
      <g
         id="g4238"
         transform="matrix(1.2737446,0,0,1.2737446,-344.91819,-134.42626)">
        <g
           style="font-style:normal;font-weight:normal;font-size:129.70724487px;line-height:117.99999475%;font-family:sans-serif;text-align:start;letter-spacing:0px;word-spacing:0px;text-anchor:start;fill:#000000;fill-opacity:1;stroke:none;stroke-width:1px;stroke-linecap:butt;stroke-linejoin:miter;stroke-opacity:1"
           id="text4148">
          <path
             d="m 1173.7328,218.25261 q 0.908,-3.37239 1.8159,-3.37239 1.0377,0 2.3347,2.59415 1.4268,2.59414 2.4645,3.11297 1.0376,0.38912 4.0209,0.38912 l 50.1967,0 q 2.3347,0 3.6318,0 1.4268,-0.1297 2.205,-0.51882 0.908,-0.38913 1.4268,-1.03766 0.6485,-0.77825 1.2971,-2.20503 0.9079,-2.46443 2.205,-2.46443 1.6862,0 1.6862,2.59414 l -0.2594,20.88287 q 0,1.03766 -0.3891,1.68619 -0.2595,0.51883 -0.908,0.38912 -0.5188,-0.25941 -1.1674,-1.29707 -0.6485,-1.16736 -1.1673,-3.76151 -0.6486,-2.72385 -1.4268,-4.53975 -0.6485,-1.94561 -1.9456,-3.11298 -1.2971,-1.16736 -3.5021,-1.68619 -2.0753,-0.64854 -5.318,-0.64854 l -15.8243,0 0,66.28041 q 0,3.50209 0.7783,4.66946 0.9079,1.16736 3.6318,1.8159 l 10.1171,2.20502 0,2.20502 q -6.8745,-0.38912 -22.569,-0.38912 -7.6528,0 -12.4519,0.12971 -4.6695,0 -6.226,0.25941 l 0,-2.20502 9.0795,-1.8159 q 3.7615,-0.77824 4.9289,-2.20502 1.1674,-1.55649 1.1674,-4.79917 l 0,-66.1507 -15.5649,0 q -2.3347,-0.1297 -4.0209,0.25942 -1.5565,0.38912 -3.113,1.68619 -1.5565,1.29708 -3.3724,3.63181 -1.8159,2.20502 -4.41,5.83682 -1.6862,2.46444 -2.5942,3.11298 -0.9079,0.64853 -1.297,0.1297 -0.2595,-0.64853 -0.1298,-2.07531 0.2595,-1.55649 0.6486,-3.37239 l 4.0209,-16.21341 z"
             style="font-style:normal;font-variant:normal;font-weight:normal;font-stretch:normal;font-family:'Songti TC';-inkscape-font-specification:'Songti TC'"
             id="path9311" />
          <path
             d="m 1251.3221,302.56232 0,-2.07531 6.2259,-1.16737 q 2.5942,-0.64854 3.2427,-1.94561 0.7782,-1.29707 0.7782,-4.66946 l 0,-24.90379 q 0,-2.59414 -1.1673,-3.76151 -1.0377,-1.16736 -4.7992,-1.94561 l -3.3724,-0.77824 0.2594,-1.94561 q 5.0586,-1.68619 8.6904,-4.15063 3.6318,-2.59415 6.3557,-7.91214 l 2.3347,0 q 0.2594,3.50209 0.3891,7.52302 0.1297,4.02092 0.1297,8.56067 1.2971,-2.33473 2.8536,-4.41004 1.6862,-2.20503 4.0209,-4.41005 4.4101,-4.28034 7.9121,-4.28034 3.2427,0 5.0586,1.8159 1.8159,1.81591 1.8159,4.66946 0,2.59415 -1.5565,4.15064 -1.4267,1.42678 -3.6318,1.42678 -2.205,0 -4.5397,-1.29708 -2.3347,-1.29707 -4.0209,-1.29707 -1.2971,0 -2.7239,1.29707 -1.2971,1.29708 -2.4644,3.11298 -1.1674,1.8159 -1.9456,3.89121 -0.7783,1.94561 -0.7783,3.24269 l 0,21.66111 q 0,3.37238 1.0377,4.53975 1.1673,1.03766 4.7991,1.55649 l 9.339,1.42678 0,2.07531 q -3.3724,-0.25941 -7.6528,-0.38912 -4.1506,-0.12971 -8.9498,-0.12971 l -1.8159,0 q -4.5397,0 -8.5606,0.12971 -3.8913,0.12971 -7.2636,0.38912 z"
             style="font-style:normal;font-variant:normal;font-weight:normal;font-stretch:normal;font-family:'Songti TC';-inkscape-font-specification:'Songti TC'"
             id="path9313" />
          <path
             d="m 1320.8877,315.53305 q -2.3347,6.09624 -5.7071,9.0795 -3.3724,2.98327 -7.1339,2.98327 -2.205,0 -3.5021,-1.42678 -1.2971,-1.42678 -1.5565,-2.98327 -0.1297,-1.42678 0.6485,-2.59414 0.908,-1.16737 2.8536,-1.29707 1.4268,-0.51883 2.7238,-0.38913 1.2971,0.12971 2.4645,0.25942 1.1674,0.25941 2.0753,0.25941 0.908,0.12971 1.5565,-0.38912 0.3891,-0.25941 0.7782,-0.51883 0.5189,-0.25941 0.908,-1.03765 0.5188,-0.64854 1.0376,-1.94561 0.5189,-1.16737 1.2971,-3.37239 1.4268,-4.28034 1.4268,-5.96654 -0.2594,-2.33473 -1.5565,-5.57741 l -15.954,-41.37661 q -1.0376,-2.98326 -3.3724,-3.6318 l -4.5397,-1.42678 0,-2.20502 q 8.1715,0.64853 14.3975,0.64853 6.3556,0 11.8033,-0.64853 l 0,2.20502 q -1.4267,0.25941 -3.2426,0.51883 -1.6862,0.12971 -3.113,0.51883 -1.4268,0.38912 -2.205,1.29707 -0.6486,0.90795 -0.1297,2.46444 l 12.9707,36.05861 11.8033,-32.42681 q 0.6486,-1.8159 0.5189,-3.89122 0,-2.20502 -2.2051,-2.85356 l -7.2636,-1.8159 0,-2.07531 q 5.8369,0.64853 10.7657,0.64853 5.0586,0 11.544,-0.64853 l 0,2.07531 -4.1507,1.16737 q -1.0376,0.25941 -1.8159,0.77824 -0.6485,0.38912 -1.4267,1.42678 -0.6486,0.90795 -1.4268,2.46444 -0.6485,1.55649 -1.5565,4.02092 l -19.7155,51.62349 z"
             style="font-style:normal;font-variant:normal;font-weight:normal;font-stretch:normal;font-family:'Songti TC';-inkscape-font-specification:'Songti TC'"
             id="path9315" />
        </g>
        <g
           style="font-style:normal;font-weight:normal;font-size:180px;line-height:117.99999475%;font-family:sans-serif;text-align:center;letter-spacing:0px;word-spacing:0px;text-anchor:middle;fill:#000000;fill-opacity:1;stroke:none;stroke-width:1px;stroke-linecap:butt;stroke-linejoin:miter;stroke-opacity:1"
           id="text4154">
          <path
             d="m 813.48156,383.6175 q 0,-11.52 4.32,-18.9 4.5,-7.56 11.16,-11.88 6.84,-4.5 14.94,-6.12 8.28,-1.8 15.84,-1.8 2.16,0 5.4,0.18 3.42,0.18 7.02,0.54 3.78,0.36 7.56,1.08 3.96,0.54 7.38,1.62 0.36,4.68 0.54,8.82 0.18,3.96 0.18,9.18 0,5.22 -0.18,10.08 -0.18,4.68 -0.54,9 -1.44,-0.18 -3.78,-0.54 -2.16,-0.36 -4.68,-0.54 -2.34,-0.18 -4.86,-0.36 -2.34,-0.18 -4.5,-0.18 -8.64,0 -12.6,2.7 -3.96,2.7 -3.96,7.38 0,2.7 1.26,5.22 1.26,2.34 3.24,4.5 2.16,2.16 4.68,4.14 2.7,1.98 5.4,3.78 4.32,3.06 8.64,6.84 4.5,3.6 8.1,8.82 3.6,5.04 5.94,11.88 2.34,6.66 2.34,15.48 0,11.52 -3.96,19.44 -3.96,7.92 -10.26,12.96 -6.12,4.86 -13.86,7.2 -7.56,2.16 -15.12,2.16 -3.42,0 -8.46,-0.54 -4.86,-0.36 -9.9,-1.26 -5.04,-0.72 -9.54,-1.8 -4.5,-1.26 -7.2,-2.88 -0.72,-3.24 -1.26,-6.66 -0.36,-3.42 -0.36,-7.56 0,-2.88 0.18,-7.02 0.36,-4.14 0.72,-8.46 0.36,-4.32 0.72,-8.28 0.54,-3.96 0.9,-6.66 1.98,1.08 5.76,2.52 3.78,1.26 8.1,2.52 4.5,1.26 9,2.16 4.5,0.9 7.92,0.9 5.76,0 8.64,-2.34 2.88,-2.52 2.88,-6.66 0,-4.5 -3.24,-7.92 -3.24,-3.6 -8.1,-7.02 -4.86,-3.42 -10.62,-7.2 -5.58,-3.96 -10.44,-9.18 -4.86,-5.22 -8.1,-12.24 -3.24,-7.2 -3.24,-17.1 z"
             style="font-style:normal;font-variant:normal;font-weight:normal;font-stretch:normal;font-family:Ranchers;-inkscape-font-specification:Ranchers;text-align:center;letter-spacing:12.82350254px;text-anchor:middle"
             id="path9272" />
          <path
             d="m 974.81912,344.9175 q 6.48,0 11.16,0.9 4.86,0.72 9,2.16 0,3.06 0,6.48 0.18,3.42 0.18,7.38 0,3.96 -0.18,8.46 0,4.32 0,8.1 -6.84,-4.32 -16.38,-4.32 -9,0 -15.12,3.42 -5.94,3.24 -9.72,8.46 -3.6,5.22 -5.22,11.52 -1.44,6.12 -1.44,11.7 0,7.56 2.34,14.22 2.34,6.66 6.48,11.7 4.32,4.86 9.9,7.74 5.76,2.88 12.42,2.88 3.06,0 7.74,-0.9 4.86,-0.9 9,-3.42 0,6.3 0,13.14 0.18,6.84 0.18,13.32 0,6.84 -0.18,13.32 0,6.48 0,12.96 -10.08,2.16 -20.52,2.16 -15.84,0 -28.44,-5.22 -12.42,-5.22 -21.24,-14.94 -8.64,-9.9 -13.32,-23.76 -4.5,-14.04 -4.5,-31.32 0,-16.56 4.32,-30.42 4.32,-14.04 12.78,-24.12 8.64,-10.26 21.24,-15.84 12.78,-5.76 29.52,-5.76 z"
             style="font-style:normal;font-variant:normal;font-weight:normal;font-stretch:normal;font-family:Ranchers;-inkscape-font-specification:Ranchers;text-align:center;letter-spacing:12.82350254px;text-anchor:middle"
             id="path9274" />
          <path
             d="m 1028.6151,443.3775 0,-29.16 q 0,-11.52 -0.18,-19.62 0,-8.1 0,-14.94 l -13.32,0 q -0.18,-4.14 -0.36,-8.1 -0.18,-3.96 -0.18,-8.1 0,-4.14 0.18,-8.28 0.18,-4.14 0.36,-8.1 l 55.44,0 q 0.18,4.14 0.18,8.28 0,3.96 0,8.1 0,4.14 0,8.1 0,3.96 -0.18,8.1 l -13.14,0 q -0.36,12.06 -0.54,23.76 0,11.7 0,26.1 l 0,13.86 13.68,0 q 0.18,6.48 0.18,12.78 0,6.3 0,12.78 0,6.3 0,12.78 0,6.3 -0.18,12.6 l -55.44,0 q -0.18,-6.3 -0.36,-12.6 -0.18,-6.48 -0.18,-12.78 0,-6.48 0.18,-12.78 0.18,-6.3 0.36,-12.78 l 13.5,0 z"
             style="font-style:normal;font-variant:normal;font-weight:normal;font-stretch:normal;font-family:Ranchers;-inkscape-font-specification:Ranchers;text-align:center;letter-spacing:12.82350254px;text-anchor:middle"
             id="path9276" />
          <path
             d="m 1159.243,494.8575 q -5.04,-0.18 -13.32,-0.36 -8.28,0 -17.82,-0.18 -9.36,0 -18.9,0 -9.36,0 -16.56,0 0.18,-3.78 0.18,-10.08 0.18,-6.3 0.18,-14.4 0,-8.1 0,-17.46 0,-9.54 0,-19.62 0,-13.68 -0.18,-27.36 0,-13.68 0,-25.38 0,-11.88 -0.18,-20.52 0,-8.64 0,-12.24 7.02,0 15.48,0 8.46,0 17.28,0 8.82,-0.18 17.28,-0.36 8.46,-0.18 15.84,-0.36 0,2.34 0,4.14 0.18,1.62 0.18,4.68 0,2.16 -0.18,5.22 0,2.88 -0.18,6.12 0,3.06 -0.18,6.3 0,3.06 -0.18,5.76 l -36.18,0 0,20.88 31.5,0 0,26.82 -31.5,0 0,20.16 36.72,0 q 0.18,4.14 0.36,8.46 0.18,4.32 0.18,9.72 0.18,5.4 0.18,12.78 0,7.2 0,17.28 z"
             style="font-style:normal;font-variant:normal;font-weight:normal;font-stretch:normal;font-family:Ranchers;-inkscape-font-specification:Ranchers;text-align:center;letter-spacing:12.82350254px;text-anchor:middle"
             id="path9278" />
          <path
             d="m 1251.9893,347.0775 25.74,0 q -0.54,36.72 -0.54,73.62 0,36.9 0.54,73.62 l -34.74,0 -38.16,-88.02 0,88.02 -24.66,0 q 0.36,-18.54 0.54,-36.72 0.18,-18.36 0.18,-36.9 0,-18.54 -0.18,-36.72 -0.18,-18.36 -0.54,-36.9 l 36.36,0 35.46,87.84 0,-87.84 z"
             style="font-style:normal;font-variant:normal;font-weight:normal;font-stretch:normal;font-family:Ranchers;-inkscape-font-specification:Ranchers;text-align:center;letter-spacing:12.82350254px;text-anchor:middle"
             id="path9280" />
          <path
             d="m 1368.7994,380.3775 -20.7,0 q -0.36,16.02 -0.54,32.58 -0.18,16.38 -0.18,35.46 0,12.24 0,19.8 0,7.38 0,12.24 0,4.68 0,7.74 0.18,2.88 0.18,6.12 l -30.24,0 q 0.18,-7.92 0.36,-16.38 0.18,-8.64 0.18,-18.54 0.18,-10.08 0.18,-21.6 0.18,-11.7 0.18,-25.74 0,-10.26 0,-17.82 0,-7.56 -0.18,-13.86 l -20.7,0 0,-33.3 71.46,0 0,33.3 z"
             style="font-style:normal;font-variant:normal;font-weight:normal;font-stretch:normal;font-family:Ranchers;-inkscape-font-specification:Ranchers;text-align:center;letter-spacing:12.82350254px;text-anchor:middle"
             id="path9282" />
          <path
             d="m 1401.5888,443.3775 0,-29.16 q 0,-11.52 -0.18,-19.62 0,-8.1 0,-14.94 l -13.32,0 q -0.18,-4.14 -0.36,-8.1 -0.18,-3.96 -0.18,-8.1 0,-4.14 0.18,-8.28 0.18,-4.14 0.36,-8.1 l 55.44,0 q 0.18,4.14 0.18,8.28 0,3.96 0,8.1 0,4.14 0,8.1 0,3.96 -0.18,8.1 l -13.14,0 q -0.36,12.06 -0.54,23.76 0,11.7 0,26.1 l 0,13.86 13.68,0 q 0.18,6.48 0.18,12.78 0,6.3 0,12.78 0,6.3 0,12.78 0,6.3 -0.18,12.6 l -55.44,0 q -0.18,-6.3 -0.36,-12.6 -0.18,-6.48 -0.18,-12.78 0,-6.48 0.18,-12.78 0.18,-6.3 0.36,-12.78 l 13.5,0 z"
             style="font-style:normal;font-variant:normal;font-weight:normal;font-stretch:normal;font-family:Ranchers;-inkscape-font-specification:Ranchers;text-align:center;letter-spacing:12.82350254px;text-anchor:middle"
             id="path9284" />
          <path
             d="m 1465.6167,494.3175 q 0.18,-2.88 0.18,-9.72 0.18,-7.02 0.18,-16.38 0,-9.54 0,-20.88 0,-11.34 0,-23.22 0,-11.88 0,-23.58 0,-11.88 0,-22.14 0,-10.26 -0.18,-18.36 0,-8.1 -0.18,-12.78 7.02,0 15.48,0 8.46,-0.18 17.28,-0.18 8.82,-0.18 17.28,-0.36 8.46,-0.18 15.84,-0.36 0.18,2.7 0.18,5.22 0,2.52 0,5.04 0,5.22 -0.18,10.8 -0.18,5.58 -0.54,11.16 l -36.18,0 0,27 30.06,0 0,30.6 -30.06,0 q 0,9 0,17.82 0.18,8.82 0.18,16.56 0.18,7.74 0.36,14.04 0.18,6.12 0.36,9.72 l -30.06,0 z"
             style="font-style:normal;font-variant:normal;font-weight:normal;font-stretch:normal;font-family:Ranchers;-inkscape-font-specification:Ranchers;text-align:center;letter-spacing:12.82350254px;text-anchor:middle"
             id="path9286" />
          <path
             d="m 1563.9936,443.3775 0,-29.16 q 0,-11.52 -0.18,-19.62 0,-8.1 0,-14.94 l -13.32,0 q -0.18,-4.14 -0.36,-8.1 -0.18,-3.96 -0.18,-8.1 0,-4.14 0.18,-8.28 0.18,-4.14 0.36,-8.1 l 55.44,0 q 0.18,4.14 0.18,8.28 0,3.96 0,8.1 0,4.14 0,8.1 0,3.96 -0.18,8.1 l -13.14,0 q -0.36,12.06 -0.54,23.76 0,11.7 0,26.1 l 0,13.86 13.68,0 q 0.18,6.48 0.18,12.78 0,6.3 0,12.78 0,6.3 0,12.78 0,6.3 -0.18,12.6 l -55.44,0 q -0.18,-6.3 -0.36,-12.6 -0.18,-6.48 -0.18,-12.78 0,-6.48 0.18,-12.78 0.18,-6.3 0.36,-12.78 l 13.5,0 z"
             style="font-style:normal;font-variant:normal;font-weight:normal;font-stretch:normal;font-family:Ranchers;-inkscape-font-specification:Ranchers;text-align:center;letter-spacing:12.82350254px;text-anchor:middle"
             id="path9288" />
          <path
             d="m 1690.5321,344.9175 q 6.48,0 11.16,0.9 4.86,0.72 9,2.16 0,3.06 0,6.48 0.18,3.42 0.18,7.38 0,3.96 -0.18,8.46 0,4.32 0,8.1 -6.84,-4.32 -16.38,-4.32 -9,0 -15.12,3.42 -5.94,3.24 -9.72,8.46 -3.6,5.22 -5.22,11.52 -1.44,6.12 -1.44,11.7 0,7.56 2.34,14.22 2.34,6.66 6.48,11.7 4.32,4.86 9.9,7.74 5.76,2.88 12.42,2.88 3.06,0 7.74,-0.9 4.86,-0.9 9,-3.42 0,6.3 0,13.14 0.18,6.84 0.18,13.32 0,6.84 -0.18,13.32 0,6.48 0,12.96 -10.08,2.16 -20.52,2.16 -15.84,0 -28.44,-5.22 -12.42,-5.22 -21.24,-14.94 -8.64,-9.9 -13.32,-23.76 -4.5,-14.04 -4.5,-31.32 0,-16.56 4.32,-30.42 4.32,-14.04 12.78,-24.12 8.64,-10.26 21.24,-15.84 12.78,-5.76 29.52,-5.76 z"
             style="font-style:normal;font-variant:normal;font-weight:normal;font-stretch:normal;font-family:Ranchers;-inkscape-font-specification:Ranchers;text-align:center;letter-spacing:12.82350254px;text-anchor:middle"
             id="path9290" />
          <path
             d="m 803.1055,706.7175 26.64,-147.24 44.46,0 26.46,147.24 -30.42,0 -4.5,-29.52 -27.72,0 -4.32,29.52 -30.6,0 z m 39.78,-61.74 18,0 -9,-59.4 -9,59.4 z"
             style="font-style:normal;font-variant:normal;font-weight:normal;font-stretch:normal;font-family:Ranchers;-inkscape-font-specification:Ranchers;text-align:center;letter-spacing:12.82350254px;text-anchor:middle"
             id="path9292" />
          <path
             d="m 978.76994,557.3175 q 6.48,0 11.16,0.9 4.86,0.72 9,2.16 0,3.06 0,6.48 0.18,3.42 0.18,7.38 0,3.96 -0.18,8.46 0,4.32 0,8.1 -6.84,-4.32 -16.38,-4.32 -9,0 -15.12,3.42 -5.94,3.24 -9.72,8.46 -3.6,5.22 -5.22,11.52 -1.44,6.12 -1.44,11.7 0,7.56 2.34,14.22 2.34,6.66 6.48,11.7 4.32,4.86 9.9,7.74 5.76,2.88 12.42,2.88 3.06,0 7.74,-0.9 4.86,-0.9 9,-3.42 0,6.3 0,13.14 0.18,6.84 0.18,13.32 0,6.84 -0.18,13.32 0,6.48 0,12.96 -10.08,2.16 -20.52,2.16 -15.84,0 -28.44,-5.22 -12.42,-5.22 -21.24,-14.94 -8.64,-9.9 -13.32,-23.76 -4.5,-14.04 -4.5,-31.32 0,-16.56 4.32,-30.42 4.32,-14.04 12.78,-24.12 8.64,-10.26 21.24,-15.84 12.78,-5.76 29.52,-5.76 z"
             style="font-style:normal;font-variant:normal;font-weight:normal;font-stretch:normal;font-family:Ranchers;-inkscape-font-specification:Ranchers;text-align:center;letter-spacing:12.82350254px;text-anchor:middle"
             id="path9294" />
          <path
             d="m 1082.2966,557.3175 q 6.48,0 11.16,0.9 4.86,0.72 9,2.16 0,3.06 0,6.48 0.18,3.42 0.18,7.38 0,3.96 -0.18,8.46 0,4.32 0,8.1 -6.84,-4.32 -16.38,-4.32 -9,0 -15.12,3.42 -5.94,3.24 -9.72,8.46 -3.6,5.22 -5.22,11.52 -1.44,6.12 -1.44,11.7 0,7.56 2.34,14.22 2.34,6.66 6.48,11.7 4.32,4.86 9.9,7.74 5.76,2.88 12.42,2.88 3.06,0 7.74,-0.9 4.86,-0.9 9,-3.42 0,6.3 0,13.14 0.18,6.84 0.18,13.32 0,6.84 -0.18,13.32 0,6.48 0,12.96 -10.08,2.16 -20.52,2.16 -15.84,0 -28.44,-5.22 -12.42,-5.22 -21.24,-14.94 -8.64,-9.9 -13.32,-23.76 -4.5,-14.04 -4.5,-31.32 0,-16.56 4.32,-30.42 4.32,-14.04 12.78,-24.12 8.64,-10.26 21.24,-15.84 12.78,-5.76 29.52,-5.76 z"
             style="font-style:normal;font-variant:normal;font-weight:normal;font-stretch:normal;font-family:Ranchers;-inkscape-font-specification:Ranchers;text-align:center;letter-spacing:12.82350254px;text-anchor:middle"
             id="path9296" />
          <path
             d="m 1220.1526,559.2975 q 0.36,26.28 1.08,45.54 0.72,19.08 0.72,32.58 0,8.82 -0.54,17.64 -0.54,8.64 -2.34,16.56 -1.8,7.92 -5.22,14.76 -3.24,6.66 -8.82,11.7 -5.4,5.04 -13.5,7.92 -8.1,2.7 -19.26,2.7 -11.52,0 -19.8,-2.88 -8.1,-3.06 -13.68,-8.1 -5.58,-5.04 -9,-11.88 -3.24,-7.02 -5.04,-14.94 -1.8,-7.92 -2.34,-16.38 -0.54,-8.46 -0.54,-16.92 0,-6.66 0.18,-14.22 0.18,-7.56 0.54,-16.92 0.36,-9.36 0.72,-20.88 0.54,-11.52 1.08,-26.1 l 31.68,0 q -0.54,16.2 -0.9,27.54 -0.36,11.16 -0.72,18.72 -0.18,7.56 -0.36,12.06 0,4.32 -0.18,6.66 0,2.34 0,3.42 0,0.9 0,1.44 0,17.46 3.96,26.28 3.96,8.82 14.22,8.82 10.44,0 14.04,-9.54 3.78,-9.54 3.78,-28.98 0,-0.9 0,-1.98 0,-1.26 -0.18,-3.78 0,-2.52 -0.18,-6.66 0,-4.32 -0.36,-11.34 -0.18,-7.2 -0.54,-17.46 -0.36,-10.44 -0.9,-25.2 l 32.4,-0.18 z"
             style="font-style:normal;font-variant:normal;font-weight:normal;font-stretch:normal;font-family:Ranchers;-inkscape-font-specification:Ranchers;text-align:center;letter-spacing:12.82350254px;text-anchor:middle"
             id="path9298" />
          <path
             d="m 1243.5342,706.7175 q 0.54,-17.1 0.72,-34.02 0.18,-17.1 0.18,-32.4 0,-21.78 -0.36,-41.4 -0.18,-19.62 -0.54,-39.42 8.82,-0.9 17.64,-1.44 9,-0.72 18.18,-0.72 13.14,0 24.66,1.98 11.52,1.8 19.98,7.02 8.46,5.04 13.32,14.04 5.04,9 5.04,23.22 0,17.64 -7.38,27.72 -7.2,10.08 -19.62,15.12 l 29.34,60.3 -32.04,0 -23.94,-54.9 q -7.38,0.54 -15.3,0.54 0,13.86 0.18,27.18 0.18,13.32 1.08,27.18 l -31.14,0 z m 29.88,-81.72 q 5.58,0.54 10.26,0.54 12.24,0 17.28,-4.5 5.22,-4.68 5.22,-13.86 0,-5.58 -1.62,-9 -1.44,-3.42 -4.14,-5.4 -2.52,-1.98 -6.12,-2.7 -3.42,-0.72 -7.38,-0.72 -2.88,0 -6.48,0.36 -3.42,0.18 -7.02,0.72 l 0,34.56 z"
             style="font-style:normal;font-variant:normal;font-weight:normal;font-stretch:normal;font-family:Ranchers;-inkscape-font-specification:Ranchers;text-align:center;letter-spacing:12.82350254px;text-anchor:middle"
             id="path9300" />
          <path
             d="m 1356.9496,706.7175 26.64,-147.24 44.46,0 26.46,147.24 -30.42,0 -4.5,-29.52 -27.72,0 -4.32,29.52 -30.6,0 z m 39.78,-61.74 18,0 -9,-59.4 -9,59.4 z"
             style="font-style:normal;font-variant:normal;font-weight:normal;font-stretch:normal;font-family:Ranchers;-inkscape-font-specification:Ranchers;text-align:center;letter-spacing:12.82350254px;text-anchor:middle"
             id="path9302" />
          <path
             d="m 1532.614,557.3175 q 6.48,0 11.16,0.9 4.86,0.72 9,2.16 0,3.06 0,6.48 0.18,3.42 0.18,7.38 0,3.96 -0.18,8.46 0,4.32 0,8.1 -6.84,-4.32 -16.38,-4.32 -9,0 -15.12,3.42 -5.94,3.24 -9.72,8.46 -3.6,5.22 -5.22,11.52 -1.44,6.12 -1.44,11.7 0,7.56 2.34,14.22 2.34,6.66 6.48,11.7 4.32,4.86 9.9,7.74 5.76,2.88 12.42,2.88 3.06,0 7.74,-0.9 4.86,-0.9 9,-3.42 0,6.3 0,13.14 0.18,6.84 0.18,13.32 0,6.84 -0.18,13.32 0,6.48 0,12.96 -10.08,2.16 -20.52,2.16 -15.84,0 -28.44,-5.22 -12.42,-5.22 -21.24,-14.94 -8.64,-9.9 -13.32,-23.76 -4.5,-14.04 -4.5,-31.32 0,-16.56 4.32,-30.42 4.32,-14.04 12.78,-24.12 8.64,-10.26 21.24,-15.84 12.78,-5.76 29.52,-5.76 z"
             style="font-style:normal;font-variant:normal;font-weight:normal;font-stretch:normal;font-family:Ranchers;-inkscape-font-specification:Ranchers;text-align:center;letter-spacing:12.82350254px;text-anchor:middle"
             id="path9304" />
          <path
             d="m 1637.35,559.4775 29.7,0 -35.1,93.24 0,8.1 q 0,12.24 0,19.8 0,7.38 0,12.24 0,4.68 0,7.74 0.18,2.88 0.18,6.12 l -31.14,0 q 0.36,-11.7 0.54,-24.48 0.18,-12.78 0.36,-29.52 l -34.92,-93.24 29.88,0 20.16,61.38 20.34,-61.38 z"
             style="font-style:normal;font-variant:normal;font-weight:normal;font-stretch:normal;font-family:Ranchers;-inkscape-font-specification:Ranchers;text-align:center;letter-spacing:12.82350254px;text-anchor:middle"
             id="path9306" />
          <path
             d="m 1716.8944,558.3975 -8.82,93.78 -21.78,0 0,-96.84 30.6,3.06 z m -21.42,111.6 q 4.5,0 7.92,1.8 3.6,1.8 5.94,4.68 2.52,2.7 3.78,6.12 1.26,3.24 1.26,6.3 0,3.96 -1.62,7.56 -1.44,3.6 -4.14,6.3 -2.52,2.7 -6.12,4.32 -3.42,1.62 -7.2,1.62 -4.86,0 -8.46,-1.62 -3.6,-1.44 -5.94,-3.96 -2.34,-2.7 -3.6,-5.94 -1.08,-3.24 -1.08,-6.66 0,-3.6 1.26,-7.2 1.26,-3.78 3.6,-6.66 2.52,-3.06 6.12,-4.86 3.6,-1.8 8.28,-1.8 z"
             style="font-style:normal;font-variant:normal;font-weight:normal;font-stretch:normal;font-family:Ranchers;-inkscape-font-specification:Ranchers;text-align:center;letter-spacing:12.82350254px;text-anchor:middle"
             id="path9308" />
        </g>
        <g
           style="font-style:normal;font-weight:normal;font-size:180px;line-height:117.99999475%;font-family:sans-serif;text-align:center;letter-spacing:12.82350254px;word-spacing:0px;text-anchor:middle;fill:#000000;fill-opacity:1;stroke:none;stroke-width:1px;stroke-linecap:butt;stroke-linejoin:miter;stroke-opacity:1"
           id="text4142">
          <path
             d="m 873.35112,-159.24693 q 3.24,0.9 6.12,1.26 3.06,0.18 5.22,0.18 3.42,0 6.48,-0.72 3.24,-0.9 5.58,-2.88 2.34,-1.98 3.78,-5.22 1.44,-3.42 1.44,-8.64 0,-5.4 -1.62,-8.82 -1.44,-3.6 -3.96,-5.58 -2.52,-1.98 -5.94,-2.7 -3.24,-0.72 -6.84,-0.72 -5.22,0 -10.26,1.08 l 0,32.76 z m -30.78,82.8 q 0.54,-17.1 0.72,-34.02 0.18,-17.1 0.18,-32.4 0,-21.78 -0.36,-41.4 -0.18,-19.62 -0.54,-39.42 8.82,-0.9 17.64,-1.44 9,-0.72 17.64,-0.72 12.42,0 23.22,1.98 10.8,1.98 18.72,7.38 8.1,5.22 12.78,14.76 4.68,9.36 4.68,24.12 0,13.68 -3.96,23.4 -3.96,9.54 -11.16,15.66 -7.02,5.94 -16.92,8.64 -9.9,2.7 -21.96,2.7 -3.06,0 -5.4,-0.18 -2.16,-0.18 -4.86,-0.54 0,12.96 0.18,25.74 0.18,12.78 1.08,25.74 l -31.68,0 z"
             style="font-style:normal;font-variant:normal;font-weight:normal;font-stretch:normal;line-height:117.99999475%;font-family:Ranchers;-inkscape-font-specification:Ranchers;text-align:center;letter-spacing:12.82350254px;text-anchor:middle"
             id="path9229" />
          <path
             d="m 1005.8015,-225.84693 q 26.82,0 39.6,19.08 12.78,19.08 12.78,55.44 0,36.9 -12.6,56.88 -12.42,19.98 -39.78,19.98 -13.5,0 -23.4,-5.04 -9.9,-5.22 -16.38,-14.94 -6.48,-9.9 -9.54,-24.12 -3.06,-14.4 -3.06,-32.76 0,-36.9 12.78,-55.62 12.78,-18.9 39.6,-18.9 z m 0,104.94 q 5.76,0 10.08,-2.52 4.5,-2.7 7.38,-7.2 2.88,-4.68 4.32,-10.98 1.44,-6.48 1.44,-14.22 0,-7.74 -1.44,-14.22 -1.44,-6.66 -4.32,-11.52 -2.88,-4.86 -7.38,-7.56 -4.32,-2.7 -10.08,-2.7 -5.76,0 -10.08,2.88 -4.14,2.7 -7.2,7.56 -2.88,4.86 -4.32,11.52 -1.44,6.48 -1.44,14.04 0,7.74 1.44,14.22 1.44,6.3 4.32,10.98 3.06,4.5 7.2,7.2 4.32,2.52 10.08,2.52 z"
             style="font-style:normal;font-variant:normal;font-weight:normal;font-stretch:normal;line-height:117.99999475%;font-family:Ranchers;-inkscape-font-specification:Ranchers;text-align:center;letter-spacing:12.82350254px;text-anchor:middle"
             id="path9231" />
          <path
             d="m 1109.5925,-223.68693 q -0.54,24.66 -0.9,40.68 -0.18,16.02 -0.36,27 -0.18,10.8 -0.18,18.18 0,7.38 0,14.94 l 28.26,-1.08 q 0.36,5.94 0.54,11.7 0.18,5.76 0.18,11.52 0,5.94 -0.18,12.06 -0.18,5.94 -0.54,12.24 l -58.14,0 q 0.54,-25.2 0.72,-51.66 0.36,-26.46 0.36,-51.66 0,-11.7 0,-22.68 0,-10.98 -0.18,-21.24 l 30.42,0 z"
             style="font-style:normal;font-variant:normal;font-weight:normal;font-stretch:normal;line-height:117.99999475%;font-family:Ranchers;-inkscape-font-specification:Ranchers;text-align:center;letter-spacing:12.82350254px;text-anchor:middle"
             id="path9233" />
          <path
             d="m 1170.3298,-127.38693 0,-29.16 q 0,-11.52 -0.18,-19.62 0,-8.1 0,-14.94 l -13.32,0 q -0.18,-4.14 -0.36,-8.1 -0.18,-3.96 -0.18,-8.1 0,-4.14 0.18,-8.28 0.18,-4.14 0.36,-8.1 l 55.44,0 q 0.18,4.14 0.18,8.28 0,3.96 0,8.1 0,4.14 0,8.1 0,3.96 -0.18,8.1 l -13.14,0 q -0.36,12.06 -0.54,23.76 0,11.7 0,26.1 l 0,13.86 13.68,0 q 0.18,6.48 0.18,12.78 0,6.3 0,12.78 0,6.3 0,12.78 0,6.3 -0.18,12.6 l -55.44,0 q -0.18,-6.3 -0.36,-12.6 -0.18,-6.48 -0.18,-12.78 0,-6.48 0.18,-12.78 0.18,-6.3 0.36,-12.78 l 13.5,0 z"
             style="font-style:normal;font-variant:normal;font-weight:normal;font-stretch:normal;line-height:117.99999475%;font-family:Ranchers;-inkscape-font-specification:Ranchers;text-align:center;letter-spacing:12.82350254px;text-anchor:middle"
             id="path9235" />
          <path
             d="m 1302.7576,-190.38693 -20.7,0 q -0.36,16.02 -0.54,32.58 -0.18,16.38 -0.18,35.46 0,12.24 0,19.8 0,7.38 0,12.24 0,4.68 0,7.74 0.18,2.88 0.18,6.12 l -30.24,0 q 0.18,-7.92 0.36,-16.38 0.18,-8.64 0.18,-18.54 0.18,-10.08 0.18,-21.6 0.18,-11.7 0.18,-25.74 0,-10.26 0,-17.82 0,-7.56 -0.18,-13.86 l -20.7,0 0,-33.3 71.46,0 0,33.3 z"
             style="font-style:normal;font-variant:normal;font-weight:normal;font-stretch:normal;line-height:117.99999475%;font-family:Ranchers;-inkscape-font-specification:Ranchers;text-align:center;letter-spacing:12.82350254px;text-anchor:middle"
             id="path9237" />
          <path
             d="m 1335.5471,-127.38693 0,-29.16 q 0,-11.52 -0.18,-19.62 0,-8.1 0,-14.94 l -13.32,0 q -0.18,-4.14 -0.36,-8.1 -0.18,-3.96 -0.18,-8.1 0,-4.14 0.18,-8.28 0.18,-4.14 0.36,-8.1 l 55.44,0 q 0.18,4.14 0.18,8.28 0,3.96 0,8.1 0,4.14 0,8.1 0,3.96 -0.18,8.1 l -13.14,0 q -0.36,12.06 -0.54,23.76 0,11.7 0,26.1 l 0,13.86 13.68,0 q 0.18,6.48 0.18,12.78 0,6.3 0,12.78 0,6.3 0,12.78 0,6.3 -0.18,12.6 l -55.44,0 q -0.18,-6.3 -0.36,-12.6 -0.18,-6.48 -0.18,-12.78 0,-6.48 0.18,-12.78 0.18,-6.3 0.36,-12.78 l 13.5,0 z"
             style="font-style:normal;font-variant:normal;font-weight:normal;font-stretch:normal;line-height:117.99999475%;font-family:Ranchers;-inkscape-font-specification:Ranchers;text-align:center;letter-spacing:12.82350254px;text-anchor:middle"
             id="path9239" />
          <path
             d="m 1462.0856,-225.84693 q 6.48,0 11.16,0.9 4.86,0.72 9,2.16 0,3.06 0,6.48 0.18,3.42 0.18,7.38 0,3.96 -0.18,8.46 0,4.32 0,8.1 -6.84,-4.32 -16.38,-4.32 -9,0 -15.12,3.42 -5.94,3.24 -9.72,8.46 -3.6,5.22 -5.22,11.52 -1.44,6.12 -1.44,11.7 0,7.56 2.34,14.22 2.34,6.66 6.48,11.7 4.32,4.86 9.9,7.74 5.76,2.88 12.42,2.88 3.06,0 7.74,-0.9 4.86,-0.9 9,-3.42 0,6.3 0,13.14 0.18,6.84 0.18,13.32 0,6.84 -0.18,13.32 0,6.48 0,12.96 -10.08,2.16 -20.52,2.16 -15.84,0 -28.44,-5.22 -12.42,-5.22 -21.24,-14.94 -8.64,-9.9 -13.32,-23.76 -4.5,-14.04 -4.5,-31.32 0,-16.56 4.32,-30.42 4.32,-14.04 12.78,-24.12 8.64,-10.26 21.24,-15.84 12.78,-5.76 29.52,-5.76 z"
             style="font-style:normal;font-variant:normal;font-weight:normal;font-stretch:normal;line-height:117.99999475%;font-family:Ranchers;-inkscape-font-specification:Ranchers;text-align:center;letter-spacing:12.82350254px;text-anchor:middle"
             id="path9241" />
          <path
             d="m 1497.3416,-76.44693 26.64,-147.24 44.46,0 26.46,147.24 -30.42,0 -4.5,-29.52 -27.72,0 -4.32,29.52 -30.6,0 z m 39.78,-61.74 18,0 -9,-59.4 -9,59.4 z"
             style="font-style:normal;font-variant:normal;font-weight:normal;font-stretch:normal;line-height:117.99999475%;font-family:Ranchers;-inkscape-font-specification:Ranchers;text-align:center;letter-spacing:12.82350254px;text-anchor:middle"
             id="path9243" />
          <path
             d="m 1642.8616,-223.68693 q -0.54,24.66 -0.9,40.68 -0.18,16.02 -0.36,27 -0.18,10.8 -0.18,18.18 0,7.38 0,14.94 l 28.26,-1.08 q 0.36,5.94 0.54,11.7 0.18,5.76 0.18,11.52 0,5.94 -0.18,12.06 -0.18,5.94 -0.54,12.24 l -58.14,0 q 0.54,-25.2 0.72,-51.66 0.36,-26.46 0.36,-51.66 0,-11.7 0,-22.68 0,-10.98 -0.18,-21.24 l 30.42,0 z"
             style="font-style:normal;font-variant:normal;font-weight:normal;font-stretch:normal;line-height:117.99999475%;font-family:Ranchers;-inkscape-font-specification:Ranchers;text-align:center;letter-spacing:12.82350254px;text-anchor:middle"
             id="path9245" />
          <path
             d="m 727.21668,-13.446939 q 6.48,0 11.16,0.9 4.86,0.72 9,2.16 0,3.0599996 0,6.4799996 0.18,3.42000003 0.18,7.38 0,3.96 -0.18,8.4600004 0,4.32 0,8.1 -6.84,-4.32 -16.38,-4.32 -9,0 -15.12,3.42 -5.94,3.24 -9.72,8.46 -3.6,5.22 -5.22,11.52 -1.44,6.12 -1.44,11.7 0,7.56 2.34,14.22 2.34,6.66 6.48,11.7 4.32,4.86 9.9,7.74 5.76,2.88 12.42,2.88 3.06,0 7.74,-0.9 4.86,-0.9 9,-3.42 0,6.3 0,13.14 0.18,6.839999 0.18,13.319999 0,6.84 -0.18,13.32 0,6.48 0,12.96 -10.08,2.16 -20.52,2.16 -15.84,0 -28.44,-5.22 -12.42,-5.22 -21.24,-14.94 -8.64,-9.9 -13.32,-23.759999 -4.5,-14.04 -4.5,-31.32 0,-16.56 4.32,-30.42 4.32,-14.04 12.78,-24.1200004 8.64,-10.26 21.24,-15.84 12.78,-5.7599996 29.52,-5.7599996 z"
             style="font-style:normal;font-variant:normal;font-weight:normal;font-stretch:normal;line-height:117.99999475%;font-family:Ranchers;-inkscape-font-specification:Ranchers;text-align:center;letter-spacing:12.82350254px;text-anchor:middle"
             id="path9247" />
          <path
             d="m 816.50643,-13.446939 q 26.82,0 39.6,19.0799996 12.78,19.0800004 12.78,55.4400004 0,36.9 -12.6,56.879999 -12.42,19.98 -39.78,19.98 -13.5,0 -23.4,-5.04 -9.9,-5.22 -16.38,-14.94 -6.48,-9.9 -9.54,-24.119999 -3.06,-14.4 -3.06,-32.76 0,-36.9 12.78,-55.6200004 12.78,-18.8999996 39.6,-18.8999996 z m 0,104.94 q 5.76,0 10.08,-2.52 4.5,-2.7 7.38,-7.2 2.88,-4.68 4.32,-10.98 1.44,-6.48 1.44,-14.22 0,-7.74 -1.44,-14.22 -1.44,-6.66 -4.32,-11.52 -2.88,-4.86 -7.38,-7.56 -4.32,-2.7 -10.08,-2.7 -5.76,0 -10.08,2.88 -4.14,2.7 -7.2,7.56 -2.88,4.86 -4.32,11.52 -1.44,6.48 -1.44,14.04 0,7.74 1.44,14.22 1.44,6.3 4.32,10.98 3.06,4.5 7.2,7.2 4.32,2.52 10.08,2.52 z"
             style="font-style:normal;font-variant:normal;font-weight:normal;font-stretch:normal;line-height:117.99999475%;font-family:Ranchers;-inkscape-font-specification:Ranchers;text-align:center;letter-spacing:12.82350254px;text-anchor:middle"
             id="path9249" />
          <path
             d="m 889.15745,135.95306 q 0.54,-17.1 0.72,-34.02 0.18,-17.099999 0.18,-32.399999 0,-21.78 -0.36,-41.4 -0.18,-19.6200004 -0.54,-39.42 8.82,-0.9 17.64,-1.44 9,-0.72 18.18,-0.72 13.14,0 24.66,1.98 11.52,1.7999996 19.98,7.0199996 8.46,5.04000003 13.32,14.04 5.04,9.0000004 5.04,23.2200004 0,17.64 -7.38,27.72 -7.2,10.08 -19.62,15.12 l 29.34,60.299999 -32.04,0 -23.94,-54.899999 q -7.38,0.54 -15.3,0.54 0,13.86 0.18,27.179999 0.18,13.32 1.08,27.18 l -31.14,0 z m 29.88,-81.719999 q 5.58,0.54 10.26,0.54 12.24,0 17.28,-4.5 5.22,-4.68 5.22,-13.86 0,-5.58 -1.62,-9 -1.44,-3.42 -4.14,-5.4 -2.52,-1.98 -6.12,-2.7 -3.42,-0.72 -7.38,-0.72 -2.88,0 -6.48,0.36 -3.42,0.18 -7.02,0.72 l 0,34.56 z"
             style="font-style:normal;font-variant:normal;font-weight:normal;font-stretch:normal;line-height:117.99999475%;font-family:Ranchers;-inkscape-font-specification:Ranchers;text-align:center;letter-spacing:12.82350254px;text-anchor:middle"
             id="path9251" />
          <path
             d="m 1008.1528,135.95306 q 0.54,-17.1 0.72,-34.02 0.18,-17.099999 0.18,-32.399999 0,-21.78 -0.36,-41.4 -0.18,-19.6200004 -0.54,-39.42 8.82,-0.9 17.64,-1.44 9,-0.72 18.18,-0.72 13.14,0 24.66,1.98 11.52,1.7999996 19.98,7.0199996 8.46,5.04000003 13.32,14.04 5.04,9.0000004 5.04,23.2200004 0,17.64 -7.38,27.72 -7.2,10.08 -19.62,15.12 l 29.34,60.299999 -32.04,0 -23.94,-54.899999 q -7.38,0.54 -15.3,0.54 0,13.86 0.18,27.179999 0.18,13.32 1.08,27.18 l -31.14,0 z m 29.88,-81.719999 q 5.58,0.54 10.26,0.54 12.24,0 17.28,-4.5 5.22,-4.68 5.22,-13.86 0,-5.58 -1.62,-9 -1.44,-3.42 -4.14,-5.4 -2.52,-1.98 -6.12,-2.7 -3.42,-0.72 -7.38,-0.72 -2.88,0 -6.48,0.36 -3.42,0.18 -7.02,0.72 l 0,34.56 z"
             style="font-style:normal;font-variant:normal;font-weight:normal;font-stretch:normal;line-height:117.99999475%;font-family:Ranchers;-inkscape-font-specification:Ranchers;text-align:center;letter-spacing:12.82350254px;text-anchor:middle"
             id="path9253" />
          <path
             d="m 1193.9282,136.49306 q -5.04,-0.18 -13.32,-0.36 -8.28,0 -17.82,-0.18 -9.36,0 -18.9,0 -9.36,0 -16.56,0 0.18,-3.78 0.18,-10.08 0.18,-6.3 0.18,-14.4 0,-8.1 0,-17.459999 0,-9.54 0,-19.62 0,-13.68 -0.18,-27.36 0,-13.68 0,-25.38 0,-11.8800004 -0.18,-20.5200004 0,-8.64 0,-12.2399996 7.02,0 15.48,0 8.46,0 17.28,0 8.82,-0.18 17.28,-0.36 8.46,-0.18 15.84,-0.36 0,2.3399996 0,4.1399996 0.18,1.62 0.18,4.68 0,2.16000003 -0.18,5.22 0,2.88 -0.18,6.12 0,3.0600004 -0.18,6.3000004 0,3.06 -0.18,5.76 l -36.18,0 0,20.88 31.5,0 0,26.82 -31.5,0 0,20.16 36.72,0 q 0.18,4.14 0.36,8.46 0.18,4.319999 0.18,9.719999 0.18,5.4 0.18,12.78 0,7.2 0,17.28 z"
             style="font-style:normal;font-variant:normal;font-weight:normal;font-stretch:normal;line-height:117.99999475%;font-family:Ranchers;-inkscape-font-specification:Ranchers;text-align:center;letter-spacing:12.82350254px;text-anchor:middle"
             id="path9255" />
          <path
             d="m 1277.8967,-13.446939 q 6.48,0 11.16,0.9 4.86,0.72 9,2.16 0,3.0599996 0,6.4799996 0.18,3.42000003 0.18,7.38 0,3.96 -0.18,8.4600004 0,4.32 0,8.1 -6.84,-4.32 -16.38,-4.32 -9,0 -15.12,3.42 -5.94,3.24 -9.72,8.46 -3.6,5.22 -5.22,11.52 -1.44,6.12 -1.44,11.7 0,7.56 2.34,14.22 2.34,6.66 6.48,11.7 4.32,4.86 9.9,7.74 5.76,2.88 12.42,2.88 3.06,0 7.74,-0.9 4.86,-0.9 9,-3.42 0,6.3 0,13.14 0.18,6.839999 0.18,13.319999 0,6.84 -0.18,13.32 0,6.48 0,12.96 -10.08,2.16 -20.52,2.16 -15.84,0 -28.44,-5.22 -12.42,-5.22 -21.24,-14.94 -8.64,-9.9 -13.32,-23.759999 -4.5,-14.04 -4.5,-31.32 0,-16.56 4.32,-30.42 4.32,-14.04 12.78,-24.1200004 8.64,-10.26 21.24,-15.84 12.78,-5.7599996 29.52,-5.7599996 z"
             style="font-style:normal;font-variant:normal;font-weight:normal;font-stretch:normal;line-height:117.99999475%;font-family:Ranchers;-inkscape-font-specification:Ranchers;text-align:center;letter-spacing:12.82350254px;text-anchor:middle"
             id="path9257" />
          <path
             d="m 1387.3127,22.013061 -20.7,0 q -0.36,16.02 -0.54,32.58 -0.18,16.38 -0.18,35.46 0,12.239999 0,19.799999 0,7.38 0,12.24 0,4.68 0,7.74 0.18,2.88 0.18,6.12 l -30.24,0 q 0.18,-7.92 0.36,-16.38 0.18,-8.64 0.18,-18.54 0.18,-10.079999 0.18,-21.599999 0.18,-11.7 0.18,-25.74 0,-10.26 0,-17.82 0,-7.56 -0.18,-13.86 l -20.7,0 0,-33.3 71.46,0 0,33.3 z"
             style="font-style:normal;font-variant:normal;font-weight:normal;font-stretch:normal;line-height:117.99999475%;font-family:Ranchers;-inkscape-font-specification:Ranchers;text-align:center;letter-spacing:12.82350254px;text-anchor:middle"
             id="path9259" />
          <path
             d="m 1478.9621,-11.286939 25.74,0 q -0.54,36.72 -0.54,73.62 0,36.9 0.54,73.619999 l -34.74,0 -38.16,-88.019999 0,88.019999 -24.66,0 q 0.36,-18.54 0.54,-36.719999 0.18,-18.36 0.18,-36.9 0,-18.54 -0.18,-36.72 -0.18,-18.3600004 -0.54,-36.9 l 36.36,0 35.46,87.84 0,-87.84 z"
             style="font-style:normal;font-variant:normal;font-weight:normal;font-stretch:normal;line-height:117.99999475%;font-family:Ranchers;-inkscape-font-specification:Ranchers;text-align:center;letter-spacing:12.82350254px;text-anchor:middle"
             id="path9261" />
          <path
             d="m 1593.9722,136.49306 q -5.04,-0.18 -13.32,-0.36 -8.28,0 -17.82,-0.18 -9.36,0 -18.9,0 -9.36,0 -16.56,0 0.18,-3.78 0.18,-10.08 0.18,-6.3 0.18,-14.4 0,-8.1 0,-17.459999 0,-9.54 0,-19.62 0,-13.68 -0.18,-27.36 0,-13.68 0,-25.38 0,-11.8800004 -0.18,-20.5200004 0,-8.64 0,-12.2399996 7.02,0 15.48,0 8.46,0 17.28,0 8.82,-0.18 17.28,-0.36 8.46,-0.18 15.84,-0.36 0,2.3399996 0,4.1399996 0.18,1.62 0.18,4.68 0,2.16000003 -0.18,5.22 0,2.88 -0.18,6.12 0,3.0600004 -0.18,6.3000004 0,3.06 -0.18,5.76 l -36.18,0 0,20.88 31.5,0 0,26.82 -31.5,0 0,20.16 36.72,0 q 0.18,4.14 0.36,8.46 0.18,4.319999 0.18,9.719999 0.18,5.4 0.18,12.78 0,7.2 0,17.28 z"
             style="font-style:normal;font-variant:normal;font-weight:normal;font-stretch:normal;line-height:117.99999475%;font-family:Ranchers;-inkscape-font-specification:Ranchers;text-align:center;letter-spacing:12.82350254px;text-anchor:middle"
             id="path9263" />
          <path
             d="m 1613.0985,25.253061 q 0,-11.52 4.32,-18.9000004 4.5,-7.56 11.16,-11.88 6.84,-4.4999996 14.94,-6.1199996 8.28,-1.8 15.84,-1.8 2.16,0 5.4,0.18 3.42,0.18 7.02,0.54 3.78,0.36 7.56,1.08 3.96,0.54 7.38,1.62 0.36,4.6799996 0.54,8.8199996 0.18,3.96 0.18,9.18 0,5.2200004 -0.18,10.0800004 -0.18,4.68 -0.54,9 -1.44,-0.18 -3.78,-0.54 -2.16,-0.36 -4.68,-0.54 -2.34,-0.18 -4.86,-0.36 -2.34,-0.18 -4.5,-0.18 -8.64,0 -12.6,2.7 -3.96,2.7 -3.96,7.38 0,2.7 1.26,5.22 1.26,2.34 3.24,4.5 2.16,2.16 4.68,4.14 2.7,1.98 5.4,3.78 4.32,3.06 8.64,6.84 4.5,3.6 8.1,8.82 3.6,5.04 5.94,11.88 2.34,6.66 2.34,15.48 0,11.519999 -3.96,19.439999 -3.96,7.92 -10.26,12.96 -6.12,4.86 -13.86,7.2 -7.56,2.16 -15.12,2.16 -3.42,0 -8.46,-0.54 -4.86,-0.36 -9.9,-1.26 -5.04,-0.72 -9.54,-1.8 -4.5,-1.26 -7.2,-2.88 -0.72,-3.24 -1.26,-6.66 -0.36,-3.42 -0.36,-7.56 0,-2.88 0.18,-7.02 0.36,-4.14 0.72,-8.46 0.36,-4.319999 0.72,-8.279999 0.54,-3.96 0.9,-6.66 1.98,1.08 5.76,2.52 3.78,1.26 8.1,2.52 4.5,1.26 9,2.16 4.5,0.9 7.92,0.9 5.76,0 8.64,-2.34 2.88,-2.52 2.88,-6.66 0,-4.5 -3.24,-7.92 -3.24,-3.6 -8.1,-7.02 -4.86,-3.42 -10.62,-7.2 -5.58,-3.96 -10.44,-9.18 -4.86,-5.22 -8.1,-12.24 -3.24,-7.2 -3.24,-17.1 z"
             style="font-style:normal;font-variant:normal;font-weight:normal;font-stretch:normal;line-height:117.99999475%;font-family:Ranchers;-inkscape-font-specification:Ranchers;text-align:center;letter-spacing:12.82350254px;text-anchor:middle"
             id="path9265" />
          <path
             d="m 1708.8907,25.253061 q 0,-11.52 4.32,-18.9000004 4.5,-7.56 11.16,-11.88 6.84,-4.4999996 14.94,-6.1199996 8.28,-1.8 15.84,-1.8 2.16,0 5.4,0.18 3.42,0.18 7.02,0.54 3.78,0.36 7.56,1.08 3.96,0.54 7.38,1.62 0.36,4.6799996 0.54,8.8199996 0.18,3.96 0.18,9.18 0,5.2200004 -0.18,10.0800004 -0.18,4.68 -0.54,9 -1.44,-0.18 -3.78,-0.54 -2.16,-0.36 -4.68,-0.54 -2.34,-0.18 -4.86,-0.36 -2.34,-0.18 -4.5,-0.18 -8.64,0 -12.6,2.7 -3.96,2.7 -3.96,7.38 0,2.7 1.26,5.22 1.26,2.34 3.24,4.5 2.16,2.16 4.68,4.14 2.7,1.98 5.4,3.78 4.32,3.06 8.64,6.84 4.5,3.6 8.1,8.82 3.6,5.04 5.94,11.88 2.34,6.66 2.34,15.48 0,11.519999 -3.96,19.439999 -3.96,7.92 -10.26,12.96 -6.12,4.86 -13.86,7.2 -7.56,2.16 -15.12,2.16 -3.42,0 -8.46,-0.54 -4.86,-0.36 -9.9,-1.26 -5.04,-0.72 -9.54,-1.8 -4.5,-1.26 -7.2,-2.88 -0.72,-3.24 -1.26,-6.66 -0.36,-3.42 -0.36,-7.56 0,-2.88 0.18,-7.02 0.36,-4.14 0.72,-8.46 0.36,-4.319999 0.72,-8.279999 0.54,-3.96 0.9,-6.66 1.98,1.08 5.76,2.52 3.78,1.26 8.1,2.52 4.5,1.26 9,2.16 4.5,0.9 7.92,0.9 5.76,0 8.64,-2.34 2.88,-2.52 2.88,-6.66 0,-4.5 -3.24,-7.92 -3.24,-3.6 -8.1,-7.02 -4.86,-3.42 -10.62,-7.2 -5.58,-3.96 -10.44,-9.18 -4.86,-5.22 -8.1,-12.24 -3.24,-7.2 -3.24,-17.1 z"
             style="font-style:normal;font-variant:normal;font-weight:normal;font-stretch:normal;line-height:117.99999475%;font-family:Ranchers;-inkscape-font-specification:Ranchers;text-align:center;letter-spacing:12.82350254px;text-anchor:middle"
             id="path9267" />
          <path
             d="m 1821.9631,82.133061 q 0,-6.66 1.8,-11.34 1.8,-4.86 4.32,-8.64 2.7,-3.78 5.58,-6.84 3.06,-3.06 5.58,-6.12 2.7,-3.06 4.32,-6.66 1.8,-3.6 1.8,-8.46 0,-5.04 -1.8,-7.92 -1.8,-3.06 -4.5,-4.68 -2.7,-1.62 -5.58,-1.98 -2.88,-0.54 -5.04,-0.54 -8.1,0 -13.68,4.14 -5.4,3.96 -8.82,9.18 -0.36,-3.96 -0.54,-8.64 0,-4.86 0,-10.08 0,-4.8600004 0,-8.8200004 0.18,-3.95999997 0.54,-8.64 5.04,-5.4 13.86,-8.4599996 9,-3.06 19.98,-3.06 6.3,0 13.68,1.44 7.38,1.26 13.68,5.3999996 6.3,3.96 10.44,11.34 4.32,7.2 4.32,19.0800004 0,8.82 -2.34,14.94 -2.34,6.12 -5.94,10.8 -3.42,4.5 -7.56,8.1 -4.14,3.6 -7.74,7.38 -3.6,3.78 -6.12,8.28 -2.34,4.5 -2.52,10.8 l -27.72,0 z m 15.12,17.1 q 4.5,0 7.92,1.799999 3.6,1.8 5.94,4.68 2.52,2.7 3.78,6.12 1.26,3.24 1.26,6.3 0,3.96 -1.62,7.56 -1.44,3.6 -4.14,6.3 -2.52,2.7 -6.12,4.32 -3.42,1.62 -7.2,1.62 -4.86,0 -8.46,-1.62 -3.6,-1.44 -5.94,-3.96 -2.34,-2.7 -3.6,-5.94 -1.08,-3.24 -1.08,-6.66 0,-3.6 1.26,-7.2 1.26,-3.78 3.6,-6.66 2.52,-3.06 6.12,-4.86 3.6,-1.799999 8.28,-1.799999 z"
             style="font-style:normal;font-variant:normal;font-weight:normal;font-stretch:normal;line-height:117.99999475%;font-family:Ranchers;-inkscape-font-specification:Ranchers;text-align:center;letter-spacing:12.82350254px;text-anchor:middle"
             id="path9269" />
        </g>
        <g
           style="font-style:normal;font-weight:normal;font-size:129.70724487px;line-height:117.99999475%;font-family:sans-serif;text-align:start;letter-spacing:0px;word-spacing:0px;text-anchor:start;fill:#000000;fill-opacity:1;stroke:none;stroke-width:1px;stroke-linecap:butt;stroke-linejoin:miter;stroke-opacity:1"
           id="text4160">
          <path
             d="m 1047.9949,-342.75245 q 0.9079,-3.37239 1.8159,-3.37239 1.0377,0 2.3347,2.59414 1.4268,2.59415 2.4645,3.11298 1.0376,0.38912 4.0209,0.38912 l 50.1967,0 q 2.3347,0 3.6318,0 1.4268,-0.12971 2.205,-0.51883 0.908,-0.38912 1.4268,-1.03766 0.6485,-0.77824 1.2971,-2.20502 0.9079,-2.46444 2.205,-2.46444 1.6862,0 1.6862,2.59415 l -0.2594,20.88286 q 0,1.03766 -0.3892,1.6862 -0.2594,0.51883 -0.9079,0.38912 -0.5188,-0.25942 -1.1674,-1.29707 -0.6485,-1.16737 -1.1673,-3.76151 -0.6486,-2.72386 -1.4268,-4.53976 -0.6485,-1.94561 -1.9456,-3.11297 -1.2971,-1.16737 -3.5021,-1.6862 -2.0753,-0.64853 -5.318,-0.64853 l -15.8243,0 0,66.2804 q 0,3.5021 0.7782,4.66946 0.908,1.16737 3.6318,1.8159 l 10.1172,2.20503 0,2.20502 q -6.8745,-0.38912 -22.569,-0.38912 -7.6528,0 -12.4519,0.1297 -4.6695,0 -6.226,0.25942 l 0,-2.20502 9.0795,-1.81591 q 3.7615,-0.77824 4.9289,-2.20502 1.1674,-1.55649 1.1674,-4.79917 l 0,-66.15069 -15.5649,0 q -2.3347,-0.12971 -4.0209,0.25941 -1.5565,0.38912 -3.113,1.6862 -1.5565,1.29707 -3.3724,3.6318 -1.8159,2.20502 -4.41,5.83683 -1.6862,2.46443 -2.5942,3.11297 -0.9079,0.64854 -1.2971,0.12971 -0.2594,-0.64854 -0.1297,-2.07532 0.2594,-1.55649 0.6486,-3.37239 l 4.0209,-16.2134 z"
             style="font-style:normal;font-variant:normal;font-weight:normal;font-stretch:normal;font-family:'Songti TC';-inkscape-font-specification:'Songti TC'"
             id="path9214" />
          <path
             d="m 1154.3792,-258.44274 q -2.0754,-0.25942 -5.7072,-0.38913 -3.5021,-0.1297 -8.6904,-0.1297 -5.1882,0 -8.82,0.1297 -3.5021,0.12971 -5.5775,0.38913 l 0,-2.20503 7.0042,-1.42678 q 4.021,-0.77824 4.021,-4.66946 l 0,-25.81174 q 0,-3.11297 -1.5565,-4.53975 -1.5565,-1.42678 -6.226,-2.46444 l 0,-1.94561 q 4.5398,-1.16736 8.1716,-3.50209 3.7615,-2.33474 5.9665,-5.83683 l 2.205,0 0,44.48958 q 0,1.94561 0.5189,2.85356 0.6485,0.90795 2.3347,1.29708 l 6.3557,1.55648 0,2.20503 z m -14.1381,-79.25113 q 2.4644,0 4.2803,1.8159 1.8159,1.6862 1.8159,4.15063 0,2.20503 -1.9456,3.89122 -1.8159,1.68619 -4.4101,1.68619 -2.3347,0 -4.0209,-1.55648 -1.5565,-1.6862 -1.5565,-4.02093 0,-2.46443 1.6862,-4.15063 1.8159,-1.8159 4.1507,-1.8159 z"
             style="font-style:normal;font-variant:normal;font-weight:normal;font-stretch:normal;font-family:'Songti TC';-inkscape-font-specification:'Songti TC'"
             id="path9216" />
          <path
             d="m 1160.5443,-258.44274 0,-2.07532 6.2259,-1.16737 q 2.5942,-0.64853 3.2427,-1.9456 0.7783,-1.29708 0.7783,-4.66946 l 0,-24.9038 q 0,-2.59414 -1.1674,-3.76151 -1.0377,-1.16736 -4.7992,-1.9456 l -3.3724,-0.77825 0.2595,-1.94561 q 5.0585,-1.68619 8.6903,-4.15063 3.6318,-2.59414 6.3557,-7.91214 l 2.3347,0 q 0.2594,3.5021 0.3892,7.52302 0.1297,4.02092 0.1297,8.56068 1.297,-2.33473 2.8535,-4.41005 1.6862,-2.20502 4.0209,-4.41004 4.4101,-4.28034 7.9122,-4.28034 3.2427,0 5.0586,1.8159 1.8159,1.8159 1.8159,4.66946 0,2.59414 -1.5565,4.15063 -1.4268,1.42678 -3.6318,1.42678 -2.205,0 -4.5398,-1.29707 -2.3347,-1.29707 -4.0209,-1.29707 -1.2971,0 -2.7239,1.29707 -1.297,1.29707 -2.4644,3.11297 -1.1674,1.8159 -1.9456,3.89122 -0.7782,1.94561 -0.7782,3.24268 l 0,21.66111 q 0,3.37239 1.0376,4.53975 1.1674,1.03766 4.7992,1.55649 l 9.3389,1.42678 0,2.07532 q -3.3724,-0.25942 -7.6527,-0.38913 -4.1507,-0.1297 -8.9498,-0.1297 l -1.8159,0 q -4.5398,0 -8.5607,0.1297 -3.8912,0.12971 -7.2636,0.38913 z"
             style="font-style:normal;font-variant:normal;font-weight:normal;font-stretch:normal;font-family:'Songti TC';-inkscape-font-specification:'Songti TC'"
             id="path9218" />
          <path
             d="m 1254.3652,-291.25868 -35.6695,0 q -0.3891,2.59415 -0.3891,4.92888 0,9.98746 5.318,16.2134 5.318,6.09624 14.6569,6.09624 4.5398,0 8.3013,-1.68619 3.7615,-1.8159 8.1715,-5.96653 l 0.5188,2.98326 q -4.41,5.83683 -10.2468,8.8201 -5.7071,2.98326 -13.3599,2.98326 -4.7991,0 -8.9498,-1.94561 -4.0209,-2.07531 -7.1339,-5.70711 -2.9832,-3.63181 -4.6694,-8.43098 -1.6862,-4.92887 -1.6862,-10.63599 0,-5.70712 1.8159,-10.63599 1.9456,-5.05859 5.318,-8.69039 3.3724,-3.6318 8.0418,-5.70712 4.6695,-2.07531 10.1172,-2.07531 4.2803,0 7.7824,1.42678 3.6318,1.42678 6.226,4.02092 2.5941,2.46444 4.0209,6.09624 1.5565,3.6318 1.8159,7.91214 z m -35.021,-2.98326 18.8076,0 q 1.9456,0 3.3724,0 1.4268,-0.12971 2.3347,-0.51883 0.908,-0.51883 1.0377,-1.42678 0.2594,-0.90795 -0.1297,-2.59415 -0.7783,-3.37239 -3.2427,-6.09624 -2.3347,-2.72385 -7.2636,-2.72385 -5.8368,0 -9.7281,3.6318 -3.8912,3.5021 -5.1883,9.72805 z"
             style="font-style:normal;font-variant:normal;font-weight:normal;font-stretch:normal;font-family:'Songti TC';-inkscape-font-specification:'Songti TC'"
             id="path9220" />
          <path
             d="m 1305.8184,-329.65202 q 0,-2.59415 -0.3891,-4.15063 -0.2594,-1.55649 -1.4268,-2.46444 -1.0376,-1.03766 -3.1129,-1.6862 -1.9456,-0.77824 -5.1883,-1.55648 l 0,-2.07532 q 4.1506,-0.25941 8.3012,-1.03766 4.1507,-0.77824 7.5231,-1.9456 l 3.2426,0 0,76.65698 q 0,2.33473 0.2595,3.6318 0.2594,1.29707 1.1673,1.94561 0.908,0.51883 2.5942,0.64853 1.8159,0.12971 4.7991,0.25942 l 0,2.20502 q -4.9288,1.03766 -9.5983,1.8159 -4.5398,0.77825 -8.1716,1.16737 l 0,-6.22595 q -3.2426,1.42678 -5.8368,2.46444 -2.5941,1.03766 -5.0586,1.68619 -2.3347,0.64854 -4.6694,1.03766 -2.3348,0.38912 -5.0586,0.38912 -8.6904,0 -14.7866,-7.2636 -6.226,-7.39332 -6.226,-17.38077 0,-6.09624 2.0753,-11.41424 2.0753,-5.318 5.5774,-9.20922 3.6318,-4.02092 8.1716,-6.22594 4.6695,-2.33473 9.728,-2.33473 9.8578,0 16.0837,3.50209 l 0,-22.43935 z m 0,63.81596 0,-24.25525 q 0,-2.72385 -0.3891,-5.70712 -0.2594,-3.11297 -1.6862,-5.57741 -1.4268,-2.59415 -4.5397,-4.28034 -2.9833,-1.6862 -8.431,-1.6862 -3.5021,0 -6.6151,1.81591 -2.9832,1.8159 -5.1883,4.92887 -2.205,3.11298 -3.5021,7.39331 -1.1673,4.28034 -1.1673,9.20922 0,4.92887 1.2971,8.9498 1.4267,4.02092 3.7615,6.87448 2.4644,2.85356 5.8368,4.41005 3.3724,1.55649 7.2636,1.55649 4.0209,0 7.6527,-1.03766 3.7615,-1.03766 5.7071,-2.59415 z"
             style="font-style:normal;font-variant:normal;font-weight:normal;font-stretch:normal;font-family:'Songti TC';-inkscape-font-specification:'Songti TC'"
             id="path9222" />
          <path
             d="m 1390.8699,-256.88626 q -5.8368,0 -10.7657,-1.94561 -4.9289,-2.07531 -8.5607,-5.57741 -3.6318,-3.6318 -5.7071,-8.56068 -2.0753,-4.92887 -2.0753,-10.7657 0,-5.96653 2.0753,-10.89541 2.0753,-4.92887 5.8368,-8.43097 3.7615,-3.6318 8.8201,-5.57741 5.1883,-2.07531 11.4143,-2.07531 6.3556,0 11.4142,2.20502 5.1883,2.07532 8.8201,5.83683 3.6318,3.6318 5.5774,8.69038 2.0753,4.92888 2.0753,10.50629 0,5.70712 -2.205,10.50628 -2.0753,4.79917 -5.9665,8.43098 -3.7615,3.6318 -9.0795,5.70711 -5.318,1.94561 -11.6737,1.94561 z M 1374.008,-282.698 q 0,10.7657 4.7991,16.99165 4.7992,6.09624 12.5816,6.09624 3.8913,0 7.2636,-1.68619 3.3724,-1.6862 5.7072,-4.79917 2.4644,-3.24268 3.7615,-7.65273 1.4267,-4.41005 1.4267,-9.85775 0,-5.4477 -1.297,-9.85775 -1.1674,-4.53975 -3.5021,-7.78243 -2.3348,-3.24269 -5.7071,-4.92888 -3.3724,-1.8159 -7.5231,-1.8159 -8.1715,0 -12.841,6.35565 -4.6694,6.35566 -4.6694,18.93726 z"
             style="font-style:normal;font-variant:normal;font-weight:normal;font-stretch:normal;font-family:'Songti TC';-inkscape-font-specification:'Songti TC'"
             id="path9224" />
          <path
             d="m 1448.1823,-308.63945 16.7322,0.38912 0,4.53976 -16.4728,0.51883 0,32.42681 q 0,7.91214 5.4477,8.69038 l 8.4309,1.29708 0,2.20502 q -6.8744,-0.38912 -14.138,-0.38912 l -3.7616,0 q -9.4686,0 -14.2677,0.38912 l 0,-2.07532 4.0209,-0.90795 q 2.0753,-0.38912 3.1129,-0.90795 1.0377,-0.51883 1.5565,-1.42678 0.5189,-0.90795 0.5189,-2.20502 0.1297,-1.42678 0.1297,-3.6318 l 0,-31.90799 q -2.4645,-0.51883 -9.4687,-0.77824 l 0,-1.94561 q 2.9833,-1.16736 4.7992,-2.07531 1.8159,-1.03766 2.7239,-1.81591 1.0376,-0.77824 1.297,-1.55648 0.3892,-0.77825 0.3892,-1.8159 0,-2.85356 0.9079,-8.04185 1.0377,-5.318 3.6318,-10.50629 2.5942,-5.18829 7.0042,-9.20921 4.5398,-4.15064 11.5439,-4.92888 0.908,-0.12971 1.8159,-0.12971 0.908,-0.1297 1.9457,-0.1297 10.636,0.25941 10.636,5.70711 0,4.79917 -5.1883,4.79917 -1.0377,0 -2.5942,-0.64853 -1.5565,-0.77825 -3.3724,-1.55649 -1.6862,-0.90795 -3.6318,-1.55649 -1.8159,-0.77824 -3.6318,-0.77824 -3.8912,0 -6.0962,1.8159 -2.0753,1.8159 -2.9833,4.79917 -0.9079,2.98326 -1.0376,6.74477 -0.1298,3.63181 -0.1298,7.52303 0,3.50209 0,5.83682 0,2.20502 0.1298,3.24268 z"
             style="font-style:normal;font-variant:normal;font-weight:normal;font-stretch:normal;font-family:'Songti TC';-inkscape-font-specification:'Songti TC'"
             id="path9226" />
        </g>
      </g>
    </g>
  </g>
</svg>
