<?xml version="1.0" encoding="UTF-8" standalone="no"?>
<!-- Created with Inkscape (http://www.inkscape.org/) -->

<svg
   xmlns:dc="http://purl.org/dc/elements/1.1/"
   xmlns:cc="http://creativecommons.org/ns#"
   xmlns:rdf="http://www.w3.org/1999/02/22-rdf-syntax-ns#"
   xmlns:svg="http://www.w3.org/2000/svg"
   xmlns="http://www.w3.org/2000/svg"
   xmlns:sodipodi="http://sodipodi.sourceforge.net/DTD/sodipodi-0.dtd"
   xmlns:inkscape="http://www.inkscape.org/namespaces/inkscape"
   width="6in"
   height="4in"
   viewBox="0 0 540.00001 360.00001"
   id="svg4154"
   version="1.1"
   inkscape:version="0.91 r13725"
   sodipodi:docname="save-our-planet-bird.svg"
   inkscape:export-filename="/Users/jslate/personal/postcards/save-our-planet-bird.png"
   inkscape:export-xdpi="93.5"
   inkscape:export-ydpi="93.5">
  <defs
     id="defs4156" />
  <sodipodi:namedview
     id="base"
     pagecolor="#ffffff"
     bordercolor="#666666"
     borderopacity="1.0"
     inkscape:pageopacity="1"
     inkscape:pageshadow="2"
     inkscape:zoom="1.2100764"
     inkscape:cx="53.930057"
     inkscape:cy="131.27467"
     inkscape:document-units="px"
     inkscape:current-layer="layer1"
     showgrid="false"
     units="in"
     inkscape:window-width="1436"
     inkscape:window-height="855"
     inkscape:window-x="0"
     inkscape:window-y="1"
     inkscape:window-maximized="1" />
  <metadata
     id="metadata4159">
    <rdf:RDF>
      <cc:Work
         rdf:about="">
        <dc:format>image/svg+xml</dc:format>
        <dc:type
           rdf:resource="http://purl.org/dc/dcmitype/StillImage" />
        <dc:title />
      </cc:Work>
    </rdf:RDF>
  </metadata>
  <g
     inkscape:label="Layer 1"
     inkscape:groupmode="layer"
     id="layer1"
     transform="translate(0,-692.36215)">
    <g
       style="font-style:normal;font-weight:normal;font-size:55.5014534px;line-height:0%;font-family:sans-serif;text-align:start;letter-spacing:0px;word-spacing:0px;text-anchor:start;fill:#000000;fill-opacity:1;stroke:none;stroke-width:1px;stroke-linecap:butt;stroke-linejoin:miter;stroke-opacity:1"
       id="text4803">
      <path
         d="m 80.724859,969.45889 q 0,-3.55209 1.332035,-5.82765 1.387536,-2.33106 3.44109,-3.6631 2.109055,-1.38753 4.60662,-1.88705 2.553067,-0.55501 4.884128,-0.55501 0.666018,0 1.665044,0.0555 1.054527,0.0555 2.164556,0.1665 1.165531,0.11101 2.331058,0.33301 1.22104,0.16651 2.27556,0.49952 0.11101,1.44303 0.16651,2.71957 0.0555,1.22103 0.0555,2.83057 0,1.60954 -0.0555,3.10808 -0.0555,1.44304 -0.16651,2.77508 -0.44401,-0.0555 -1.16553,-0.16651 -0.66601,-0.111 -1.44304,-0.1665 -0.72151,-0.0555 -1.498534,-0.11101 -0.721519,-0.0555 -1.387537,-0.0555 -2.66407,0 -3.885102,0.83252 -1.221032,0.83253 -1.221032,2.27556 0,0.83253 0.388511,1.60955 0.38851,0.72152 0.999026,1.38753 0.666017,0.66602 1.443038,1.27654 0.832521,0.61051 1.665043,1.16553 1.332035,0.94352 2.66407,2.10905 1.387537,1.11003 2.497567,2.71957 1.11003,1.55404 1.83155,3.6631 0.72152,2.05355 0.72152,4.77312 0,3.5521 -1.22104,5.99416 -1.22103,2.44206 -3.16358,3.99608 -1.887049,1.4986 -4.273612,2.2201 -2.331061,0.666 -4.662122,0.666 -1.054527,0 -2.608568,-0.1665 -1.498539,-0.111 -3.05258,-0.3885 -1.554041,-0.222 -2.941577,-0.555 -1.387536,-0.3885 -2.220058,-0.8881 -0.222006,-0.999 -0.38851,-2.0535 -0.111003,-1.05453 -0.111003,-2.33107 0,-0.88802 0.0555,-2.16455 0.111003,-1.27654 0.222006,-2.60857 0.111003,-1.33204 0.222006,-2.55307 0.166504,-1.22103 0.277507,-2.05355 0.610516,0.33301 1.776047,0.77702 1.16553,0.38851 2.497565,0.77702 1.387537,0.38851 2.775073,0.66602 1.387536,0.2775 2.442064,0.2775 1.776046,0 2.66407,-0.72152 0.888023,-0.77702 0.888023,-2.05355 0,-1.38754 -0.999026,-2.44206 -0.999027,-1.11003 -2.497566,-2.16456 -1.498539,-1.05453 -3.274586,-2.22006 -1.720545,-1.22103 -3.219084,-2.83057 -1.498539,-1.60954 -2.497565,-3.7741 -0.999026,-2.22006 -0.999026,-5.27264 z"
         style="font-style:normal;font-variant:normal;font-weight:normal;font-stretch:normal;font-family:Ranchers;-inkscape-font-specification:Ranchers"
         id="path4141" />
      <path
         d="m 104.70842,1003.5923 8.21422,-45.4002 13.70886,0 8.15871,45.4002 -9.37974,0 -1.38754,-9.10225 -8.54722,0 -1.33204,9.10225 -9.43525,0 z m 12.26582,-19.03701 5.55015,0 -2.77507,-18.31548 -2.77508,18.31548 z"
         style="font-style:normal;font-variant:normal;font-weight:normal;font-stretch:normal;font-family:Ranchers;-inkscape-font-specification:Ranchers"
         id="path4143" />
      <path
         d="m 154.17323,958.1921 9.43525,0 -8.99124,45.4002 -13.76436,0 -8.99123,-45.4002 9.49074,0 6.38267,34.5219 6.43817,-34.5219 z"
         style="font-style:normal;font-variant:normal;font-weight:normal;font-stretch:normal;font-family:Ranchers;-inkscape-font-specification:Ranchers"
         id="path4145" />
      <path
         d="m 185.4483,1003.7588 q -1.55404,-0.055 -4.10711,-0.111 -2.55307,0 -5.49464,-0.055 -2.88608,0 -5.82766,0 -2.88607,0 -5.10613,0 0.0555,-1.1655 0.0555,-3.1081 0.0555,-1.94255 0.0555,-4.44011 0,-2.49757 0,-5.38364 0,-2.94158 0,-6.04966 0,-4.21811 -0.0555,-8.43622 0,-4.21811 0,-7.82571 0,-3.66309 -0.0555,-6.32716 0,-2.66407 0,-3.7741 2.16456,0 4.77312,0 2.60857,0 5.32814,0 2.71958,-0.0555 5.32814,-0.11101 2.60857,-0.0555 4.88413,-0.111 0,0.72152 0,1.27654 0.0555,0.49951 0.0555,1.44303 0,0.66602 -0.0555,1.60955 0,0.88802 -0.0555,1.88704 0,0.94353 -0.0555,1.94256 0,0.94352 -0.0555,1.77604 l -11.15579,0 0,6.43817 9.71275,0 0,8.26972 -9.71275,0 0,6.21616 11.32229,0 q 0.0555,1.27653 0.111,2.60857 0.0555,1.33203 0.0555,2.99708 0.0555,1.66504 0.0555,3.9406 0,2.22005 0,5.32815 z"
         style="font-style:normal;font-variant:normal;font-weight:normal;font-stretch:normal;font-family:Ranchers;-inkscape-font-specification:Ranchers"
         id="path4147" />
      <path
         d="m 210.14992,957.52608 q 8.26971,0 12.21032,5.88315 3.9406,5.88316 3.9406,17.09445 0,11.3778 -3.8851,17.53846 -3.8296,6.16066 -12.26582,6.16066 -4.16261,0 -7.21519,-1.554 -3.05258,-1.6096 -5.05064,-4.60666 -1.99805,-3.05258 -2.94157,-7.43719 -0.94353,-4.44012 -0.94353,-10.10127 0,-11.3778 3.94061,-17.14995 3.9406,-5.82765 12.21032,-5.82765 z m 0,32.35735 q 1.77604,0 3.10808,-0.77702 1.38753,-0.83253 2.27556,-2.22006 0.88802,-1.44304 1.33203,-3.38559 0.44401,-1.99805 0.44401,-4.38462 0,-2.38656 -0.44401,-4.38461 -0.44401,-2.05355 -1.33203,-3.55209 -0.88803,-1.49854 -2.27556,-2.33106 -1.33204,-0.83253 -3.10808,-0.83253 -1.77605,0 -3.10809,0.88803 -1.27653,0.83252 -2.22005,2.33106 -0.88803,1.49854 -1.33204,3.55209 -0.44401,1.99805 -0.44401,4.32911 0,2.38657 0.44401,4.38462 0.44401,1.94255 1.33204,3.38559 0.94352,1.38753 2.22005,2.22006 1.33204,0.77702 3.10809,0.77702 z"
         style="font-style:normal;font-variant:normal;font-weight:normal;font-stretch:normal;font-family:Ranchers;-inkscape-font-specification:Ranchers"
         id="path4149" />
      <path
         d="m 258.51249,958.13659 q 0.11101,8.10322 0.33301,14.04187 0.22201,5.88316 0.22201,10.04577 0,2.71957 -0.16651,5.43914 -0.1665,2.66407 -0.72152,5.10613 -0.55501,2.44207 -1.60954,4.55112 -0.99902,2.05355 -2.71957,3.60758 -1.66504,1.5541 -4.16261,2.4421 -2.49756,0.8325 -5.93865,0.8325 -3.5521,0 -6.10516,-0.888 -2.49757,-0.9435 -4.21811,-2.4976 -1.72055,-1.55403 -2.77508,-3.66308 -0.99902,-2.16456 -1.55404,-4.60662 -0.55501,-2.44207 -0.72152,-5.05064 -0.1665,-2.60856 -0.1665,-5.21713 0,-2.05356 0.0555,-4.38462 0.0555,-2.33106 0.16651,-5.21713 0.111,-2.88608 0.222,-6.43817 0.16651,-3.5521 0.33301,-8.04771 l 9.76826,0 q -0.16651,4.99513 -0.27751,8.49172 -0.111,3.44109 -0.22201,5.77215 -0.0555,2.33106 -0.111,3.7186 0,1.33203 -0.0555,2.05355 0,0.72152 0,1.05453 0,0.27751 0,0.44401 0,5.38364 1.22103,8.10321 1.22103,2.71957 4.38462,2.71957 3.21908,0 4.32911,-2.94157 1.16553,-2.94158 1.16553,-8.93574 0,-0.2775 0,-0.61051 0,-0.38851 -0.0555,-1.16553 0,-0.77702 -0.0555,-2.05356 0,-1.33203 -0.11101,-3.49659 -0.0555,-2.22006 -0.1665,-5.38364 -0.111,-3.21908 -0.27751,-7.7702 l 9.99026,-0.0555 z"
         style="font-style:normal;font-variant:normal;font-weight:normal;font-stretch:normal;font-family:Ranchers;-inkscape-font-specification:Ranchers"
         id="path4151" />
      <path
         d="m 261.768,1003.5923 q 0.16651,-5.27265 0.22201,-10.48979 0.0555,-5.27264 0.0555,-9.99026 0,-6.71568 -0.111,-12.76534 -0.0555,-6.04965 -0.16651,-12.15481 2.71957,-0.27751 5.43914,-0.44402 2.77508,-0.222 5.60565,-0.222 4.05161,0 7.6037,0.61051 3.55209,0.55502 6.16066,2.16456 2.60857,1.55404 4.10711,4.32911 1.55404,2.77508 1.55404,7.15969 0,5.43914 -2.27556,8.54723 -2.22006,3.10808 -6.04966,4.66212 l 9.04674,18.593 -9.87926,0 -7.38169,-16.92796 q -2.27556,0.16651 -4.71763,0.16651 0,4.27361 0.0555,8.38072 0.0555,4.1071 0.33301,8.38073 l -9.60175,0 z m 9.21324,-25.19767 q 1.72055,0.1665 3.16359,0.1665 3.77409,0 5.32814,-1.38754 1.60954,-1.44303 1.60954,-4.27361 0,-1.72054 -0.49952,-2.77507 -0.44401,-1.05453 -1.27653,-1.66504 -0.77702,-0.61052 -1.88705,-0.83253 -1.05453,-0.222 -2.27556,-0.222 -0.88802,0 -1.99805,0.111 -1.05453,0.0555 -2.16456,0.22201 l 0,10.65628 z"
         style="font-style:normal;font-variant:normal;font-weight:normal;font-stretch:normal;font-family:Ranchers;-inkscape-font-specification:Ranchers"
         id="path4153" />
      <path
         d="m 310.82522,978.06162 q 0.99902,0.2775 1.88705,0.38851 0.94352,0.0555 1.60954,0.0555 1.05453,0 1.99805,-0.22201 0.99903,-0.2775 1.72055,-0.88802 0.72152,-0.61052 1.16553,-1.60954 0.44401,-1.05453 0.44401,-2.66407 0,-1.66505 -0.49951,-2.71957 -0.44402,-1.11003 -1.22104,-1.72055 -0.77702,-0.61052 -1.83154,-0.83252 -0.99903,-0.22201 -2.10906,-0.22201 -1.60954,0 -3.16358,0.33301 l 0,10.10127 z m -9.49075,25.53068 q 0.1665,-5.27265 0.222,-10.48979 0.0555,-5.27264 0.0555,-9.99026 0,-6.71568 -0.11101,-12.76534 -0.0555,-6.04965 -0.1665,-12.15481 2.71957,-0.27751 5.43914,-0.44402 2.77507,-0.222 5.43914,-0.222 3.8296,0 7.15969,0.61051 3.33009,0.61052 5.77215,2.27556 2.49757,1.60955 3.94061,4.55112 1.44303,2.88608 1.44303,7.4372 0,4.21811 -1.22103,7.21519 -1.22103,2.94157 -3.44109,4.82862 -2.16456,1.83155 -5.21714,2.66407 -3.05258,0.83253 -6.77117,0.83253 -0.94353,0 -1.66505,-0.0555 -0.66601,-0.0555 -1.49854,-0.1665 0,3.9961 0.0555,7.93671 0.0555,3.9406 0.333,7.93672 l -9.76825,0 z"
         style="font-style:normal;font-variant:normal;font-weight:normal;font-stretch:normal;font-family:Ranchers;-inkscape-font-specification:Ranchers"
         id="path4155" />
      <path
         d="m 341.93898,958.1921 q -0.1665,7.6037 -0.2775,12.54332 -0.0555,4.93963 -0.11101,8.32522 -0.0555,3.33009 -0.0555,5.60565 0,2.27556 0,4.60662 l 8.71373,-0.33301 q 0.111,1.83155 0.1665,3.6076 0.0555,1.77604 0.0555,3.55209 0,1.83155 -0.0555,3.7186 -0.0555,1.83151 -0.1665,3.77411 l -17.92697,0 q 0.1665,-7.77022 0.22201,-15.92893 0.111,-8.15872 0.111,-15.92892 0,-3.60759 0,-6.99318 0,-3.38559 -0.0555,-6.54917 l 9.37974,0 z"
         style="font-style:normal;font-variant:normal;font-weight:normal;font-stretch:normal;font-family:Ranchers;-inkscape-font-specification:Ranchers"
         id="path4157" />
      <path
         d="m 350.99613,1003.5923 8.21421,-45.4002 13.70886,0 8.15871,45.4002 -9.37974,0 -1.38754,-9.10225 -8.54722,0 -1.33204,9.10225 -9.43524,0 z m 12.26582,-19.03701 5.55014,0 -2.77507,-18.31548 -2.77507,18.31548 z"
         style="font-style:normal;font-variant:normal;font-weight:normal;font-stretch:normal;font-family:Ranchers;-inkscape-font-specification:Ranchers"
         id="path4159" />
      <path
         d="m 404.45529,958.1921 7.93671,0 q -0.16651,11.32229 -0.16651,22.70009 0,11.3778 0.16651,22.70011 l -10.71179,0 -11.7663,-27.14023 0,27.14023 -7.6037,0 q 0.111,-5.71666 0.1665,-11.32231 0.0555,-5.66115 0.0555,-11.3778 0,-5.71665 -0.0555,-11.3223 -0.0555,-5.66114 -0.1665,-11.37779 l 11.21129,0 10.93379,27.08471 0,-27.08471 z"
         style="font-style:normal;font-variant:normal;font-weight:normal;font-stretch:normal;font-family:Ranchers;-inkscape-font-specification:Ranchers"
         id="path4161" />
      <path
         d="m 435.96366,1003.7588 q -1.55405,-0.055 -4.10711,-0.111 -2.55307,0 -5.49465,-0.055 -2.88607,0 -5.82765,0 -2.88607,0 -5.10613,0 0.0555,-1.1655 0.0555,-3.1081 0.0555,-1.94255 0.0555,-4.44011 0,-2.49757 0,-5.38364 0,-2.94158 0,-6.04966 0,-4.21811 -0.0555,-8.43622 0,-4.21811 0,-7.82571 0,-3.66309 -0.0555,-6.32716 0,-2.66407 0,-3.7741 2.16455,0 4.77312,0 2.60857,0 5.32814,0 2.71957,-0.0555 5.32814,-0.11101 2.60857,-0.0555 4.88413,-0.111 0,0.72152 0,1.27654 0.0555,0.49951 0.0555,1.44303 0,0.66602 -0.0555,1.60955 0,0.88802 -0.0555,1.88704 0,0.94353 -0.0555,1.94256 0,0.94352 -0.0555,1.77604 l -11.1558,0 0,6.43817 9.71276,0 0,8.26972 -9.71276,0 0,6.21616 11.3223,0 q 0.0555,1.27653 0.111,2.60857 0.0555,1.33203 0.0555,2.99708 0.0555,1.66504 0.0555,3.9406 0,2.22005 0,5.32815 z"
         style="font-style:normal;font-variant:normal;font-weight:normal;font-stretch:normal;font-family:Ranchers;-inkscape-font-specification:Ranchers"
         id="path4163" />
      <path
         d="m 459.60815,968.45987 -6.38267,0 q -0.111,4.93962 -0.1665,10.04576 -0.0555,5.05063 -0.0555,10.93378 0,3.7741 0,6.10516 0,2.27556 0,3.7741 0,1.44303 0,2.38653 0.0555,0.8881 0.0555,1.8871 l -9.32425,0 q 0.0555,-2.4421 0.111,-5.05065 0.0555,-2.66407 0.0555,-5.71665 0.0555,-3.10808 0.0555,-6.66017 0.0555,-3.6076 0.0555,-7.93671 0,-3.16358 0,-5.49464 0,-2.33106 -0.0555,-4.27361 l -6.38267,0 0,-10.26777 22.03408,0 0,10.26777 z"
         style="font-style:normal;font-variant:normal;font-weight:normal;font-stretch:normal;font-family:Ranchers;-inkscape-font-specification:Ranchers"
         id="path4165" />
    </g>
    <path
       id="path5637"
       d="m 252.76138,929.59997 c -1.00397,-1.20976 -4.26797,-1.77949 -9.4427,-1.64829 -3.3578,0.0851 -5.51593,-0.0924 -6.39666,-0.52601 -0.73113,-0.35994 -1.41524,-0.57971 -1.52024,-0.4885 -0.10501,0.0913 -1.04607,0.32057 -2.09123,0.50948 -1.41737,0.25626 -1.9003,0.17189 -1.9003,-0.33197 0,-0.52737 -1.69425,-0.70513 -7.72788,-0.81059 -8.14746,-0.14249 -10.98523,-0.58868 -12.0722,-1.89847 -0.51881,-0.62512 -0.53158,-1.00635 -0.059,-1.76302 0.84439,-1.35205 0.75621,-1.64429 -0.40452,-1.3407 -0.55413,0.14488 -1.52328,-0.13656 -2.15367,-0.62547 -2.40553,-1.86554 -3.7484,-2.24656 -8.2407,-2.33808 -2.87842,-0.0586 -5.28435,-0.39708 -6.52284,-0.91766 -1.07921,-0.45364 -2.7538,-0.82483 -3.72133,-0.82483 -1.333,0 -1.82338,-0.24552 -2.0242,-1.01349 -0.14577,-0.55737 -0.42087,-1.0135 -0.61134,-1.0135 -0.73164,0 -1.5625,1.26646 -1.5625,2.38176 0,1.39228 0.0374,1.38884 -3.37067,0.31449 -1.48482,-0.46803 -2.81609,-1.21792 -2.95843,-1.66639 -0.14234,-0.44847 -1.29474,-1.68133 -2.56089,-2.73972 l -2.3021,-1.92431 -1.71797,1.31034 c -2.0469,1.56123 -4.79113,1.71756 -8.87261,0.50543 -1.74584,-0.51845 -3.48216,-0.68923 -4.8786,-0.47984 -2.71625,0.40732 -6.01355,-0.44827 -6.96572,-1.80746 -0.53188,-0.75936 -0.82929,-0.86867 -1.11327,-0.4092 -0.23935,0.38726 0.13869,1.07957 0.98886,1.81081 1.07891,0.92805 1.1872,1.18386 0.50116,1.18386 -0.48134,0 -1.27507,0.36191 -1.76383,0.80425 -0.81718,0.73955 -1.03888,0.70215 -2.75568,-0.46443 -1.59048,-1.08079 -2.25867,-1.22825 -4.51146,-0.99571 -2.2124,0.22834 -2.94465,0.0766 -4.48196,-0.92911 -1.01066,-0.66115 -2.36113,-2.05106 -3.0011,-3.08872 -1.39062,-2.25482 -2.45706,-2.38449 -5.01745,-0.61017 -1.26879,0.87925 -2.59763,1.31835 -4.08123,1.34855 -3.55852,0.0725 -4.872,-0.75855 -6.36979,-4.0301 -0.73088,-1.5964 -1.42269,-2.62099 -1.53742,-2.27681 -0.42595,1.27786 -2.06549,1.69593 -3.57985,0.9128 -0.79301,-0.41006 -3.47445,-1.01248 -5.95883,-1.33867 -2.48437,-0.32619 -4.79533,-0.81804 -5.13536,-1.09305 -1.03082,-0.83329 -5.801729,0.0927 -7.401529,1.43657 -0.78783,0.66176 -1.98502,1.20317 -2.66041,1.20317 l -1.228,0 0,-61.14393 2.27017,2.17521 c 3.3093,3.17091 4.944779,3.85395 9.625639,4.02016 9.00994,0.31993 19.30853,1.30771 20.2825,1.94535 0.58798,0.3849 3.24748,0.77588 6.33432,0.93114 2.92646,0.14724 6.26642,0.61717 7.42231,1.04431 2.09007,0.77243 9.13966,1.46419 16.39474,1.60881 6.35156,0.12661 9.71534,0.76985 11.40179,2.1801 0.83613,0.69921 1.52023,1.51918 1.52023,1.82221 0,0.71081 2.95529,1.33284 8.36131,1.75993 2.36904,0.18719 4.80542,0.62269 5.41407,0.96778 0.60876,0.34515 2.25132,0.62751 3.65009,0.62751 1.39877,0 3.06703,0.21536 3.7072,0.47852 0.64023,0.2632 2.8471,0.98845 4.90419,1.6117 l 3.74019,1.13319 0.98947,-1.35834 c 1.22435,-1.68072 3.62247,-1.86168 4.56978,-0.34484 0.6875,1.10086 2.21458,1.36472 2.5241,0.43616 0.21627,-0.64879 4.64681,-0.82179 6.23855,-0.24359 0.82762,0.3006 1.67758,-0.29407 4.39795,-3.07712 1.85464,-1.89735 4.99094,-5.38822 6.96978,-7.75726 3.54332,-4.24248 3.59278,-4.3417 3.28057,-6.5877 -0.17433,-1.25419 -0.42032,-2.44829 -0.54668,-2.65352 -0.12632,-0.20525 -2.4231,-1.90243 -5.10394,-3.77156 -2.68084,-1.86908 -6.26085,-4.66621 -7.9554,-6.21574 -6.29835,-5.75866 -9.39152,-8.15608 -10.91886,-8.46164 -2.01791,-0.40359 -4.58843,-2.99315 -7.16336,-7.21657 -1.12421,-1.84385 -2.83382,-4.60663 -3.79912,-6.13973 -2.30169,-3.65511 -4.2591,-9.91195 -4.24906,-13.58181 0.009,-3.16214 0.81343,-6.8436 2.50109,-11.44232 1.2616,-3.43741 1.5514,-9.08798 0.62933,-12.26983 -0.76615,-2.6439 -2.55233,-5.28182 -6.6855,-9.87293 -1.81161,-2.01249 -3.59181,-4.08103 -3.95601,-4.59685 -0.36419,-0.51581 -0.98603,-0.93778 -1.3819,-0.93778 -0.39583,0 -1.08656,-0.5599 -1.53498,-1.24426 -1.42431,-2.17379 -6.92823,-4.73676 -14.31962,-6.66827 -3.81261,-0.99632 -7.12739,-1.99673 -7.36606,-2.2231 -0.72272,-0.68502 1.76753,-1.9195 5.05681,-2.50682 1.70632,-0.30467 5.81086,-0.50317 9.12143,-0.44111 5.4835,0.10279 6.31203,-0.006 9.31297,-1.22623 1.81162,-0.73645 5.46019,-1.97864 8.10794,-2.76034 4.2145,-1.24432 5.6345,-1.41915 11.40178,-1.40374 7.13701,0.0191 10.84993,0.79133 14.72553,3.06262 2.98676,1.75035 8.41046,7.65338 13.62133,14.82586 2.49156,3.42935 5.39278,7.21505 6.44682,8.41249 2.4714,2.80768 9.33172,7.4897 16.38765,11.18439 6.86641,3.59556 12.33369,7.17602 18.07917,11.84062 l 4.39724,3.56992 2.44383,-0.81373 c 1.34414,-0.44754 2.67187,-0.98152 2.95058,-1.18665 0.27871,-0.2051 1.07683,-0.54394 1.77361,-0.75297 1.23722,-0.37118 5.24532,-2.19517 13.42876,-6.11085 2.22968,-1.0669 6.56236,-3.57063 9.62817,-5.56407 3.06582,-1.99318 7.39849,-4.69829 9.62817,-6.01152 2.22969,-1.31303 6.00494,-3.58371 8.38969,-5.04592 9.53442,-5.84684 24.68663,-13.49769 26.73084,-13.49769 0.27038,0 2.04776,-0.72819 3.94968,-1.61824 2.37993,-1.11367 4.72809,-1.75922 7.53126,-2.07036 6.8958,-0.76534 9.0748,-0.66161 10.72122,0.51045 1.29479,0.92197 2.04827,1.0295 6.03078,0.8608 3.90828,-0.16555 4.26472,-0.11735 2.524,0.34129 -3.41106,0.89876 -3.67913,1.09219 -2.02698,1.46267 1.37211,0.30771 1.2098,0.40548 -1.66593,1.00356 -4.6314,0.96322 -3.8239,1.83275 1.49612,1.61115 2.83205,-0.11796 5.3791,0.098 7.46892,0.63343 1.74417,0.44684 3.76649,0.81241 4.49403,0.81241 1.27188,0 1.28495,0.0286 0.33913,0.74401 -0.89004,0.67321 -0.89927,0.74552 -0.0969,0.76012 2.82293,0.0513 -0.78564,2.02247 -6.461,3.52928 -4.76144,1.26418 -17.80046,6.26338 -22.72907,8.71451 -5.43687,2.70379 -17.59573,9.04946 -24.65166,12.86526 -3.20517,1.73348 -7.8799,4.23619 -10.38829,5.56154 -8.56249,4.52407 -9.60689,5.23215 -11.52847,7.813 -1.04516,1.40389 -1.9003,2.87254 -1.9003,3.2637 0,0.39118 -0.34205,0.9951 -0.76012,1.34207 -0.41806,0.34696 -0.76011,0.95212 -0.76011,1.3448 0,0.39268 -0.35297,0.8494 -0.7844,1.01496 -0.4314,0.16555 -1.66415,1.59655 -2.73946,3.17998 -1.07532,1.58343 -2.77109,3.43614 -3.76842,4.11711 -2.02105,1.37997 -2.6705,2.49182 -1.77776,3.04351 1.03406,0.63911 0.0756,2.71697 -1.59058,3.44841 -0.86836,0.38119 -1.70292,1.01628 -1.85449,1.41134 -0.15159,0.39504 0.51187,2.02146 1.47433,3.61426 0.96246,1.5928 2.27017,4.1502 2.90604,5.68315 1.11337,2.68419 2.92209,5.22557 6.46101,9.07836 2.61485,2.84664 1.99896,3.27175 -1.57284,1.08555 -4.55935,-2.7906 -6.8659,-3.90509 -8.91569,-4.3079 -0.97548,-0.19171 -3.34787,-0.81946 -5.27218,-1.39497 l -3.49837,-1.04643 -2.83596,1.44154 c -1.55976,0.79285 -2.91895,1.4948 -3.0204,1.55981 -0.10146,0.0651 0.2976,0.73114 0.8868,1.48016 1.33148,1.69273 1.37156,3.78255 0.10254,5.34971 -0.87358,1.07881 -1.3713,1.19633 -5.06746,1.19633 -3.88309,0 -4.09876,0.0586 -4.09876,1.11302 0,0.61214 -0.78074,2.44515 -1.735,4.07332 -2.46714,4.20954 -6.22182,17.16045 -6.536,22.54563 -0.18787,3.21774 0.56705,5.62438 1.92806,6.14683 2.50125,0.95983 9.95148,2.35429 12.59061,2.35667 1.71995,0 3.9966,0.24425 5.0593,0.53938 1.0627,0.29508 2.88698,0.61469 4.05397,0.71016 1.16698,0.0955 3.26197,0.4431 4.65552,0.77248 1.39355,0.32939 3.21784,0.67266 4.05397,0.76286 0.83613,0.0902 2.16218,0.41198 2.94678,0.71512 1.76975,0.68375 4.74466,0.71831 5.15157,0.0598 0.18296,-0.29604 1.33416,-0.0852 2.89621,0.53057 1.42588,0.56203 2.89509,0.9058 3.26486,0.76391 0.36976,-0.14188 2.67146,0.67154 5.11509,1.80757 2.44348,1.13607 5.12675,2.38013 5.96288,2.7646 2.8397,1.30578 10.62443,3.21667 15.20238,3.73152 5.75258,0.64702 5.48248,0.65994 5.13485,-0.24562 -0.16185,-0.42176 -0.44012,-1.84698 -0.61838,-3.16716 -0.17825,-1.32017 -0.86836,-3.47587 -1.53356,-4.79047 -0.66521,-1.3146 -1.20945,-2.64212 -1.20945,-2.94997 0,-0.95836 1.51876,-2.13527 3.20212,-2.48138 2.3245,-0.47796 4.11873,0.62152 5.37455,3.29359 0.59173,1.25886 1.4124,2.41799 1.82373,2.57584 0.4113,0.15785 0.748,0.88965 0.74826,1.6263 0.001,3.52817 2.92433,8.13986 5.17793,8.16925 1.57035,0.0203 4.77608,2.02496 6.32976,3.95814 1.1605,1.44408 2.35596,2.18185 5.01597,3.09556 1.92077,0.65978 3.95338,1.48264 4.51688,1.82859 0.5635,0.34596 2.04573,0.79762 3.29385,1.00377 1.24811,0.20609 2.49734,0.55341 2.77605,0.77182 1.0253,0.80345 14.26895,5.0026 16.72262,5.30208 4.61772,0.56386 7.74915,1.82915 8.39677,3.39297 0.44235,1.06792 1.03149,1.48233 2.42803,1.70804 1.0142,0.16393 2.36777,0.51156 3.00799,0.77248 0.64022,0.26097 1.68199,0.47452 2.31507,0.47452 0.63308,0 2.3326,0.35087 3.77677,0.77973 l 2.62571,0.77973 0,11.10888 -82.28539,0 c -68.10158,0 -82.38167,-0.11691 -82.84788,-0.67813 z m -9.48122,-57.04945 c 0.48431,-0.53512 1.97955,-1.23666 3.32284,-1.55895 2.01674,-0.48379 2.69882,-0.45318 3.91491,0.17569 0.80998,0.41887 2.94161,0.81586 4.73696,0.88219 3.2455,0.11995 3.27875,0.10713 5.77031,-2.22775 2.70289,-2.53302 2.56373,-2.18773 5.34465,-13.26154 1.79784,-7.1583 1.85459,-8.15912 0.5105,-8.99829 -0.63075,-0.39392 -1.01349,-1.18173 -1.01349,-2.08623 0,-1.33527 -0.11315,-1.4239 -1.39355,-1.09148 -1.98635,0.51572 -10.62849,0.34518 -16.04155,-0.31657 -2.53464,-0.30986 -6.54158,-0.5931 -8.90403,-0.62943 l -4.29568,-0.0661 -0.33025,2.0129 c -0.18849,1.14889 -0.72419,2.23647 -1.24801,2.53373 -0.50478,0.28646 -1.50159,1.13131 -2.21514,1.87739 -0.71355,0.74613 -2.11901,2.0058 -3.12328,2.79931 -1.93541,1.52926 -7.04224,7.15728 -7.04224,7.76132 0,0.19672 0.56588,0.24947 1.25754,0.11721 1.00178,-0.1915 1.43981,0.0798 2.15367,1.33396 0.83734,1.47108 1.08519,1.57456 3.78002,1.57755 3.3583,0.005 3.98713,0.5485 2.07745,1.79976 l -1.36426,0.89389 2.25543,1.07035 c 2.02151,0.95937 2.25542,1.2502 2.25542,2.80454 l 0,1.73418 3.80059,0.86857 c 4.92684,1.12598 4.76615,1.12614 5.7911,-0.006 z m -10.3518,-2.57427 c 0,-0.57338 -0.33783,-1.01349 -0.77796,-1.01349 -0.62091,0 -0.66845,0.20463 -0.23554,1.01349 0.29832,0.55747 0.64838,1.0135 0.77795,1.0135 0.12955,0 0.23555,-0.45603 0.23555,-1.0135 z m -31.41824,-5.06745 c 0,-0.27872 -0.22804,-0.50675 -0.50675,-0.50675 -0.27871,0 -0.50675,0.22803 -0.50675,0.50675 0,0.27876 0.22804,0.50674 0.50675,0.50674 0.27871,0 0.50675,-0.22798 0.50675,-0.50674 z m 22.80356,-1.49029 c 0,-0.2623 -0.22804,-0.61783 -0.50675,-0.79007 -0.27871,-0.17224 -0.50674,0.0426 -0.50674,0.47685 0,0.43453 0.22803,0.79001 0.50674,0.79001 0.27871,0 0.50675,-0.21455 0.50675,-0.47679 z"
       inkscape:connector-curvature="0" />
  </g>
</svg>
