<?xml version="1.0" encoding="UTF-8" standalone="no"?>
<!-- Created with Inkscape (http://www.inkscape.org/) -->

<svg
   xmlns:dc="http://purl.org/dc/elements/1.1/"
   xmlns:cc="http://creativecommons.org/ns#"
   xmlns:rdf="http://www.w3.org/1999/02/22-rdf-syntax-ns#"
   xmlns:svg="http://www.w3.org/2000/svg"
   xmlns="http://www.w3.org/2000/svg"
   xmlns:sodipodi="http://sodipodi.sourceforge.net/DTD/sodipodi-0.dtd"
   xmlns:inkscape="http://www.inkscape.org/namespaces/inkscape"
   width="6in"
   height="4in"
   viewBox="0 0 540.00001 360.00001"
   id="svg4154"
   version="1.1"
   inkscape:version="0.91 r13725"
   sodipodi:docname="save-epa-2.svg">
  <defs
     id="defs4156" />
  <sodipodi:namedview
     id="base"
     pagecolor="#ffffff"
     bordercolor="#666666"
     borderopacity="1.0"
     inkscape:pageopacity="0.0"
     inkscape:pageshadow="2"
     inkscape:zoom="1.2100764"
     inkscape:cx="217.14289"
     inkscape:cy="197.3862"
     inkscape:document-units="px"
     inkscape:current-layer="layer1"
     showgrid="false"
     units="in"
     inkscape:window-width="1436"
     inkscape:window-height="855"
     inkscape:window-x="0"
     inkscape:window-y="1"
     inkscape:window-maximized="1" />
  <metadata
     id="metadata4159">
    <rdf:RDF>
      <cc:Work
         rdf:about="">
        <dc:format>image/svg+xml</dc:format>
        <dc:type
           rdf:resource="http://purl.org/dc/dcmitype/StillImage" />
        <dc:title></dc:title>
      </cc:Work>
    </rdf:RDF>
  </metadata>
  <g
     inkscape:label="Layer 1"
     inkscape:groupmode="layer"
     id="layer1"
     transform="translate(0,-692.36215)">
    <text
       xml:space="preserve"
       style="font-style:normal;font-weight:normal;font-size:55.5014534px;line-height:0%;font-family:sans-serif;text-align:start;letter-spacing:0px;word-spacing:0px;text-anchor:start;fill:#000000;fill-opacity:1;stroke:none;stroke-width:1px;stroke-linecap:butt;stroke-linejoin:miter;stroke-opacity:1"
       x="68.428596"
       y="765.41809"
       id="text4803"
       sodipodi:linespacing="0%"><tspan
         sodipodi:role="line"
         id="tspan4805"
         x="68.428596"
         y="765.41809"
         style="font-style:normal;font-variant:normal;font-weight:normal;font-stretch:normal;font-family:Helvetica;-inkscape-font-specification:Helvetica">SAVE THE EPA</tspan></text>
    <path
       id="path5568"
       d="m 87.832642,918.00895 c -13.946001,-68.247 9.9938,-101.44 89.427998,-128.34 40.743,1.1785 77.464,9.5643 122.23,3.5355 29.073,-21.162 34.225,-7.3943 43.505,-2.1213 25.205,21.92 48.084,43.841 75.616,65.761 5.2072,0.73993 12.331,-0.59888 15.197,0.32385 3.5254,1.1352 -6.635,7.2355 -2.193,10.621 1.1956,0.91119 -3.939,2.618 -2.917,4.1014 4.563,6.6237 12.886,20.447 9.9396,33.39 3.0172,8.3611 10.27,18.378 16.919,25.809 l -11.394,12.374 c -9.3727,2.0731 -17.315,0.48389 -24.86,-2.1213 l -3.1074,5.6568 c -15.674,-3.6832 -31.628,-4.1067 -49.03,-14.496 -32.811,-5.2391 -51.041,6.5815 -40.052,36.77 3.7838,9.6638 -0.4566,22.156 10.013,31.82 l 22.443,14.142 2.7623,5.6568 c -9.0898,6.6135 -23.256,9.122 -58.007,3.5356 -19.164,-23.855 -38.662,-45.321 -56.971,-75.307 -10.122,3.9133 -20.843,5.3756 -32.802,1.7678 -4.0373,15.122 -8.1145,30.407 -10.358,38.184 1.1164,6.4724 6.5257,11.186 21.407,12.021 -1.0828,3.8061 6.0486,11.818 -4.8339,10.607 -2.7136,3.9963 -10.215,0.4184 -20.026,2.8285 -4.2748,7.5416 -6.9209,3.4096 -10.358,4.9497 -5.2943,2.8284 -11.049,2.8284 -17.264,0 -4.0283,2.7167 -8.0565,0.4035 -12.085,-0.3535 -3.0907,3.6993 -24.306,-0.9078 -33.147,-1.4142 -0.31735,-3.9721 -2.9287,-13.605 -3.1075,-19.44602 -8.8469,-27.767 -21.661,-54.373 -36.944998,-80.257 z"
       inkscape:connector-curvature="0"
       style="fill-rule:evenodd;stroke:#000000;stroke-width:2" />
  </g>
</svg>
