<?xml version="1.0" encoding="UTF-8" standalone="no"?>
<!-- Created with Inkscape (http://www.inkscape.org/) -->

<svg
   xmlns:dc="http://purl.org/dc/elements/1.1/"
   xmlns:cc="http://creativecommons.org/ns#"
   xmlns:rdf="http://www.w3.org/1999/02/22-rdf-syntax-ns#"
   xmlns:svg="http://www.w3.org/2000/svg"
   xmlns="http://www.w3.org/2000/svg"
   xmlns:sodipodi="http://sodipodi.sourceforge.net/DTD/sodipodi-0.dtd"
   xmlns:inkscape="http://www.inkscape.org/namespaces/inkscape"
   width="6in"
   height="4in"
   viewBox="0 0 540.00001 360.00001"
   id="svg4154"
   version="1.1"
   inkscape:version="0.91 r13725"
   sodipodi:docname="save-epa-4.svg">
  <defs
     id="defs4156" />
  <sodipodi:namedview
     id="base"
     pagecolor="#ffffff"
     bordercolor="#666666"
     borderopacity="1.0"
     inkscape:pageopacity="0.0"
     inkscape:pageshadow="2"
     inkscape:zoom="1.2100764"
     inkscape:cx="217.14289"
     inkscape:cy="197.3862"
     inkscape:document-units="px"
     inkscape:current-layer="layer1"
     showgrid="false"
     units="in"
     inkscape:window-width="1436"
     inkscape:window-height="855"
     inkscape:window-x="0"
     inkscape:window-y="1"
     inkscape:window-maximized="1" />
  <metadata
     id="metadata4159">
    <rdf:RDF>
      <cc:Work
         rdf:about="">
        <dc:format>image/svg+xml</dc:format>
        <dc:type
           rdf:resource="http://purl.org/dc/dcmitype/StillImage" />
        <dc:title></dc:title>
      </cc:Work>
    </rdf:RDF>
  </metadata>
  <g
     inkscape:label="Layer 1"
     inkscape:groupmode="layer"
     id="layer1"
     transform="translate(0,-692.36215)">
    <text
       xml:space="preserve"
       style="font-style:normal;font-weight:normal;font-size:55.5014534px;line-height:0%;font-family:sans-serif;text-align:start;letter-spacing:0px;word-spacing:0px;text-anchor:start;fill:#000000;fill-opacity:1;stroke:none;stroke-width:1px;stroke-linecap:butt;stroke-linejoin:miter;stroke-opacity:1"
       x="68.428596"
       y="765.41809"
       id="text4803"
       sodipodi:linespacing="0%"><tspan
         sodipodi:role="line"
         id="tspan4805"
         x="68.428596"
         y="765.41809"
         style="font-style:normal;font-variant:normal;font-weight:normal;font-stretch:normal;font-family:Helvetica;-inkscape-font-specification:Helvetica">SAVE THE EPA</tspan></text>
    <g
       id="g5753"
       transform="matrix(0.58984203,0,0,0.58984203,78.81004,745.25337)"
       style="clip-rule:evenodd;fill-rule:evenodd">
      <path
         id="path5755"
         d="m 337.61,389.1 c -1.168,-0.128 -1.772,-0.24 -2.379,-0.253 -7.87,-0.168 -15.742,-0.499 -23.611,-0.442 -16.464,0.12 -32.901,-0.822 -48.939,-4.351 -12.305,-2.707 -24.447,-6.574 -36.262,-10.992 -19.792,-7.401 -36.367,-19.991 -51.598,-34.406 -12.385,-11.722 -22.077,-25.44 -29.345,-40.812 -4.381,-9.265 -8.847,-18.572 -12.125,-28.25 -2.625,-7.752 -3.986,-16.028 -5.067,-24.184 -1.52,-11.458 -2.441,-23.007 -3.277,-34.542 -0.657,-9.072 -0.176,-18.261 -1.328,-27.254 -1.36,-10.62 -2.138,-21.687 -8.575,-30.849 -3.561,-5.067 -8.146,-9.407 -12.156,-14.169 C 94.015,127.989 89.51,115.437 87.659,101.93 86.638,94.476 86.364,86.909 86.008,79.382 c -0.076,-1.603 0.49,-4.125 1.575,-4.708 2.199,-1.18 4.914,-0.707 6.502,1.63 2.467,3.628 4.509,7.553 7.069,11.109 6.624,9.199 13.97,17.696 25.806,20.101 4.465,0.907 9.045,1.128 12.752,4.19 1.422,1.175 2.805,2.397 3.991,3.413 1.964,-0.498 3.894,-1.516 5.708,-1.341 4.227,0.406 6.012,4.004 8.353,7.025 2.323,2.998 5.086,5.83 8.164,8.022 3.943,2.81 8.25,0.741 12.195,-0.603 5.517,-1.879 8.451,-0.032 8.85,5.778 0.518,7.533 -2.224,13.932 -6.178,20.107 -3.494,5.457 -7.561,10.311 -13.427,13.136 -3.478,1.675 -7.369,2.491 -11.076,3.687 -0.487,0.157 -0.984,0.279 -1.765,0.498 0.174,0.812 0.208,1.603 0.507,2.276 4.002,9.001 7.471,18.3 12.204,26.902 7.506,13.645 16.861,25.954 29.644,35.315 15.354,11.244 32.308,18.113 51.455,18.717 10.21,0.322 20.442,0.199 30.659,-0.006 8.79,-0.178 13.256,-6.506 16.864,-13.242 4.425,-8.261 7.132,-17.142 7.21,-26.647 0.019,-2.275 -0.182,-4.551 -0.167,-6.826 0.022,-3.546 1.854,-5.321 5.356,-5.315 5.033,0.008 9.579,1.869 12.865,5.372 8.296,8.845 16.552,17.784 24.08,27.277 5.888,7.425 10.574,15.795 16.006,23.598 0.935,1.342 2.834,2.548 4.445,2.796 10.965,1.687 21.935,3.86 32.975,4.398 12.209,0.596 24.521,0.016 36.738,-0.797 11.803,-0.786 23.516,-3.164 35.317,-3.668 13.546,-0.579 26.469,2.396 38.054,10.151 6.237,4.174 10.724,9.339 12.397,16.749 1.106,4.896 4.682,7.567 8.98,9.206 8.63,3.289 17.373,6.28 26.055,9.434 2.883,1.047 5.888,6.371 5.768,9.454 -0.105,2.687 0.543,5.426 0.265,8.078 -0.665,6.342 -5.82,7.429 -10.777,8.742 -11.398,3.021 -22.978,3.769 -34.74,4.166 -5.851,0.197 -12.084,2.776 -17.288,5.769 -15.178,8.727 -29.85,18.327 -44.882,27.314 -4.739,2.833 -10.03,4.73 -14.982,7.227 -1.655,0.834 -3.525,1.887 -4.476,3.367 -5.97,9.299 -14.543,15.714 -23.541,21.641 -5.309,3.496 -10.541,7.219 -17.092,8.273 -4.388,0.706 -6.573,-1.476 -5.4,-5.796 0.38,-1.4 1.05,-2.722 1.889,-4.842 -2.132,1.023 -3.688,1.793 -5.263,2.522 -13.224,6.126 -26.559,12.023 -39.636,18.447 -7.804,3.833 -15.795,6.916 -24.277,8.626 -5.989,1.208 -11.941,0.603 -17.138,-2.833 -2.617,-1.73 -2.164,-4.659 0.395,-6.534 5.876,-4.307 11.985,-8.354 17.466,-13.12 3.242,-2.82 5.424,-6.844 8.16,-10.265 1.839,-2.3 3.813,-4.492 5.724,-6.734 0.307,-0.357 0.607,-0.726 1.264,-1.518 z M 90.61,77.75 c -0.336,1.825 -0.526,2.526 -0.587,3.238 -0.778,9.13 0.34,18.104 2.398,26.976 3.675,15.846 11.044,29.464 23.497,40.307 2.821,2.457 5.333,6.266 6.135,9.866 2.854,12.807 5.449,25.688 5.019,38.997 -0.24,7.403 0.096,14.889 0.939,22.25 1.407,12.281 2.79,24.628 5.345,36.701 3.584,16.931 11.007,32.486 19.711,47.385 7.962,13.629 17.339,26.13 30.304,35.461 7.454,5.365 15.115,10.449 22.789,15.499 11.724,7.714 24.442,13.373 37.788,17.605 13.034,4.134 26.4,6.641 40.035,7.75 8.793,0.715 17.562,1.839 26.367,2.256 10.216,0.484 20.46,0.359 30.688,0.618 0.907,0.023 1.978,0.773 2.604,1.503 0.282,0.328 -0.148,1.583 -0.588,2.167 -3.986,5.295 -8.189,10.433 -12.05,15.816 -4.849,6.765 -10.961,11.944 -18.188,15.988 -1.26,0.705 -2.789,2.528 -2.662,3.662 0.126,1.124 2.11,2.741 3.419,2.889 2.981,0.334 6.265,0.563 9.039,-0.346 8.391,-2.748 16.675,-5.87 24.857,-9.2 8.389,-3.414 16.625,-7.209 24.897,-10.903 10.85,-4.845 21.33,-10.348 30.675,-17.784 3.244,-2.581 5.865,-5.612 10.357,-6.821 9.338,-2.512 18.571,-5.612 27.539,-9.235 7.628,-3.082 15.056,-6.837 22.158,-11.001 13.021,-7.635 24.769,-17.478 39.167,-22.704 4.688,-1.702 9.497,-3.589 14.386,-4.102 9.078,-0.951 18.266,-0.801 27.388,-1.41 5.561,-0.371 10.747,-2.113 14.7,-6.369 0.496,-0.534 0.858,-1.523 0.726,-2.189 -0.086,-0.427 -1.201,-0.921 -1.846,-0.909 -1.821,0.032 -3.738,-0.002 -5.44,0.543 -8.938,2.858 -18.05,2.509 -27.157,1.558 -10.948,-1.144 -21.844,-2.847 -32.807,-3.787 -6.942,-0.597 -13.968,-0.212 -20.953,-0.373 -0.623,-0.015 -1.736,-0.787 -1.755,-1.243 -0.09,-2.167 5.511,-6.02 7.79,-5.299 -0.401,3.652 2.266,3.024 4.498,3.005 14.531,-0.128 29.037,0.167 43.133,4.248 10.169,2.944 19.939,0.886 29.656,-1.975 0.906,-0.267 2.209,-2.072 2,-2.762 -1.191,-3.936 -3.506,-7.101 -7.727,-8.276 -6.58,-1.832 -13.217,-3.473 -19.764,-5.417 -3.216,-0.954 -6.288,-2.396 -9.416,-3.642 -1.481,-0.589 -2.93,-1.263 -4.414,-1.846 -1.063,-0.418 -2.161,-0.75 -3.244,-1.12 0.047,-0.311 0.094,-0.621 0.14,-0.933 1.291,-0.118 2.584,-0.339 3.874,-0.331 1.818,0.012 2.394,-0.957 1.584,-2.338 -2.726,-4.646 -4.92,-9.886 -8.61,-13.621 -6.811,-6.894 -15.169,-11.555 -25.233,-12.174 -8.267,-0.509 -16.627,-2.013 -24.781,-1.267 -11.971,1.096 -23.87,3.439 -35.658,5.926 -12.463,2.629 -24.822,1.614 -37.211,0.218 -6.858,-0.773 -13.65,-2.137 -20.466,-3.276 -1.913,-0.319 -4.114,-0.311 -5.629,-1.301 -2.287,-1.497 -4.435,-3.486 -6.035,-5.704 -8.347,-11.56 -16.3,-23.407 -24.801,-34.849 -4.67,-6.286 -9.908,-12.203 -15.349,-17.842 -3.415,-3.539 -7.327,-1.807 -8.064,3.103 -0.917,6.117 -2.1,12.216 -2.592,18.37 -0.772,9.656 -3.53,18.422 -10.219,25.593 -1.584,1.697 -3.721,3.522 -5.858,3.921 -4.001,0.746 -8.196,0.722 -12.298,0.596 -5.047,-0.155 -10.085,-0.697 -15.12,-1.153 -5.125,-0.464 -10.333,-0.587 -15.34,-1.644 -8.261,-1.743 -16.492,-3.787 -24.545,-6.312 -9.44,-2.959 -18.447,-7.05 -26.51,-12.926 -7.018,-5.115 -12.631,-11.581 -17.714,-18.564 -4.206,-5.779 -9.097,-11.144 -12.651,-17.29 -3.81,-6.588 -6.513,-13.832 -9.498,-20.875 -1.364,-3.219 -2.494,-6.591 -3.207,-10.002 -0.238,-1.137 0.851,-2.979 1.884,-3.83 0.957,-0.788 2.649,-0.682 4.019,-0.966 5.238,-1.087 10.784,-1.768 14.632,-5.882 3.133,-3.35 5.811,-7.178 8.339,-11.025 2.633,-4.007 3.756,-8.571 3.819,-13.413 0.025,-1.954 -0.622,-3.157 -2.591,-2.947 -2.159,0.23 -4.295,0.775 -6.409,1.308 -4.551,1.146 -9.088,1.859 -12.783,-1.935 -3.055,-3.137 -5.883,-6.498 -8.75,-9.813 -3.224,-3.727 -4.072,-3.246 -5.99,-0.14 -0.562,0.909 -1.306,1.705 -1.968,2.551 -1.237,1.583 -2.486,1.375 -3.417,-0.202 -0.53,-0.898 -0.693,-2.031 -0.936,-3.078 -1.428,-6.154 -5.032,-8.745 -11.248,-9.789 -4.784,-0.803 -9.835,-2.101 -13.917,-4.579 C 105.375,101.121 98.721,92.449 93.63,82.574 92.924,81.209 91.999,79.955 90.61,77.75 Z m 338.42,304.79 c -0.354,-0.405 -0.706,-0.811 -1.06,-1.215 -0.3,-0.046 -0.64,-0.208 -0.895,-0.12 -4.695,1.613 -9.614,2.796 -14.003,5.022 -4.362,2.212 -8.264,5.377 -12.226,8.316 -2.902,2.152 -6.338,3.961 -7.098,8.021 -0.102,0.541 0.08,1.345 0.447,1.695 0.293,0.28 1.138,0.225 1.619,0.028 10.921,-4.453 20.635,-10.749 29.099,-18.99 1.166,-1.131 2.736,-1.848 4.117,-2.757 z"
         inkscape:connector-curvature="0" />
      <path
         id="path5757"
         d="m 456.8,309.85 c -1.317,-0.162 -3.529,-0.171 -5.554,-0.791 -1.06,-0.324 -2.444,-1.688 -2.492,-2.643 -0.05,-1.011 1.082,-2.545 2.098,-3.06 3.179,-1.609 6.535,-1.902 9.58,0.442 0.953,0.734 2.444,2.474 2.304,2.651 -1.026,1.291 -2.372,2.345 -3.701,3.364 -0.302,0.233 -0.932,0.037 -2.235,0.037 z"
         inkscape:connector-curvature="0" />
    </g>
  </g>
</svg>
