<?xml version="1.0" encoding="UTF-8" standalone="no"?>
<!-- Created with Inkscape (http://www.inkscape.org/) -->

<svg
   xmlns:dc="http://purl.org/dc/elements/1.1/"
   xmlns:cc="http://creativecommons.org/ns#"
   xmlns:rdf="http://www.w3.org/1999/02/22-rdf-syntax-ns#"
   xmlns:svg="http://www.w3.org/2000/svg"
   xmlns="http://www.w3.org/2000/svg"
   xmlns:sodipodi="http://sodipodi.sourceforge.net/DTD/sodipodi-0.dtd"
   xmlns:inkscape="http://www.inkscape.org/namespaces/inkscape"
   width="6in"
   height="4in"
   viewBox="0 0 540.00001 360.00001"
   id="svg4154"
   version="1.1"
   inkscape:version="0.91 r13725"
   sodipodi:docname="save-our-planet-dolphin.svg"
   inkscape:export-filename="/Users/jslate/personal/postcards/save-our-planet-dolphin.png"
   inkscape:export-xdpi="93.5"
   inkscape:export-ydpi="93.5">
  <defs
     id="defs4156" />
  <sodipodi:namedview
     id="base"
     pagecolor="#ffffff"
     bordercolor="#666666"
     borderopacity="1.0"
     inkscape:pageopacity="1"
     inkscape:pageshadow="2"
     inkscape:zoom="1.2100764"
     inkscape:cx="-12.181473"
     inkscape:cy="197.3862"
     inkscape:document-units="px"
     inkscape:current-layer="layer1"
     showgrid="false"
     units="in"
     inkscape:window-width="1436"
     inkscape:window-height="855"
     inkscape:window-x="0"
     inkscape:window-y="1"
     inkscape:window-maximized="1" />
  <metadata
     id="metadata4159">
    <rdf:RDF>
      <cc:Work
         rdf:about="">
        <dc:format>image/svg+xml</dc:format>
        <dc:type
           rdf:resource="http://purl.org/dc/dcmitype/StillImage" />
        <dc:title />
      </cc:Work>
    </rdf:RDF>
  </metadata>
  <g
     inkscape:label="Layer 1"
     inkscape:groupmode="layer"
     id="layer1"
     transform="translate(0,-692.36215)">
    <g
       style="font-style:normal;font-weight:normal;font-size:55.5014534px;line-height:0%;font-family:sans-serif;text-align:start;letter-spacing:0px;word-spacing:0px;text-anchor:start;fill:#000000;fill-opacity:1;stroke:none;stroke-width:1px;stroke-linecap:butt;stroke-linejoin:miter;stroke-opacity:1"
       id="text4803">
      <path
         d="m 80.724859,975.74393 q 0,-3.5521 1.332035,-5.82766 1.387536,-2.33106 3.44109,-3.66309 2.109055,-1.38754 4.60662,-1.88705 2.553067,-0.55502 4.884128,-0.55502 0.666018,0 1.665044,0.0555 1.054527,0.0555 2.164556,0.16651 1.165531,0.111 2.331058,0.33301 1.22104,0.1665 2.27556,0.49951 0.11101,1.44304 0.16651,2.71957 0.0555,1.22103 0.0555,2.83058 0,1.60954 -0.0555,3.10808 -0.0555,1.44304 -0.16651,2.77507 -0.44401,-0.0555 -1.16553,-0.1665 -0.66601,-0.11101 -1.44304,-0.16651 -0.72151,-0.0555 -1.498534,-0.111 -0.721519,-0.0555 -1.387537,-0.0555 -2.66407,0 -3.885102,0.83252 -1.221032,0.83252 -1.221032,2.27556 0,0.83252 0.388511,1.60954 0.38851,0.72152 0.999026,1.38754 0.666017,0.66601 1.443038,1.27653 0.832521,0.61052 1.665043,1.16553 1.332035,0.94353 2.66407,2.10906 1.387537,1.11003 2.497567,2.71957 1.11003,1.55404 1.83155,3.66309 0.72152,2.05356 0.72152,4.77313 0,3.5521 -1.22104,5.9942 -1.22103,2.442 -3.16358,3.9961 -1.887049,1.4985 -4.273612,2.22 -2.331061,0.666 -4.662122,0.666 -1.054527,0 -2.608568,-0.1665 -1.498539,-0.111 -3.05258,-0.3885 -1.554041,-0.222 -2.941577,-0.555 -1.387536,-0.3885 -2.220058,-0.888 -0.222006,-0.999 -0.38851,-2.0536 -0.111003,-1.0545 -0.111003,-2.331 0,-0.8881 0.0555,-2.1646 0.111003,-1.2765 0.222006,-2.60856 0.111003,-1.33203 0.222006,-2.55306 0.166504,-1.22104 0.277507,-2.05356 0.610516,0.33301 1.776047,0.77702 1.16553,0.38851 2.497565,0.77702 1.387537,0.38851 2.775073,0.66602 1.387536,0.27751 2.442064,0.27751 1.776046,0 2.66407,-0.72152 0.888023,-0.77702 0.888023,-2.05355 0,-1.38754 -0.999026,-2.44207 -0.999027,-1.11003 -2.497566,-2.16456 -1.498539,-1.05452 -3.274586,-2.22005 -1.720545,-1.22104 -3.219084,-2.83058 -1.498539,-1.60954 -2.497565,-3.7741 -0.999026,-2.22005 -0.999026,-5.27263 z"
         style="font-style:normal;font-variant:normal;font-weight:normal;font-stretch:normal;font-family:Ranchers;-inkscape-font-specification:Ranchers"
         id="path4145" />
      <path
         d="m 104.70842,1009.8773 8.21422,-45.40017 13.70886,0 8.15871,45.40017 -9.37974,0 -1.38754,-9.1022 -8.54722,0 -1.33204,9.1022 -9.43525,0 z m 12.26582,-19.03698 5.55015,0 -2.77507,-18.31548 -2.77508,18.31548 z"
         style="font-style:normal;font-variant:normal;font-weight:normal;font-stretch:normal;font-family:Ranchers;-inkscape-font-specification:Ranchers"
         id="path4147" />
      <path
         d="m 154.17323,964.47713 9.43525,0 -8.99124,45.40017 -13.76436,0 -8.99123,-45.40017 9.49074,0 6.38267,34.5219 6.43817,-34.5219 z"
         style="font-style:normal;font-variant:normal;font-weight:normal;font-stretch:normal;font-family:Ranchers;-inkscape-font-specification:Ranchers"
         id="path4149" />
      <path
         d="m 185.4483,1010.0438 q -1.55404,-0.056 -4.10711,-0.111 -2.55307,0 -5.49464,-0.056 -2.88608,0 -5.82766,0 -2.88607,0 -5.10613,0 0.0555,-1.1655 0.0555,-3.1081 0.0555,-1.9425 0.0555,-4.4401 0,-2.49754 0,-5.38362 0,-2.94158 0,-6.04966 0,-4.21811 -0.0555,-8.43622 0,-4.21811 0,-7.8257 0,-3.6631 -0.0555,-6.32717 0,-2.66407 0,-3.7741 2.16456,0 4.77312,0 2.60857,0 5.32814,0 2.71958,-0.0555 5.32814,-0.111 2.60857,-0.0555 4.88413,-0.111 0,0.72151 0,1.27653 0.0555,0.49951 0.0555,1.44304 0,0.66601 -0.0555,1.60954 0,0.88802 -0.0555,1.88705 0,0.94352 -0.0555,1.94255 0,0.94352 -0.0555,1.77605 l -11.15579,0 0,6.43816 9.71275,0 0,8.26972 -9.71275,0 0,6.21616 11.32229,0 q 0.0555,1.27654 0.111,2.60857 0.0555,1.33204 0.0555,2.9971 0.0555,1.665 0.0555,3.9406 0,2.22 0,5.3281 z"
         style="font-style:normal;font-variant:normal;font-weight:normal;font-stretch:normal;font-family:Ranchers;-inkscape-font-specification:Ranchers"
         id="path4151" />
      <path
         d="m 210.14992,963.81111 q 8.26971,0 12.21032,5.88316 3.9406,5.88315 3.9406,17.09444 0,11.3778 -3.8851,17.53849 -3.8296,6.1606 -12.26582,6.1606 -4.16261,0 -7.21519,-1.554 -3.05258,-1.6095 -5.05064,-4.6066 -1.99805,-3.0526 -2.94157,-7.43722 -0.94353,-4.44012 -0.94353,-10.10127 0,-11.37779 3.94061,-17.14994 3.9406,-5.82766 12.21032,-5.82766 z m 0,32.35735 q 1.77604,0 3.10808,-0.77702 1.38753,-0.83252 2.27556,-2.22006 0.88802,-1.44304 1.33203,-3.38559 0.44401,-1.99805 0.44401,-4.38461 0,-2.38656 -0.44401,-4.38462 -0.44401,-2.05355 -1.33203,-3.55209 -0.88803,-1.49854 -2.27556,-2.33106 -1.33204,-0.83252 -3.10808,-0.83252 -1.77605,0 -3.10809,0.88802 -1.27653,0.83252 -2.22005,2.33106 -0.88803,1.49854 -1.33204,3.5521 -0.44401,1.99805 -0.44401,4.32911 0,2.38656 0.44401,4.38461 0.44401,1.94255 1.33204,3.38559 0.94352,1.38754 2.22005,2.22006 1.33204,0.77702 3.10809,0.77702 z"
         style="font-style:normal;font-variant:normal;font-weight:normal;font-stretch:normal;font-family:Ranchers;-inkscape-font-specification:Ranchers"
         id="path4153" />
      <path
         d="m 258.51249,964.42163 q 0.11101,8.10321 0.33301,14.04187 0.22201,5.88315 0.22201,10.04576 0,2.71957 -0.16651,5.43914 -0.1665,2.66407 -0.72152,5.10614 -0.55501,2.44206 -1.60954,4.55116 -0.99902,2.0535 -2.71957,3.6075 -1.66504,1.5541 -4.16261,2.4421 -2.49756,0.8325 -5.93865,0.8325 -3.5521,0 -6.10516,-0.888 -2.49757,-0.9435 -4.21811,-2.4976 -1.72055,-1.554 -2.77508,-3.663 -0.99902,-2.1646 -1.55404,-4.60667 -0.55501,-2.44206 -0.72152,-5.05063 -0.1665,-2.60857 -0.1665,-5.21714 0,-2.05355 0.0555,-4.38461 0.0555,-2.33106 0.16651,-5.21714 0.111,-2.88608 0.222,-6.43817 0.16651,-3.55209 0.33301,-8.04771 l 9.76826,0 q -0.16651,4.99513 -0.27751,8.49172 -0.111,3.44109 -0.22201,5.77215 -0.0555,2.33107 -0.111,3.7186 0,1.33204 -0.0555,2.05356 0,0.72151 0,1.05452 0,0.27751 0,0.44401 0,5.38365 1.22103,8.10322 1.22103,2.71957 4.38462,2.71957 3.21908,0 4.32911,-2.94158 1.16553,-2.94158 1.16553,-8.93573 0,-0.27751 0,-0.61052 0,-0.38851 -0.0555,-1.16553 0,-0.77702 -0.0555,-2.05355 0,-1.33204 -0.11101,-3.4966 -0.0555,-2.22005 -0.1665,-5.38364 -0.111,-3.21908 -0.27751,-7.7702 l 9.99026,-0.0555 z"
         style="font-style:normal;font-variant:normal;font-weight:normal;font-stretch:normal;font-family:Ranchers;-inkscape-font-specification:Ranchers"
         id="path4155" />
      <path
         d="m 261.768,1009.8773 q 0.16651,-5.2726 0.22201,-10.48976 0.0555,-5.27263 0.0555,-9.99026 0,-6.71567 -0.111,-12.76533 -0.0555,-6.04966 -0.16651,-12.15482 2.71957,-0.27751 5.43914,-0.44401 2.77508,-0.22201 5.60565,-0.22201 4.05161,0 7.6037,0.61052 3.55209,0.55501 6.16066,2.16456 2.60857,1.55404 4.10711,4.32911 1.55404,2.77507 1.55404,7.15969 0,5.43914 -2.27556,8.54722 -2.22006,3.10808 -6.04966,4.66212 l 9.04674,18.59297 -9.87926,0 -7.38169,-16.92792 q -2.27556,0.1665 -4.71763,0.1665 0,4.27361 0.0555,8.38072 0.0555,4.1071 0.33301,8.3807 l -9.60175,0 z m 9.21324,-25.19764 q 1.72055,0.1665 3.16359,0.1665 3.77409,0 5.32814,-1.38753 1.60954,-1.44304 1.60954,-4.27361 0,-1.72055 -0.49952,-2.77508 -0.44401,-1.05452 -1.27653,-1.66504 -0.77702,-0.61052 -1.88705,-0.83252 -1.05453,-0.22201 -2.27556,-0.22201 -0.88802,0 -1.99805,0.111 -1.05453,0.0555 -2.16456,0.22201 l 0,10.65628 z"
         style="font-style:normal;font-variant:normal;font-weight:normal;font-stretch:normal;font-family:Ranchers;-inkscape-font-specification:Ranchers"
         id="path4157" />
      <path
         d="m 310.82522,984.34665 q 0.99902,0.27751 1.88705,0.38851 0.94352,0.0555 1.60954,0.0555 1.05453,0 1.99805,-0.222 0.99903,-0.27751 1.72055,-0.88803 0.72152,-0.61051 1.16553,-1.60954 0.44401,-1.05453 0.44401,-2.66407 0,-1.66504 -0.49951,-2.71957 -0.44402,-1.11003 -1.22104,-1.72054 -0.77702,-0.61052 -1.83154,-0.83253 -0.99903,-0.222 -2.10906,-0.222 -1.60954,0 -3.16358,0.33301 l 0,10.10126 z m -9.49075,25.53065 q 0.1665,-5.2726 0.222,-10.48976 0.0555,-5.27263 0.0555,-9.99026 0,-6.71567 -0.11101,-12.76533 -0.0555,-6.04966 -0.1665,-12.15482 2.71957,-0.27751 5.43914,-0.44401 2.77507,-0.22201 5.43914,-0.22201 3.8296,0 7.15969,0.61052 3.33009,0.61051 5.77215,2.27556 2.49757,1.60954 3.94061,4.55112 1.44303,2.88607 1.44303,7.43719 0,4.21811 -1.22103,7.21519 -1.22103,2.94158 -3.44109,4.82863 -2.16456,1.83155 -5.21714,2.66407 -3.05258,0.83252 -6.77117,0.83252 -0.94353,0 -1.66505,-0.0555 -0.66601,-0.0555 -1.49854,-0.16651 0,3.99611 0.0555,7.9367 0.0555,3.9406 0.333,7.9367 l -9.76825,0 z"
         style="font-style:normal;font-variant:normal;font-weight:normal;font-stretch:normal;font-family:Ranchers;-inkscape-font-specification:Ranchers"
         id="path4159" />
      <path
         d="m 341.93898,964.47713 q -0.1665,7.6037 -0.2775,12.54333 -0.0555,4.93963 -0.11101,8.32522 -0.0555,3.33008 -0.0555,5.60564 0,2.27556 0,4.60662 l 8.71373,-0.333 q 0.111,1.83154 0.1665,3.60759 0.0555,1.77607 0.0555,3.55207 0,1.8316 -0.0555,3.7186 -0.0555,1.8316 -0.1665,3.7741 l -17.92697,0 q 0.1665,-7.7702 0.22201,-15.9289 0.111,-8.15871 0.111,-15.92891 0,-3.6076 0,-6.99319 0,-3.38559 -0.0555,-6.54917 l 9.37974,0 z"
         style="font-style:normal;font-variant:normal;font-weight:normal;font-stretch:normal;font-family:Ranchers;-inkscape-font-specification:Ranchers"
         id="path4161" />
      <path
         d="m 350.99613,1009.8773 8.21421,-45.40017 13.70886,0 8.15871,45.40017 -9.37974,0 -1.38754,-9.1022 -8.54722,0 -1.33204,9.1022 -9.43524,0 z m 12.26582,-19.03698 5.55014,0 -2.77507,-18.31548 -2.77507,18.31548 z"
         style="font-style:normal;font-variant:normal;font-weight:normal;font-stretch:normal;font-family:Ranchers;-inkscape-font-specification:Ranchers"
         id="path4163" />
      <path
         d="m 404.45529,964.47713 7.93671,0 q -0.16651,11.3223 -0.16651,22.70009 0,11.3778 0.16651,22.70008 l -10.71179,0 -11.7663,-27.14019 0,27.14019 -7.6037,0 q 0.111,-5.7166 0.1665,-11.32228 0.0555,-5.66115 0.0555,-11.3778 0,-5.71664 -0.0555,-11.32229 -0.0555,-5.66115 -0.1665,-11.3778 l 11.21129,0 10.93379,27.08471 0,-27.08471 z"
         style="font-style:normal;font-variant:normal;font-weight:normal;font-stretch:normal;font-family:Ranchers;-inkscape-font-specification:Ranchers"
         id="path4165" />
      <path
         d="m 435.96366,1010.0438 q -1.55405,-0.056 -4.10711,-0.111 -2.55307,0 -5.49465,-0.056 -2.88607,0 -5.82765,0 -2.88607,0 -5.10613,0 0.0555,-1.1655 0.0555,-3.1081 0.0555,-1.9425 0.0555,-4.4401 0,-2.49754 0,-5.38362 0,-2.94158 0,-6.04966 0,-4.21811 -0.0555,-8.43622 0,-4.21811 0,-7.8257 0,-3.6631 -0.0555,-6.32717 0,-2.66407 0,-3.7741 2.16455,0 4.77312,0 2.60857,0 5.32814,0 2.71957,-0.0555 5.32814,-0.111 2.60857,-0.0555 4.88413,-0.111 0,0.72151 0,1.27653 0.0555,0.49951 0.0555,1.44304 0,0.66601 -0.0555,1.60954 0,0.88802 -0.0555,1.88705 0,0.94352 -0.0555,1.94255 0,0.94352 -0.0555,1.77605 l -11.1558,0 0,6.43816 9.71276,0 0,8.26972 -9.71276,0 0,6.21616 11.3223,0 q 0.0555,1.27654 0.111,2.60857 0.0555,1.33204 0.0555,2.9971 0.0555,1.665 0.0555,3.9406 0,2.22 0,5.3281 z"
         style="font-style:normal;font-variant:normal;font-weight:normal;font-stretch:normal;font-family:Ranchers;-inkscape-font-specification:Ranchers"
         id="path4167" />
      <path
         d="m 459.60815,974.7449 -6.38267,0 q -0.111,4.93963 -0.1665,10.04576 -0.0555,5.05063 -0.0555,10.93379 0,3.7741 0,6.10515 0,2.2756 0,3.7741 0,1.443 0,2.3866 0.0555,0.888 0.0555,1.887 l -9.32425,0 q 0.0555,-2.442 0.111,-5.0506 0.0555,-2.6641 0.0555,-5.71666 0.0555,-3.10808 0.0555,-6.66018 0.0555,-3.60759 0.0555,-7.9367 0,-3.16359 0,-5.49465 0,-2.33106 -0.0555,-4.27361 l -6.38267,0 0,-10.26777 22.03408,0 0,10.26777 z"
         style="font-style:normal;font-variant:normal;font-weight:normal;font-stretch:normal;font-family:Ranchers;-inkscape-font-specification:Ranchers"
         id="path4169" />
    </g>
    <g
       id="g5753"
       transform="matrix(0.58984203,0,0,0.58984203,70.329321,690.55785)"
       style="clip-rule:evenodd;fill-rule:evenodd">
      <path
         id="path5755"
         d="m 337.61,389.1 c -1.168,-0.128 -1.772,-0.24 -2.379,-0.253 -7.87,-0.168 -15.742,-0.499 -23.611,-0.442 -16.464,0.12 -32.901,-0.822 -48.939,-4.351 -12.305,-2.707 -24.447,-6.574 -36.262,-10.992 -19.792,-7.401 -36.367,-19.991 -51.598,-34.406 -12.385,-11.722 -22.077,-25.44 -29.345,-40.812 -4.381,-9.265 -8.847,-18.572 -12.125,-28.25 -2.625,-7.752 -3.986,-16.028 -5.067,-24.184 -1.52,-11.458 -2.441,-23.007 -3.277,-34.542 -0.657,-9.072 -0.176,-18.261 -1.328,-27.254 -1.36,-10.62 -2.138,-21.687 -8.575,-30.849 -3.561,-5.067 -8.146,-9.407 -12.156,-14.169 C 94.015,127.989 89.51,115.437 87.659,101.93 86.638,94.476 86.364,86.909 86.008,79.382 c -0.076,-1.603 0.49,-4.125 1.575,-4.708 2.199,-1.18 4.914,-0.707 6.502,1.63 2.467,3.628 4.509,7.553 7.069,11.109 6.624,9.199 13.97,17.696 25.806,20.101 4.465,0.907 9.045,1.128 12.752,4.19 1.422,1.175 2.805,2.397 3.991,3.413 1.964,-0.498 3.894,-1.516 5.708,-1.341 4.227,0.406 6.012,4.004 8.353,7.025 2.323,2.998 5.086,5.83 8.164,8.022 3.943,2.81 8.25,0.741 12.195,-0.603 5.517,-1.879 8.451,-0.032 8.85,5.778 0.518,7.533 -2.224,13.932 -6.178,20.107 -3.494,5.457 -7.561,10.311 -13.427,13.136 -3.478,1.675 -7.369,2.491 -11.076,3.687 -0.487,0.157 -0.984,0.279 -1.765,0.498 0.174,0.812 0.208,1.603 0.507,2.276 4.002,9.001 7.471,18.3 12.204,26.902 7.506,13.645 16.861,25.954 29.644,35.315 15.354,11.244 32.308,18.113 51.455,18.717 10.21,0.322 20.442,0.199 30.659,-0.006 8.79,-0.178 13.256,-6.506 16.864,-13.242 4.425,-8.261 7.132,-17.142 7.21,-26.647 0.019,-2.275 -0.182,-4.551 -0.167,-6.826 0.022,-3.546 1.854,-5.321 5.356,-5.315 5.033,0.008 9.579,1.869 12.865,5.372 8.296,8.845 16.552,17.784 24.08,27.277 5.888,7.425 10.574,15.795 16.006,23.598 0.935,1.342 2.834,2.548 4.445,2.796 10.965,1.687 21.935,3.86 32.975,4.398 12.209,0.596 24.521,0.016 36.738,-0.797 11.803,-0.786 23.516,-3.164 35.317,-3.668 13.546,-0.579 26.469,2.396 38.054,10.151 6.237,4.174 10.724,9.339 12.397,16.749 1.106,4.896 4.682,7.567 8.98,9.206 8.63,3.289 17.373,6.28 26.055,9.434 2.883,1.047 5.888,6.371 5.768,9.454 -0.105,2.687 0.543,5.426 0.265,8.078 -0.665,6.342 -5.82,7.429 -10.777,8.742 -11.398,3.021 -22.978,3.769 -34.74,4.166 -5.851,0.197 -12.084,2.776 -17.288,5.769 -15.178,8.727 -29.85,18.327 -44.882,27.314 -4.739,2.833 -10.03,4.73 -14.982,7.227 -1.655,0.834 -3.525,1.887 -4.476,3.367 -5.97,9.299 -14.543,15.714 -23.541,21.641 -5.309,3.496 -10.541,7.219 -17.092,8.273 -4.388,0.706 -6.573,-1.476 -5.4,-5.796 0.38,-1.4 1.05,-2.722 1.889,-4.842 -2.132,1.023 -3.688,1.793 -5.263,2.522 -13.224,6.126 -26.559,12.023 -39.636,18.447 -7.804,3.833 -15.795,6.916 -24.277,8.626 -5.989,1.208 -11.941,0.603 -17.138,-2.833 -2.617,-1.73 -2.164,-4.659 0.395,-6.534 5.876,-4.307 11.985,-8.354 17.466,-13.12 3.242,-2.82 5.424,-6.844 8.16,-10.265 1.839,-2.3 3.813,-4.492 5.724,-6.734 0.307,-0.357 0.607,-0.726 1.264,-1.518 z M 90.61,77.75 c -0.336,1.825 -0.526,2.526 -0.587,3.238 -0.778,9.13 0.34,18.104 2.398,26.976 3.675,15.846 11.044,29.464 23.497,40.307 2.821,2.457 5.333,6.266 6.135,9.866 2.854,12.807 5.449,25.688 5.019,38.997 -0.24,7.403 0.096,14.889 0.939,22.25 1.407,12.281 2.79,24.628 5.345,36.701 3.584,16.931 11.007,32.486 19.711,47.385 7.962,13.629 17.339,26.13 30.304,35.461 7.454,5.365 15.115,10.449 22.789,15.499 11.724,7.714 24.442,13.373 37.788,17.605 13.034,4.134 26.4,6.641 40.035,7.75 8.793,0.715 17.562,1.839 26.367,2.256 10.216,0.484 20.46,0.359 30.688,0.618 0.907,0.023 1.978,0.773 2.604,1.503 0.282,0.328 -0.148,1.583 -0.588,2.167 -3.986,5.295 -8.189,10.433 -12.05,15.816 -4.849,6.765 -10.961,11.944 -18.188,15.988 -1.26,0.705 -2.789,2.528 -2.662,3.662 0.126,1.124 2.11,2.741 3.419,2.889 2.981,0.334 6.265,0.563 9.039,-0.346 8.391,-2.748 16.675,-5.87 24.857,-9.2 8.389,-3.414 16.625,-7.209 24.897,-10.903 10.85,-4.845 21.33,-10.348 30.675,-17.784 3.244,-2.581 5.865,-5.612 10.357,-6.821 9.338,-2.512 18.571,-5.612 27.539,-9.235 7.628,-3.082 15.056,-6.837 22.158,-11.001 13.021,-7.635 24.769,-17.478 39.167,-22.704 4.688,-1.702 9.497,-3.589 14.386,-4.102 9.078,-0.951 18.266,-0.801 27.388,-1.41 5.561,-0.371 10.747,-2.113 14.7,-6.369 0.496,-0.534 0.858,-1.523 0.726,-2.189 -0.086,-0.427 -1.201,-0.921 -1.846,-0.909 -1.821,0.032 -3.738,-0.002 -5.44,0.543 -8.938,2.858 -18.05,2.509 -27.157,1.558 -10.948,-1.144 -21.844,-2.847 -32.807,-3.787 -6.942,-0.597 -13.968,-0.212 -20.953,-0.373 -0.623,-0.015 -1.736,-0.787 -1.755,-1.243 -0.09,-2.167 5.511,-6.02 7.79,-5.299 -0.401,3.652 2.266,3.024 4.498,3.005 14.531,-0.128 29.037,0.167 43.133,4.248 10.169,2.944 19.939,0.886 29.656,-1.975 0.906,-0.267 2.209,-2.072 2,-2.762 -1.191,-3.936 -3.506,-7.101 -7.727,-8.276 -6.58,-1.832 -13.217,-3.473 -19.764,-5.417 -3.216,-0.954 -6.288,-2.396 -9.416,-3.642 -1.481,-0.589 -2.93,-1.263 -4.414,-1.846 -1.063,-0.418 -2.161,-0.75 -3.244,-1.12 0.047,-0.311 0.094,-0.621 0.14,-0.933 1.291,-0.118 2.584,-0.339 3.874,-0.331 1.818,0.012 2.394,-0.957 1.584,-2.338 -2.726,-4.646 -4.92,-9.886 -8.61,-13.621 -6.811,-6.894 -15.169,-11.555 -25.233,-12.174 -8.267,-0.509 -16.627,-2.013 -24.781,-1.267 -11.971,1.096 -23.87,3.439 -35.658,5.926 -12.463,2.629 -24.822,1.614 -37.211,0.218 -6.858,-0.773 -13.65,-2.137 -20.466,-3.276 -1.913,-0.319 -4.114,-0.311 -5.629,-1.301 -2.287,-1.497 -4.435,-3.486 -6.035,-5.704 -8.347,-11.56 -16.3,-23.407 -24.801,-34.849 -4.67,-6.286 -9.908,-12.203 -15.349,-17.842 -3.415,-3.539 -7.327,-1.807 -8.064,3.103 -0.917,6.117 -2.1,12.216 -2.592,18.37 -0.772,9.656 -3.53,18.422 -10.219,25.593 -1.584,1.697 -3.721,3.522 -5.858,3.921 -4.001,0.746 -8.196,0.722 -12.298,0.596 -5.047,-0.155 -10.085,-0.697 -15.12,-1.153 -5.125,-0.464 -10.333,-0.587 -15.34,-1.644 -8.261,-1.743 -16.492,-3.787 -24.545,-6.312 -9.44,-2.959 -18.447,-7.05 -26.51,-12.926 -7.018,-5.115 -12.631,-11.581 -17.714,-18.564 -4.206,-5.779 -9.097,-11.144 -12.651,-17.29 -3.81,-6.588 -6.513,-13.832 -9.498,-20.875 -1.364,-3.219 -2.494,-6.591 -3.207,-10.002 -0.238,-1.137 0.851,-2.979 1.884,-3.83 0.957,-0.788 2.649,-0.682 4.019,-0.966 5.238,-1.087 10.784,-1.768 14.632,-5.882 3.133,-3.35 5.811,-7.178 8.339,-11.025 2.633,-4.007 3.756,-8.571 3.819,-13.413 0.025,-1.954 -0.622,-3.157 -2.591,-2.947 -2.159,0.23 -4.295,0.775 -6.409,1.308 -4.551,1.146 -9.088,1.859 -12.783,-1.935 -3.055,-3.137 -5.883,-6.498 -8.75,-9.813 -3.224,-3.727 -4.072,-3.246 -5.99,-0.14 -0.562,0.909 -1.306,1.705 -1.968,2.551 -1.237,1.583 -2.486,1.375 -3.417,-0.202 -0.53,-0.898 -0.693,-2.031 -0.936,-3.078 -1.428,-6.154 -5.032,-8.745 -11.248,-9.789 -4.784,-0.803 -9.835,-2.101 -13.917,-4.579 C 105.375,101.121 98.721,92.449 93.63,82.574 92.924,81.209 91.999,79.955 90.61,77.75 Z m 338.42,304.79 c -0.354,-0.405 -0.706,-0.811 -1.06,-1.215 -0.3,-0.046 -0.64,-0.208 -0.895,-0.12 -4.695,1.613 -9.614,2.796 -14.003,5.022 -4.362,2.212 -8.264,5.377 -12.226,8.316 -2.902,2.152 -6.338,3.961 -7.098,8.021 -0.102,0.541 0.08,1.345 0.447,1.695 0.293,0.28 1.138,0.225 1.619,0.028 10.921,-4.453 20.635,-10.749 29.099,-18.99 1.166,-1.131 2.736,-1.848 4.117,-2.757 z"
         inkscape:connector-curvature="0" />
      <path
         id="path5757"
         d="m 456.8,309.85 c -1.317,-0.162 -3.529,-0.171 -5.554,-0.791 -1.06,-0.324 -2.444,-1.688 -2.492,-2.643 -0.05,-1.011 1.082,-2.545 2.098,-3.06 3.179,-1.609 6.535,-1.902 9.58,0.442 0.953,0.734 2.444,2.474 2.304,2.651 -1.026,1.291 -2.372,2.345 -3.701,3.364 -0.302,0.233 -0.932,0.037 -2.235,0.037 z"
         inkscape:connector-curvature="0" />
    </g>
  </g>
</svg>
