<?xml version="1.0" encoding="UTF-8" standalone="no"?>
<!-- Created with Inkscape (http://www.inkscape.org/) -->

<svg
   xmlns:dc="http://purl.org/dc/elements/1.1/"
   xmlns:cc="http://creativecommons.org/ns#"
   xmlns:rdf="http://www.w3.org/1999/02/22-rdf-syntax-ns#"
   xmlns:svg="http://www.w3.org/2000/svg"
   xmlns="http://www.w3.org/2000/svg"
   xmlns:sodipodi="http://sodipodi.sourceforge.net/DTD/sodipodi-0.dtd"
   xmlns:inkscape="http://www.inkscape.org/namespaces/inkscape"
   width="28in"
   height="22in"
   viewBox="0 0 2519.9999 1980.0002"
   id="svg2"
   version="1.1"
   inkscape:version="0.91 r13725"
   sodipodi:docname="trump-hydra.svg"
   inkscape:export-filename="/Users/jslate/personal/signs/trump-hydra.png"
   inkscape:export-xdpi="21.950001"
   inkscape:export-ydpi="21.950001">
  <defs
     id="defs4">
    <filter
       inkscape:collect="always"
       style="color-interpolation-filters:sRGB"
       id="filter819165"
       x="-0.0077060538"
       width="1.0154121"
       y="-0.027101326"
       height="1.0542027">
      <feGaussianBlur
         inkscape:collect="always"
         stdDeviation="21.278652"
         id="feGaussianBlur819167" />
    </filter>
    <filter
       inkscape:collect="always"
       style="color-interpolation-filters:sRGB"
       id="filter819169"
       x="-0.034709103"
       width="1.0694182"
       y="-0.094031221"
       height="1.1880624">
      <feGaussianBlur
         inkscape:collect="always"
         stdDeviation="21.278652"
         id="feGaussianBlur819171" />
    </filter>
  </defs>
  <sodipodi:namedview
     id="base"
     pagecolor="#ffffff"
     bordercolor="#666666"
     borderopacity="1.0"
     inkscape:pageopacity="0.0"
     inkscape:pageshadow="2"
     inkscape:zoom="0.45043447"
     inkscape:cx="1269.4708"
     inkscape:cy="711.13741"
     inkscape:document-units="px"
     inkscape:current-layer="layer2"
     showgrid="false"
     showguides="true"
     inkscape:guide-bbox="true"
     inkscape:window-width="1436"
     inkscape:window-height="855"
     inkscape:window-x="0"
     inkscape:window-y="1"
     inkscape:window-maximized="1"
     units="in"
     fit-margin-top="40"
     fit-margin-left="40"
     fit-margin-right="40"
     fit-margin-bottom="40" />
  <metadata
     id="metadata7">
    <rdf:RDF>
      <cc:Work
         rdf:about="">
        <dc:format>image/svg+xml</dc:format>
        <dc:type
           rdf:resource="http://purl.org/dc/dcmitype/StillImage" />
        <dc:title></dc:title>
      </cc:Work>
    </rdf:RDF>
  </metadata>
  <g
     inkscape:label="Layer 1"
     inkscape:groupmode="layer"
     id="layer1"
     transform="translate(6366.9995,-5826.728)" />
  <g
     inkscape:groupmode="layer"
     id="layer2"
     inkscape:label="Layer 2"
     transform="translate(6366.9995,-5826.728)">
    <path
       sodipodi:nodetypes="csssssssssssssssssssssssssssssssssssssscccc"
       inkscape:connector-curvature="0"
       id="path4436"
       d="m -792.76835,6451.5651 c 4.33,-4.4409 3.0374,8.8727 38.2299,13.8068 13.4176,1.8813 15.5466,-7.6908 23.099,-5.3585 5.2204,1.6129 5.9101,10.3488 11.098,12.0634 18.691,6.1781 38.3397,-11.8584 58.0097,-11.0722 21.9914,0.8785 41.6828,18.6635 63.6615,17.5135 28.5147,-1.4917 52.2711,-23.5307 79.7707,-31.2165 43.1679,-12.065 90.0872,-8.4669 132.4799,-23.0226 163.6194,-56.1804 236.9996,-76.0783 215.1384,-229.6291 -6.4898,-45.5852 -24.8574,-106.6427 -39.253,-132.44 -18.4984,-33.1504 -26.6454,-96.2601 -49.5573,-124.4616 -5.5208,-6.7961 -9.4612,3.15 -19.4289,9.5356 -14.0198,8.9818 -30.6929,6.1263 -45.578,30.2474 -9.7016,15.7199 14.9175,47.3704 -1.7226,55.3907 -6.4438,3.1055 -15.5501,-5.8778 -17.1923,-12.8391 -0.6777,-2.8744 -0.1194,-4.256 -1.033,-7.0644 -1.7391,-5.3473 -6.9275,-3.8586 -9.9806,-8.5804 -2.9876,-4.6115 2.9723,-12.5406 -0.8786,-16.4602 -3.0262,-3.0801 -8.1608,-0.3213 -12.8237,-0.3986 -4.904,-0.081 -9.3665,-2.8831 -13.6878,-1.4889 -12.0802,3.8973 -16.5544,23.9183 -29.2376,24.3945 -24.353,0.9145 -38.782,-29.6507 -59.4917,-42.4966 -17.9108,-11.1095 -34.8293,-32.0129 -55.7862,-29.7641 -7.6667,0.8228 -13.4882,8.4704 -17.6344,14.9718 -7.9402,12.4525 -4.8158,45.8185 -11.7523,42.7202 0,0 -26.1784,-14.8904 -40.3536,-13.8046 -5.9245,0.4534 -10.7708,5.0912 -15.791,8.2705 -4.0122,2.5412 -7.0369,6.6441 -11.3719,8.5849 -3.5458,1.5872 -8.6369,-0.4352 -11.4347,2.2605 0,0 -2.723,12.8609 -7.3524,16.8994 -16.0546,14.0065 -40.5693,21.1412 -61.5287,17.3129 -3.9674,-0.7253 -5.7697,-6.4548 -9.7372,-7.1841 -1.6606,-0.3055 -3.2321,1.7313 -4.8792,1.3607 -7.2034,-1.6204 -9.4103,-13.5573 -16.7311,-14.5144 -6.5103,-0.8512 -11.9536,5.4672 -17.6968,8.6473 -4.482,2.482 -8.0768,9.3652 -13.0478,8.124 -25.2821,-6.3126 -40.558,-19.0992 -60.2485,-10.267 -22.6325,10.1513 -19.0049,38.7194 -26.942,40.703 -26.1282,6.5295 -16.0093,27.6416 -26.3578,33.0639 -13.5558,7.1022 -15.464,23.6578 -22.0718,31.5445 -223.45155,119.6068 -448.95815,146.9687 -677.16005,53.3448 -10.9776,29.0065 -58.5833,248.687 -58.5833,248.687 -35.4109,48.9804 698.50185,44.8638 844.83845,22.6157 z"
       style="opacity:1;fill:#000000;fill-opacity:0.18999999;fill-rule:nonzero;stroke:none;stroke-width:21.20000267;stroke-linecap:butt;stroke-linejoin:miter;stroke-miterlimit:4;stroke-dasharray:none;stroke-opacity:1;filter:url(#filter819169)"
       transform="matrix(0.24918262,0,0,0.24918262,-4390.3395,5715.9921)" />
    <path
       style="opacity:1;fill:#000000;fill-opacity:0.3;fill-rule:nonzero;stroke:none;stroke-width:21.20000267;stroke-linecap:butt;stroke-linejoin:miter;stroke-miterlimit:4;stroke-dasharray:none;stroke-opacity:1;filter:url(#filter819165)"
       d="m -4575.3598,6611.2603 c -139.713,142.813 -342.857,171.429 -342.857,171.429 l -142.857,-5.715 -171.429,91.429 -38.613,55.266 c -75.9811,23.967 -103.4311,85.93 -129.9581,124.734 44.203,-22.525 92.009,-59.465 131.4281,-62.857 l 100,11.428 168.572,-62.857 -68.572,51.429 -145.714,22.857 c -34.603,19.009 -63.294,43.93 -76.449,84.387 40.462,-24.409 78.516,-31.966 113.592,-18.673 l 122.857,-20 88.428,2.451 71.572,-5.308 -34.286,74.286 c -26.507,44.602 -24.042,72.354 -24.877,91.285 l 47.735,-79.857 114.285,-62.857 117.143,-57.143 c 0,0 -22.044,76.325 -2.857,65.715 56.621,-31.313 174.286,-157.143 174.286,-157.143 l 505.714,-311.429 c 133.7588,-336.8101 159.1281,-190.483 329.628,55.712 l 371.736,270.721 101.015,64.649 -169.705,68.691 c 0,0 -81.742,-79.649 -129.3,-68.691 -87.451,20.151 -242.436,101.016 -242.436,101.016 -107.127,26.666 -200.372,58.537 -222.234,117.177 57.681,-27.468 114.897,-58.652 177.787,-44.446 l 12.122,28.284 c -74.737,11.087 -97.251,68.595 -125.259,121.218 51.714,-35.522 103.079,-68.95 149.503,-72.731 l 149.502,8.081 c 0,0 -65.027,52.824 -84.853,80.813 -19.826,27.988 -36.365,80.812 -36.365,80.812 0,0 42.59,-53.518 70.71,-68.691 28.12,-15.172 90.914,-20.203 90.914,-20.203 l 193.95,-28.284 c -27.327,44.294 -34.583,83.423 -36.366,133.34 48.258,-53.443 98.643,-98.381 157.584,-109.096 l 299.005,-44.447 c 0,0 175.895,-4.434 206.071,-36.365 32.431,-34.318 8.081,-141.422 8.081,-141.422 0,0 625.559,317.738 864.691,371.736 239.132,53.998 307.567,35.04 529.32,20.203 221.753,-14.836 571.71197,-47.141 791.95897,-137.38 220.247,-90.24 296.39,-169.552 513.157999,-355.574 216.768001,-186.022 639.463001,-475.452 969.746001,-371.736 130.44503,40.962 217.83403,203.256 230.31503,339.411 17.66,192.65 -233.13603,531.488 -233.13603,531.488 383.98503,-332.684 447.18403,-1019.212 -213.003,-1125.546 -660.188001,-106.335 -1078.352,632.717 -1688.538,724.397 C -3187.6203,6898.9852 -3531.9457,4240.964 -4575.3598,6611.2603 Z"
       id="path4426"
       inkscape:connector-curvature="0"
       sodipodi:nodetypes="cccccccccccccccccccccsccccccsccccccczczcccccsczzzzssczcc"
       transform="matrix(0.24918262,0,0,0.24918262,-4390.3395,5715.9921)" />
    <path
       style="opacity:1;fill:#000000;fill-opacity:1;fill-rule:nonzero;stroke:none;stroke-width:21.20000267;stroke-linecap:butt;stroke-linejoin:miter;stroke-miterlimit:4;stroke-dasharray:none;stroke-opacity:1"
       d="m -4560.8956,7287.626 c 1.079,-1.1066 0.7569,2.2109 9.5262,3.4404 3.3435,0.4688 3.874,-1.9164 5.7559,-1.3353 1.3009,0.4019 1.4727,2.5788 2.7654,3.006 4.6575,1.5395 9.5536,-2.9549 14.4551,-2.759 5.4798,0.2189 10.3866,4.6506 15.8633,4.3641 7.1054,-0.3717 13.025,-5.8634 19.8775,-7.7786 10.7567,-3.0064 22.4481,-2.1098 33.0117,-5.7368 40.7711,-13.9992 59.0561,-18.9574 53.6087,-57.2196 -1.6171,-11.3591 -6.194,-26.5735 -9.7812,-33.0018 -4.6094,-8.2605 -6.6395,-23.9863 -12.3488,-31.0137 -1.3757,-1.6934 -2.3575,0.785 -4.8413,2.3762 -3.4935,2.2381 -7.6482,1.5265 -11.3573,7.5371 -2.4174,3.9171 3.7172,11.8039 -0.4292,13.8024 -1.6057,0.7738 -3.8748,-1.4646 -4.284,-3.1993 -0.1689,-0.7163 -0.03,-1.0605 -0.2574,-1.7603 -0.4334,-1.3325 -1.7262,-0.9615 -2.487,-2.1381 -0.7445,-1.1491 0.7406,-3.1249 -0.219,-4.1016 -0.754,-0.7675 -2.0335,-0.08 -3.1954,-0.099 -1.222,-0.02 -2.334,-0.7184 -3.4108,-0.371 -3.0101,0.9711 -4.125,5.96 -7.2855,6.0786 -6.0683,0.2279 -9.6638,-7.3884 -14.8243,-10.5894 -4.463,-2.7682 -8.6788,-7.977 -13.9009,-7.4167 -1.9104,0.2051 -3.361,2.1107 -4.3942,3.7308 -1.9786,3.1029 -1.2,11.4171 -2.9285,10.6451 0,0 -6.5232,-3.7105 -10.0554,-3.4399 -1.4763,0.113 -2.6839,1.2686 -3.9348,2.0609 -0.9998,0.6332 -1.7535,1.6556 -2.8337,2.1392 -0.8836,0.3955 -2.1522,-0.1085 -2.8493,0.5633 0,0 -0.6786,3.2047 -1.8321,4.211 -4.0006,3.4902 -10.1092,5.268 -15.3319,4.3141 -0.9886,-0.1808 -1.4377,-1.6084 -2.4264,-1.7902 -0.4137,-0.076 -0.8053,0.4314 -1.2158,0.3391 -1.7949,-0.4038 -2.3448,-3.3782 -4.1691,-3.6168 -1.6222,-0.212 -2.9786,1.3624 -4.4097,2.1548 -1.1168,0.6185 -2.0126,2.3337 -3.2513,2.0244 -6.2998,-1.573 -10.1063,-4.7592 -15.0129,-2.5584 -5.6396,2.5295 -4.7357,9.6482 -6.7134,10.1425 -6.5107,1.627 -3.9893,6.8878 -6.5679,8.2389 -3.3779,1.7698 -3.8534,5.8952 -5.5,7.8604 -55.6802,29.8039 -111.8725,36.622 -168.7365,13.2926 -2.7354,7.2279 -14.5979,61.9684 -14.5979,61.9684 -8.8238,12.2051 174.0545,11.1793 210.519,5.6355 z"
       id="path4164"
       inkscape:connector-curvature="0"
       sodipodi:nodetypes="csssssssssssssssssssssssssssssssssssssscccc" />
    <path
       sodipodi:nodetypes="cssssssssssssssssssssssssssssssssssssscczzzczzzccsssssssssssssssssssssssssssssssssssccczzzzczssccssssssssssssssssssssssssssssssssssssssczzzzczczcssssssssssssssssssssssssssssssssssssssccczzzzczccccccccccccccccccccscccccccsccccccczczcccccsczzzzssczzscccccccccccccccccczczzzzzccsssssssssssssssssssssssssssssssssssssczzzzczzzzzc"
       inkscape:connector-curvature="0"
       id="path4168"
       d="m -4793.193,6604.3224 c -0.4842,-2.4041 -2.2465,-2.1931 -2.3016,-3.6227 -0.038,-0.9883 1.4125,-1.6304 1.3938,-2.6193 -0.067,-3.5625 -4.3263,-5.835 -5.3727,-9.2411 -1.1701,-3.808 0.685,-8.238 -0.8307,-11.9221 -1.9663,-4.7796 -7.1556,-7.5134 -10.1187,-11.7479 -4.6514,-6.6471 -6.8533,-14.8751 -11.8835,-21.2403 -19.4146,-24.5675 -27.217,-35.9036 -52.1252,-22.9536 -7.3945,3.8445 -16.7182,10.6459 -20.2593,14.6525 -4.5504,5.1487 -14.838,10.328 -18.2784,15.9332 -0.8291,1.3507 1.1058,1.4266 2.7945,2.7453 2.3752,1.8549 2.8885,4.8734 7.9009,5.9674 3.2666,0.713 7.1935,-5.3908 9.5619,-3.0307 0.917,0.9139 -0.07,3.0081 -1.1605,3.7064 -0.4501,0.2883 -0.7195,0.2759 -1.1443,0.6004 -0.8086,0.618 -0.243,1.4146 -0.8661,2.2194 -0.6081,0.7869 -2.3198,0.2452 -2.758,1.1379 -0.3443,0.7018 0.435,1.4129 0.7017,2.2137 0.2805,0.8423 0.07,1.7725 0.5674,2.4269 1.3905,1.8287 5.0779,1.391 5.9205,3.5282 1.618,4.1037 -2.7353,8.4022 -3.6857,12.7097 -0.8219,3.7253 -3.3759,7.869 -1.734,11.3126 0.6007,1.2598 2.2561,1.7949 3.6151,2.1126 2.6031,0.6085 8.113,-1.9279 8.0004,-0.5574 0,0 -0.9713,5.364 0.065,7.7194 0.433,0.9844 1.5159,1.5336 2.3602,2.2 0.6747,0.5326 1.5569,0.8029 2.1485,1.4266 0.4839,0.5103 0.4441,1.5009 1.0724,1.8169 0,0 2.3595,-0.307 3.327,0.2411 3.3555,1.9008 6.0453,5.6586 6.6496,9.4675 0.1143,0.721 -0.7559,1.3727 -0.6422,2.0939 0.047,0.3019 0.4896,0.448 0.5252,0.7515 0.1557,1.3273 -1.7502,2.4207 -1.4742,3.7282 0.2455,1.1628 1.6511,1.7131 2.5388,2.5029 0.6929,0.6163 2.0841,0.817 2.1705,1.7404 0.4396,4.6961 -0.8269,8.0721 1.8633,10.9043 3.0919,3.2554 7.7525,0.9212 8.5676,2.1574 2.6833,4.0697 5.681,1.0746 7.2281,2.5163 2.0265,1.8884 4.968,1.2205 6.7114,1.8755 l 17.1447,8.3905 c 0,0 66.6395,55.1937 -22.2903,136.7364 -88.9295,81.5427 -253.7063,-7.8067 -321.545,-2.8896 -67.8387,4.9169 -84.5053,3.9234 -126.7271,31.3258 -42.2217,27.4024 -105.3686,135.2705 -105.3686,135.2705 0,0 49.2545,-94.3649 88.2817,-128.1511 39.0272,-33.7859 98.0927,-30.4506 138.1184,-68.3472 40.0257,-37.8966 80.9014,-88.9167 82.3272,-195.5655 1.4261,-106.6489 -88.3556,-136.8814 -94.2784,-142.8046 -14.8863,-14.8717 -26.1676,-30.0773 -45.7684,-55.7377 0.9007,-2.0477 3.9437,-4.0144 4.0223,-7.3406 0.06,-2.5393 5.1495,-2.6006 3.9054,-8.3222 -0.3779,-1.7381 5.5396,-3.783 5.3381,-9.172 -0.1753,-4.6885 -4.1389,-6.4343 -7.8046,-10.7538 -0.7207,-0.8493 0.2746,-2.213 0.3266,-3.3256 0.067,-1.4259 0.7738,-3.0954 -0.019,-4.2822 -0.8918,-1.3347 -3.4309,-0.6151 -4.4406,-1.8629 -0.2309,-0.2854 0.015,-0.7879 -0.2048,-1.0822 -0.5243,-0.7029 -1.8147,-0.5023 -2.3382,-1.2058 -2.7651,-3.7163 -3.7358,-9.1816 -2.5524,-13.6601 0.3412,-1.2913 2.5856,-3.0608 2.5856,-3.0608 0.2559,-0.805 -0.6286,-1.6024 -0.6608,-2.4465 -0.039,-1.0318 0.4691,-2.0166 0.5778,-3.0434 0.1361,-1.2847 0.5732,-2.676 0.091,-3.8745 -1.1539,-2.8673 -6.5778,-6.5354 -6.5778,-6.5354 -1.272,-1.0537 5.5323,-3.6585 7.1945,-6.4057 0.8678,-1.4344 1.7976,-3.3057 1.2194,-4.8793 -1.5803,-4.3011 -7.2842,-5.5853 -11.1748,-8.006 -4.4987,-2.7991 -11.8459,-2.6671 -14.0135,-7.5019 -1.129,-2.5179 2.3422,-5.3185 1.9383,-8.0483 -0.1445,-0.9767 -1.1205,-1.5766 -1.6087,-2.5246 -0.4642,-0.9013 -0.421,-2.1679 -1.3129,-2.461 -1.1349,-0.3729 -2.1062,1.5516 -3.2928,1.4145 -1.2144,-0.1404 -1.4241,-1.295 -2.6338,-1.1189 -0.6353,0.093 -0.8508,0.3345 -1.4764,0.4792 -1.515,0.3503 -4.143,-0.5592 -4.1585,-2.1141 -0.04,-4.016 8.5007,-2.2663 10.6302,-5.6714 3.2675,-5.2248 1.1049,-8.1993 1.505,-11.7972 0.2844,-2.5578 1.8434,-4.2838 -0.013,-4.7053 -7.7037,-1.7491 -20.7891,2.7422 -29.0322,2.3299 -6.4147,-0.3209 -27.3995,-1.7089 -37.1459,0.5758 -32.034,7.5094 -37.9188,19.0043 -33.108,56.3065 1.2465,9.6647 6.4673,18.4632 8.274,28.0391 1.1508,6.1002 1.1574,12.8533 3.6133,18.5547 1.893,4.3946 5.2425,6.5194 7.5321,10.7211 2.0478,3.7581 0.069,6.1214 3.0737,9.1693 2.4794,2.2605 4.6743,3.895 4.9568,9.2233 4.3517,6.3838 6.8221,4.8494 6.3736,6.1213 13.6572,25.8041 27.6838,56.9252 69.4857,98.017 41.8018,41.0918 103.3049,40.0563 105.4399,89.9772 2.135,49.9208 1.3967,108.3551 -57.168,155.2915 -58.5646,46.9364 -158.427,94.3808 -184.6358,131.4036 -26.2088,37.023 -48.4127,120.3198 -48.4127,120.3198 0,0 131.8672,-129.2929 37.0213,-203.6179 -94.8459,-74.3252 -127.2787,-8.8579 -179.4113,54.8203 -22.155,27.0614 -5.9614,96.1219 -8.6698,155.1341 -3.6644,79.848 -18.3756,149.5806 -18.3756,149.5806 l -34.7045,0.1705 c -2.815,0.7961 -7.3318,-0.636 -10.7521,2.0538 -2.6111,2.0534 -6.91,-3.029 -11.6452,2.9889 -1.4384,1.828 -8.427,-2.4383 -13.6947,2.2512 -4.5831,4.0799 -3.0443,9.5309 -4.3496,16.8242 -0.2566,1.434 -2.4607,1.5653 -3.6262,2.4391 -1.4935,1.1197 -3.7661,1.7962 -4.3031,3.5842 -0.6038,2.0105 2.2358,3.9724 1.8177,6.0296 -0.096,0.4704 -0.8069,0.641 -0.9209,1.1073 -0.2727,1.1142 1.0039,2.2486 0.7302,3.3622 -1.4465,5.8827 -6.1509,11.4116 -11.6531,13.946 -1.5865,0.7308 -5.2397,-0.06 -5.2397,-0.06 -1.0249,0.4121 -1.0928,1.9679 -1.9173,2.7031 -1.0081,0.8986 -2.4245,1.2056 -3.5507,1.9507 -1.4091,0.9322 -3.1764,1.6496 -3.9836,3.1337 -1.9316,3.5508 -1.116,12.0749 -1.116,12.0749 -0,2.1602 -8.2955,-2.5343 -12.4501,-1.9238 -2.1691,0.3188 -4.8306,0.9387 -5.9365,2.8318 -3.0227,5.1746 0.4306,11.9966 1.2276,17.9361 0.9218,6.8675 7.1712,14.1682 4.0993,20.3793 -1.5999,3.2347 -7.3143,2.0649 -9.7313,4.7448 -0.8649,0.9589 -0.6575,2.4427 -1.2072,3.7242 -0.5227,1.2186 -1.836,2.2294 -1.3892,3.3731 0.5685,1.455 3.3191,0.832 4.1677,2.1437 0.8695,1.3417 -0.1206,2.5143 1.0641,3.5879 0.6222,0.5638 1.0456,0.5798 1.7123,1.0902 1.6147,1.2364 2.8851,4.6443 1.3295,5.9543 -4.0176,3.3832 -9.3623,-6.6875 -14.5695,-6.0006 -7.9899,1.0537 -9.1899,5.7113 -13.1518,8.3027 -2.8166,1.8424 -5.8554,1.7068 -4.7351,3.93 4.6488,9.2263 20.0718,18.6856 26.5182,27.343 5.0165,6.7371 18.7174,18.6089 29.7872,25.5985 37.288,23.5445 50.9911,6.825 84.6102,-29.0802 8.7104,-9.3028 13.2384,-21.893 21.3929,-31.6868 5.1947,-6.2391 13.6771,-9.8364 17.3831,-17.0597 2.8566,-5.5677 0.5351,-12.746 2.867,-18.553 2.0856,-5.1942 9.0516,-8.1917 9.6246,-13.7596 0.1591,-1.5453 -2.0268,-2.7411 -1.8376,-4.283 0.274,-2.2307 3.005,-1.6688 4.0788,-5.3684 2.8165,-9.7036 -0.7877,-10.918 0.8683,-11.5244 0,0 6.7552,-7.5078 13.014,-53.4448 6.2588,-45.937 2.8681,-165.1986 11.3914,-217.8566 8.5233,-52.6583 3.0702,-78.9777 27.054,-98.2492 23.9838,-19.2715 57.0628,-29.8327 82.5864,-4.2718 25.5235,25.5609 -7.1197,133.8467 -7.1197,133.8467 0,0 5.2129,-82.678 -18.5108,-121.0314 -23.7237,-38.3537 -95.9916,-54.3721 -121.0315,-85.4342 -26.6013,-34.1374 -56.6601,-83.6581 -64.7336,-116.5706 -8.0735,-32.9125 -21.7416,-145.0994 -21.7416,-145.0994 1.6663,-2.6761 6.3048,-4.8105 7.08,-9.4348 0.5919,-3.5304 7.7041,-2.5974 7.1136,-10.8278 -0.1793,-2.5002 8.4848,-4.1684 9.2822,-11.7263 0.6939,-6.5756 -4.4859,-9.8041 -8.735,-16.5636 -0.8354,-1.329 0.826,-3.0321 1.1212,-4.5739 0.3783,-1.9755 1.6989,-4.1629 0.8302,-5.9774 -0.9768,-2.0403 -4.6629,-1.5446 -5.8217,-3.4874 -0.265,-0.4443 0.1781,-1.0961 -0.069,-1.5505 -0.5907,-1.0856 -2.4309,-1.064 -3.0204,-2.15 -3.1135,-5.7377 -3.3739,-13.5561 -0.8266,-19.5665 0.7344,-1.733 4.2194,-3.7524 4.2194,-3.7524 0.518,-1.0717 -0.5563,-2.3611 -0.4323,-3.5449 0.1517,-1.4473 1.0579,-2.7193 1.4152,-4.1299 0.447,-1.7649 1.3352,-3.6184 0.9023,-5.3867 -1.0357,-4.2308 -7.8678,-10.4332 -7.8678,-10.4332 -1.5637,-1.7244 8.4495,-3.9964 11.318,-7.4961 1.4977,-1.8272 3.1693,-4.2515 2.6777,-6.5623 -1.3437,-6.3165 -9.0436,-9.2491 -13.9864,-13.4049 -5.7154,-4.8051 -15.9911,-6.0914 -18.0472,-13.2696 -1.0709,-3.7385 4.332,-6.9504 4.3148,-10.8393 -0.01,-1.3914 -1.2476,-2.4236 -1.7389,-3.8437 -0.4672,-1.3502 -0.1536,-3.1084 -1.339,-3.6959 -1.5085,-0.7473 -3.2488,1.7441 -4.8765,1.3141 -1.666,-0.4387 -1.7274,-2.0914 -3.4502,-2.0879 -0.9048,0 -1.2538,0.2962 -2.1554,0.373 -2.1836,0.1856 -5.6677,-1.6092 -5.3779,-3.7814 0.7484,-5.6102 12.3119,-1.46 15.9639,-5.784 5.6038,-6.6344 3.1824,-11.2169 4.4606,-16.1556 0.9087,-3.5112 3.429,-5.6069 0.9237,-6.5664 -10.3965,-3.9819 -29.5491,-0.3355 -40.9656,-2.5604 -8.8843,-1.7314 -28.414,-1.2567 -42.306,1.2008 -46.7944,8.2778 -45.5902,31.5415 -46.3448,84.5404 -0.1954,13.7316 5.3267,27.0501 5.9304,40.7699 0.3846,8.74 -3.767,17.7589 -1.482,26.2038 1.7611,6.5092 8.8174,10.5467 11.1704,16.8662 2.1048,5.6523 -1.2732,13.0935 2.3082,17.9466 0.9939,1.3471 3.6034,0.7148 4.5708,2.081 1.3994,1.9766 -1.1847,3.5094 0.6426,7.2368 4.7928,9.7764 8.5461,8.1304 7.6659,9.8147 6.2116,22.4045 -10.4355,-54.8073 84.9374,199.8216 l 28.8671,42.7193 c 0,0 20.7106,33.9162 47.7005,64.0754 26.99,30.1594 95.8421,42.8024 119.6077,86.8581 23.7655,44.0555 -5.4322,113.8583 7.1196,152.3573 12.5519,38.4989 38.6966,54.4362 49.8366,75.4667 11.1399,21.0307 19.9346,48.4127 19.9346,48.4127 0,0 -52.0441,148.0966 -86.8581,183.6831 -34.8141,35.5866 -85.434,42.7172 -85.434,42.7172 l -35.5975,-1.4241 -42.7171,22.7825 -9.6217,13.7713 c -18.9332,5.9722 -25.7732,21.4123 -32.3833,31.0816 11.0146,-5.6128 22.927,-14.8177 32.7496,-15.6629 l 24.9182,2.8477 42.0053,-15.6629 -17.087,12.8152 -36.3094,5.6956 c -8.6225,4.7367 -15.7718,10.9466 -19.0498,21.0277 10.0825,-6.0823 19.5649,-7.9653 28.3052,-4.6529 l 30.6138,-4.9837 22.0347,0.6107 17.8345,-1.3226 -8.5434,18.5108 c -6.6051,11.114 -5.9909,18.0293 -6.1989,22.7466 l 11.8947,-19.899 28.4778,-15.6628 29.19,-14.2391 c 0,0 -5.493,19.0189 -0.7119,16.3751 14.109,-7.8027 43.4291,-39.1574 43.4291,-39.1574 l 126.0151,-77.6027 30.6138,-60.5157 51.5238,74.3982 92.6301,67.459 25.1712,16.1094 -42.2875,17.1166 c 0,0 -20.3687,-19.8471 -32.2193,-17.1166 -21.7913,5.0213 -60.4109,25.1714 -60.4109,25.1714 -26.6942,6.6447 -49.9292,14.5864 -55.3768,29.1985 14.373,-6.8446 28.6303,-14.6151 44.3014,-11.0752 l 3.0206,7.0479 c -18.6232,2.7627 -24.2333,17.0927 -31.2124,30.2054 12.8862,-8.8515 25.6855,-17.1811 37.2536,-18.1233 l 37.2533,2.0137 c 0,0 -16.2036,13.1628 -21.1439,20.1372 -4.9403,6.9741 -9.0616,20.1369 -9.0616,20.1369 0,0 10.6127,-13.3357 17.6197,-17.1166 7.0071,-3.7806 22.6542,-5.0342 22.6542,-5.0342 l 48.329,-7.0479 c -6.8094,11.0373 -8.6175,20.7875 -9.0618,33.226 12.0251,-13.3171 24.5801,-24.5148 39.2672,-27.1848 l 74.5069,-11.0755 c 0,0 43.83,-1.1048 51.3493,-9.0615 8.0812,-8.5514 2.0136,-35.2399 2.0136,-35.2399 0,0 155.8785,79.1748 215.466,92.6302 59.5875,13.4553 76.6403,8.7313 131.8973,5.0342 55.257,-3.6969 142.4607,-11.7467 197.3425,-34.2327 54.8817,-22.4862 73.8552,-42.2494 127.87,-88.6029 54.0148,-46.3534 159.3431,-118.4743 241.6439,-92.6301 32.5046,10.207 54.2804,50.6479 57.3905,84.5753 4.4005,48.005 -58.0935,132.4376 -58.0935,132.4376 95.6824,-82.8991 111.4305,-253.9699 -53.0766,-280.4665 -164.5074,-26.4969 -268.7066,157.6621 -420.7544,180.5071 -152.0475,22.8451 -254.1924,-60.7627 -277.9886,-79.4521 -6.7984,-5.3395 -45.5648,-54.1083 -45.5648,-54.1083 14.3794,-0.079 46.9886,27.0775 46.9886,29.9019 -6.3591,-19.3654 -21.4518,-34.364 -38.4451,-48.4126 22.7823,18.1317 45.5648,23.4396 68.3471,29.9019 -36.5365,-17.5676 -65.2458,-39.8316 -95.4014,-61.2277 l -12.8149,-18.5108 c 17.3434,13.8369 29.8563,16.4035 43.3932,21.3587 -17.787,-9.9416 -37.5875,-35.8945 -55.3742,-52.1958 32.5747,7.096 68.3688,15.1185 103.6139,0.849 -41.2108,-11.1003 -81.169,-23.6624 -114.4154,-44.0547 33.8103,-0.9805 67.586,-1.7754 105.324,-23.7027 -46.6375,0.3892 -82.9993,-14.3988 -121.8212,-23.1279 21.3231,-4.0645 46.5441,-9.9703 71.7848,-19.2586 -51.2604,-2.289 -106.5482,-20.3291 -157.8086,-32.1598 26.918,-5.4042 40.2373,-14.8881 54.1083,-24.2063 -64.321,0.5395 -126.2337,-18.1859 -186.5309,-49.8365 73.2948,2.9488 106.9153,-7.3731 134.8536,-22.3654 l -10.9742,-41.7102 c -57.0317,20.423 -140.1174,4.281 -168.0204,2.8479 -27.9029,-1.4333 -79.7384,44.1407 -79.7384,44.1407 0,0 79.7384,-44.1407 158.0531,-69.7711 78.3146,-25.6304 120.4623,-81.5577 139.5422,-128.1509 19.0799,-46.5934 18.7234,-73.8086 -5.6955,-112.4882 -24.4189,-38.6797 -98.9021,-64.3766 -141.8869,-72.3599 -42.9845,-7.9832 -77.2454,-5.2788 -104.7179,-17.5674 -27.4725,-12.2884 -43.7198,-38.0205 -43.7198,-38.0205 -7.7431,-4.7845 -0.7281,-2.8218 -10.6379,-6.4757 -3.9142,-1.3826 -5.1368,1.3619 -7.2624,0.2013 -1.4692,-0.8025 -1.1439,-3.4676 -2.5972,-4.2986 -5.2358,-2.9942 -12.2349,1.2242 -18.0932,-0.2106 -6.5498,-1.604 -11.3787,-8.1443 -18.0482,-9.1384 -8.653,-1.2898 -17.1294,3.88 -25.855,4.5119 -13.6971,0.992 -27.5664,-2.9477 -41.1825,-1.1606 -52.5535,6.8979 -75.7999,8.4006 -78.5932,55.8393 -0.8294,14.0833 0.9648,33.5363 3.7152,42.1597 3.5342,11.0813 2.1344,30.5276 7.2955,40.392 1.2436,2.377 3.0328,-0.3693 6.4149,-1.6792 4.7571,-1.8426 9.5895,0.031 15.5291,-6.3047 3.8711,-4.129 -1.5926,-15.133 3.8929,-16.5271 2.1239,-0.5398 4.3108,2.7125 4.3798,4.9029 0.028,0.9044 -0.2234,1.2852 -0.1204,2.1841 0.1964,1.7116 1.845,1.5808 2.474,3.1847 0.616,1.5667 -1.6567,3.5844 -0.7395,4.996 0.7211,1.1093 2.431,0.5938 3.8263,0.9012 1.4675,0.3232 2.6367,1.4365 4.0195,1.2812 3.8646,-0.4341 6.4281,-6.1731 10.2655,-5.5431 7.3683,1.2095 9.838,11.2666 15.2736,16.3859 4.7012,4.4274 8.5073,11.7351 14.937,12.337 2.3522,0.2201 4.5663,-1.7214 6.2074,-3.4209 3.1433,-3.2552 4.2383,-13.4643 6.1324,-12.1113 0,0 6.9531,6.0665 11.2756,6.6043 1.8065,0.2249 3.5445,-0.8723 5.2456,-1.521 1.3597,-0.5185 2.5179,-1.5662 3.9378,-1.8848 1.1615,-0.2604 2.5668,0.657 3.5712,0.018 0,0 1.6014,-3.6958 3.2376,-4.6263 5.6742,-3.2273 13.47,-3.8757 19.5302,-1.4488 1.1471,0.4596 1.3391,2.2898 2.4859,2.7505 0.48,0.1929 1.076,-0.3228 1.548,-0.1112 2.0642,0.9256 1.9994,4.6443 4.1393,5.3778 1.903,0.6524 3.9224,-0.9131 5.8408,-1.518 1.497,-0.4721 2.9959,-2.3198 4.4129,-1.6442 7.2067,3.4362 11.0143,8.2065 17.465,6.7545 7.4145,-1.6688 8.0662,-10.468 10.5704,-10.5799 8.2433,-0.3683 6.4916,-7.3242 9.9294,-8.3217 4.5031,-1.3065 6.085,-6.1613 8.5498,-8.1267 0,0 1.1402,4.0481 31.0165,9.579 29.8762,5.531 114.3065,-17.2304 149.5096,9.9673 35.203,27.1977 51.8661,70.1908 37.0215,111.0644 -14.8445,40.8734 -46.4897,70.9436 -121.4486,79.494 -74.9591,8.5505 -134.8537,92.7979 -134.8537,92.7979 0,0 134.6324,-106.5525 200.77,-116.7598 66.1375,-10.2075 105.171,36.7238 165.1727,37.0213 60.0016,0.2978 143.8641,-4.1688 186.5308,-39.8692 42.6668,-35.7002 56.5667,-96.331 54.1083,-132.4227 -2.4584,-36.0918 -32.9568,-42.0742 -36.5484,-55.9176 -3.5916,-13.8433 0.683,-42.0869 0.683,-42.0869 z"
       style="opacity:1;fill:#000000;fill-opacity:1;fill-rule:nonzero;stroke:none;stroke-width:21.20000267;stroke-linecap:butt;stroke-linejoin:miter;stroke-miterlimit:4;stroke-dasharray:none;stroke-opacity:1" />
    <path
       inkscape:connector-curvature="0"
       id="path4171"
       d="m -6057.0184,6148.6308 c 0.474,0.143 3.6683,1.1035 7.0985,2.1346 3.4303,1.0312 6.5326,2.397 6.8941,3.035 0.3615,0.638 2.1148,2.732 3.8963,4.6531 4.6143,4.9765 12.3004,22.7189 13.4853,31.129 0.5009,3.5548 1.369,9.5655 1.9293,13.3573 1.4788,10.0083 2.0909,63.6397 1.598,140.0366 -0.237,36.7328 -0.237,72.2158 0,78.8514 0.3501,9.8047 -0.3197,130.5682 -0.741,133.5734 -0.066,0.474 0.062,80.3595 0.2838,177.5234 0.2226,97.1639 0.4164,183.8727 0.4309,192.6863 l 0.027,16.0248 15.1181,0.59 c 8.315,0.3246 18.1067,1.0363 21.7595,1.5818 9.1342,1.3637 12.6375,1.19 19.0946,-0.9472 8.8685,-2.9352 16.8389,-3.3882 18.1016,-1.0288 1.7967,3.3572 0.8079,5.4246 -3.2368,6.7681 -2.0381,0.677 -3.5893,1.5463 -3.4471,1.9317 0.424,1.1493 10.3847,8.6063 11.4959,8.6063 1.9642,0 5.5671,3.5791 5.5671,5.5304 0,4.4461 -4.4192,5.7495 -12.8753,3.7976 -4.0325,-0.9308 -4.5947,-0.861 -6.9211,0.859 -2.2212,1.6422 -3.5685,1.8598 -10.973,1.7725 -9.1374,-0.1076 -12.3348,0.7206 -15.8961,4.1175 -3.289,3.1371 -7.5401,0.9422 -9.5065,-4.9087 -0.2888,-0.8587 -43.2344,-1.2739 -44.5981,-0.4311 -0.4308,0.2662 -0.7783,20.5527 -0.794,46.3585 -0.026,43.7085 -0.7791,118.55 -1.2127,120.5981 -0.6972,3.2926 4.5179,3.6908 7.1124,0.5433 5.5096,-6.6842 17.8982,-6.6785 23.7876,0.011 11.2703,12.8011 5.9466,37.6044 -9.8373,45.8314 -1.9157,0.9986 -3.97,2.4021 -4.565,3.119 -1.4873,1.7921 -8.3052,5.1373 -11.962,5.869 -10.9113,2.1836 -13.0442,3.1876 -14.6297,6.8864 -6.1358,14.3143 -26.7515,14.4949 -30.8993,0.2707 -1.1824,-4.0547 -2.4196,-4.9252 -7.0386,-4.9519 -2.2438,-0.013 -12.4009,-4.4752 -14.65,-6.4361 -0.711,-0.6199 -2.2472,-1.4189 -3.4139,-1.7757 -4.1774,-1.2776 -11.2177,-10.962 -13.0074,-17.8927 -0.3943,-1.5266 -1.1198,-4.3268 -1.6122,-6.2227 -4.8901,-18.8259 18.2801,-39.2684 29.1158,-25.6882 6.8124,8.5381 6.975,7.2719 7.053,-54.9378 0.038,-30.069 0.082,-55.2527 0.099,-55.9636 0.3183,-13.5002 -1.2466,-54.7763 -2.0973,-55.3146 -0.5808,-0.3677 -9.8948,-0.5396 -20.6975,-0.3822 l -19.6413,0.2862 -2.8807,3.145 c -4.1377,4.5172 -6.6241,4.2684 -11.6171,-1.1625 l -3.9602,-4.3077 -11.6326,0.3665 c -8.9994,0.2835 -12.7707,0.7789 -16.6606,2.1882 -12.345,4.4726 -11.6644,-3.4611 1.0366,-12.0831 5.2166,-3.5413 5.1767,-4.4491 -0.2393,-5.4447 -15.5461,-2.858 -2.3808,-10.6017 14.2594,-8.3873 6.1385,0.8169 7.9501,0.7654 11.0055,-0.3125 2.0115,-0.7098 4.5003,-1.3051 5.5307,-1.323 4.2385,-0.074 39.8027,-1.5068 39.9433,-1.6096 2.1039,-1.5398 2.9289,-6.8602 2.9534,-19.05 0.015,-7.3578 0.179,-22.8786 0.3646,-34.4909 1.04,-65.0224 1.466,-100.933 1.6973,-143.0527 0.1417,-25.8315 0.4822,-58.4061 0.7564,-72.3882 0.2743,-13.9822 0.4919,-28.9122 0.4837,-33.178 -0.062,-32.2944 0.8063,-189.6758 1.225,-221.9041 0.6094,-46.9207 1.4289,-76.6219 2.2946,-83.1602 0.4393,-3.3178 1.0174,-23.0953 1.2846,-43.95 0.6573,-51.3002 2.4573,-87.9864 4.6935,-95.6558 0.4147,-1.4219 0.996,-4.1364 1.2921,-6.0323 1.8541,-11.8719 8.9179,-27.2723 15.1187,-32.9613 4.2044,-3.8575 11.1783,-7.3544 13.3572,-6.6977 z"
       style="fill:#000000;fill-opacity:1;opacity:1" />
    <path
       inkscape:connector-curvature="0"
       id="path819001"
       style="font-style:normal;font-variant:normal;font-weight:normal;font-stretch:normal;font-size:medium;line-height:117.99999475%;font-family:Copperplate;-inkscape-font-specification:Copperplate;text-align:start;letter-spacing:0px;word-spacing:0px;text-anchor:start;fill:#ffffff;fill-opacity:1;stroke:none;stroke-width:1px;stroke-linecap:butt;stroke-linejoin:miter;stroke-opacity:1;opacity:1"
       d="m -6039.0045,6780.9111 q 1.4443,0 1.4443,-1.7652 l 1.4443,0 0,12.3565 -1.4443,0 q 0,-0.5617 -0.321,-0.9629 -0.4011,-0.4814 -1.1233,-0.4814 l -31.9343,0 0,13.2391 q 0,0.7221 0.4012,1.4443 0.4012,0.6419 1.5245,0.6419 l 0,1.4442 -11.2332,0 0,-1.4442 q 1.1233,0 1.5245,-0.6419 0.4012,-0.7222 0.4012,-1.4443 l 0,-35.6252 q 0,-0.7221 -0.4012,-1.364 -0.4012,-0.7222 -1.5245,-0.7222 l 0,-1.4442 11.2332,0 0,1.4442 q -1.1233,0 -1.5245,0.7222 -0.4012,0.6419 -0.4012,1.364 l 0,13.2391 31.9343,0 z" />
    <path
       inkscape:connector-curvature="0"
       id="path819003"
       style="font-style:normal;font-variant:normal;font-weight:normal;font-stretch:normal;font-size:medium;line-height:117.99999475%;font-family:Copperplate;-inkscape-font-specification:Copperplate;text-align:start;letter-spacing:0px;word-spacing:0px;text-anchor:start;fill:#ffffff;fill-opacity:1;stroke:none;stroke-width:1px;stroke-linecap:butt;stroke-linejoin:miter;stroke-opacity:1;opacity:1"
       d="m -6059.5452,6729.2886 q 0,-2.8885 -0.4011,-4.8142 -0.4815,-1.9257 -1.2838,-3.049 -0.8024,-1.1233 -1.8455,-1.6047 -1.1233,-0.4814 -2.4071,-0.4814 -1.2838,0 -2.3269,0.4814 -1.1233,0.4814 -1.9256,1.6047 -0.8024,1.1233 -1.2036,3.049 -0.4814,1.9257 -0.4814,4.8142 l 0,13.881 11.875,0 0,-13.881 z m -18.7754,-2.0861 q 0,-3.8514 0.7222,-6.9806 0.6418,-3.1293 2.1663,-5.3759 1.4443,-2.2466 3.8514,-3.4502 2.3269,-1.2036 5.7771,-1.2036 5.2956,0 8.1039,3.1293 2.8083,3.1292 3.7712,8.4249 l 15.245,-10.6716 q 0.8023,-0.5616 0.9628,-1.2837 0.1605,-0.8024 0.1605,-1.4443 l 1.4443,0 0,15.0043 -1.4443,0 q 0,-0.7221 -0.2407,-1.2035 -0.2407,-0.5617 -0.6419,-0.5617 -0.4012,0 -0.8826,0.3209 -0.5617,0.321 -1.4443,0.9629 l -12.517,8.8261 0,11.4738 14.2822,0 q 0.7222,0 1.1233,-0.4814 0.321,-0.5616 0.321,-1.9257 l 1.4443,0 0,13.881 -1.4443,0 q 0,-2.3268 -1.4443,-2.3268 l -36.4276,0 q -1.4442,0 -1.4442,2.3268 l -1.4443,0 0,-27.441 z" />
    <path
       inkscape:connector-curvature="0"
       id="path819005"
       style="font-style:normal;font-variant:normal;font-weight:normal;font-stretch:normal;font-size:medium;line-height:117.99999475%;font-family:Copperplate;-inkscape-font-specification:Copperplate;text-align:start;letter-spacing:0px;word-spacing:0px;text-anchor:start;fill:#ffffff;fill-opacity:1;stroke:none;stroke-width:1px;stroke-linecap:butt;stroke-linejoin:miter;stroke-opacity:1;opacity:1"
       d="m -6076.8763,6684.781 q 0,1.7652 1.4442,1.7652 l 24.0711,0 q 5.055,0 6.9807,-3.2095 1.8454,-3.2897 1.8454,-9.5482 0,-6.2585 -1.8454,-9.468 -1.9257,-3.2897 -6.9807,-3.2897 l -24.0711,0 q -1.4442,0 -1.4442,2.4071 l -1.4443,0 0,-12.8379 1.4443,0 q 0,1.9257 1.4442,1.9257 l 23.6699,0 q 4.734,0 7.8633,1.364 3.049,1.364 4.8944,4.0921 1.8455,2.7281 2.4874,6.8201 0.6419,4.0119 0.6419,9.3075 0,5.2957 -0.6419,9.3878 -0.6419,4.0118 -2.4874,6.7399 -1.8454,2.728 -4.8944,4.092 -3.1293,1.3641 -7.8633,1.3641 l -23.6699,0 q -1.4442,0 -1.4442,2.2466 l -1.4443,0 0,-13.1588 1.4443,0 z" />
    <path
       inkscape:connector-curvature="0"
       id="path819007"
       style="font-style:normal;font-variant:normal;font-weight:normal;font-stretch:normal;font-size:medium;line-height:117.99999475%;font-family:Copperplate;-inkscape-font-specification:Copperplate;text-align:start;letter-spacing:0px;word-spacing:0px;text-anchor:start;fill:#ffffff;fill-opacity:1;stroke:none;stroke-width:1px;stroke-linecap:butt;stroke-linejoin:miter;stroke-opacity:1;opacity:1"
       d="m -6039.0045,6616.2059 q 1.4443,0 1.4443,-1.7652 l 1.4443,0 0,12.3565 -1.4443,0 q 0,-0.5616 -0.321,-0.9628 -0.4011,-0.4814 -1.1233,-0.4814 l -31.9343,0 0,13.2391 q 0,0.7221 0.4012,1.4442 0.4012,0.6419 1.5245,0.6419 l 0,1.4443 -11.2332,0 0,-1.4443 q 1.1233,0 1.5245,-0.6419 0.4012,-0.7221 0.4012,-1.4442 l 0,-35.6253 q 0,-0.7221 -0.4012,-1.364 -0.4012,-0.7221 -1.5245,-0.7221 l 0,-1.4443 11.2332,0 0,1.4443 q -1.1233,0 -1.5245,0.7221 -0.4012,0.6419 -0.4012,1.364 l 0,13.2391 31.9343,0 z" />
    <path
       inkscape:connector-curvature="0"
       id="path819009"
       style="font-style:normal;font-variant:normal;font-weight:normal;font-stretch:normal;font-size:medium;line-height:117.99999475%;font-family:Copperplate;-inkscape-font-specification:Copperplate;text-align:start;letter-spacing:0px;word-spacing:0px;text-anchor:start;fill:#ffffff;fill-opacity:1;stroke:none;stroke-width:1px;stroke-linecap:butt;stroke-linejoin:miter;stroke-opacity:1;opacity:1"
       d="m -6075.4321,6552.227 q -1.4442,0 -1.4442,1.7652 l -1.4443,0 0,-12.3565 1.4443,0 q 0,0.5617 0.4011,1.0431 0.321,0.4012 1.0431,0.4012 l 36.4276,0 q 0.7222,0 1.1233,-0.4012 0.321,-0.4814 0.321,-1.0431 l 1.4443,0 0,12.3565 -1.4443,0 q 0,-1.7652 -1.4443,-1.7652 l -15.0845,0 0,25.8363 15.0845,0 q 0.7222,0 1.1233,-0.4012 0.321,-0.4814 0.321,-1.0431 l 1.4443,0 0,12.1158 -1.4443,0 q 0,-1.5245 -1.4443,-1.5245 l -36.4276,0 q -1.4442,0 -1.4442,1.5245 l -1.4443,0 0,-12.1158 1.4443,0 q 0,0.5617 0.4011,1.0431 0.321,0.4012 1.0431,0.4012 l 13.6403,0 0,-25.8363 -13.6403,0 z" />
    <path
       inkscape:connector-curvature="0"
       id="path4163"
       d="m -4209.7679,7202.4252 c -4.9981,-9.2893 -6.419,-31.4537 -8.5091,-132.7342 -0.7293,-35.3455 -1.7601,-68.3958 -2.2906,-73.4451 -0.5306,-5.0493 -1.4773,-43.8836 -2.1036,-86.298 -0.6264,-42.4147 -1.7553,-89.0982 -2.5085,-103.7414 -0.7535,-14.643 -1.654,-32.6576 -2.0014,-40.0323 -0.3473,-7.3747 -1.8216,-14.3565 -3.2762,-15.5154 -3.6917,-2.9411 -3.2968,-6.499 0.7997,-7.205 3.0557,-0.5269 3.0557,-1.1869 0,-5.8529 -4.2605,-6.5061 -4.4127,-11.4951 -0.3884,-12.7254 4.1856,-1.2795 2.5564,-30.646 -2.2961,-41.3874 -1.9777,-4.3783 -3.467,-12.641 -3.3094,-18.3613 3.2799,-64.5076 -5.5898,-120.8399 -7.5754,-186.1997 -0.1352,-5.8008 -1.2829,-10.5646 -2.5505,-10.5857 -8.9557,-0.1508 -13.5363,-19.1584 -7.0318,-29.1795 4.515,-6.9557 4.5022,-13.6388 -0.064,-33.4596 -3.0788,-13.3659 -4.527,-16.21 -9.2856,-18.2391 -6.2545,-2.6667 -9.0326,-8.6419 -6.7184,-14.4505 1.0579,-2.6558 0.5057,-3.8049 -1.8285,-3.8049 -4.467,0 -19.5381,-13.4598 -21.2869,-19.0111 -3.9152,-12.4273 4.096,-20.8034 21.6955,-22.6839 5.3083,-0.5673 10.3552,-1.9386 11.2154,-3.0473 0.8602,-1.1088 1.2995,-7.814 0.9767,-14.9004 -0.4263,-9.352 0.8343,-16.408 4.5983,-25.7371 3.9992,-9.9126 5.0784,-16.5287 4.718,-28.9192 -0.366,-12.5818 0.2188,-16.0661 2.6988,-16.0661 3.1521,0 5.9978,8.8034 6.0487,18.7121 0.024,2.7175 1.0379,5.4394 2.2754,6.0487 1.389,0.684 2.0854,-3.3207 1.8199,-10.4613 -0.4049,-10.8822 0.2852,-12.5572 11.6149,-28.1968 13.3264,-18.3964 16.5808,-25.5981 16.5808,-36.6921 0,-8.2115 4.6782,-14.9928 8.9067,-12.9107 1.4804,0.729 2.1531,2.0201 1.4945,2.8691 -1.6729,2.1566 3.8028,20.2679 5.8267,19.2714 0.9083,-0.4473 1.3801,-3.0986 1.0482,-5.8916 -3.5589,-29.9429 -3.7828,-34.9928 -1.6001,-36.0677 3.8842,-1.9125 8.6324,3.3217 12.9623,14.2887 2.2309,5.6508 5.1094,10.2741 6.3963,10.2741 2.184,0 1.9812,-1.3461 -1.8673,-12.3938 -1.0153,-2.9145 -0.4533,-4.1313 1.9084,-4.1313 3.3497,0 11.7845,23.5962 14.8926,41.6621 0.7581,4.4075 2.121,8.3791 3.0284,8.826 0.9076,0.4468 1.1603,-1.2284 0.5617,-3.7224 -0.6315,-2.6323 0,-4.5348 1.4853,-4.5348 1.4156,0 2.5734,1.6038 2.5734,3.564 0,1.9601 1.0372,4.0745 2.3047,4.6987 1.2675,0.624 2.3047,-0.1528 2.3047,-1.7278 0,-3.8638 3.7315,-3.6349 5.7176,0.3505 3.3408,6.7043 4.1582,38.9156 1.2631,49.7845 -2.4736,9.2868 -2.3693,12.1974 0.7092,19.7986 1.9849,4.9013 4.1059,11.3903 4.7131,14.42 0.6075,3.0295 0.7562,0.3441 0.3309,-5.9675 -0.4253,-6.3118 -0.093,-11.4498 0.7365,-11.418 3.5776,0.137 10.5758,10.4738 13.2156,19.5205 2.5389,8.7021 2.4305,10.002 -0.9657,11.5814 -3.3264,1.5469 -3.1835,1.7862 1.0947,1.8348 2.7064,0.031 6.6842,2.2002 8.8397,4.8211 3.3598,4.0853 5.0327,4.5986 11.7242,3.5986 11.9404,-1.7846 20.9856,2.7396 22.8257,11.4171 0.8174,3.8542 0.3301,9.4493 -1.0826,12.4336 -3.1192,6.5889 -15.3536,17.1217 -22.4521,19.3294 -3.3853,1.0529 -5.1855,3.1507 -5.1855,6.0426 0,2.4363 -3.4648,8.4472 -7.6998,13.3573 -7.7663,9.0047 -7.7934,9.0958 -12.1923,41.3331 -0.6928,5.0764 -0.1672,9.0271 1.2972,9.7481 5.1082,2.5151 1.4404,27.4722 -4.4645,30.3798 -5.6864,2.7998 -12.9245,64.6133 -17.307,147.8022 -0.7446,14.1381 -1.8759,27.3866 -2.5136,29.4411 -0.6731,2.1693 0.694,5.4377 3.2605,7.7954 5.2357,4.8096 8.2735,19.4741 5.0332,24.2978 -1.2562,1.8696 -4.3591,3.9243 -6.8956,4.5656 -4.0959,1.0358 -4.6328,2.8469 -4.799,16.1906 -0.1032,8.2633 -0.4262,17.5031 -0.7185,20.5327 -0.3472,3.5992 0.9356,6.351 3.701,7.9393 5.8961,3.3865 3.5493,19.8187 -3.5904,25.1416 -2.7317,2.0364 -5.163,5.7547 -5.4027,8.2624 -3.2651,34.1429 -5.4688,77.5777 -6.3364,124.8936 -0.5838,31.8482 -1.7503,59.3361 -2.5925,61.0844 -1.4379,2.9853 0.8179,9.5984 6.5549,19.216 1.8049,3.0258 1.7707,4.7385 -0.1254,6.2488 -1.6726,1.3327 -1.8629,3.1939 -0.529,5.1795 1.4898,2.2178 0.4968,4.9578 -3.4911,9.6335 -5.0949,5.9735 -5.7749,9.3449 -7.9281,39.3094 -1.2953,18.0263 -2.892,43.9298 -3.5481,57.5629 -4.0953,85.1008 -7.8345,117.5859 -14.336,124.5552 -2.51,2.6906 -7.3202,5.1539 -10.6891,5.4741 -5.2915,0.503 -6.71,-0.5037 -10.4169,-7.3937 z m 24.2005,-230.9672 c 4.278,0 7.7782,-0.8656 7.7782,-1.9236 0,-3.0563 -28.2106,-1.3898 -29.5105,1.7435 -0.832,2.0057 0.5899,2.3097 6.443,1.377 4.1309,-0.6583 11.0111,-1.1969 15.2893,-1.1969 z m -8.7209,-8.2254 c 8.3883,-0.8484 13.9102,-0.4211 18.5894,1.4387 7.8478,3.119 13.9806,1.3747 8.3217,-2.3669 -6.9608,-4.6023 -49.5917,-1.3854 -49.5917,3.7422 0,0.9677 2.2187,0.9763 5.3737,0.02 2.9556,-0.8953 10.7436,-2.1709 17.3069,-2.8346 z m -24.2168,-507.9892 c 12.745,-2.6643 26.386,-3.9981 42.2523,-4.1313 25.0261,-0.2099 32.1791,-1.8561 17.7128,-4.0767 -26.2712,-4.0322 -75.1214,0.8988 -84.8688,8.5671 -4.5211,3.5567 -4.5171,3.5757 0.7685,3.5757 2.9225,0 13.7834,-1.7706 24.1352,-3.9348 z m -6.3226,-13.0495 c 13.6942,-3.1033 23.5651,-4.0628 39.6728,-3.8561 18.7146,0.2399 21.3507,-0.1077 20.7174,-2.7263 -1.0711,-4.4314 -15.7481,-5.8 -41.008,-3.8245 -21.8383,1.7083 -41.0935,7.1779 -43.228,12.2797 -1.3329,3.1856 3.0405,2.8422 23.8458,-1.8728 z m 82.7612,-3.1452 c 4.7901,-1.5692 4.8009,-1.5617 -6.338,-4.4245 -2.9158,-0.7494 -4.0332,-0.035 -4.0332,2.578 0,3.8215 2.8134,4.3225 10.3712,1.8465 z m -96.7968,-62.5024 c 19.7547,-5.4118 66.5333,-7.6569 91.7796,-4.4046 5.6916,0.7331 6.4133,0.3144 5.7619,-3.343 -0.841,-4.7214 -0.5583,-4.6826 -38.9353,-5.355 -20.3157,-0.3559 -28.8223,0.4528 -51.2084,4.8691 -25.368,5.0045 -31.4395,7.6587 -27.9143,12.2027 0.766,0.9877 3.1029,1.2088 5.193,0.4918 2.0901,-0.7172 8.9854,-2.7246 15.3235,-4.461 z m 0.1573,-11.8351 c 20.8644,-4.8838 67.2576,-8.7583 79.6065,-6.6484 6.1107,1.0439 14.3667,1.3794 18.347,0.745 l 7.2371,-1.153 -6.5805,-2.1918 c -10.9916,-3.6609 -44.4633,-4.6211 -67.9512,-1.9497 -24.1986,2.7525 -46.1729,8.0944 -47.5648,11.5632 -1.199,2.9872 2.9687,2.8973 16.9059,-0.3653 z m -32.3543,-9.4479 c -3.305,-4.0186 -3.4616,-5.1618 -0.8885,-6.4837 2.5956,-1.3338 2.5506,-1.8989 -0.2662,-3.3415 -1.8647,-0.955 -2.7241,-2.2672 -1.9099,-2.9159 1.4735,-1.1739 16.123,6.1478 17.5965,8.7948 0.4253,0.7638 1.7671,0.8992 2.982,0.301 1.2146,-0.5981 3.5705,-0.188 5.2348,0.9133 3.8912,2.5729 17.5141,0.4628 17.5141,-2.7128 0,-1.3227 -0.8852,-4.3179 -1.9671,-6.6558 -3.9398,-8.513 -5.0323,-14.3497 -2.686,-14.3497 1.2916,0 2.3484,1.1906 2.3484,2.6458 0,1.4552 0.9757,3.1262 2.1683,3.7134 1.2933,0.6369 1.6237,-1.7272 0.8188,-5.859 l -1.3494,-6.9265 6.6715,5.5084 c 3.6693,3.0294 8.3551,8.8134 10.4132,12.8529 2.4244,4.758 5.4261,7.5466 8.5238,7.9187 7.3479,0.8826 14.2382,-2.9082 14.2382,-7.8333 0,-5.3094 2.1714,-10.1843 4.5364,-10.1843 0.9562,0 1.2134,2.1885 0.5715,4.8633 -0.8054,3.3569 -0.3496,4.4608 1.4721,3.564 1.4513,-0.7147 2.6547,-3.5229 2.6741,-6.2403 0.024,-2.7177 1.1404,-6.1806 2.491,-7.6953 1.7988,-2.0171 2.0923,0.07 1.0972,7.8036 -1.4266,11.0822 1.7762,14.7221 4.443,5.0493 0.835,-3.0297 2.5856,-5.5084 3.8898,-5.5084 2.2339,0 1.4705,4.9285 -1.8219,11.7644 -1.1729,2.4348 0.5185,2.9246 10.0986,2.9246 11.021,0 11.6798,-0.2895 15.5868,-6.8492 3.6032,-6.0491 4.2841,-6.4244 5.8299,-3.2132 1.4996,3.1151 2.3237,2.5179 5.7516,-4.1675 4.5978,-8.9678 9.0115,-10.4664 6.7589,-2.2953 -1.0168,3.6884 -0.6215,5.5085 1.1967,5.5085 1.6768,0 0.8297,2.5464 -2.2152,6.6578 -2.7118,3.6619 -4.6293,6.8506 -4.2608,7.0862 2.7066,1.7309 13.3456,2.5122 13.3456,0.98 0,-1.0292 2.0131,-1.8712 4.4734,-1.8712 2.4603,0 5.1246,-0.8398 5.9209,-1.8661 0.7962,-1.0262 2.5006,-1.3476 3.7876,-0.7138 1.2869,0.6336 5.3215,-1.6252 8.9657,-5.0196 5.9352,-5.5279 6.6358,-5.7612 6.7196,-2.2366 0.052,2.1642 -1.4619,4.4104 -3.3632,4.9917 -1.9015,0.5813 -3.4572,2.0531 -3.4572,3.2708 0,1.2176 2.4104,0.4097 5.3565,-1.7952 2.9463,-2.2051 6.0576,-3.4508 6.9141,-2.7684 2.506,1.9965 1.7886,-10.2853 -0.8283,-14.1808 -3.714,-5.5291 -9.0798,-4.2567 -19.865,4.7111 -13.9137,11.5688 -17.7838,10.8941 -11.8976,-2.0741 2.0773,-4.5769 2.0891,-7.1217 0.049,-10.6881 -5.4584,-9.5444 -24.1749,-4.148 -32.4012,9.342 -7.4284,12.1809 -13.6832,10.2462 -13.8001,-4.2687 -0.1107,-13.7618 -11.0756,-18.6145 -25.2006,-11.1531 -5.7995,3.0634 -9.7548,7.114 -12.202,12.4959 -1.9918,4.3797 -4.719,8.2549 -6.0605,8.6111 -1.3418,0.3563 -5.0497,-2.9006 -8.2396,-7.2374 -10.8326,-14.7264 -18.8729,-17.2707 -27.5619,-8.7217 -3.4485,3.3927 -4.2701,6.6036 -3.6779,14.3707 0.9195,12.0599 -1.8978,13.5462 -11.0431,5.8267 -4.9591,-4.186 -8.6685,-5.5854 -14.806,-5.5854 -16.1773,0 -18.8593,10.4725 -5.4236,21.1767 9.2549,7.3733 12.9055,7.2464 6.7529,-0.2348 z m 67.9188,-36.5481 c 5.6151,-11.7663 34.5787,-15.9454 44.2901,-6.3905 4.1085,4.0422 4.3566,4.0671 7.4087,0.7419 4.4286,-4.8253 6.4777,-19.5654 3.5677,-25.6633 -1.697,-3.5561 -1.7105,-6.7763 -0.044,-10.5847 1.3171,-3.0105 2.3575,-8.0355 2.3118,-11.167 -0.071,-4.9582 -0.6675,-4.3987 -4.6094,4.3348 -2.4893,5.5156 -4.5263,12.2834 -4.5263,15.0398 0,2.7563 -1.0372,5.5221 -2.3047,6.1463 -3.639,1.7917 -2.73,-8.1865 2.123,-23.3037 5.1058,-15.9045 7.1442,-33.4101 4.663,-40.0428 -1.6257,-4.3464 -1.7292,-4.2812 -1.9467,1.227 -0.1254,3.1995 -0.8595,7.1242 -1.6287,8.7215 -3.0552,6.3428 -5.1084,2.2614 -5.1084,-10.1538 0,-7.182 -0.8695,-13.7538 -1.932,-14.6042 -1.0625,-0.8506 -1.5795,3.3869 -1.149,9.4162 0.573,8.0261 -0.9121,15.504 -5.5443,27.9164 -3.4798,9.3244 -6.9613,21.0849 -7.7364,26.1344 -1.3371,8.7088 -1.5645,8.9613 -4.4242,4.9118 -3.3257,-4.7093 -1.848,-16.3695 3.0657,-24.1913 7.5574,-12.0305 12.2371,-38.9765 5.3678,-30.909 -1.2828,1.5063 -1.5052,-1.5851 -0.5784,-8.0308 1.7134,-11.9132 -1.7226,-25.8717 -7.9879,-32.4512 -4.1285,-4.3356 -4.1774,-4.2193 -5.7778,13.7708 -2.1154,23.7806 -3.7979,32.0688 -6.2638,30.8546 -1.1092,-0.5462 -2.0225,-4.4558 -2.0297,-8.6882 -0.024,-9.6409 -4.9555,-24.118 -6.3842,-18.7119 -0.5337,2.0197 -2.9567,8.4301 -5.384,14.2454 -2.4276,5.8153 -5.0706,16.7632 -5.8732,24.3288 -1.8551,17.4835 -6.24,18.3713 -5.0091,1.0141 1.0819,-15.2544 -2.0985,-14.785 -8.7192,1.2874 -3.3119,8.0402 -4.3272,15.8639 -4.2854,33.0283 0.056,22.9294 -1.6973,28.7001 -4.4629,14.6891 -2.9362,-14.8751 -6.1819,-22.4216 -8.4276,-19.5948 -1.1407,1.4358 -2.0898,4.7925 -2.1093,7.4595 -0.024,2.6669 -1.9843,8.3171 -4.3665,12.556 -3.5707,6.3539 -3.8994,8.8878 -1.8725,14.4305 1.3521,3.6979 2.6284,6.9447 2.8359,7.2152 0.2066,0.2705 3.3837,-0.7571 7.0582,-2.2838 11.0263,-4.5812 20.4061,-3.5988 27.2179,2.8508 3.2816,3.1072 5.9666,6.4123 5.9666,7.3445 0,3.2085 2.4227,1.6871 4.6092,-2.8941 z m 63.5263,-31.4018 c -0.7631,-2.4219 -2.2607,-4.4036 -3.3284,-4.4036 -1.0676,0 -0.7883,3.9247 0.6202,8.7216 1.8507,6.3026 2.7738,7.5239 3.3281,4.4036 0.4221,-2.375 0.1426,-6.2997 -0.6199,-8.7216 z"
       style="fill:#000000;opacity:1"
       sodipodi:nodetypes="cssscsccccccccscccssscccsscscsscscccsssscccsscsscccsccccsccccsccccccscccccccscsccssscsccssccsccssccccscsscsscccsscssccsssccccccccccccccscccscsscsccccssccccccscscccssccssccsccssscsccccccsccscsscccccssccscscccscsscccccsscccccsccsscsccscscccsccc" />
    <path
       inkscape:connector-curvature="0"
       id="path818986"
       style="font-style:normal;font-variant:normal;font-weight:normal;font-stretch:normal;font-size:medium;line-height:117.99999475%;font-family:Copperplate;-inkscape-font-specification:Copperplate;text-align:start;letter-spacing:0px;word-spacing:0px;text-anchor:start;fill:#ffffff;fill-opacity:1;stroke:none;stroke-width:1px;stroke-linecap:butt;stroke-linejoin:miter;stroke-opacity:1;opacity:1"
       d="m -4180.6631,6836.4818 0.4815,-1.2838 q 1.2837,-0.2407 2.2466,-1.2035 0.9628,-1.0431 1.685,-2.4874 0.6419,-1.4442 1.043,-3.1292 0.321,-1.685 0.321,-3.2095 0,-4.8142 -1.364,-6.9806 -1.4443,-2.2467 -5.2957,-2.2467 l -25.756,0 q -1.1234,0 -1.7652,0.9629 -0.6419,0.9628 -0.6419,1.8454 l -1.4443,0 0,-15.245 1.4443,0 q 0,1.364 0.6419,2.3269 0.6418,0.9628 1.7652,0.9628 l 26.4782,0 q 3.1292,0 5.4561,1.3641 2.3269,1.2838 3.8514,3.6909 1.5245,2.4071 2.1664,5.6968 0.6418,3.2897 0.6418,7.3016 0,2.4873 -0.3209,4.5735 -0.3209,2.0861 -0.7221,3.7711 -0.4815,1.6047 -0.8826,2.8885 -0.4012,1.2036 -0.4012,2.006 0,0.8826 0.9628,1.4442 l -0.8023,1.2036 -9.789,-4.2526 z" />
    <path
       inkscape:connector-curvature="0"
       id="path818988"
       style="font-style:normal;font-variant:normal;font-weight:normal;font-stretch:normal;font-size:medium;line-height:117.99999475%;font-family:Copperplate;-inkscape-font-specification:Copperplate;text-align:start;letter-spacing:0px;word-spacing:0px;text-anchor:start;fill:#ffffff;fill-opacity:1;stroke:none;stroke-width:1px;stroke-linecap:butt;stroke-linejoin:miter;stroke-opacity:1;opacity:1"
       d="m -4209.7088,6780.7974 q 0,1.7652 1.4442,1.7652 l 24.0711,0 q 5.0549,0 6.9806,-3.2095 1.8455,-3.2897 1.8455,-9.5482 0,-6.2585 -1.8455,-9.468 -1.9257,-3.2897 -6.9806,-3.2897 l -24.0711,0 q -1.4442,0 -1.4442,2.4071 l -1.4443,0 0,-12.8379 1.4443,0 q 0,1.9257 1.4442,1.9257 l 23.6699,0 q 4.734,0 7.8632,1.364 3.0491,1.3641 4.8945,4.0921 1.8455,2.7281 2.4874,6.8202 0.6418,4.0118 0.6418,9.3075 0,5.2956 -0.6418,9.3877 -0.6419,4.0118 -2.4874,6.7399 -1.8454,2.728 -4.8945,4.0921 -3.1292,1.364 -7.8632,1.364 l -23.6699,0 q -1.4442,0 -1.4442,2.2466 l -1.4443,0 0,-13.1588 1.4443,0 z" />
    <path
       inkscape:connector-curvature="0"
       id="path818990"
       style="font-style:normal;font-variant:normal;font-weight:normal;font-stretch:normal;font-size:medium;line-height:117.99999475%;font-family:Copperplate;-inkscape-font-specification:Copperplate;text-align:start;letter-spacing:0px;word-spacing:0px;text-anchor:start;fill:#ffffff;fill-opacity:1;stroke:none;stroke-width:1px;stroke-linecap:butt;stroke-linejoin:miter;stroke-opacity:1;opacity:1"
       d="m -4182.1876,6731.2385 0.4012,-0.8023 q 0.7222,0 1.2838,-0.321 0.9629,-0.5616 1.9257,-2.1664 0.8826,-1.685 1.6047,-3.7711 0.7222,-2.1664 1.2036,-4.4933 0.4012,-2.3269 0.4012,-4.1723 0,-1.3641 -0.1605,-3.5305 -0.2407,-2.1663 -0.8826,-4.2525 -0.6419,-2.0862 -1.7652,-3.6107 -1.1233,-1.5245 -2.9688,-1.5245 -1.8454,0 -2.728,1.4443 -0.8826,1.364 -1.2838,3.6909 -0.4012,2.2466 -0.4814,5.2154 -0.1605,2.8885 -0.4012,5.9375 -0.2407,3.049 -0.8024,6.0178 -0.5617,2.8885 -1.8455,5.2154 -1.364,2.2466 -3.6106,3.6909 -2.3269,1.364 -6.0178,1.364 -2.4874,0 -4.8945,-1.1233 -2.4071,-1.2035 -4.2525,-3.6106 -1.8455,-2.4072 -2.9688,-6.0981 -1.2035,-3.6909 -1.2035,-8.6656 0,-4.2525 0.6419,-7.3817 0.6419,-3.1293 1.364,-5.3759 0.7221,-2.3269 1.364,-3.8514 0.6419,-1.6047 0.6419,-2.6478 0,-1.1233 -0.4814,-1.6048 l 0.6419,-0.9628 10.0296,5.5363 -0.3209,0.8024 q -1.1233,0.1605 -1.8455,0.6419 -0.9628,0.6419 -1.8454,2.1664 -0.9629,1.4443 -1.685,3.4502 -0.7222,2.0059 -1.1233,4.3328 -0.4815,2.3269 -0.4815,4.6537 0,1.7653 0.321,3.6909 0.2407,1.8455 0.8024,3.37 0.5616,1.5245 1.5245,2.5676 0.8826,0.9628 2.2466,0.9628 1.9257,0 2.8885,-1.364 0.9629,-1.4443 1.4443,-3.6909 0.4814,-2.3269 0.6419,-5.2154 0.1605,-2.9688 0.4012,-6.0178 0.2407,-3.049 0.8826,-5.9375 0.5616,-2.9688 1.9257,-5.2154 1.2838,-2.3269 3.5304,-3.6909 2.2466,-1.4443 5.8573,-1.4443 4.1723,0 6.8201,2.2467 2.6479,2.1663 4.1724,5.4561 1.5245,3.2897 2.0861,7.1411 0.4814,3.7711 0.4814,7.0608 0,4.5735 -0.4814,7.7027 -0.5616,3.049 -1.2838,5.1352 -0.8023,2.0059 -1.364,3.2095 -0.6419,1.2036 -0.6419,2.0862 0,0.5616 0.6419,1.043 l -0.6419,1.1234 -9.7087,-4.4131 z" />
    <path
       inkscape:connector-curvature="0"
       id="path818992"
       style="font-style:normal;font-variant:normal;font-weight:normal;font-stretch:normal;font-size:medium;line-height:117.99999475%;font-family:Copperplate;-inkscape-font-specification:Copperplate;text-align:start;letter-spacing:0px;word-spacing:0px;text-anchor:start;fill:#ffffff;fill-opacity:1;stroke:none;stroke-width:1px;stroke-linecap:butt;stroke-linejoin:miter;stroke-opacity:1;opacity:1"
       d="m -4171.837,6658.7833 q 1.4443,0 1.4443,-1.7652 l 1.4442,0 0,12.3565 -1.4442,0 q 0,-0.5617 -0.321,-0.9629 -0.4012,-0.4814 -1.1233,-0.4814 l -31.9343,0 0,13.2391 q 0,0.7221 0.4012,1.4443 0.4012,0.6419 1.5245,0.6419 l 0,1.4442 -11.2332,0 0,-1.4442 q 1.1233,0 1.5245,-0.6419 0.4012,-0.7222 0.4012,-1.4443 l 0,-35.6252 q 0,-0.7221 -0.4012,-1.364 -0.4012,-0.7222 -1.5245,-0.7222 l 0,-1.4442 11.2332,0 0,1.4442 q -1.1233,0 -1.5245,0.7222 -0.4012,0.6419 -0.4012,1.364 l 0,13.2391 31.9343,0 z" />
    <path
       inkscape:connector-curvature="0"
       id="path818994"
       style="font-style:normal;font-variant:normal;font-weight:normal;font-stretch:normal;font-size:medium;line-height:117.99999475%;font-family:Copperplate;-inkscape-font-specification:Copperplate;text-align:start;letter-spacing:0px;word-spacing:0px;text-anchor:start;fill:#ffffff;fill-opacity:1;stroke:none;stroke-width:1px;stroke-linecap:butt;stroke-linejoin:miter;stroke-opacity:1;opacity:1"
       d="m -4170.3927,6632.275 q 0,-2.0861 -1.4443,-2.0861 l -36.4276,0 q -1.4442,0 -1.4442,2.0861 l -1.4443,0 0,-13.3193 1.4443,0 q 0,2.0861 1.4442,2.0861 l 36.4276,0 q 1.4443,0 1.4443,-2.0861 l 1.4442,0 0,13.3193 -1.4442,0 z" />
    <path
       inkscape:connector-curvature="0"
       id="path818996"
       style="font-style:normal;font-variant:normal;font-weight:normal;font-stretch:normal;font-size:medium;line-height:117.99999475%;font-family:Copperplate;-inkscape-font-specification:Copperplate;text-align:start;letter-spacing:0px;word-spacing:0px;text-anchor:start;fill:#ffffff;fill-opacity:1;stroke:none;stroke-width:1px;stroke-linecap:butt;stroke-linejoin:miter;stroke-opacity:1;opacity:1"
       d="m -4174.7255,6560.8616 q 0,0.2407 0,0.4814 -0.08,0.1605 -0.08,0.4012 0,0.4814 0.9629,2.3269 0.9628,1.7652 2.1664,4.5735 1.2035,2.7281 2.0861,6.2585 0.8826,3.5304 0.8826,7.3818 0,5.0549 -1.2837,9.7087 -1.2838,4.6537 -3.9316,8.2644 -2.7281,3.5304 -6.74,5.6166 -4.0118,2.0861 -9.3877,2.0861 -5.2956,0 -9.3075,-2.0861 -4.0921,-2.0862 -6.8201,-5.6166 -2.7281,-3.6107 -4.0921,-8.2644 -1.364,-4.6538 -1.364,-9.7087 0,-4.0921 0.6419,-7.3818 0.6419,-3.37 1.364,-5.8573 0.7221,-2.4873 1.364,-3.9316 0.6419,-1.4443 0.6419,-1.7652 0,-0.4012 -0.4012,-0.6419 -0.4012,-0.321 -0.6419,-0.4815 l 0.9629,-1.2035 9.7087,6.2585 -0.5617,0.8024 q -0.2407,0 -0.4814,0.08 -0.2407,0 -0.5617,0.08 -0.8826,0.1605 -1.7652,1.6048 -0.9629,1.4442 -1.685,3.6106 -0.7221,2.0862 -1.2035,4.4933 -0.4815,2.3269 -0.4815,4.3328 0,3.3699 0.9629,6.4992 0.9628,3.049 2.8083,5.3759 1.8454,2.2466 4.5735,3.6106 2.6478,1.364 6.098,1.364 3.4502,0 6.1783,-1.364 2.6478,-1.364 4.4932,-3.6106 1.8455,-2.3269 2.8083,-5.3759 0.9628,-3.1293 0.9628,-6.4992 0,-2.5676 -0.5616,-5.3759 -0.6419,-2.8083 -1.5245,-5.1352 -0.9629,-2.3268 -2.0862,-3.8513 -1.2035,-1.6048 -2.2466,-1.6048 -0.5617,0 -0.9628,0.321 l -0.6419,-1.1233 8.5051,-5.2957 0.6419,0.6419 z" />
    <path
       inkscape:connector-curvature="0"
       id="path818998"
       style="font-style:normal;font-variant:normal;font-weight:normal;font-stretch:normal;font-size:medium;line-height:117.99999475%;font-family:Copperplate;-inkscape-font-specification:Copperplate;text-align:start;letter-spacing:0px;word-spacing:0px;text-anchor:start;fill:#ffffff;fill-opacity:1;stroke:none;stroke-width:1px;stroke-linecap:butt;stroke-linejoin:miter;stroke-opacity:1;opacity:1"
       d="m -4202.4875,6507.7723 q -0.8826,0 -1.2838,0.7222 -0.4814,0.6419 -0.4814,2.3268 l 0,25.9968 9.9494,0 0,-15.7264 q 0,-1.6048 -0.4012,-2.4874 -0.4815,-0.8826 -2.3269,-0.8826 l 0,-1.4443 12.517,0 0,1.4443 q -1.8455,0 -2.3269,0.8826 -0.5617,0.8826 -0.5617,2.4874 l 0,15.7264 11.0727,0 0,-26.7991 q 0,-1.2036 -0.5616,-1.9257 -0.5617,-0.8024 -1.5245,-0.8024 l 0,-1.4442 10.9924,0 0,1.4442 q -1.2035,0 -1.364,0.8024 -0.1605,0.7221 -0.1605,1.9257 l 0,37.3904 -1.4442,0 q 0,-0.5617 -0.321,-0.9628 -0.4012,-0.4815 -1.1233,-0.4815 l -36.4276,0 q -0.7221,0 -1.0431,0.4815 -0.4011,0.4011 -0.4011,0.9628 l -1.4443,0 0,-36.5881 q 0,-1.6849 -0.4814,-2.3268 -0.5617,-0.7222 -1.4443,-0.7222 l 0,-1.4442 10.5913,0 0,1.4442 z" />
  </g>
</svg>
