<?xml version="1.0" encoding="UTF-8" standalone="no"?>
<!-- Created with Inkscape (http://www.inkscape.org/) -->

<svg
   xmlns:dc="http://purl.org/dc/elements/1.1/"
   xmlns:cc="http://creativecommons.org/ns#"
   xmlns:rdf="http://www.w3.org/1999/02/22-rdf-syntax-ns#"
   xmlns:svg="http://www.w3.org/2000/svg"
   xmlns="http://www.w3.org/2000/svg"
   xmlns:sodipodi="http://sodipodi.sourceforge.net/DTD/sodipodi-0.dtd"
   xmlns:inkscape="http://www.inkscape.org/namespaces/inkscape"
   width="6in"
   height="4in"
   viewBox="0 0 540.00001 360.00001"
   id="svg4154"
   version="1.1"
   inkscape:version="0.91 r13725"
   sodipodi:docname="womens-rights-woman.svg"
   inkscape:export-filename="/Users/jslate/personal/postcards/womens-rights-woman.png"
   inkscape:export-xdpi="93.5"
   inkscape:export-ydpi="93.5">
  <defs
     id="defs4156" />
  <sodipodi:namedview
     id="base"
     pagecolor="#ffffff"
     bordercolor="#666666"
     borderopacity="1.0"
     inkscape:pageopacity="1"
     inkscape:pageshadow="2"
     inkscape:zoom="1.2100764"
     inkscape:cx="-22.511393"
     inkscape:cy="164.33044"
     inkscape:document-units="px"
     inkscape:current-layer="layer1"
     showgrid="false"
     units="in"
     inkscape:window-width="1436"
     inkscape:window-height="855"
     inkscape:window-x="0"
     inkscape:window-y="1"
     inkscape:window-maximized="1" />
  <metadata
     id="metadata4159">
    <rdf:RDF>
      <cc:Work
         rdf:about="">
        <dc:format>image/svg+xml</dc:format>
        <dc:type
           rdf:resource="http://purl.org/dc/dcmitype/StillImage" />
        <dc:title />
      </cc:Work>
    </rdf:RDF>
  </metadata>
  <g
     inkscape:label="Layer 1"
     inkscape:groupmode="layer"
     id="layer1"
     transform="translate(0,-692.36215)">
    <g
       style="font-style:normal;font-weight:normal;font-size:55.5014534px;line-height:0%;font-family:sans-serif;text-align:start;letter-spacing:0px;word-spacing:0px;text-anchor:start;fill:#000000;fill-opacity:1;stroke:none;stroke-width:1px;stroke-linecap:butt;stroke-linejoin:miter;stroke-opacity:1"
       id="text4803">
      <path
         d="m 126.54447,733.9618 -5.06776,43.87542 -14.25477,0 q -1.95123,-10.10842 -3.44174,-22.98107 -0.67751,5.50136 -3.17074,22.98107 l -14.173467,0 -5.09486,-43.87542 11.084031,0 1.165313,15.31168 1.192414,14.76968 q 0.623308,-11.46344 3.143637,-30.08136 l 11.869942,0 q 0.2439,1.92413 1.24661,14.47157 l 1.24662,16.6667 q 0.94851,-15.90789 3.17073,-31.13827 l 11.08404,0 z"
         style="font-style:normal;font-variant:normal;font-weight:normal;font-stretch:condensed;font-family:Impact;-inkscape-font-specification:'Impact Condensed'"
         id="path4170" />
      <path
         d="m 154.8914,759.65291 q 0,6.61247 -0.32521,9.37671 -0.2981,2.73713 -1.95122,5.01355 -1.62602,2.27643 -4.41735,3.49595 -2.79133,1.21951 -6.50408,1.21951 -3.52304,0 -6.34147,-1.13821 -2.79134,-1.16532 -4.49866,-3.46884 -1.70732,-2.30353 -2.03252,-5.01356 -0.3252,-2.71004 -0.3252,-9.48511 l 0,-7.50679 q 0,-6.61248 0.2981,-9.34961 0.3252,-2.76424 1.95122,-5.04066 1.65312,-2.27643 4.44446,-3.49594 2.79133,-1.21952 6.50407,-1.21952 3.52304,0 6.31438,1.16532 2.81843,1.13821 4.52575,3.44174 1.70732,2.30352 2.03252,5.01356 0.32521,2.71003 0.32521,9.48511 l 0,7.50679 z m -11.40924,-14.41737 q 0,-3.06234 -0.3523,-3.90245 -0.3252,-0.86721 -1.38212,-0.86721 -0.89431,0 -1.38211,0.70461 -0.46071,0.67751 -0.46071,4.06505 l 0,20.48784 q 0,3.82114 0.2981,4.71545 0.32521,0.89431 1.46342,0.89431 1.16532,0 1.49052,-1.02981 0.3252,-1.02981 0.3252,-4.90516 l 0,-20.16263 z"
         style="font-style:normal;font-variant:normal;font-weight:normal;font-stretch:condensed;font-family:Impact;-inkscape-font-specification:'Impact Condensed'"
         id="path4172" />
      <path
         d="m 194.26816,733.9618 0,43.87542 -9.97291,0 0,-29.62065 -3.98375,29.62065 -7.07318,0 -4.20055,-28.94314 0,28.94314 -9.97292,0 0,-43.87542 14.76967,0 q 0.65041,3.95665 1.38212,9.32251 l 1.57182,11.16533 2.60163,-20.48784 14.87807,0 z"
         style="font-style:normal;font-variant:normal;font-weight:normal;font-stretch:condensed;font-family:Impact;-inkscape-font-specification:'Impact Condensed'"
         id="path4174" />
      <path
         d="m 198.84811,733.9618 19.02443,0 0,8.78051 -7.61519,0 0,8.31979 7.12738,0 0,8.3469 -7.12738,0 0,9.64772 8.374,0 0,8.7805 -19.78324,0 0,-43.87542 z"
         style="font-style:normal;font-variant:normal;font-weight:normal;font-stretch:condensed;font-family:Impact;-inkscape-font-specification:'Impact Condensed'"
         id="path4176" />
      <path
         d="m 247.41188,733.9618 0,43.87542 -10.00002,0 -5.93497,-19.94584 0,19.94584 -9.53931,0 0,-43.87542 9.53931,0 6.39568,19.75614 0,-19.75614 9.53931,0 z"
         style="font-style:normal;font-variant:normal;font-weight:normal;font-stretch:condensed;font-family:Impact;-inkscape-font-specification:'Impact Condensed'"
         id="path4178" />
      <path
         d="m 252.10024,748.08107 -1.43631,-7.39839 0,-6.72088 8.2927,0 0,6.72088 -1.24662,7.39839 -5.60977,0 z"
         style="font-style:normal;font-variant:normal;font-weight:normal;font-stretch:condensed;font-family:Impact;-inkscape-font-specification:'Impact Condensed'"
         id="path4180" />
      <path
         d="m 286.43634,747.24096 -10.59623,0 0,-3.25204 q 0,-2.27643 -0.4065,-2.89973 -0.40651,-0.62331 -1.35502,-0.62331 -1.02981,0 -1.57182,0.84011 -0.5149,0.84011 -0.5149,2.54743 0,2.19513 0.59621,3.30624 0.5691,1.11111 3.22493,2.68293 7.61519,4.52575 9.59352,7.42549 1.97832,2.89973 1.97832,9.34961 0,4.68835 -1.11111,6.91058 -1.08402,2.22222 -4.22765,3.73984 -3.14364,1.49052 -7.31709,1.49052 -4.57995,0 -7.83199,-1.73442 -3.22494,-1.73442 -4.22765,-4.41735 -1.00271,-2.68293 -1.00271,-7.61519 l 0,-2.87264 10.59622,0 0,5.33877 q 0,2.46613 0.43361,3.17073 0.4607,0.70461 1.59892,0.70461 1.13821,0 1.68022,-0.89431 0.5691,-0.89431 0.5691,-2.65583 0,-3.87534 -1.05691,-5.06776 -1.08401,-1.19241 -5.33876,-3.98375 -4.25475,-2.81843 -5.63687,-4.09214 -1.38212,-1.27372 -2.30353,-3.52305 -0.89431,-2.24932 -0.89431,-5.74526 0,-5.04066 1.27372,-7.37129 1.30081,-2.33063 4.17345,-3.63144 2.87263,-1.32792 6.93768,-1.32792 4.44445,0 7.56099,1.43632 3.14363,1.43632 4.14635,3.63144 1.02981,2.16803 1.02981,7.39839 l 0,1.73442 z"
         style="font-style:normal;font-variant:normal;font-weight:normal;font-stretch:condensed;font-family:Impact;-inkscape-font-specification:'Impact Condensed'"
         id="path4182" />
      <path
         d="m 300.74531,733.9618 8.07589,0 q 8.0759,0 10.92143,0.62331 2.87263,0.62331 4.66126,3.19784 1.81572,2.54743 1.81572,8.15719 0,5.12196 -1.27372,6.88348 -1.27371,1.76153 -5.01356,2.11383 3.38754,0.84011 4.55286,2.24933 1.16531,1.40921 1.43631,2.60163 0.29811,1.16531 0.29811,6.47697 l 0,11.57184 -10.59623,0 0,-14.57997 q 0,-3.52304 -0.56911,-4.36315 -0.542,-0.84011 -2.89973,-0.84011 l 0,19.78323 -11.40923,0 0,-43.87542 z m 11.40923,7.50679 0,9.75612 q 1.92412,0 2.68293,-0.51491 0.78591,-0.54201 0.78591,-3.44174 l 0,-2.41193 q 0,-2.08672 -0.75881,-2.73713 -0.73171,-0.65041 -2.71003,-0.65041 z"
         style="font-style:normal;font-variant:normal;font-weight:normal;font-stretch:condensed;font-family:Impact;-inkscape-font-specification:'Impact Condensed'"
         id="path4184" />
      <path
         d="m 342.0733,733.9618 0,43.87542 -11.40923,0 0,-43.87542 11.40923,0 z"
         style="font-style:normal;font-variant:normal;font-weight:normal;font-stretch:condensed;font-family:Impact;-inkscape-font-specification:'Impact Condensed'"
         id="path4186" />
      <path
         d="m 372.77797,750.11359 -11.40923,0 0,-3.98374 q 0,-3.76695 -0.3252,-4.71546 -0.32521,-0.94851 -1.54472,-0.94851 -1.05691,0 -1.43632,0.81301 -0.3794,0.81301 -0.3794,4.17345 l 0,21.05695 q 0,2.95393 0.3794,3.90244 0.37941,0.92141 1.51762,0.92141 1.24661,0 1.68022,-1.05691 0.4607,-1.05691 0.4607,-4.11925 l 0,-5.20326 -2.30352,0 0,-6.66668 13.36045,0 0,23.55018 -7.18158,0 -1.05691,-3.14364 q -1.16532,2.03253 -2.95394,3.06234 -1.76152,1.00271 -4.17345,1.00271 -2.87263,0 -5.39296,-1.38212 -2.49323,-1.40921 -3.79404,-3.46884 -1.30082,-2.05962 -1.62602,-4.30895 -0.32521,-2.27642 -0.32521,-6.80218 l 0,-13.03525 q 0,-6.28728 0.67751,-9.13281 0.67751,-2.84553 3.87535,-5.20326 3.22493,-2.38483 8.31979,-2.38483 5.01356,0 8.3198,2.05963 3.30624,2.05962 4.30895,4.90515 1.00271,2.81844 1.00271,8.2114 l 0,1.89702 z"
         style="font-style:normal;font-variant:normal;font-weight:normal;font-stretch:condensed;font-family:Impact;-inkscape-font-specification:'Impact Condensed'"
         id="path4188" />
      <path
         d="m 403.40133,733.9618 0,43.87542 -11.40924,0 0,-18.42822 -3.41464,0 0,18.42822 -11.40923,0 0,-43.87542 11.40923,0 0,15.69109 3.41464,0 0,-15.69109 11.40924,0 z"
         style="font-style:normal;font-variant:normal;font-weight:normal;font-stretch:condensed;font-family:Impact;-inkscape-font-specification:'Impact Condensed'"
         id="path4190" />
      <path
         d="m 430.93524,733.9618 0,8.78051 -6.77508,0 0,35.09491 -11.40923,0 0,-35.09491 -6.74798,0 0,-8.78051 24.93229,0 z"
         style="font-style:normal;font-variant:normal;font-weight:normal;font-stretch:condensed;font-family:Impact;-inkscape-font-specification:'Impact Condensed'"
         id="path4192" />
      <path
         d="m 457.71036,747.24096 -10.59623,0 0,-3.25204 q 0,-2.27643 -0.4065,-2.89973 -0.40651,-0.62331 -1.35502,-0.62331 -1.02981,0 -1.57182,0.84011 -0.5149,0.84011 -0.5149,2.54743 0,2.19513 0.5962,3.30624 0.56911,1.11111 3.22494,2.68293 7.61519,4.52575 9.59351,7.42549 1.97833,2.89973 1.97833,9.34961 0,4.68835 -1.11112,6.91058 -1.08401,2.22222 -4.22765,3.73984 -3.14363,1.49052 -7.31708,1.49052 -4.57996,0 -7.83199,-1.73442 -3.22494,-1.73442 -4.22765,-4.41735 -1.00272,-2.68293 -1.00272,-7.61519 l 0,-2.87264 10.59623,0 0,5.33877 q 0,2.46613 0.4336,3.17073 0.46071,0.70461 1.59892,0.70461 1.13822,0 1.68022,-0.89431 0.56911,-0.89431 0.56911,-2.65583 0,-3.87534 -1.05691,-5.06776 -1.08402,-1.19241 -5.33877,-3.98375 -4.25475,-2.81843 -5.63686,-4.09214 -1.38212,-1.27372 -2.30353,-3.52305 -0.89431,-2.24932 -0.89431,-5.74526 0,-5.04066 1.27372,-7.37129 1.30081,-2.33063 4.17344,-3.63144 2.87264,-1.32792 6.93769,-1.32792 4.44445,0 7.56099,1.43632 3.14363,1.43632 4.14634,3.63144 1.02982,2.16803 1.02982,7.39839 l 0,1.73442 z"
         style="font-style:normal;font-variant:normal;font-weight:normal;font-stretch:condensed;font-family:Impact;-inkscape-font-specification:'Impact Condensed'"
         id="path4194" />
    </g>
    <g
       style="font-style:normal;font-weight:normal;font-size:55.5014534px;line-height:0%;font-family:sans-serif;text-align:start;letter-spacing:0px;word-spacing:0px;text-anchor:start;fill:#000000;fill-opacity:1;stroke:none;stroke-width:1px;stroke-linecap:butt;stroke-linejoin:miter;stroke-opacity:1"
       id="text9567">
      <path
         d="m 82.127037,966.8871 6.531176,43.8754 -11.680237,0 -0.569107,-7.8862 -4.092148,0 -0.677508,7.8862 -11.815739,0 5.799468,-43.8754 16.504095,0 z m -6.043372,28.21143 q -0.86721,-7.45259 -1.73442,-18.40112 -1.73442,12.57455 -2.168026,18.40112 l 3.902446,0 z"
         style="font-style:normal;font-variant:normal;font-weight:normal;font-stretch:condensed;font-family:Impact;-inkscape-font-specification:'Impact Condensed'"
         id="path4141" />
      <path
         d="m 90.609437,966.8871 8.075895,0 q 8.075898,0 10.921428,0.6233 2.87263,0.62331 4.66126,3.19784 1.81572,2.54743 1.81572,8.1572 0,5.12196 -1.27372,6.88348 -1.27371,1.76152 -5.01356,2.11382 3.38754,0.84011 4.55286,2.24933 1.16531,1.40922 1.43631,2.60163 0.29811,1.16531 0.29811,6.47698 l 0,11.57182 -10.59623,0 0,-14.57996 q 0,-3.52304 -0.56911,-4.36315 -0.542,-0.84011 -2.89973,-0.84011 l 0,19.78322 -11.409233,0 0,-43.8754 z m 11.409233,7.50678 0,9.75612 q 1.92412,0 2.68293,-0.51491 0.78591,-0.542 0.78591,-3.44174 l 0,-2.41193 q 0,-2.08672 -0.75881,-2.73713 -0.73171,-0.65041 -2.71003,-0.65041 z"
         style="font-style:normal;font-variant:normal;font-weight:normal;font-stretch:condensed;font-family:Impact;-inkscape-font-specification:'Impact Condensed'"
         id="path4143" />
      <path
         d="m 120.52819,966.8871 19.02442,0 0,8.7805 -7.61519,0 0,8.3198 7.12739,0 0,8.3469 -7.12739,0 0,9.6477 8.374,0 0,8.7805 -19.78323,0 0,-43.8754 z"
         style="font-style:normal;font-variant:normal;font-weight:normal;font-stretch:condensed;font-family:Impact;-inkscape-font-specification:'Impact Condensed'"
         id="path4145" />
      <path
         d="m 179.60688,966.8871 0,43.8754 -11.40923,0 0,-18.4282 -3.41464,0 0,18.4282 -11.40924,0 0,-43.8754 11.40924,0 0,15.69108 3.41464,0 0,-15.69108 11.40923,0 z"
         style="font-style:normal;font-variant:normal;font-weight:normal;font-stretch:condensed;font-family:Impact;-inkscape-font-specification:'Impact Condensed'"
         id="path4147" />
      <path
         d="m 210.09474,966.8871 0,29.32254 q 0,4.98646 -0.3252,7.01896 -0.3252,2.0054 -1.92412,4.1464 -1.59892,2.1138 -4.22765,3.2249 -2.60163,1.084 -6.15177,1.084 -3.92955,0 -6.93769,-1.3008 -3.00813,-1.3008 -4.49865,-3.3875 -1.49052,-2.0868 -1.76152,-4.3903 -0.271,-2.3306 -0.271,-9.7561 l 0,-25.9621 11.40923,0 0,32.89978 q 0,2.87262 0.2981,3.68562 0.32521,0.7859 1.27372,0.7859 1.08401,0 1.38212,-0.8672 0.3252,-0.8943 0.3252,-4.17342 l 0,-32.33068 11.40923,0 z"
         style="font-style:normal;font-variant:normal;font-weight:normal;font-stretch:condensed;font-family:Impact;-inkscape-font-specification:'Impact Condensed'"
         id="path4149" />
      <path
         d="m 249.71541,966.8871 0,43.8754 -9.97292,0 0,-29.62064 -3.98374,29.62064 -7.07319,0 -4.20055,-28.94313 0,28.94313 -9.97292,0 0,-43.8754 14.76968,0 q 0.65041,3.95664 1.38212,9.32251 l 1.57181,11.16533 2.60163,-20.48784 14.87808,0 z"
         style="font-style:normal;font-variant:normal;font-weight:normal;font-stretch:condensed;font-family:Impact;-inkscape-font-specification:'Impact Condensed'"
         id="path4151" />
      <path
         d="m 273.99729,966.8871 6.53118,43.8754 -11.68024,0 -0.56911,-7.8862 -4.09214,0 -0.67751,7.8862 -11.81574,0 5.79947,-43.8754 16.50409,0 z m -6.04337,28.21143 q -0.86721,-7.45259 -1.73442,-18.40112 -1.73442,12.57455 -2.16803,18.40112 l 3.90245,0 z"
         style="font-style:normal;font-variant:normal;font-weight:normal;font-stretch:condensed;font-family:Impact;-inkscape-font-specification:'Impact Condensed'"
         id="path4153" />
      <path
         d="m 307.954,966.8871 0,43.8754 -10.00002,0 -5.93497,-19.94582 0,19.94582 -9.53931,0 0,-43.8754 9.53931,0 6.39568,19.75613 0,-19.75613 9.53931,0 z"
         style="font-style:normal;font-variant:normal;font-weight:normal;font-stretch:condensed;font-family:Impact;-inkscape-font-specification:'Impact Condensed'"
         id="path4155" />
      <path
         d="m 322.26296,966.8871 8.0759,0 q 8.07589,0 10.92143,0.6233 2.87263,0.62331 4.66125,3.19784 1.81572,2.54743 1.81572,8.1572 0,5.12196 -1.27371,6.88348 -1.27372,1.76152 -5.01356,2.11382 3.38754,0.84011 4.55285,2.24933 1.16532,1.40922 1.43632,2.60163 0.2981,1.16531 0.2981,6.47698 l 0,11.57182 -10.59622,0 0,-14.57996 q 0,-3.52304 -0.56911,-4.36315 -0.542,-0.84011 -2.89973,-0.84011 l 0,19.78322 -11.40924,0 0,-43.8754 z m 11.40924,7.50678 0,9.75612 q 1.92412,0 2.68293,-0.51491 0.78591,-0.542 0.78591,-3.44174 l 0,-2.41193 q 0,-2.08672 -0.75881,-2.73713 -0.73171,-0.65041 -2.71003,-0.65041 z"
         style="font-style:normal;font-variant:normal;font-weight:normal;font-stretch:condensed;font-family:Impact;-inkscape-font-specification:'Impact Condensed'"
         id="path4157" />
      <path
         d="m 363.59096,966.8871 0,43.8754 -11.40923,0 0,-43.8754 11.40923,0 z"
         style="font-style:normal;font-variant:normal;font-weight:normal;font-stretch:condensed;font-family:Impact;-inkscape-font-specification:'Impact Condensed'"
         id="path4159" />
      <path
         d="m 394.2956,983.03889 -11.40923,0 0,-3.98375 q 0,-3.76695 -0.32521,-4.71546 -0.3252,-0.94851 -1.54471,-0.94851 -1.05692,0 -1.43632,0.81301 -0.37941,0.81301 -0.37941,4.17345 l 0,21.05695 q 0,2.95392 0.37941,3.90242 0.3794,0.9214 1.51762,0.9214 1.24661,0 1.68022,-1.0569 0.4607,-1.0569 0.4607,-4.11923 l 0,-5.20326 -2.30353,0 0,-6.66668 13.36046,0 0,23.55017 -7.18158,0 -1.05691,-3.1436 q -1.16532,2.0325 -2.95394,3.0623 -1.76152,1.0027 -4.17345,1.0027 -2.87263,0 -5.39296,-1.3821 -2.49323,-1.4092 -3.79405,-3.4688 -1.30081,-2.0597 -1.62602,-4.309 -0.3252,-2.2764 -0.3252,-6.80216 l 0,-13.03526 q 0,-6.28727 0.67751,-9.13281 0.67751,-2.84553 3.87534,-5.20326 3.22494,-2.38483 8.3198,-2.38483 5.01356,0 8.3198,2.05963 3.30624,2.05962 4.30895,4.90516 1.00271,2.81843 1.00271,8.21139 l 0,1.89703 z"
         style="font-style:normal;font-variant:normal;font-weight:normal;font-stretch:condensed;font-family:Impact;-inkscape-font-specification:'Impact Condensed'"
         id="path4161" />
      <path
         d="m 424.91899,966.8871 0,43.8754 -11.40924,0 0,-18.4282 -3.41464,0 0,18.4282 -11.40923,0 0,-43.8754 11.40923,0 0,15.69108 3.41464,0 0,-15.69108 11.40924,0 z"
         style="font-style:normal;font-variant:normal;font-weight:normal;font-stretch:condensed;font-family:Impact;-inkscape-font-specification:'Impact Condensed'"
         id="path4163" />
      <path
         d="m 452.4529,966.8871 0,8.7805 -6.77508,0 0,35.0949 -11.40924,0 0,-35.0949 -6.74798,0 0,-8.7805 24.9323,0 z"
         style="font-style:normal;font-variant:normal;font-weight:normal;font-stretch:condensed;font-family:Impact;-inkscape-font-specification:'Impact Condensed'"
         id="path4165" />
      <path
         d="m 479.22801,980.16625 -10.59622,0 0,-3.25204 q 0,-2.27642 -0.40651,-2.89973 -0.4065,-0.62331 -1.35501,-0.62331 -1.02981,0 -1.57182,0.84011 -0.51491,0.84011 -0.51491,2.54743 0,2.19513 0.59621,3.30624 0.56911,1.11111 3.22494,2.68293 7.61519,4.52576 9.59351,7.42549 1.97833,2.89973 1.97833,9.34961 0,4.68832 -1.11112,6.91062 -1.08401,2.2222 -4.22765,3.7398 -3.14363,1.4905 -7.31708,1.4905 -4.57996,0 -7.832,-1.7344 -3.22493,-1.7344 -4.22765,-4.4173 -1.00271,-2.683 -1.00271,-7.61524 l 0,-2.87263 10.59623,0 0,5.33877 q 0,2.4661 0.4336,3.1707 0.46071,0.7046 1.59892,0.7046 1.13821,0 1.68022,-0.8943 0.56911,-0.8943 0.56911,-2.6558 0,-3.87535 -1.05691,-5.06777 -1.08402,-1.19241 -5.33877,-3.98374 -4.25475,-2.81844 -5.63686,-4.09215 -1.38212,-1.27372 -2.30353,-3.52304 -0.89431,-2.24933 -0.89431,-5.74527 0,-5.04066 1.27371,-7.37129 1.30082,-2.33062 4.17345,-3.63144 2.87264,-1.32792 6.93768,-1.32792 4.44446,0 7.56099,1.43632 3.14364,1.43632 4.14635,3.63144 1.02981,2.16803 1.02981,7.39839 l 0,1.73442 z"
         style="font-style:normal;font-variant:normal;font-weight:normal;font-stretch:condensed;font-family:Impact;-inkscape-font-specification:'Impact Condensed'"
         id="path4167" />
    </g>
    <g
       id="g9708"
       transform="matrix(0.38243523,0,0,0.38243523,120.95002,662.56404)">
      <path
         id="path9710"
         d="m 175.88,211.44 c -4.494,0.0485 -8.3565,0.87782 -11.531,2.6562 -6.7681,3.7914 -19.23,11.543 -17.031,21.438 0.35,1.575 0.83866,3.2853 1.3438,5.0312 0.003,0.01 -0.003,0.0216 0,0.0313 -0.0665,0.38215 -0.0967,0.87372 -0.0937,1.5 0.008,1.6116 1.3924,6.8866 3.0938,11.75 1.7013,4.8638 3.1075,10.466 3.125,12.469 0.0173,2.0028 0.96903,7.1776 2.0938,11.469 1.1248,4.2916 2.0216,9.4796 2.0312,11.531 0.0202,4.3033 3.1117,14.231 7.3125,23.5 3.342,7.3742 4.2832,13.544 7.3438,49.75 1.1608,13.733 2.3542,27.356 2.6875,30.25 l 0.625,5.25 -0.375,0.0937 5,41.969 c 11.967,44.752 43.994,164.19 52.094,189.22 8.0034,24.738 9.5761,57.866 9.875,69.906 0.11323,0.44477 0.23724,0.90016 0.34375,1.3438 1.8212,7.5814 6.6761,58.07 6.6875,69.531 0.01,7.9048 2.5938,8.0938 2.5938,8.0938 l 7.8125,-0.65625 c 0,0 23.412,0.65625 52.031,0.65625 l 52.031,0 106.12,-0.5 39.188,0.25 c 39.085,0.27228 39.167,0.24904 41.594,-2.0312 l 2.4375,-2.2812 -0.28125,-44.188 -0.25,-44.188 -5.7188,-2.9688 c -17.2,-8.9095 -44.432,-18.614 -54.312,-19.344 -6.6916,-0.49461 -7.2684,-0.74615 -15.375,-7.1562 -15.832,-12.519 -19.919,-24.784 -10.125,-30.562 4.7376,-2.7953 11.618,-16.662 13.188,-26.562 0.63003,-3.9777 2.6066,-10.201 4.375,-13.844 3.0205,-6.2227 3.1863,-7.1416 2.625,-15.094 -0.32856,-4.6561 -1.8202,-12.205 -3.2812,-16.781 -1.461,-4.5755 -2.6093,-10.639 -2.625,-13.5 -0.0365,-6.6057 -2.5195,-17.056 -5.3125,-22.531 -0.181,-0.3546 -0.32007,-0.63841 -0.46875,-0.9375 l -0.1875,-0.125 c 0,0 -0.10907,-0.33484 -0.21875,-0.6875 -0.27795,-0.60267 -0.43471,-1.0328 -0.4375,-1.2812 -0.6816,-1.7707 -1.8781,-4.2729 -3.625,-5.4375 -2.8646,-1.9098 -3.559,-2.3818 -5.4688,-7.1562 -1.9098,-4.7744 -10.779,-16.215 -16.031,-18.125 -5.2519,-1.9098 -16.719,-7.1562 -16.719,-7.1562 l -0.0313,-0.0625 c -1.0121,-0.33069 -1.7953,-0.83222 -2.625,-1.5938 -8.323,-2.2139 -20.834,-5.0625 -30.562,-5.0625 -15.95,0 -42.33,2.1026 -54.812,8.3438 -12.482,6.2412 -42.269,37.427 -43.656,42.281 -1.3868,4.8542 -13.171,-27.722 -18.719,-34.656 -5.5476,-6.9346 -15.264,-20.802 -17.344,-25.656 -0.0269,-0.0626 -0.0292,-0.13446 -0.0313,-0.21875 -0.65645,-1.4075 -19.518,-41.84 -24.625,-55.188 -2.5328,-6.6202 -16.688,-61.25 -16.688,-61.25 l -6.0625,-26.5 c -2.9669,-5.8316 -4.1176,-10.504 -4.0312,-15.438 0.12601,-7.203 4.2835,-25.536 8.75,-38.75 1.6338,-4.8334 2.9688,-9.1998 2.9688,-9.6562 0,-0.097 -0.23722,-0.43497 -0.5625,-0.875 4.8872,-16.871 3.9033,-25.404 -11.656,-31.062 -15.631,-5.6839 -28.613,-9.3568 -38.5,-9.25 z"
         inkscape:connector-curvature="0"
         style="fill:#ffffff" />
      <path
         id="path9712"
         style="color:#000000;text-indent:0;text-transform:none;block-progression:tb"
         d="m 175.84,209.94 c -4.6693,0.0504 -8.7649,0.90897 -12.219,2.8438 -3.4218,1.9169 -8.3498,4.8584 -12.219,8.6875 -3.8692,3.8291 -6.81,8.7611 -5.5625,14.375 1.187,3.9331 1.2776,7.811 2.1875,11.281 0.57147,2.1726 1.3541,4.7472 2.2188,7.2188 0.83392,2.3841 1.6021,4.9775 2.1562,7.1875 0.5541,2.21 0.86921,4.1185 0.875,4.7812 0.0212,2.4556 1.0092,7.4673 2.1562,11.844 4.1216,11.347 6.305,24.654 10.781,34.656 3.342,7.3742 4.2832,13.544 7.3438,49.75 1.1608,13.733 2.3542,27.356 2.6875,30.25 l 0.625,5.25 -0.375,0.0937 5,41.969 c 11.967,44.752 43.994,164.19 52.094,189.22 8.0034,24.738 9.5761,57.866 9.875,69.906 0.11323,0.44477 0.23724,0.90016 0.34375,1.3438 1.8212,7.5814 6.6761,58.07 6.6875,69.531 0.01,7.9048 0.0439,8.0938 2.5938,8.0938 2.4867,0 2.625,-0.2522 2.625,-6.25 0,-3.4503 -1.201,-17.426 -2.6562,-31 l -2.6562,-24.688 2.3438,-1.875 c 1.841,-1.4954 3.3095,-1.7534 6.875,-1.2188 4.3129,0.64677 4.5438,0.53409 4.2188,-1.75 -0.20831,-1.4642 -1.1715,-2.5067 -2.4375,-2.6875 -6.1497,-0.87787 -10.113,-2.86 -11.656,-5.8438 -1.9631,-3.7966 -2.9337,-14.232 -1.9375,-20.875 l 0.75,-4.8438 7,0.6875 c 5.2181,0.51419 7.9464,0.27327 10.844,-0.9375 4.8098,-2.0097 4.9848,-4.4343 0.65625,-8.5625 -8.4279,-8.0377 -18.586,-27.579 -26.562,-51.094 l -4.75,-13.875 1.2812,-7.75 c 0.70149,-4.3463 1.0222,-12.599 0.75,-18.719 -0.48444,-10.894 -0.45547,-10.938 -5.125,-17.969 -7.5093,-11.307 -7.6428,-11.588 -5.2812,-14.188 1.1205,-1.2335 2.2715,-3.5545 2.5625,-5.1875 0.44717,-2.5086 0.0164,-3.3123 -2.8438,-5 -4.0146,-2.3687 -14.307,-14.281 -16.844,-19.531 -0.98433,-2.036 -1.87,-5.8 -1.9688,-8.375 -0.0986,-2.575 -0.23759,-4.9776 -0.3125,-5.3438 -0.0749,-0.36621 -2.2919,-3.625 -4.9375,-7.2188 -3.4984,-4.7523 -5.1587,-8.2434 -6.125,-12.844 -0.73078,-3.4787 -3.3042,-12.895 -5.7188,-20.906 -6.072,-20.145 -11.422,-56.95 -11.438,-78.875 -0.0125,-17.384 -1.3924,-32.637 -3.8125,-41.844 -1.9976,-7.5997 -1.9238,-10.651 0.34375,-13.156 3.1297,-3.4582 7.7696,-0.37422 18.281,12.125 2.8704,3.4131 4.983,5.2806 4.6562,4.1562 -0.32664,-1.1243 -1.6066,-5.5584 -2.8438,-9.8125 -2.1137,-7.2681 -2.1653,-7.9234 -0.59375,-11.219 1.9641,-4.119 6.6208,-6.4104 13.812,-6.7812 4.7008,-0.24247 5.0219,-0.067 6.6875,3.4062 0.96042,2.0028 2.7158,8.768 3.9062,15.062 2.8766,15.211 17.244,69.997 19.844,75.656 1.1306,2.4608 4.4879,10.316 7.4375,17.469 8.9862,21.792 21.145,45.822 26.375,52.031 2.6508,3.1472 7.3816,10.158 10.469,15.594 6.681,11.765 16.125,32.424 16.125,35.281 0,1.1162 -0.87973,3.6076 -1.9688,5.5 -1.0889,1.8924 -2.311,5.0598 -2.7188,7.0625 -0.99758,4.9016 -2.2684,6.25 -5.9062,6.25 l -3.0938,0 3.9688,7.2812 c 2.1635,4.0055 4.275,7.3125 4.7188,7.3125 1.9729,0 6.0564,8.4303 7.5312,15.562 2.5967,12.558 1.998,18.008 -2.4375,21.656 -2.9684,2.4411 -9.9145,5.3517 -12.812,5.375 -1.8777,0.0152 -3.4107,0.96086 -4.5625,2.7188 -1.4975,2.2854 -1.6633,4.418 -1.0625,15.656 0.38397,7.1831 1.2432,14.117 1.875,15.344 2.7345,5.3106 6.6285,9.2738 10.875,11.094 3.4093,1.4614 4.5814,2.5664 4.6562,4.3438 0.21609,5.0976 -0.25233,10.879 -1.2188,14.594 -1.0861,4.1742 0.29289,8.3492 3.75,11.219 3.4461,2.8599 3.7659,5.9986 1.0625,10.281 -4.8967,7.757 -42.188,84.521 -42.188,86.844 0,0.34323 23.412,0.65615 52.031,0.65625 l 52.031,0 -3.25,-6.5 c -1.7953,-3.5763 -5.308,-8.6814 -7.8125,-11.375 -4.385,-4.7159 -5.2835,-7.149 -3.9375,-10.656 0.48905,-1.2746 1.5496,-1.4754 4.7188,-0.96875 3.0764,0.49196 4.5611,0.1712 6.0625,-1.1875 1.8351,-1.6608 2.1532,-1.6592 4.3438,-0.125 3.0573,2.1414 9.4411,2.1553 13.688,0 11.1,-5.6347 27.193,-25.361 42.281,-51.875 4.6854,-8.2336 13.562,-29.068 13.562,-31.781 0,-2.8303 2.1214,0.0417 7.0312,9.6562 8.7682,17.17 20.488,30.938 26.344,30.938 4.3411,0 38.057,16.688 39.969,19.781 0.78129,1.264 -4.729,12.137 -11.375,22.375 -4.9751,7.6641 -13.55,18.378 -22.094,27.562 l -3.4062,3.6562 39.188,0.25 c 39.085,0.27228 39.167,0.24904 41.594,-2.0312 l 2.4375,-2.2812 -0.28125,-44.188 -0.25,-44.188 -5.7188,-2.9688 c -17.2,-8.9095 -44.432,-18.614 -54.312,-19.344 -6.6916,-0.49461 -7.2684,-0.74615 -15.375,-7.1562 -15.832,-12.519 -19.919,-24.784 -10.125,-30.562 4.7376,-2.7953 11.618,-16.662 13.188,-26.562 0.63003,-3.9777 2.6066,-10.201 4.375,-13.844 3.0205,-6.2227 3.1863,-7.1416 2.625,-15.094 -0.32856,-4.6561 -1.8202,-12.205 -3.2812,-16.781 -1.461,-4.5755 -2.6093,-10.639 -2.625,-13.5 -0.0365,-6.6057 -2.5195,-17.056 -5.3125,-22.531 -0.181,-0.35465 -0.32012,-0.63836 -0.4688,-0.93745 l -0.1875,-0.125 c 0,0 -0.10907,-0.33484 -0.21875,-0.6875 -0.27795,-0.60267 -0.43471,-1.0328 -0.4375,-1.2812 -0.6816,-1.7707 -1.8781,-4.2729 -3.625,-5.4375 -2.8646,-1.9098 -3.559,-2.3818 -5.4688,-7.1562 -1.9098,-4.7744 -10.779,-16.215 -16.031,-18.125 -5.2519,-1.9098 -16.719,-7.1562 -16.719,-7.1562 l -0.0313,-0.0625 c -1.0121,-0.33069 -1.7953,-0.83222 -2.625,-1.5938 -8.323,-2.2139 -20.834,-5.0625 -30.562,-5.0625 -15.95,0 -42.33,2.1026 -54.812,8.3438 -12.482,6.2412 -42.269,37.427 -43.656,42.281 -1.3868,4.8542 -13.171,-27.722 -18.719,-34.656 -5.5476,-6.9346 -15.264,-20.802 -17.344,-25.656 -0.0269,-0.0626 -0.0292,-0.13446 -0.0313,-0.21875 -0.65645,-1.4075 -19.518,-41.84 -24.625,-55.188 -2.5328,-6.6202 -16.688,-61.25 -16.688,-61.25 l -6.0625,-26.5 c -2.9669,-5.8316 -4.1176,-10.504 -4.0312,-15.438 0.12601,-7.203 4.2835,-25.536 8.75,-38.75 1.0004,-2.9596 1.8348,-5.6231 2.375,-7.4375 3.7044,-9.4572 4.5925,-16.501 3.1562,-22 -1.7908,-6.8571 -7.2766,-10.88 -14.25,-13.562 l -0.0313,0 c -15.344,-5.5797 -28.145,-9.2261 -38.312,-9.2812 l -0.0625,-0.0625 z m 0.0625,3 c 9.4953,-0.10255 22.375,3.4987 37.938,9.1562 0.01,0.004 0.0214,-0.004 0.0313,0 6.5383,2.5193 10.885,5.7933 12.375,11.5 1.2005,4.5966 1.7996,11.724 -3.0938,20.25 -1.4976,2.6094 -3.479,2.9708 -3.875,5.875 -0.91153,6.685 -8.5743,10.064 -15,6.625 -5.2947,-2.8336 -3.9982,-8.3956 2.6562,-11.375 4.5509,-2.0375 4.4322,-2.2275 -2.8438,-3.6875 -4.14,-0.8307 -6.8703,-3.6404 -5.5625,-5.75 0.75345,-1.2154 -0.0963,-1.8909 -3.9375,-3.125 -6.631,-2.1303 -14.249,-11.171 -13.25,-15.719 0.59757,-2.7206 0.39214,-3.0312 -2.0625,-3.0312 -3.772,0 -4.2412,2.138 -2.3438,10.781 1.8147,8.2664 3.1372,22.901 2,22.344 -8.6731,-4.252 -8.4921,-4.092 -7.875,-8.5938 0.67133,-4.8983 -1.2648,-7.4218 -6.5,-8.4688 -2.6388,-0.52775 -3.3148,-0.17068 -4.375,2.1562 -0.68622,1.5062 -1.25,3.6786 -1.25,4.8438 0,3.4833 -2.486,1.5744 -3.7188,-2.8438 -0.91681,-3.286 -1.6402,-4.1097 -3.875,-4.375 -0.6071,-0.0721 -1.0932,-0.12253 -1.4688,-0.0937 -0.42165,-1.4682 -0.80763,-2.8999 -1.0938,-4.1875 -0.95118,-4.2803 1.2457,-8.1568 4.75,-11.625 3.5043,-3.4682 8.185,-6.313 11.531,-8.1875 2.8956,-1.6221 6.5249,-2.4221 10.844,-2.4688 z m 42.25,16.812 c -0.29437,-0.007 -0.60157,0.0118 -0.875,0.0313 -1.6404,0.11712 -2.8657,0.66742 -3.4375,1.5625 -1.1335,1.7743 -0.95509,8.8456 0.28125,11.156 1.2397,2.3163 1.4818,2.3667 4.0938,0.96875 4.1975,-2.2464 4.8836,-13.281 0.84375,-13.656 -0.31405,-0.0292 -0.61189,-0.0566 -0.90625,-0.0625 z m -24.969,35.156 c 1.0764,-0.0396 2.2912,0.0918 3.6562,0.46875 3.4769,0.96004 3.75,1.3538 3.75,5.1875 0,2.4028 -0.52067,4.0938 -1.2188,4.0938 -0.85496,0 -1.0091,2.5172 -0.5625,8.8438 0.52823,7.4856 0.33593,8.8125 -1,8.8125 -2.214,0 -5.391,-1.7774 -10.531,-5.9688 l -4.375,-3.5938 0,6.7812 c 0,3.7415 -0.30896,7.5636 -0.65625,8.4688 -0.70504,1.8373 -3.7886,2.0127 -7.6562,0.46875 -3.643,-1.4542 -11.398,-7.4804 -11.438,-8.875 -0.0173,-0.64519 -0.73538,-1.7252 -1.5938,-2.4375 -0.0104,-0.009 -0.0209,-0.0223 -0.0313,-0.0313 -0.22904,-0.70472 -0.42199,-1.3651 -0.6875,-2.125 -0.26708,-0.76438 -0.53835,-1.5342 -0.8125,-2.3125 -0.0379,-0.46895 -0.0625,-0.95851 -0.0625,-1.4688 0,-4.3161 0.19011,-4.5802 2.375,-3.9062 1.2874,0.39716 3.5799,1.4017 5.125,2.1875 6.7388,3.4271 11.962,1.2517 16.938,-6.9375 3.28,-5.3995 5.552,-7.5378 8.7812,-7.6562 z m 62.938,216.28 c -0.38426,0.002 -0.40625,1.2898 -0.40625,4.5312 0,6.0425 3.5802,17.913 8,26.469 3.3824,6.5484 4.1688,4.8032 2.4062,-5.3438 -1.2329,-7.0974 -6.0859,-20.456 -8.875,-24.438 -0.54888,-0.78376 -0.89446,-1.22 -1.125,-1.2188 z m 90.719,14.531 c 0.87936,-0.0254 1.6724,0.0737 2.2188,0.28125 0.71532,0.2717 1.3438,1.5598 1.3438,2.875 0,3.3915 6.7278,11.084 11.531,13.188 4.3108,1.8882 5.0976,3.3423 2.4062,4.375 -5.0973,1.956 -12.832,-0.0829 -17.781,-4.7188 -2.6993,-2.5286 -6.9701,-11.968 -6.25,-13.844 0.40606,-1.0583 3.8932,-2.0802 6.5312,-2.1562 z m 25.188,25.938 c 0.50383,-0.0113 1.0678,-0.004 1.6875,0 2.9744,0.0219 7.3878,0.23206 14.156,0.5625 10.561,0.51563 20.7,1.4814 22.562,2.1562 4.3316,1.569 5.3546,5.1366 3.1562,11.25 -1.5755,4.3812 -1.5284,4.7446 0.875,9.9062 1.3735,2.95 2.4688,6.1234 2.4688,7.0625 0.01,0.93905 1.9102,4.001 4.2188,6.7812 5.2169,6.2828 8.7948,13.41 11.031,22.188 1.3675,5.3678 1.5744,9.7909 1.125,21.312 -0.5214,13.365 -0.38791,14.776 1.5938,18.219 2.1307,3.702 2.1267,3.8306 0.3125,13.906 -2.9374,16.315 -6.5916,22.478 -23,38.781 -16.168,16.064 -19.654,17.897 -31.562,16.5 -3.7761,-0.44292 -8.2833,-0.7727 -10,-0.75 -1.7166,0.0227 -5.2062,0.33316 -7.7812,0.6875 -5.7204,0.7872 -9.9034,-0.93584 -13.875,-5.6562 -1.8554,-2.2051 -2.7667,-4.332 -2.5625,-6.0625 0.41759,-3.5396 7.7856,-9.1337 13.281,-10.062 7.0538,-1.1918 8.0024,-6.6102 1.4688,-8.25 -1.4276,-0.3583 -4.8938,0.036 -7.7188,0.875 -6.1013,1.8119 -10.334,0.94824 -14.219,-2.9375 -1.923,-1.9226 -2.493,-3.3166 -2.0312,-5.1562 0.88924,-3.5429 2.9684,-3.9455 7.5312,-1.5 3.0231,1.6203 5.0486,1.9816 8.5625,1.5 6.9775,-0.95636 16.581,-5.682 20.094,-9.9062 l 3.0625,-3.75 -3.2812,-2.75 c -5.1391,-4.3412 -14.949,-7.6358 -23,-7.6562 -6.1777,-0.0155 -7.2811,0.33243 -9.9375,2.875 -3.5618,3.4092 -5.5515,3.5937 -8.125,0.75 -1.0521,-1.1626 -2.6786,-2.004 -3.625,-1.8438 -4.3532,0.73747 -16.971,-11.19 -21.281,-20.125 -3.0309,-6.2827 -3.3132,-11.722 -1.0312,-19.406 1.8553,-6.2478 4.6934,-8.6801 9.0312,-7.8125 2.2635,0.45272 3.5436,0.0386 5.0938,-1.625 1.1382,-1.2217 2.6502,-2.2188 3.4062,-2.2188 0.75623,0 3.0781,-1.1422 5.125,-2.5312 3.1715,-2.1521 3.9184,-2.2657 4.9688,-1 1.8389,2.2158 3.671,1.7532 6.1562,-1.4062 3.8018,-4.8333 1.122,-13.157 -5.3438,-16.5 -4.997,-2.584 -10.273,-0.62248 -14.625,5.4375 -3.1291,4.3572 -8.6886,8.4988 -9.8438,7.3438 -0.26305,-0.26315 -0.5435,-3.051 -0.65625,-6.2188 -0.25009,-7.0213 1.8526,-10.408 8.9688,-14.312 2.6784,-1.4696 6.397,-4.3519 8.25,-6.375 2.8774,-3.1414 4.2632,-3.7766 9.5938,-4.4375 3.4329,-0.4256 7.9036,-1.3633 9.9062,-2.0625 3.2969,-1.151 14.968,-9.325 20.312,-14.219 1.093,-1.001 1.9731,-1.4838 5.5,-1.5625 z m 2.9688,31.156 c -1.266,0.0291 -2.971,0.15781 -4.75,0.34375 -7.6743,0.80211 -11.531,3.2926 -11.531,7.5 0,2.6003 0.28666,2.8274 3.1562,2.4062 3.9465,-0.57923 7.593,2.3568 6.8125,5.4688 -0.56569,2.2554 -0.94475,2.1937 18.094,1.4375 1.4305,-0.0569 3.5727,0.23491 4.75,0.625 1.407,0.46625 3.0078,0.0221 4.6562,-1.3125 2.16,-1.749 2.303,-2.2616 1.0938,-3.7188 -1.4049,-1.6928 -11.722,-5.138 -19.062,-6.3438 -4.3881,-0.72092 -4.671,-1.1027 -2.2188,-3.8125 0.95024,-1.0499 1.5337,-2.1538 1.25,-2.4375 -0.14176,-0.14185 -0.98399,-0.18532 -2.25,-0.15625 z m 95.875,41.25 c 0.69169,-0.0294 1.2188,2.4468 1.2188,6.7812 0,5.3733 -0.51628,7.6386 -2.5,10.781 -2.9873,4.732 -8.2026,9.2866 -12.812,11.219 -4.2224,1.7694 -8.031,1.7636 -9.4688,0.0313 -2.0172,-2.4306 1.078,-6.0238 9.0312,-10.531 7.8433,-4.4446 11.835,-9.0714 13.219,-15.375 0.42796,-1.9485 0.89751,-2.8886 1.3125,-2.9062 z m -135.22,9.9375 c -0.12063,-0.006 -0.23906,0.0108 -0.34375,0.0313 -0.50239,0.0987 -0.81472,0.45563 -1.2812,1.0938 -0.73049,0.9989 -1.3968,3.0357 -1.4375,4.5 -0.0403,1.4642 -0.44266,3.5744 -0.90625,4.7188 -0.56366,1.3914 -0.28702,2.6575 0.78125,3.875 1.9416,2.2127 2.3636,2.2593 4.9375,0.3125 1.1107,-0.84012 2.8312,-1.5443 3.8125,-1.5625 0.98154,-0.0183 3.477,-1.4776 5.5312,-3.2812 2.808,-2.4654 5.0388,-3.4379 8.9375,-3.8125 5.6608,-0.54393 6.1484,-1.8422 1.6562,-4.375 -2.5407,-1.4324 -3.1256,-1.3667 -7.3438,0.9375 l -4.5312,2.5 -5.0625,-2.7812 c -2.5873,-1.446 -3.906,-2.1208 -4.75,-2.1562 z m 113.84,24.531 c 0.0643,-0.015 0.12497,-0.002 0.1875,0 0.45475,0.0107 0.85047,0.43438 1.1875,1.3125 0.34757,0.9059 1.2291,1.6562 1.9375,1.6562 2.0606,0 4.7051,3.6036 4.6875,6.3438 -0.0211,3.3967 -1.0182,4.7818 -4.4688,6.0938 -4.2688,1.623 -5.6516,1.3654 -7.4062,-1.3125 -1.4249,-2.1746 -1.3855,-2.9121 0.40625,-8 1.3306,-3.7786 2.5026,-5.8686 3.4688,-6.0938 z"
         inkscape:connector-curvature="0" />
    </g>
  </g>
</svg>
