<?xml version="1.0" encoding="UTF-8" standalone="no"?>
<!-- Created with Inkscape (http://www.inkscape.org/) -->

<svg
   xmlns:dc="http://purl.org/dc/elements/1.1/"
   xmlns:cc="http://creativecommons.org/ns#"
   xmlns:rdf="http://www.w3.org/1999/02/22-rdf-syntax-ns#"
   xmlns:svg="http://www.w3.org/2000/svg"
   xmlns="http://www.w3.org/2000/svg"
   xmlns:sodipodi="http://sodipodi.sourceforge.net/DTD/sodipodi-0.dtd"
   xmlns:inkscape="http://www.inkscape.org/namespaces/inkscape"
   width="6in"
   height="4in"
   viewBox="0 0 540.00001 360.00001"
   id="svg4154"
   version="1.1"
   inkscape:version="0.91 r13725"
   sodipodi:docname="womens-rights-body.svg"
   inkscape:export-filename="/Users/jslate/personal/postcards/womens-rights-body.png"
   inkscape:export-xdpi="93.5"
   inkscape:export-ydpi="93.5">
  <defs
     id="defs4156" />
  <sodipodi:namedview
     id="base"
     pagecolor="#ffffff"
     bordercolor="#666666"
     borderopacity="1.0"
     inkscape:pageopacity="1"
     inkscape:pageshadow="2"
     inkscape:zoom="0.85565323"
     inkscape:cx="-27.843161"
     inkscape:cy="197.3862"
     inkscape:document-units="px"
     inkscape:current-layer="layer1"
     showgrid="false"
     units="in"
     inkscape:window-width="1436"
     inkscape:window-height="855"
     inkscape:window-x="0"
     inkscape:window-y="1"
     inkscape:window-maximized="1" />
  <metadata
     id="metadata4159">
    <rdf:RDF>
      <cc:Work
         rdf:about="">
        <dc:format>image/svg+xml</dc:format>
        <dc:type
           rdf:resource="http://purl.org/dc/dcmitype/StillImage" />
        <dc:title></dc:title>
      </cc:Work>
    </rdf:RDF>
  </metadata>
  <g
     inkscape:label="Layer 1"
     inkscape:groupmode="layer"
     id="layer1"
     transform="translate(0,-692.36215)">
    <g
       id="g10979"
       transform="translate(0,-7.4575082e-6)">
      <text
         sodipodi:linespacing="0%"
         id="text4803"
         y="777.83722"
         x="81.341133"
         style="font-style:normal;font-weight:normal;font-size:55.5014534px;line-height:0%;font-family:sans-serif;text-align:start;letter-spacing:0px;word-spacing:0px;text-anchor:start;fill:#000000;fill-opacity:1;stroke:none;stroke-width:1px;stroke-linecap:butt;stroke-linejoin:miter;stroke-opacity:1"
         xml:space="preserve"><tspan
           style="font-style:normal;font-variant:normal;font-weight:normal;font-stretch:condensed;font-family:Impact;-inkscape-font-specification:'Impact Condensed'"
           y="777.83722"
           x="81.341133"
           id="tspan4805"
           sodipodi:role="line">WOMEN'S RIGHTS</tspan></text>
      <text
         xml:space="preserve"
         style="font-style:normal;font-weight:normal;font-size:55.5014534px;line-height:0%;font-family:sans-serif;text-align:start;letter-spacing:0px;word-spacing:0px;text-anchor:start;fill:#000000;fill-opacity:1;stroke:none;stroke-width:1px;stroke-linecap:butt;stroke-linejoin:miter;stroke-opacity:1"
         x="60.148678"
         y="1010.7625"
         id="text9567"
         sodipodi:linespacing="0%"><tspan
           sodipodi:role="line"
           id="tspan9569"
           x="60.148678"
           y="1010.7625"
           style="font-style:normal;font-variant:normal;font-weight:normal;font-stretch:condensed;font-family:Impact;-inkscape-font-specification:'Impact Condensed'">ARE HUMAN RIGHTS</tspan></text>
      <g
         transform="matrix(1.1893408,0,0,1.1893408,184.72207,787.07965)"
         id="g10975">
        <path
           inkscape:connector-curvature="0"
           d="m 118.36,50.841 -1.534,-2.393 c -6.802,-10.507 -15.271,-23.568 1.857,-43.285 1.126,-1.303 0.986,-3.267 -0.311,-4.402 -1.303,-1.13 -3.258,-0.98 -4.402,0.311 -20.198,23.258 -9.043,40.48 -2.381,50.769 l 1.474,2.319 c 28.826,45.934 13.603,76.452 9.59,83.017 l -47.869,0 0,-27.413 -0.059,-0.292 1.035,-0.305 16.088,-6.93 c 1.577,-0.676 2.308,-2.509 1.626,-4.092 -0.683,-1.583 -2.527,-2.32 -4.099,-1.632 l -16.09,6.93 c -0.779,0.341 -2.445,0.341 -3.237,0 l -16.087,-6.93 c -1.571,-0.694 -3.422,0.036 -4.095,1.632 -0.679,1.583 0.048,3.416 1.625,4.092 l 16.087,6.93 1.035,0.305 -0.055,0.292 0,27.413 -47.499,0 C 6.393,91.137 14.501,79.087 25.647,62.49 c 2.027,-3.017 4.128,-6.153 6.18,-9.614 18.6,-31.362 -2.137,-51.804 -2.35,-52.008 -1.242,-1.19 -3.218,-1.142 -4.409,0.101 -1.184,1.239 -1.148,3.215 0.101,4.405 0.173,0.165 17.409,17.168 1.303,44.32 -1.988,3.349 -4.028,6.387 -5.998,9.31 -11.843,17.628 -21.196,31.554 -4.652,82.252 0.417,1.278 1.614,2.149 2.969,2.149 l 105.57,0.006 c 0.993,0 1.931,-0.475 2.515,-1.278 1.072,-1.462 25.837,-36.547 -8.513,-91.292 z"
           id="path10965" />
        <circle
           cx="71.677002"
           cy="66.161003"
           r="4.546"
           id="circle10967" />
      </g>
    </g>
  </g>
</svg>
