<?xml version="1.0" encoding="UTF-8" standalone="no"?>
<!-- Created with Inkscape (http://www.inkscape.org/) -->

<svg
   xmlns:dc="http://purl.org/dc/elements/1.1/"
   xmlns:cc="http://creativecommons.org/ns#"
   xmlns:rdf="http://www.w3.org/1999/02/22-rdf-syntax-ns#"
   xmlns:svg="http://www.w3.org/2000/svg"
   xmlns="http://www.w3.org/2000/svg"
   xmlns:sodipodi="http://sodipodi.sourceforge.net/DTD/sodipodi-0.dtd"
   xmlns:inkscape="http://www.inkscape.org/namespaces/inkscape"
   width="6in"
   height="4in"
   viewBox="0 0 540.00001 360.00001"
   id="svg4154"
   version="1.1"
   inkscape:version="0.91 r13725"
   sodipodi:docname="womens-rights-emancipation.svg"
   inkscape:export-filename="/Users/jslate/personal/postcards/womens-rights-emancipation.png"
   inkscape:export-xdpi="93.5"
   inkscape:export-ydpi="93.5">
  <defs
     id="defs4156" />
  <sodipodi:namedview
     id="base"
     pagecolor="#ffffff"
     bordercolor="#666666"
     borderopacity="1.0"
     inkscape:pageopacity="1"
     inkscape:pageshadow="2"
     inkscape:zoom="0.42782661"
     inkscape:cx="-632.64426"
     inkscape:cy="197.3862"
     inkscape:document-units="px"
     inkscape:current-layer="layer1"
     showgrid="false"
     units="in"
     inkscape:window-width="1436"
     inkscape:window-height="855"
     inkscape:window-x="0"
     inkscape:window-y="1"
     inkscape:window-maximized="1" />
  <metadata
     id="metadata4159">
    <rdf:RDF>
      <cc:Work
         rdf:about="">
        <dc:format>image/svg+xml</dc:format>
        <dc:type
           rdf:resource="http://purl.org/dc/dcmitype/StillImage" />
        <dc:title></dc:title>
      </cc:Work>
    </rdf:RDF>
  </metadata>
  <g
     inkscape:label="Layer 1"
     inkscape:groupmode="layer"
     id="layer1"
     transform="translate(0,-692.36215)">
    <g
       id="g9638"
       transform="translate(0,6.419121)">
      <text
         sodipodi:linespacing="0%"
         id="text4803"
         y="771.41809"
         x="81.341133"
         style="font-style:normal;font-weight:normal;font-size:55.5014534px;line-height:0%;font-family:sans-serif;text-align:start;letter-spacing:0px;word-spacing:0px;text-anchor:start;fill:#000000;fill-opacity:1;stroke:none;stroke-width:1px;stroke-linecap:butt;stroke-linejoin:miter;stroke-opacity:1"
         xml:space="preserve"><tspan
           style="font-style:normal;font-variant:normal;font-weight:normal;font-stretch:condensed;font-family:Impact;-inkscape-font-specification:'Impact Condensed'"
           y="771.41809"
           x="81.341133"
           id="tspan4805"
           sodipodi:role="line">WOMEN'S RIGHTS</tspan></text>
      <text
         xml:space="preserve"
         style="font-style:normal;font-weight:normal;font-size:55.5014534px;line-height:0%;font-family:sans-serif;text-align:start;letter-spacing:0px;word-spacing:0px;text-anchor:start;fill:#000000;fill-opacity:1;stroke:none;stroke-width:1px;stroke-linecap:butt;stroke-linejoin:miter;stroke-opacity:1"
         x="60.148678"
         y="1004.3434"
         id="text9567"
         sodipodi:linespacing="0%"><tspan
           sodipodi:role="line"
           id="tspan9569"
           x="60.148678"
           y="1004.3434"
           style="font-style:normal;font-variant:normal;font-weight:normal;font-stretch:condensed;font-family:Impact;-inkscape-font-specification:'Impact Condensed'">ARE HUMAN RIGHTS</tspan></text>
      <path
         inkscape:connector-curvature="0"
         d="m 260.29494,942.55611 c -0.27702,-0.27699 -0.47391,-0.69473 -0.47465,-1.00692 -0.004,-1.80989 -0.2055,-13.23156 -0.24143,-13.70297 -0.0747,-0.98087 -0.28829,-1.02654 -4.8313,-1.03373 -6.0011,-0.01 -7.14627,0.0505 -7.82059,0.40904 -0.38303,0.20368 -0.67848,0.25063 -0.85888,0.1365 -0.15126,-0.0957 -0.45495,-0.17533 -0.67487,-0.17693 -0.52559,-0.004 -1.06175,-0.61458 -1.12575,-1.2823 -0.0281,-0.29359 -0.1131,-0.68294 -0.18879,-0.86521 -0.0757,-0.18227 -0.0645,-0.7835 0.0249,-1.33604 0.0894,-0.55254 0.13658,-1.56292 0.10482,-2.2453 -0.0318,-0.6824 -0.0909,-3.08187 -0.13141,-5.33213 -0.0406,-2.25027 -0.12985,-4.31159 -0.19855,-4.5807 -0.11879,-0.46525 -0.24736,-2.25123 -0.35812,-4.97445 -0.054,-1.3279 0.26304,-2.29035 0.75452,-2.29035 0.15684,0 0.60871,0.20422 1.00412,0.45385 0.51845,0.32728 1.00976,0.45769 1.76169,0.46765 7.74214,0.10239 11.2918,0.048 11.56302,-0.17708 0.25595,-0.21241 0.289,-0.87408 0.24182,-4.83741 -0.03,-2.5253 -0.13445,-4.69923 -0.23195,-4.83131 -0.10011,-0.1355 -0.12173,-0.88323 -0.0496,-1.71777 0.10322,-1.19545 0.12959,-5.52565 0.0584,-9.58949 -0.006,-0.36741 -0.004,-1.56985 0.008,-2.67208 0.0107,-1.10223 -0.0165,-2.34761 -0.0604,-2.7675 -0.044,-0.41991 -0.12055,-1.57939 -0.17015,-2.57665 -0.0496,-0.99726 -0.1007,-1.81319 -0.11353,-1.81319 -0.0495,0 -0.14211,-0.83104 -0.283,-2.53829 -0.13175,-1.59655 -0.20897,-1.85669 -0.76882,-2.59001 -0.57433,-0.75219 -3.66972,-3.39105 -4.91262,-4.18828 -0.29335,-0.18814 -0.61416,-0.55451 -0.71287,-0.81414 -0.0987,-0.25963 -0.33107,-0.52656 -0.51637,-0.59316 -0.54473,-0.19582 -1.76833,-1.67887 -1.76833,-2.14339 0,-0.11614 -0.16427,-0.57528 -0.36505,-1.02028 -0.91234,-2.02218 -1.53391,-4.7437 -1.53908,-6.73897 -0.006,-2.18309 0.35033,-3.40766 1.30644,-4.49386 0.70287,-0.79849 0.8176,-0.85301 2.27985,-1.08308 1.82398,-0.287 3.56188,-0.079 5.07676,0.60779 0.54875,0.24878 1.55186,0.49103 2.30696,0.55717 1.25583,0.10999 1.5795,0.16082 2.7675,0.4346 0.26244,0.0604 0.87942,0.18251 1.37106,0.27119 0.49164,0.0887 1.08729,0.26474 1.32365,0.39123 0.62878,0.33651 3.20992,1.13306 3.67162,1.13306 0.50817,0 2.03632,0.56085 2.42835,0.89123 0.16573,0.13967 0.41005,0.25395 0.54296,0.25395 0.13292,0 0.82422,0.17696 1.53626,0.39323 1.40988,0.42823 2.53007,0.32634 2.63905,-0.24007 0.0578,-0.30012 -0.96187,-0.80716 -1.18152,-0.58754 -0.0589,0.0589 -0.21647,0.0166 -0.35023,-0.0939 -0.13375,-0.11056 -0.58674,-0.26922 -1.00664,-0.35261 -0.92403,-0.18352 -0.88656,-0.17385 -1.24061,-0.31994 -0.38325,-0.15817 -2.44495,-0.71825 -3.10152,-0.84258 -0.28867,-0.0547 -0.52487,-0.17338 -0.52487,-0.26381 0,-0.0904 -0.3783,-0.33676 -0.84067,-0.54739 -1.33371,-0.60758 -3.16736,-2.66655 -3.16736,-3.55654 0,-0.24049 -0.0859,-0.49034 -0.19086,-0.55523 -0.10498,-0.0648 -0.19087,-0.45136 -0.19087,-0.85887 0,-0.40752 -0.0862,-0.79415 -0.19138,-0.85921 -0.12793,-0.079 -0.12793,-0.23684 0,-0.47588 0.10526,-0.19668 0.19264,-0.55647 0.19418,-0.79957 9e-4,-0.2431 0.12702,-0.65671 0.27881,-0.91914 0.15181,-0.26245 0.3346,-0.606 0.40622,-0.76346 0.21003,-0.46173 1.46828,-1.71776 1.72082,-1.71776 0.12743,0 0.79215,-0.29733 1.47714,-0.6607 1.39789,-0.7416 3.67009,-1.38164 4.75076,-1.33816 0.39365,0.0158 0.71574,-0.0465 0.71574,-0.13841 0,-0.37096 3.08338,0.22829 4.09342,0.79553 0.36982,0.20772 0.7948,0.33069 0.94438,0.2733 0.14957,-0.0574 0.68698,0.11658 1.19426,0.3866 0.50727,0.27005 1.0682,0.49099 1.24656,0.49099 0.17836,0 0.38096,0.0917 0.45026,0.20387 0.0693,0.11214 0.24463,0.15835 0.38963,0.10271 0.14499,-0.0557 0.63017,0.034 1.07814,0.19912 0.96745,0.35664 3.54012,0.39573 4.16138,0.0632 0.78349,-0.4193 5.08171,-0.54348 7.3734,-0.21302 0.8222,0.11857 2.06953,0.26505 2.77189,0.32554 1.20395,0.10366 1.32022,0.15695 2.03536,0.93272 0.7508,0.81453 1.8151,2.80893 1.99051,3.73003 0.05,0.26244 0.2194,0.94955 0.37648,1.5269 0.22317,0.82032 0.26799,1.86312 0.20508,4.77157 -0.11344,5.24452 -0.61895,7.28999 -2.23862,9.05814 -0.36043,0.39349 -0.85332,1.08866 -1.09533,1.54486 -0.24201,0.4562 -0.65718,0.94081 -0.92261,1.07689 -0.26543,0.13608 -0.95498,0.56976 -1.53234,0.96368 -0.57736,0.39394 -1.14166,0.71634 -1.254,0.71648 -0.11235,1.3e-4 -0.4559,0.31683 -0.76345,0.70375 -0.81031,1.01939 -1.20091,1.34812 -1.77094,1.49031 -0.27832,0.0694 -0.92103,0.33428 -1.42828,0.58854 -0.50726,0.25427 -1.21137,0.46234 -1.56472,0.46234 -0.95284,0 -3.037,1.76826 -3.88748,3.29809 -0.2206,0.39685 -0.4011,0.91647 -0.4011,1.15472 0,0.23827 -0.0742,0.51478 -0.16481,0.61451 -0.51689,0.56866 -0.64401,1.74789 -0.71911,6.67064 -0.0433,2.83431 -0.0674,6.22689 -0.0536,7.53908 0.0138,1.31218 0.008,2.55755 -0.0127,2.7675 -0.17562,1.77533 0.11485,13.0193 0.35672,13.80871 0.15407,0.50279 0.13296,0.73509 -0.099,1.08907 -0.53004,0.80894 0.26771,1.30106 1.65731,1.02237 0.46655,-0.0936 2.14929,-0.21478 3.73937,-0.26933 1.59007,-0.0545 3.26489,-0.1446 3.72182,-0.20008 0.45693,-0.0555 1.45996,-0.10608 2.22908,-0.11242 0.76912,-0.006 1.61199,-0.1224 1.87317,-0.25789 0.63698,-0.33048 1.07757,-0.18484 1.60699,0.53126 0.39567,0.53518 0.43869,0.78977 0.4156,2.45946 -0.0142,1.0244 -0.11325,2.026 -0.22018,2.22584 -0.36531,0.6826 -0.8602,3.72983 -0.7953,4.89696 0.006,0.10497 0.055,1.26446 0.1094,2.57664 0.0543,1.31218 0.1798,2.77687 0.27881,3.25459 0.13992,0.67537 0.27499,4.42706 0.21048,5.84612 -0.0157,0.34443 -0.66172,0.47544 -1.24711,0.25287 -1.30833,-0.49742 -3.92662,-0.53248 -10.75797,-0.14402 -0.45618,0.026 -0.86922,-0.0172 -0.91786,-0.096 -0.15594,-0.25244 -2.29436,-0.16134 -2.51728,0.10722 -0.11429,0.13771 -0.20562,0.63156 -0.20297,1.09746 0.003,0.46589 -0.004,1.92065 -0.0144,3.23281 -0.0106,1.31217 0.0554,2.77341 0.14647,3.24698 0.0911,0.4735 0.0942,1.46112 0.007,2.19489 -0.0874,0.73383 -0.18692,2.4316 -0.22126,3.77338 -0.0344,1.34177 -0.14139,2.5186 -0.23787,2.61522 -0.0965,0.0966 -0.47588,0.17276 -0.84308,0.1695 -1.46812,-0.013 -5.25999,0 -5.43921,0.0195 -0.10497,0.0111 -1.33366,-0.0104 -2.73048,-0.0475 -1.3968,-0.0371 -2.57091,-0.0169 -2.60947,0.0456 -0.0386,0.0618 -0.44157,0.0865 -0.89594,0.054 -2.13595,-0.152 -5.70355,-0.039 -7.84407,0.24785 -0.5873,0.0788 -0.80649,0.01 -1.19289,-0.37688 z m 25.55841,-48.14697 c -0.53558,-0.10543 -2.36556,-2.02237 -2.36556,-2.47799 0,-0.19788 0.25767,-0.58592 0.57259,-0.86224 0.5595,-0.49095 0.57368,-0.54756 0.62031,-2.47605 0.0263,-1.08548 0.0477,-4.26368 0.0477,-7.06268 0,-5.08918 0,-5.08918 0.47717,-5.60088 0.26243,-0.28144 0.86365,-0.73446 1.33603,-1.00673 0.47239,-0.27223 1.09899,-0.69124 1.39244,-0.93112 0.29344,-0.23984 0.85994,-0.52401 1.25883,-0.63141 0.39891,-0.10742 1.03944,-0.47471 1.42342,-0.81619 1.07942,-0.95999 6.23185,-6.0366 6.23185,-6.14025 0,-0.0506 0.27914,-0.49157 0.6203,-0.97995 0.34117,-0.48838 0.70599,-1.02949 0.81069,-1.20246 0.10471,-0.17295 0.38767,-0.59289 0.62876,-0.93315 0.62545,-0.88268 2.11019,-4.05317 2.26267,-4.83152 0.0708,-0.36158 0.23536,-0.8292 0.36566,-1.03917 0.1303,-0.20993 0.29801,-0.68232 0.3727,-1.04975 0.0747,-0.3674 0.33084,-1.26921 0.56924,-2.00405 0.42531,-1.31091 0.62634,-2.29608 0.77899,-3.81725 0.4575,-4.55874 0.45437,-4.83301 -0.0934,-8.20708 -0.10226,-0.62985 -0.3134,-1.96111 -0.46922,-2.95837 -0.15582,-0.99726 -0.54255,-2.58619 -0.85938,-3.53097 -0.31683,-0.94476 -0.7649,-2.55488 -0.99569,-3.5779 -0.23079,-1.02302 -0.53522,-1.95615 -0.67648,-2.07334 -0.14125,-0.11719 -0.21326,-0.28366 -0.16001,-0.36981 0.10471,-0.16942 -0.26322,-1.2284 -0.96667,-2.78221 -0.24354,-0.53797 -0.53895,-1.3539 -0.65651,-1.8132 -0.31693,-1.23848 -1.59335,-4.01479 -2.42681,-5.27867 -0.95431,-1.44712 -2.66196,-3.46034 -3.01754,-3.55769 -0.20995,-0.0575 -0.81117,-0.51916 -1.33604,-1.026 -0.52487,-0.50684 -1.38375,-1.20814 -1.90863,-1.55847 -0.52486,-0.35033 -1.12608,-0.78684 -1.33603,-0.97006 -0.20995,-0.18321 -0.98294,-0.57087 -1.71777,-0.86144 -0.73481,-0.29056 -1.63664,-0.69891 -2.00405,-0.90745 -1.43971,-0.8171 -2.85836,-1.46711 -3.2021,-1.46711 -0.19835,0 -0.41852,-0.0579 -0.48932,-0.12869 -0.18292,-0.18292 -3.54775,-1.33517 -5.47832,-1.87603 -0.89693,-0.25126 -2.4377,-0.51776 -3.42407,-0.59222 -0.98638,-0.0745 -1.99796,-0.24157 -2.24817,-0.37137 -0.3665,-0.19012 -0.68395,-0.18246 -1.63381,0.0395 -0.64841,0.15151 -1.34564,0.23205 -1.54938,0.17902 -0.20375,-0.0531 -0.63319,0.0232 -0.95431,0.16931 -0.83348,0.37936 -2.01113,0.66958 -2.72208,0.67083 -0.85866,9e-4 -1.43964,0.31039 -1.81549,0.96526 -0.22785,0.397 -0.46976,0.5627 -0.82153,0.5627 -0.27422,0 -0.65251,0.0824 -0.84064,0.18306 -0.18813,0.10068 -0.67634,0.20251 -1.08492,0.22629 -0.40858,0.0237 -1.04193,0.24201 -1.40747,0.48496 -0.36554,0.24295 -0.73967,0.44173 -0.83142,0.44173 -0.0917,0 -0.47977,0.24665 -0.8623,0.5481 -0.75189,0.59256 -2.31459,1.36053 -2.76865,1.36053 -0.15447,0 -0.30949,0.0644 -0.34449,0.14314 -0.1056,0.23759 -1.16552,0.91061 -1.87681,1.19171 -0.36741,0.1452 -1.23965,0.69873 -1.9384,1.23006 -0.69875,0.53132 -1.8018,1.34674 -2.45144,1.81204 -0.64964,0.4653 -1.5604,1.32419 -2.0241,1.90863 -0.46369,0.58444 -1.14297,1.36323 -1.50968,1.73065 -0.36671,0.36741 -0.66644,0.74064 -0.66605,0.82941 3.8e-4,0.0888 -0.19257,0.43112 -0.42875,0.76076 -0.54622,0.76233 -0.90638,1.4466 -0.90742,1.72402 -3.9e-4,0.11921 -0.25775,0.60326 -0.57178,1.07564 -0.31402,0.47239 -0.57132,0.99234 -0.57177,1.15543 -3.7e-4,0.16309 -0.20972,0.72137 -0.46508,1.2406 -0.53953,1.0971 -1.21258,2.90436 -1.48883,3.99781 -0.10608,0.4199 -0.31124,1.10987 -0.45593,1.53328 -0.14469,0.42341 -0.26517,0.93874 -0.26774,1.14518 -0.003,0.20643 -0.16701,0.86025 -0.36539,1.4529 -0.19838,0.59264 -0.38612,1.4086 -0.41719,1.81319 -0.0311,0.40459 -0.22878,0.97513 -0.43938,1.26785 -0.32815,0.45612 -0.34741,0.58906 -0.13465,0.92972 0.24063,0.38534 0.27474,2.87745 0.0453,3.30937 -0.1166,0.21953 -0.13369,0.39069 -0.17824,1.78613 -0.0258,0.80889 -0.0907,1.00016 -0.31075,0.91574 -0.22531,-0.0864 -0.24342,-0.0156 -0.0954,0.37372 0.10047,0.26426 0.18266,0.70091 0.18266,0.97037 0,0.26947 0.18283,0.78574 0.40629,1.14732 0.3363,0.54412 0.38556,0.83376 0.28597,1.68112 -0.0662,0.56304 -0.0456,1.06991 0.0458,1.12637 0.0914,0.0565 0.22352,0.46166 0.29368,0.90043 0.0701,0.43878 0.46794,1.48495 0.88396,2.3249 0.41603,0.83994 0.75639,1.67205 0.75639,1.84921 0,0.37083 0.51668,1.46886 0.76273,1.62094 0.0913,0.0564 0.39936,0.59492 0.68462,1.19669 0.95956,2.02429 1.27775,2.61824 1.72942,3.22863 0.24729,0.33416 0.44962,0.6813 0.44962,0.77142 0,0.0901 0.3865,0.54318 0.85888,1.00678 0.47239,0.46362 0.85888,0.94069 0.85888,1.06017 0,0.39575 0.59958,1.42691 0.76886,1.32228 0.0915,-0.0566 0.26692,0.0929 0.38987,0.33201 0.12296,0.23913 0.66407,0.88373 1.20248,1.43243 0.53839,0.54872 1.25396,1.27877 1.59016,1.62234 0.33621,0.34357 0.9589,0.91377 1.38376,1.26711 0.42486,0.35335 0.77248,0.72903 0.77248,0.83482 0,0.28005 1.62436,1.6653 2.44532,2.08536 0.38719,0.19809 1.28567,0.53392 1.99662,0.74626 1.33056,0.39739 2.98833,1.36634 3.01925,1.7646 0.0209,0.2711 0.009,2.17106 -0.0168,2.70624 -0.0509,1.0494 0.21619,11.57028 0.31325,12.33946 0.10192,0.80761 0.0667,0.91742 -0.39026,1.21684 -0.42072,0.27566 -0.63355,0.29597 -1.3104,0.12509 -0.44447,-0.11221 -1.31761,-0.24722 -1.94032,-0.30004 -0.70016,-0.0593 -1.32551,-0.23894 -1.63881,-0.47054 -0.27861,-0.20601 -1.14333,-0.55771 -1.92159,-0.78159 -1.55899,-0.44845 -3.64452,-1.40433 -4.00086,-1.83381 -0.12559,-0.15133 -0.34405,-0.27514 -0.48546,-0.27514 -0.3521,0 -1.59679,-0.7054 -2.17736,-1.23393 -0.26243,-0.23892 -0.73482,-0.59363 -1.04975,-0.78819 -0.31492,-0.19456 -1.25969,-0.91561 -2.09948,-1.60229 -0.8398,-0.68669 -1.90013,-1.49003 -2.3564,-1.78522 -1.17712,-0.76168 -3.46396,-2.8009 -6.04557,-5.39091 -0.53239,-0.53414 -1.37376,-1.20899 -1.86972,-1.49962 -0.59451,-0.3484 -1.0736,-0.83037 -1.40618,-1.4146 -0.27746,-0.48739 -0.71595,-1.11687 -0.97443,-1.39885 -0.5295,-0.57763 -0.80223,-1.01646 -1.40137,-2.25485 -0.22856,-0.47239 -0.60393,-1.15949 -0.83414,-1.5269 -0.72695,-1.16009 -2.09874,-3.51683 -2.10789,-3.62143 -0.005,-0.0552 -0.2332,-0.5728 -0.50747,-1.15015 -0.95242,-2.00502 -1.26687,-2.96487 -1.35868,-4.14784 -0.0865,-1.11447 -0.58118,-2.90454 -1.22717,-4.44098 -0.15449,-0.36741 -0.3534,-1.09746 -0.44199,-1.62233 -0.0886,-0.52487 -0.28967,-1.51097 -0.44683,-2.19129 -0.15715,-0.68034 -0.30225,-1.92237 -0.32245,-2.75988 -0.0201,-0.83751 -0.15743,-1.95577 -0.305,-2.48484 -0.18769,-0.67302 -0.26861,-2.06704 -0.26941,-4.64083 -9e-4,-4.75057 0.11581,-5.61326 1.36995,-10.07658 0.29702,-1.0571 0.67031,-2.5171 0.82949,-3.24467 0.53939,-2.46499 1.2521,-4.91375 1.51878,-5.21837 0.14604,-0.16682 0.32361,-0.51804 0.39459,-0.78048 0.21992,-0.81301 0.69412,-1.89763 2.14396,-4.90364 0.76918,-1.59479 1.39851,-2.98757 1.39851,-3.09484 0,-0.10725 0.24672,-0.47738 0.54825,-0.82219 0.30155,-0.34481 0.70951,-0.9287 0.9066,-1.29752 0.36744,-0.68757 1.33489,-1.93172 2.60031,-3.34411 0.39329,-0.43896 0.76996,-1.07248 0.83703,-1.40779 0.0786,-0.39309 0.36701,-0.79258 0.81182,-1.12453 0.37943,-0.28317 0.72127,-0.5876 0.75965,-0.6765 0.0384,-0.0888 0.31752,-0.44379 0.62031,-0.78864 0.30278,-0.34485 0.55052,-0.67595 0.55052,-0.73581 0,-0.0599 0.37853,-0.64972 0.84118,-1.31085 0.86606,-1.23758 1.60157,-1.90183 2.3791,-2.14854 0.61122,-0.19399 1.70414,-0.95316 2.50565,-1.74043 1.04828,-1.02979 2.27909,-1.91206 3.62467,-2.59802 0.68143,-0.34741 1.36039,-0.74622 1.5088,-0.88623 0.14842,-0.14002 0.44976,-0.33624 0.66965,-0.43603 0.2199,-0.0998 0.82926,-0.43398 1.35413,-0.74263 0.52487,-0.30864 1.29786,-0.73404 1.71777,-0.94533 0.41989,-0.21128 0.89227,-0.45949 1.04973,-0.55159 0.15747,-0.0921 0.75869,-0.40037 1.33604,-0.68507 0.57737,-0.28472 1.47918,-0.76204 2.00406,-1.06074 1.0478,-0.59627 3.95067,-1.61037 5.15329,-1.80024 0.4199,-0.0663 1.26448,-0.18882 1.87687,-0.27227 0.61238,-0.0835 1.18252,-0.26354 1.26698,-0.40019 0.0845,-0.13666 0.24893,-0.18952 0.36551,-0.11748 0.11656,0.072 0.74772,-0.006 1.40258,-0.17405 0.65487,-0.16776 2.35124,-0.36602 3.76972,-0.44054 2.29685,-0.12068 3.66075,-0.13367 7.96509,-0.0758 0.65282,0.009 1.38287,0.12462 1.62233,0.25743 0.23946,0.13281 0.9507,0.30174 1.58054,0.37536 0.62986,0.0736 1.57463,0.23691 2.09949,0.36287 0.52488,0.12594 1.16904,0.2588 1.43148,0.29524 0.91522,0.12704 1.63214,0.259 3.05379,0.56215 0.78731,0.16787 1.56735,0.32599 1.73342,0.35136 0.16607,0.0254 0.63638,0.24344 1.04513,0.48462 0.40875,0.24116 1.04587,0.48499 1.41582,0.54183 0.36994,0.0568 1.02643,0.33843 1.45887,0.62575 0.43245,0.28733 1.37721,0.85109 2.09949,1.25285 0.72228,0.40178 1.69974,1.00454 2.1722,1.3395 0.47247,0.33496 1.4164,0.84248 2.09777,1.12781 0.68139,0.28532 1.41166,0.70222 1.62278,0.92643 0.21111,0.2242 0.7272,0.57941 1.14686,0.78937 1.87135,0.93619 2.96199,1.8263 5.5978,4.56886 l 2.08384,2.16858 c 0.44614,0.4644 0.81116,0.90612 0.81116,0.98161 0,0.0754 0.20377,0.24632 0.45283,0.3796 0.24906,0.13329 0.63912,0.57381 0.86682,0.97896 0.22769,0.40514 0.63491,0.91038 0.90488,1.12274 0.26997,0.21237 0.74848,0.79554 1.06333,1.29594 0.31485,0.5004 0.88484,1.29042 1.26665,1.75566 0.64948,0.79131 0.91563,1.22938 1.92142,3.16221 0.21849,0.41989 0.5654,1.02111 0.77091,1.33603 0.20553,0.31493 0.59964,1.04368 0.8758,1.61945 0.40714,0.84886 0.46024,1.1139 0.28078,1.40126 -0.17947,0.28736 -0.15596,0.40395 0.12523,0.61712 0.1906,0.14449 0.44835,0.26545 0.57277,0.26878 0.12442,0.004 0.33492,0.30668 0.46779,0.6741 0.13285,0.3674 0.29921,0.66801 0.36968,0.66801 0.0705,0 0.18186,0.33605 0.24755,0.74677 0.0657,0.41072 0.29111,0.94752 0.50096,1.1929 1.01164,1.18285 1.14619,1.39272 1.14619,1.78797 0,0.23353 0.12882,0.53152 0.28629,0.66218 0.16301,0.13529 0.2863,0.55142 0.2863,0.96642 0,0.40084 0.0873,0.78276 0.19397,0.84868 0.10667,0.0659 0.13833,0.20992 0.0703,0.31997 -0.13088,0.21177 0.17195,1.78447 0.6153,3.19542 0.14608,0.46484 0.26559,1.15996 0.26559,1.54472 0,0.38476 0.17178,1.19885 0.38172,1.80908 0.20996,0.61022 0.38173,1.31641 0.38173,1.56933 0,0.25291 0.0961,0.63937 0.21354,0.8588 0.11745,0.21944 0.24399,1.09414 0.28122,1.94375 0.0372,0.8496 0.1651,1.90296 0.28415,2.34073 0.20417,0.7507 0.18453,1.81981 -0.14141,7.6975 -0.0955,1.72259 -0.0919,2.89958 0.009,3.00074 0.0409,0.0409 -0.0879,0.81676 -0.28616,1.72413 -0.19829,0.90739 -0.36052,1.97906 -0.36052,2.3814 0,0.40234 -0.12309,1.0261 -0.27351,1.38612 -0.15043,0.36002 -0.33449,1.06119 -0.409,1.55818 -0.14057,0.93736 -0.72963,2.45316 -1.02407,2.63505 -0.0928,0.0574 -0.22954,0.46891 -0.30374,0.9145 -0.11765,0.70648 -0.34313,1.24442 -1.01963,2.43254 -0.40052,0.70341 -1.13652,2.43713 -1.25595,2.95837 -0.0721,0.31493 -0.32939,0.78731 -0.57169,1.04974 -0.2423,0.26244 -0.84363,1.25015 -1.33635,2.19493 -0.49271,0.94476 -1.07562,1.91033 -1.2954,2.14567 -0.21978,0.23533 -0.41257,0.60392 -0.42843,0.81908 -0.0159,0.21519 -0.34509,0.81488 -0.73167,1.33266 -0.38657,0.5178 -0.70647,1.00808 -0.71091,1.08955 -0.004,0.0815 -0.43311,0.57754 -0.95264,1.10242 -0.51953,0.52487 -0.94535,1.04605 -0.94626,1.15819 -6.5e-4,0.11213 -0.73116,0.97102 -1.62275,1.90862 -0.89159,0.93762 -1.62165,1.79024 -1.62234,1.89472 -9e-4,0.22772 -2.82858,2.95932 -3.06277,2.95932 -0.24694,0 -1.13751,0.87253 -1.13751,1.11445 0,0.11648 -0.23639,0.33402 -0.52532,0.48345 -0.28893,0.14943 -0.6969,0.46137 -0.9066,0.69324 -0.41803,0.4622 -1.44468,1.02497 -2.1995,1.2057 -0.26525,0.0635 -0.83719,0.41924 -1.27095,0.79052 -0.43377,0.37129 -0.86327,0.67509 -0.95446,0.67509 -0.20725,0 -1.89054,0.88184 -3.39985,1.78112 -1.53594,0.91511 -2.45105,1.41829 -2.62435,1.44308 -0.0788,0.0112 -0.16462,0.0277 -0.19087,0.0363 -0.0263,0.009 -0.21948,0.0471 -0.42943,0.0852 -0.73385,0.13326 -2.10503,0.45775 -2.76618,0.65465 -0.67979,0.20242 -0.75051,0.20571 -1.45287,0.0674 z m -40.07923,-47.03236 c -0.18083,-0.1998 -0.3718,-0.32029 -0.42437,-0.2677 -0.0526,0.0526 -0.31141,-0.22603 -0.57518,-0.61914 -0.26377,-0.3931 -0.53116,-0.75767 -0.59417,-0.81015 -0.063,-0.0525 -0.32704,-0.50341 -0.58673,-1.00203 -0.25969,-0.49863 -0.52541,-0.9066 -0.59052,-0.9066 -0.1383,0 -0.39166,-1.41498 -0.37238,-2.07964 0.007,-0.25156 -0.0637,-0.55216 -0.15772,-0.66802 -0.094,-0.11585 -0.27187,-0.81185 -0.39515,-1.54667 l -0.28834,-1.71776 c -0.0353,-0.20995 -0.15818,-0.62351 -0.27305,-0.91902 -0.11487,-0.29552 -0.20885,-1.05131 -0.20885,-1.67954 0,-0.62822 -0.11818,-1.37415 -0.26262,-1.65762 -0.33733,-0.66205 -0.6917,-3.71171 -0.6917,-5.95262 0,-1.59708 0.044,-1.80553 0.51649,-2.44877 0.9835,-1.33865 2.80415,-3.07518 3.35002,-3.19504 0.2971,-0.0652 0.68669,-0.2723 0.86575,-0.46009 0.17907,-0.18779 1.06429,-0.58017 1.96723,-0.87194 1.64155,-0.53045 1.64155,-0.53045 2.67208,-0.10326 1.20294,0.49869 2.62664,1.66168 2.7049,2.20961 0.03,0.20996 0.10171,0.46762 0.15944,0.57259 0.0577,0.10498 0.12789,0.92048 0.15592,1.81221 0.0281,0.89172 0.12208,1.75421 0.20899,1.91664 0.16327,0.30505 0.49422,2.49686 0.67122,4.44538 0.11478,1.26339 0.47871,2.7383 0.94573,3.83271 0.23972,0.56178 0.33018,1.44292 0.36621,3.56798 0.0601,3.54279 -0.0608,3.85447 -2.34398,6.04748 -1.3268,1.27435 -1.73716,1.56576 -2.11094,1.49904 -0.51342,-0.0916 -1.36323,0.21787 -1.59195,0.57978 -0.41083,0.65008 -0.76192,0.8096 -1.75578,0.79773 -0.76074,-0.009 -1.11785,-0.10769 -1.36032,-0.37562 z m 11.39926,-8.06585 c -0.32822,-0.33865 -0.59678,-0.67173 -0.59678,-0.7402 0,-0.0684 -0.2433,-0.49382 -0.54064,-0.94523 -0.50587,-0.76793 -0.60039,-1.13739 -1.07794,-4.2131 -0.0452,-0.29114 -0.13569,-0.61591 -0.20109,-0.72172 -0.0654,-0.10582 -0.19397,-0.98574 -0.2857,-1.9554 -0.0917,-0.96965 -0.30101,-2.27679 -0.46508,-2.90473 -0.16406,-0.62794 -0.34022,-1.47246 -0.39149,-1.87675 -0.0513,-0.40429 -0.13057,-0.79548 -0.1762,-0.86932 -0.0456,-0.0738 -0.1337,-1.20318 -0.19568,-2.50965 -0.062,-1.30648 -0.21059,-2.84767 -0.33026,-3.42504 -0.26883,-1.2971 -0.21924,-1.9086 0.25824,-3.18473 0.32811,-0.87697 0.66736,-1.27976 1.7835,-2.11743 0.94039,-0.70584 2.26571,-1.39159 3.05379,-1.58007 0.52488,-0.12554 1.05179,-0.34901 1.17093,-0.49661 0.25909,-0.32101 2.04719,-0.63933 3.50518,-0.62396 1.00579,0.0106 1.07967,0.0469 1.7643,0.86946 0.62442,0.7501 0.71433,0.98332 0.71264,1.84872 -0.004,1.49724 0.12131,2.62532 0.38227,3.47161 0.12947,0.41989 0.22645,1.04027 0.21552,1.37861 -0.011,0.33835 0.10311,0.9825 0.25346,1.43148 0.15034,0.44896 0.31061,1.39909 0.35615,2.11131 0.0456,0.71223 0.13702,1.3493 0.20329,1.41557 0.0663,0.0663 0.12048,0.28409 0.12048,0.48403 0,0.19995 0.12882,0.49239 0.28629,0.64985 0.15746,0.15746 0.29901,0.55931 0.31456,0.89297 0.0447,0.95923 0.0691,1.13812 0.25177,1.84728 0.0947,0.36742 0.15,0.82344 0.12298,1.01341 -0.027,0.18997 0.043,0.45641 0.15563,0.59211 0.11263,0.13571 0.26066,0.78154 0.32899,1.43523 0.0684,0.65368 0.21863,1.29236 0.33403,1.41931 0.4554,0.501 0.6581,1.06799 0.88526,2.47606 0.2795,1.73265 0.14111,1.99891 -1.31913,2.53694 -0.48578,0.17903 -1.01881,0.43979 -1.18455,0.57944 -0.16572,0.13966 -0.35643,0.25395 -0.42379,0.25395 -0.0674,0 -0.57592,0.20392 -1.13013,0.45312 -1.99108,0.89531 -4.2694,1.4527 -6.37539,1.55966 -1.10095,0.0559 -1.20329,0.0237 -1.76547,-0.55637 z m 31.56295,-1.43761 c -0.52488,-0.17807 -1.2869,-0.46986 -1.69336,-0.64844 -0.40646,-0.17857 -0.80123,-0.32468 -0.87727,-0.32468 -0.38834,0 -1.40342,-0.67056 -1.4845,-0.98062 -0.0512,-0.19547 -0.16041,-0.35542 -0.24287,-0.35542 -0.32891,0 -0.50871,-1.13188 -0.42011,-2.64496 0.0641,-1.09619 0.0241,-1.63803 -0.12825,-1.73216 -0.12189,-0.0754 -0.22876,-0.43112 -0.23744,-0.79061 -0.031,-1.28273 -0.41651,-2.95055 -0.77362,-3.34735 -0.41626,-0.46242 -0.39399,-0.75743 0.0987,-1.30701 0.75304,-0.83997 1.22534,-3.01371 0.69337,-3.19103 -0.12853,-0.0428 -0.0949,-0.35924 0.0954,-0.89879 0.33102,-0.93822 0.39271,-2.60966 0.10291,-2.78869 -0.2593,-0.16026 -0.24073,-1.09696 0.0347,-1.75306 0.12408,-0.29551 0.27438,-1.09241 0.334,-1.77091 0.10841,-1.23363 0.10841,-1.23363 1.25296,-1.46207 1.28143,-0.25576 1.18226,-0.28513 3.81592,1.12968 0.9814,0.52722 1.6813,1.05127 1.96378,1.47041 0.49044,0.72777 1.30607,1.33306 1.79888,1.33497 0.32802,9e-4 0.40236,0.0871 1.57002,1.81445 1.6411,2.42758 2.04051,3.33514 2.21591,5.03438 0.11289,1.09422 0.10224,1.70448 -0.0326,1.86692 -0.11018,0.13275 -0.28784,1.76916 -0.39481,3.63651 -0.29108,5.08095 -0.29029,5.07675 -1.1862,6.2954 -0.5068,0.6894 -0.73486,0.83069 -1.63851,1.01512 -0.57735,0.11782 -1.32038,0.33719 -1.65117,0.48746 -0.77621,0.35263 -2.01379,0.31811 -3.21584,-0.0897 z m -13.26495,-0.98959 c -0.57737,-0.0615 -1.47918,-0.22056 -2.00406,-0.35338 -0.52487,-0.13282 -1.20303,-0.29784 -1.50701,-0.36671 -0.30399,-0.0689 -0.64754,-0.29633 -0.76345,-0.50549 -0.11591,-0.20917 -0.26017,-0.42324 -0.32055,-0.47572 -0.0985,-0.0856 -0.53977,-0.89074 -0.9585,-1.74895 -0.0852,-0.17462 -0.17617,-0.67784 -0.20214,-1.11825 -0.026,-0.44041 -0.15232,-0.84109 -0.28075,-0.89037 -0.12844,-0.0493 -0.29043,-0.42643 -0.35998,-0.83811 -0.0695,-0.41166 -0.20479,-0.7485 -0.30055,-0.7485 -0.0958,0 -0.17409,-0.44095 -0.17409,-0.97989 0,-1.09703 -0.31894,-2.39799 -0.6987,-2.84996 -0.13812,-0.16436 -0.28927,-0.5938 -0.33591,-0.95431 -0.0467,-0.36049 -0.0998,-0.65546 -0.11814,-0.65546 -0.0183,0 -0.0559,-0.25766 -0.0835,-0.57259 -0.0276,-0.31492 -0.0672,-0.57259 -0.088,-0.57259 -0.0208,0 -0.0611,-0.34355 -0.0896,-0.76345 -0.0488,-0.71949 -0.57859,-4.01574 -0.81288,-5.05785 -0.059,-0.26244 -0.12982,-0.8762 -0.15738,-1.36389 -0.0275,-0.48769 -0.0898,-0.96007 -0.13828,-1.04974 -0.22761,-0.42075 -0.14693,-2.95493 0.10986,-3.45042 0.45977,-0.8872 1.41228,-1.59398 2.37834,-1.76486 0.49111,-0.0869 1.40824,-0.26165 2.03803,-0.38842 0.68401,-0.13769 1.60633,-0.178 2.29035,-0.10013 0.62985,0.0717 1.64337,0.16605 2.25218,0.20966 0.60881,0.0436 1.25305,0.15591 1.43147,0.24956 0.17842,0.0936 0.68448,0.22989 1.12456,0.30278 0.44009,0.0729 0.91248,0.26854 1.04975,0.43482 0.13727,0.16628 0.47084,0.43871 0.74127,0.60538 0.27043,0.16668 0.77525,0.54294 1.1218,0.83609 0.63007,0.53302 0.63007,0.53302 0.68218,2.86295 0.0286,1.28144 0.15588,2.80223 0.28272,3.37959 0.12684,0.57736 0.22214,1.79675 0.21181,2.70969 -0.0104,0.91293 0.0662,1.71253 0.1701,1.77673 0.10391,0.0642 0.18891,0.74534 0.18891,1.51358 0,1.04278 -0.0768,1.46056 -0.30288,1.64819 -0.25599,0.21246 -0.27881,0.48941 -0.1475,1.78884 0.0854,0.84562 0.13566,2.11209 0.11155,2.81427 -0.0242,0.70218 0.0423,1.32999 0.1475,1.39502 0.10522,0.065 0.19132,0.36576 0.19132,0.6683 0,0.30254 0.0675,0.59179 0.15006,0.64281 0.13094,0.0809 0.15075,1.00142 0.0272,1.26582 -0.0881,0.18846 -0.13363,0.48601 -0.15529,1.01329 -0.0121,0.29488 -0.0982,0.48907 -0.19124,0.43154 -0.0931,-0.0576 -0.27349,0.021 -0.40091,0.17454 -0.12742,0.15353 -0.50218,0.32434 -0.83279,0.37958 -0.33061,0.0552 -0.85879,0.14143 -1.17371,0.19158 -0.31493,0.0502 -0.81922,0.14517 -1.12065,0.21119 -0.78128,0.1711 -1.77262,0.19205 -2.98299,0.063 z"
         id="path9629" />
    </g>
  </g>
</svg>
