<?xml version="1.0" encoding="UTF-8" standalone="no"?>
<!-- Created with Inkscape (http://www.inkscape.org/) -->

<svg
   xmlns:dc="http://purl.org/dc/elements/1.1/"
   xmlns:cc="http://creativecommons.org/ns#"
   xmlns:rdf="http://www.w3.org/1999/02/22-rdf-syntax-ns#"
   xmlns:svg="http://www.w3.org/2000/svg"
   xmlns="http://www.w3.org/2000/svg"
   xmlns:sodipodi="http://sodipodi.sourceforge.net/DTD/sodipodi-0.dtd"
   xmlns:inkscape="http://www.inkscape.org/namespaces/inkscape"
   width="6in"
   height="4in"
   viewBox="0 0 540.00001 360.00001"
   id="svg4154"
   version="1.1"
   inkscape:version="0.91 r13725"
   sodipodi:docname="defend-public-education-supplies.svg"
   inkscape:export-filename="/Users/jslate/personal/postcards/defend-public-education-books.png"
   inkscape:export-xdpi="93.5"
   inkscape:export-ydpi="93.5">
  <defs
     id="defs4156">
    <marker
       inkscape:stockid="Arrow1Lend"
       orient="auto"
       refY="0"
       refX="0"
       id="marker5531"
       style="overflow:visible"
       inkscape:isstock="true">
      <path
         id="path5533"
         d="M 0,0 5,-5 -12.5,0 5,5 0,0 Z"
         style="fill:#000000;fill-opacity:1;fill-rule:evenodd;stroke:#000000;stroke-width:1pt;stroke-opacity:1"
         transform="matrix(-0.8,0,0,-0.8,-10,0)"
         inkscape:connector-curvature="0" />
    </marker>
    <marker
       inkscape:stockid="Arrow1Lstart"
       orient="auto"
       refY="0"
       refX="0"
       id="Arrow1Lstart"
       style="overflow:visible"
       inkscape:isstock="true">
      <path
         id="path5271"
         d="M 0,0 5,-5 -12.5,0 5,5 0,0 Z"
         style="fill:#000000;fill-opacity:1;fill-rule:evenodd;stroke:#000000;stroke-width:1pt;stroke-opacity:1"
         transform="matrix(0.8,0,0,0.8,10,0)"
         inkscape:connector-curvature="0" />
    </marker>
    <marker
       inkscape:stockid="Arrow1Lend"
       orient="auto"
       refY="0"
       refX="0"
       id="Arrow1Lend"
       style="overflow:visible"
       inkscape:isstock="true">
      <path
         id="path5274"
         d="M 0,0 5,-5 -12.5,0 5,5 0,0 Z"
         style="fill:#000000;fill-opacity:1;fill-rule:evenodd;stroke:#000000;stroke-width:1pt;stroke-opacity:1"
         transform="matrix(-0.8,0,0,-0.8,-10,0)"
         inkscape:connector-curvature="0" />
    </marker>
  </defs>
  <sodipodi:namedview
     id="base"
     pagecolor="#ffffff"
     bordercolor="#666666"
     borderopacity="1.0"
     inkscape:pageopacity="1"
     inkscape:pageshadow="2"
     inkscape:zoom="1.0666495"
     inkscape:cx="36.089986"
     inkscape:cy="180"
     inkscape:document-units="px"
     inkscape:current-layer="text7745"
     showgrid="false"
     units="in"
     inkscape:window-width="1436"
     inkscape:window-height="855"
     inkscape:window-x="0"
     inkscape:window-y="1"
     inkscape:window-maximized="1"
     fit-margin-top="0.25"
     fit-margin-left="0.25"
     fit-margin-right="0.25"
     fit-margin-bottom="0.25" />
  <metadata
     id="metadata4159">
    <rdf:RDF>
      <cc:Work
         rdf:about="">
        <dc:format>image/svg+xml</dc:format>
        <dc:type
           rdf:resource="http://purl.org/dc/dcmitype/StillImage" />
        <dc:title />
      </cc:Work>
    </rdf:RDF>
  </metadata>
  <g
     inkscape:label="Layer 1"
     inkscape:groupmode="layer"
     id="layer1"
     transform="translate(22.500007,-714.86211)">
    <g
       style="font-style:normal;font-weight:normal;font-size:35.72255325px;line-height:0%;font-family:sans-serif;text-align:start;letter-spacing:0px;word-spacing:0px;text-anchor:start;fill:#000000;fill-opacity:1;stroke:none;stroke-width:1px;stroke-linecap:butt;stroke-linejoin:miter;stroke-opacity:1"
       id="text7745">
      <path
         d="m 78.900063,916.47623 q -0.592087,-0.0789 -0.986811,-0.35525 -0.394724,-0.23683 -0.592087,-0.59208 l -0.118417,-0.23684 q -0.07895,-0.19736 -0.15789,-0.39472 -0.07895,-0.23684 -0.07895,-0.4342 l 0,-17.72312 q -0.355251,0.11841 -0.592086,0.23683 -0.197362,0.0789 -0.592087,0.0789 -0.749976,0 -1.223645,-0.4342 -0.434197,-0.4342 -0.434197,-1.02628 0,-0.8684 0.986811,-1.49996 1.026283,-0.63156 2.407819,-1.02628 1.381535,-0.4342 2.881487,-0.63156 1.539425,-0.19736 2.526236,-0.19736 2.881488,0 5.131417,0.94734 2.249928,0.94734 3.789353,2.56571 1.539425,1.57889 2.328874,3.7104 0.828921,2.13152 0.828921,4.46039 0,2.36835 -0.868394,4.65775 -0.868393,2.24993 -2.644653,3.94724 -1.223645,1.18417 -2.76307,1.89468 -1.499953,0.67103 -3.157795,1.10523 -1.657842,0.39472 -3.355157,0.59208 -1.697314,0.19736 -3.315684,0.35525 z m 3.986716,-20.99933 q -0.671032,0 -1.342063,0.0789 -0.671032,0.0789 -1.342063,0.19737 l 0,17.36787 q 1.144701,-0.11842 2.407819,-0.27631 1.30259,-0.15789 2.526235,-0.47367 1.223646,-0.31578 2.289402,-0.82892 1.065755,-0.51314 1.776259,-1.30259 1.263118,-1.38154 1.894677,-3.11832 0.671031,-1.73679 0.671031,-3.55252 0,-1.5789 -0.592086,-3.03938 -0.552614,-1.46048 -1.697315,-2.56571 -1.105228,-1.1447 -2.76307,-1.81573 -1.657842,-0.67103 -3.828826,-0.67103 z"
         style="font-style:normal;font-variant:normal;font-weight:normal;font-stretch:normal;font-family:Chalkboard;-inkscape-font-specification:Chalkboard"
         id="path4391" />
      <path
         d="m 111.71256,911.10798 q 0.82893,-0.31578 1.42101,-0.0789 0.59209,0.23683 0.82892,0.74997 0.27631,0.51315 0.0789,1.1447 -0.15789,0.63156 -0.90787,1.06576 -1.30259,0.74998 -2.80254,1.38154 -1.49995,0.63155 -3.03938,0.86839 -1.53942,0.23683 -3.03938,-0.0395 -1.49995,-0.23684 -2.88148,-1.18418 -1.657846,-1.1447 -2.526239,-3.07885 -0.868394,-1.97362 -0.907866,-4.06566 -0.03947,-2.13151 0.749976,-4.06566 0.828921,-1.97362 2.565709,-3.15779 1.81573,-1.22365 3.94724,-1.81573 2.13151,-0.63156 4.3025,-0.15789 1.06575,0.23683 1.93415,1.02628 0.86839,0.74998 1.38153,1.77626 0.55262,0.98681 0.59209,2.13151 0.0395,1.10523 -0.55261,2.09204 -0.67104,1.10523 -1.93415,1.89468 -1.26312,0.74997 -2.76307,1.30259 -1.46048,0.51314 -2.96044,0.86839 -1.46048,0.35525 -2.56571,0.67103 -0.47366,0.11842 -0.90786,0.0395 0.59209,1.26312 1.73679,2.09204 1.18417,0.78945 2.92096,0.67103 1.38153,-0.0789 2.76307,-0.74997 1.421,-0.71051 2.5657,-1.38154 z m -7.69712,-8.40763 q -1.46048,0.74998 -2.17098,2.13152 -0.71051,1.34206 -0.71051,2.84201 0.27631,-0.19736 0.59209,-0.31578 0.7105,-0.19736 1.42101,-0.39472 0.74997,-0.23684 1.49995,-0.4342 0.47367,-0.11842 1.26312,-0.35525 0.82892,-0.23684 1.69731,-0.55262 0.86839,-0.31578 1.5789,-0.7105 0.7105,-0.4342 0.94734,-0.94734 0.0789,-1.30259 -0.63156,-1.77626 -0.71051,-0.47367 -1.69732,-0.47367 -0.98681,0 -2.05256,0.35525 -1.06576,0.31578 -1.73679,0.63156 z"
         style="font-style:normal;font-variant:normal;font-weight:normal;font-stretch:normal;font-family:Chalkboard;-inkscape-font-specification:Chalkboard"
         id="path4393" />
      <path
         d="m 122.56428,914.54208 q -0.0395,0.90787 -0.55261,1.34207 -0.47367,0.47367 -1.06576,0.47367 -0.55261,0 -1.02628,-0.4342 -0.47367,-0.39472 -0.59209,-1.26312 l 0,-11.21017 -0.82892,0 q -0.86839,-0.11842 -1.30259,-0.59209 -0.39472,-0.47367 -0.39472,-1.02628 0,-0.55261 0.43419,-1.06576 0.47367,-0.55261 1.38154,-0.55261 l 0.7105,0 0,-4.42091 q 0,-1.38154 0.4342,-2.56571 0.4342,-1.18417 1.18417,-2.01309 0.78945,-0.8684 1.85521,-1.34207 1.06575,-0.47367 2.36834,-0.47367 0.55262,0 1.42101,0.19737 0.90787,0.15789 1.73679,0.51314 0.82892,0.35525 1.42101,0.90786 0.63156,0.51314 0.63156,1.22365 0,0.63156 -0.4342,1.06575 -0.4342,0.4342 -1.10523,0.4342 -0.39472,0 -0.82892,-0.15789 -0.4342,-0.19736 -0.90787,-0.39472 -0.47367,-0.19736 -0.98681,-0.35525 -0.51314,-0.19737 -0.98681,-0.19737 -1.02628,0 -1.69731,0.71051 -0.63156,0.67103 -0.8684,2.17098 l 0,4.61828 q 1.10523,-0.0395 2.36835,-0.0395 1.30259,-0.0395 2.44729,-0.0789 0.74998,0.19736 1.10523,0.67103 0.35525,0.4342 0.35525,0.94734 0,0.78945 -0.67103,1.1447 -0.67103,0.35525 -1.65784,0.47367 -0.98681,0.11842 -2.05257,0.11842 -1.06576,-0.0395 -1.89468,0 l 0,11.17069 0,0 z"
         style="font-style:normal;font-variant:normal;font-weight:normal;font-stretch:normal;font-family:Chalkboard;-inkscape-font-specification:Chalkboard"
         id="path4395" />
      <path
         d="m 144.33032,911.10798 q 0.82893,-0.31578 1.42101,-0.0789 0.59209,0.23683 0.82892,0.74997 0.27631,0.51315 0.0789,1.1447 -0.15789,0.63156 -0.90787,1.06576 -1.30259,0.74998 -2.80254,1.38154 -1.49995,0.63155 -3.03938,0.86839 -1.53942,0.23683 -3.03938,-0.0395 -1.49995,-0.23684 -2.88148,-1.18418 -1.65785,-1.1447 -2.52624,-3.07885 -0.86839,-1.97362 -0.90787,-4.06566 -0.0395,-2.13151 0.74998,-4.06566 0.82892,-1.97362 2.56571,-3.15779 1.81573,-1.22365 3.94724,-1.81573 2.13151,-0.63156 4.3025,-0.15789 1.06575,0.23683 1.93415,1.02628 0.86839,0.74998 1.38153,1.77626 0.55262,0.98681 0.59209,2.13151 0.0395,1.10523 -0.55262,2.09204 -0.67103,1.10523 -1.93414,1.89468 -1.26312,0.74997 -2.76307,1.30259 -1.46048,0.51314 -2.96044,0.86839 -1.46048,0.35525 -2.56571,0.67103 -0.47366,0.11842 -0.90786,0.0395 0.59208,1.26312 1.73679,2.09204 1.18417,0.78945 2.92096,0.67103 1.38153,-0.0789 2.76307,-0.74997 1.421,-0.71051 2.5657,-1.38154 z m -7.69712,-8.40763 q -1.46048,0.74998 -2.17098,2.13152 -0.71051,1.34206 -0.71051,2.84201 0.27631,-0.19736 0.59209,-0.31578 0.7105,-0.19736 1.42101,-0.39472 0.74997,-0.23684 1.49995,-0.4342 0.47367,-0.11842 1.26312,-0.35525 0.82892,-0.23684 1.69731,-0.55262 0.86839,-0.31578 1.5789,-0.7105 0.7105,-0.4342 0.94734,-0.94734 0.0789,-1.30259 -0.63156,-1.77626 -0.71051,-0.47367 -1.69732,-0.47367 -0.98681,0 -2.05256,0.35525 -1.06576,0.31578 -1.73679,0.63156 z"
         style="font-style:normal;font-variant:normal;font-weight:normal;font-stretch:normal;font-family:Chalkboard;-inkscape-font-specification:Chalkboard"
         id="path4397" />
      <path
         d="m 163.99731,914.54208 q -0.0395,0.90787 -0.55261,1.34207 -0.47367,0.47367 -1.06576,0.47367 -0.55261,0 -1.02628,-0.4342 -0.47367,-0.39472 -0.59209,-1.26312 0,-1.81573 -0.0395,-3.59199 0,-1.81573 0,-3.63146 0,-1.30259 0,-2.60518 0.0395,-1.30259 -0.15789,-2.60519 -0.31578,-0.59208 -0.7105,-0.7105 -0.35526,-0.15789 -0.8684,-0.15789 -1.34206,0 -2.64465,0.67103 -1.30259,0.63156 -2.05257,1.77626 -0.43419,0.67103 -0.7105,1.1447 -0.23684,0.4342 -0.31578,1.30259 0,2.0131 0,4.02619 0,2.0131 0.0395,4.02619 -0.0395,0.90787 -0.55261,1.38153 -0.47367,0.4342 -1.06576,0.4342 -0.55261,0 -1.02628,-0.39472 -0.47367,-0.4342 -0.59209,-1.30259 0,-1.89468 0,-3.67094 0,-1.77626 -0.0395,-3.51305 0,-1.73678 0,-3.51304 0,-1.81573 0,-3.71041 0.19736,-0.78945 0.63156,-1.18417 0.4342,-0.39473 0.98681,-0.39473 0.51314,0 0.94734,0.35525 0.47367,0.35525 0.67103,1.10523 l 0,0.31578 q 1.1447,-0.98681 2.56571,-1.53942 1.46048,-0.59209 2.92096,-0.59209 1.46048,0 2.7236,0.67103 1.30259,0.67103 2.09203,2.17098 0.27631,0.51315 0.35526,1.30259 0.11841,0.74998 0.11841,1.61837 0.0395,0.82893 0,1.73679 -0.0395,0.8684 -0.0395,1.65784 l 0,4.65775 0,2.64465 0,0 z"
         style="font-style:normal;font-variant:normal;font-weight:normal;font-stretch:normal;font-family:Chalkboard;-inkscape-font-specification:Chalkboard"
         id="path4399" />
      <path
         d="m 183.64969,912.92371 q 0.51314,0.71051 0.39472,1.38154 -0.0789,0.63156 -0.51314,1.02628 -0.39472,0.35525 -1.06575,0.35525 -0.63156,-0.0395 -1.26312,-0.67103 -0.19736,-0.19736 -0.35525,-0.39472 -0.15789,-0.23684 -0.23684,-0.4342 -1.18417,1.02629 -2.76307,1.5789 -1.53942,0.59209 -3.15779,0.59209 -1.5789,0 -3.03938,-0.63156 -1.46048,-0.67103 -2.44729,-2.05257 -0.74998,-1.06576 -1.10523,-2.36835 -0.31578,-1.34206 -0.31578,-2.68412 0,-1.38154 0.31578,-2.68413 0.35525,-1.34206 0.86839,-2.48676 0.47367,-1.02628 1.34207,-1.8552 0.90786,-0.82893 1.89467,-1.34207 0.90787,-0.51314 2.0131,-0.82892 1.1447,-0.35525 2.17098,-0.39472 0.94734,0 1.89468,0.0395 0.94734,0.0395 1.8552,0.31578 -0.0395,-2.84202 -0.0789,-4.77617 0,-1.97362 0,-2.64465 0.15789,-0.74997 0.59208,-1.1447 0.47367,-0.39472 0.94734,-0.39472 0.51314,-0.0395 0.98681,0.31578 0.47367,0.35525 0.71051,1.10522 l 0,20.64409 q 0.0789,0.11841 0.15789,0.23683 0.11841,0.0789 0.19736,0.19736 z m -3.47358,-2.84201 0,-0.55261 q 0,-1.46048 0,-3.19727 0,-1.77626 -0.0395,-3.35516 l -0.23683,-0.11842 q -0.11842,-0.0789 -0.23684,-0.15789 -0.0789,-0.0789 -0.19736,-0.15789 -1.18417,-0.35525 -2.48676,-0.31578 -1.30259,0.0395 -2.44729,0.51315 -1.1447,0.43419 -2.05257,1.30259 -0.86839,0.86839 -1.22365,2.21045 -0.31578,1.22365 -0.23683,2.13151 0.0789,0.90787 0.23683,2.13152 0.15789,0.31578 0.27631,0.63155 0.15789,0.31578 0.31578,0.63156 l 0.78945,0.78945 q 0.47367,0.15789 0.90787,0.39473 1.57889,0.15789 2.88148,-0.15789 1.34207,-0.31578 2.56571,-1.38154 0.0395,-0.0789 0.15789,-0.19736 0.15789,-0.15789 0.31578,-0.31578 0.15789,-0.15789 0.27631,-0.27631 0.15789,-0.15789 0.19736,-0.19736 l 0.23683,-0.35525 z"
         style="font-style:normal;font-variant:normal;font-weight:normal;font-stretch:normal;font-family:Chalkboard;-inkscape-font-specification:Chalkboard"
         id="path4401" />
      <path
         d="m 202.01235,899.77939 q 0.19736,-0.78944 0.63156,-1.18417 0.43419,-0.39472 0.98681,-0.39472 0.51314,0 0.94734,0.35525 0.47366,0.35525 0.67103,1.10523 l 0,0.35525 q 0.90786,-0.78945 2.05256,-1.1447 1.18418,-0.39473 2.2894,-0.39473 1.53943,0 2.84202,0.67103 1.34206,0.67104 2.32887,1.81574 0.98681,1.1447 1.53943,2.68412 0.55261,1.49995 0.55261,3.23674 0,1.89468 -0.63156,3.47358 -0.59208,1.57889 -1.77626,2.72359 -1.18417,1.1447 -2.96043,1.81574 -1.73679,0.63156 -4.06566,0.63156 -0.55261,0 -1.10523,-0.0395 -0.51314,-0.0395 -1.06575,-0.11841 l 0,8.32868 q -0.0395,0.90787 -0.55262,1.34206 -0.47367,0.47367 -1.06575,0.47367 -0.55262,0 -1.02629,-0.4342 -0.47367,-0.39472 -0.59208,-1.26311 l 0,-24.03872 0,0 z m 3.63146,4.46039 q -0.0789,0.11842 -0.19736,0.23683 -0.11842,0.0789 -0.19736,0.15789 l 0,7.46029 q 0.55261,0.11842 1.06575,0.19737 0.55262,0.0789 1.10523,0.0789 1.34206,0 2.48676,-0.35525 1.1447,-0.35525 1.97363,-1.02628 0.86839,-0.67104 1.34206,-1.65785 0.47367,-0.98681 0.47367,-2.24993 0,-0.94733 -0.31578,-1.89467 -0.27631,-0.98681 -0.82892,-1.77626 -0.51314,-0.78945 -1.22365,-1.26312 -0.7105,-0.51314 -1.5789,-0.51314 -0.67103,0 -1.26311,0.23683 -0.59209,0.23684 -1.10523,0.63156 -0.51314,0.35525 -0.94734,0.82892 -0.4342,0.4342 -0.78945,0.90787 z"
         style="font-style:normal;font-variant:normal;font-weight:normal;font-stretch:normal;font-family:Chalkboard;-inkscape-font-specification:Chalkboard"
         id="path4403" />
      <path
         d="m 236.15655,913.00266 q 0.4342,0.55261 0.4342,1.22364 0,0.67104 -0.4342,1.10523 -0.4342,0.39473 -1.06575,0.39473 -0.8684,0 -1.49996,-0.78945 -0.63156,-0.82892 -1.06575,-1.85521 -1.02629,1.10523 -2.40782,1.89468 -1.38154,0.74998 -2.84202,0.74998 -1.06575,0 -2.05256,-0.35525 -0.98681,-0.39473 -1.85521,-1.02629 -0.82892,-0.67103 -1.49995,-1.53942 -0.63156,-0.8684 -0.94734,-1.81573 -0.31578,-1.02629 -0.4342,-2.24993 -0.11841,-1.26312 -0.11841,-2.60518 0,-1.61837 0.0789,-3.1578 0.079,-1.53942 0.079,-2.7236 0.19736,-0.78945 0.63156,-1.18417 0.43419,-0.39472 0.98681,-0.39472 0.51314,0 0.94734,0.35525 0.47366,0.35525 0.67103,1.10523 0,1.8552 -0.079,3.59199 -0.0395,1.69731 -0.0395,3.63146 0,2.21046 0.94734,3.63147 0.94734,1.421 2.56571,1.421 0.59208,0 1.18417,-0.23683 0.59209,-0.23684 1.10523,-0.63156 0.51314,-0.39473 0.94734,-0.90787 0.43419,-0.51314 0.78944,-1.02628 0.0789,-0.0789 0.19737,-0.11842 0.11841,-0.0789 0.19736,-0.15789 -0.23684,-1.97362 -0.23684,-3.98671 0,-1.1447 0,-2.2894 0.0395,-1.18418 0.19737,-2.13152 0.19736,-0.98681 0.59208,-1.57889 0.4342,-0.63156 1.18418,-0.63156 0.59208,0 1.06575,0.47367 0.47367,0.43419 0.47367,1.30259 0,0.90786 -0.15789,2.21045 -0.11842,1.30259 -0.11842,2.7236 0,1.10523 0.0789,2.21046 0.0789,1.10523 0.23683,2.13151 0.19737,0.98681 0.47367,1.81573 0.31578,0.82892 0.78945,1.42101 z"
         style="font-style:normal;font-variant:normal;font-weight:normal;font-stretch:normal;font-family:Chalkboard;-inkscape-font-specification:Chalkboard"
         id="path4405" />
      <path
         d="m 242.48185,915.0947 q -0.67103,0.39472 -1.26312,0.35525 -0.59209,-0.0789 -0.94734,-0.4342 -0.35525,-0.35525 -0.4342,-0.94733 -0.0395,-0.59209 0.35526,-1.26312 l 0.11841,-0.11842 0,-20.52567 q 0.15789,-0.74997 0.59209,-1.1447 0.47367,-0.39472 0.94734,-0.39472 0.51314,-0.0395 0.98681,0.31578 0.47367,0.35525 0.7105,1.10523 l 0,9.39444 q 0.8684,-0.82893 1.85521,-1.30259 0.90786,-0.51315 1.69731,-0.71051 0.82892,-0.23683 1.85521,-0.35525 1.02628,-0.15789 1.93415,0.19736 0.90786,0.35525 1.77626,0.8684 1.1447,0.67103 1.73678,1.8552 0.59209,1.18417 0.82892,2.56571 0.23684,1.34206 0.19737,2.76307 -0.0395,1.38153 -0.23684,2.48676 -0.0789,0.63156 -0.35525,1.22365 -0.27631,0.55261 -0.59209,1.10523 -0.55261,1.10522 -1.49995,1.89467 -0.94734,0.74998 -2.13151,1.22365 -1.1447,0.43419 -2.40782,0.59208 -1.22364,0.19737 -2.32887,0.11842 -0.90787,-0.0789 -1.73679,-0.27631 -0.82892,-0.19736 -1.61837,-0.67103 0,0.0395 -0.0395,0.0789 z m 1.06575,-8.76288 0,5.52614 q 0.11842,0.0789 0.4342,0.23683 0.079,0.0789 0.15789,0.11842 0.0789,0.0395 0.15789,0.11842 2.05257,0.78945 3.90777,0.2763 1.85521,-0.51314 3.27621,-2.17098 0.39473,-0.94734 0.55262,-1.73679 0.19736,-0.82892 0.19736,-1.61837 0,-0.82892 -0.15789,-1.65784 -0.15789,-0.82892 -0.51314,-1.77626 -0.19736,-0.19736 -0.35525,-0.39472 -0.11842,-0.23684 -0.31578,-0.4342 -0.19737,-0.0789 -0.39473,-0.19736 -0.15789,-0.11842 -0.35525,-0.19736 -0.19736,-0.0395 -0.4342,-0.0789 -0.23683,-0.0395 -0.43419,-0.0789 -1.89468,0.31578 -3.11833,1.30259 -1.22364,0.94734 -2.2894,2.44729 l -0.31578,0.31578 z"
         style="font-style:normal;font-variant:normal;font-weight:normal;font-stretch:normal;font-family:Chalkboard;-inkscape-font-specification:Chalkboard"
         id="path4407" />
      <path
         d="m 263.93619,913.83158 q 0.71051,0.51314 0.82892,1.18417 0.11842,0.63156 -0.19736,1.10523 -0.27631,0.47367 -0.90787,0.67103 -0.59208,0.19737 -1.38153,-0.19736 -0.35525,-0.23683 -0.7105,-0.47367 -0.35526,-0.23683 -0.74998,-0.47367 -0.35525,-0.31578 -0.47367,-0.59208 -0.11842,-0.27631 -0.19736,-0.78945 l 0,-21.9072 q 0.15789,-0.74998 0.59208,-1.1447 0.47367,-0.39473 0.94734,-0.39473 0.51314,-0.0395 0.98681,0.31578 0.47367,0.35525 0.71051,1.10523 l 0,21.23617 q 0.11841,0.0789 0.23683,0.19736 0.15789,0.079 0.31578,0.15789 z"
         style="font-style:normal;font-variant:normal;font-weight:normal;font-stretch:normal;font-family:Chalkboard;-inkscape-font-specification:Chalkboard"
         id="path4409" />
      <path
         d="m 272.36105,914.46314 q -0.0395,0.90787 -0.55261,1.34206 -0.47367,0.47367 -1.06576,0.47367 -0.55261,0 -1.02628,-0.4342 -0.47367,-0.39472 -0.59209,-1.26311 -0.0395,-3.71041 -0.0789,-7.57871 0,-3.8683 -0.0395,-7.57871 0.19737,-0.78945 0.63156,-1.18417 0.4342,-0.39473 0.98681,-0.39473 0.51315,0 0.94734,0.35526 0.47367,0.35525 0.67103,1.10522 0.0395,3.71041 0.0395,7.57871 0.0395,3.8683 0.0789,7.57871 z m -3.63146,-21.473 q 0,-0.8684 0.55261,-1.46049 0.55261,-0.63155 1.34206,-0.63155 0.78945,0 1.34207,0.63155 0.59208,0.59209 0.59208,1.46049 0,0.82892 -0.59208,1.46048 -0.55262,0.59208 -1.34207,0.59208 -0.78945,0 -1.34206,-0.59208 -0.55261,-0.63156 -0.55261,-1.46048 z"
         style="font-style:normal;font-variant:normal;font-weight:normal;font-stretch:normal;font-family:Chalkboard;-inkscape-font-specification:Chalkboard"
         id="path4411" />
      <path
         d="m 287.04176,911.46323 q 0.67103,-0.55261 1.30259,-0.51314 0.67103,0.0395 1.06575,0.4342 0.39473,0.39472 0.4342,1.06576 0.0395,0.63155 -0.51314,1.30259 -1.30259,1.421 -3.07885,2.01309 -1.73679,0.59209 -3.47358,0.31578 -1.69731,-0.23684 -3.15779,-1.34206 -1.46048,-1.10523 -2.17099,-2.99991 -0.43419,-1.06575 -0.63156,-2.24993 -0.19736,-1.18417 -0.11841,-2.32887 0.11841,-1.89468 0.86839,-3.78935 0.78945,-1.93415 2.09204,-3.35516 1.34206,-1.42101 3.11832,-2.05257 1.81573,-0.67103 3.94725,0 1.06575,0.35525 1.93415,0.8684 0.86839,0.51314 1.65784,1.30259 0.43419,0.63155 0.43419,1.22364 0,0.59209 -0.35525,0.98681 -0.31578,0.35525 -0.90786,0.47367 -0.55262,0.11842 -1.26312,-0.23683 -1.30259,-1.30259 -2.52624,-1.53943 -1.22364,-0.27631 -2.2894,0.19736 -1.02628,0.47367 -1.8552,1.53943 -0.78945,1.02628 -1.22365,2.36834 -0.4342,1.3026 -0.4342,2.76308 0,1.421 0.55262,2.64465 0.47367,1.10523 1.26312,1.69731 0.82892,0.59209 1.73678,0.71051 0.90787,0.0789 1.85521,-0.27631 0.98681,-0.39472 1.73679,-1.22365 z"
         style="font-style:normal;font-variant:normal;font-weight:normal;font-stretch:normal;font-family:Chalkboard;-inkscape-font-specification:Chalkboard"
         id="path4413" />
      <path
         d="m 321.40814,911.10798 q 0.82893,-0.31578 1.42101,-0.0789 0.59209,0.23683 0.82892,0.74997 0.27631,0.51315 0.0789,1.1447 -0.15789,0.63156 -0.90787,1.06576 -1.30259,0.74998 -2.80254,1.38154 -1.49995,0.63155 -3.03938,0.86839 -1.53942,0.23683 -3.03938,-0.0395 -1.49995,-0.23684 -2.88148,-1.18418 -1.65785,-1.1447 -2.52624,-3.07885 -0.86839,-1.97362 -0.90787,-4.06566 -0.0395,-2.13151 0.74998,-4.06566 0.82892,-1.97362 2.56571,-3.15779 1.81573,-1.22365 3.94724,-1.81573 2.13151,-0.63156 4.3025,-0.15789 1.06575,0.23683 1.93415,1.02628 0.86839,0.74998 1.38153,1.77626 0.55262,0.98681 0.59209,2.13151 0.0395,1.10523 -0.55262,2.09204 -0.67103,1.10523 -1.93414,1.89468 -1.26312,0.74997 -2.76308,1.30259 -1.46048,0.51314 -2.96043,0.86839 -1.46048,0.35525 -2.56571,0.67103 -0.47367,0.11842 -0.90786,0.0395 0.59208,1.26312 1.73679,2.09204 1.18417,0.78945 2.92096,0.67103 1.38153,-0.0789 2.76307,-0.74997 1.421,-0.71051 2.5657,-1.38154 z m -7.69712,-8.40763 q -1.46048,0.74998 -2.17098,2.13152 -0.71051,1.34206 -0.71051,2.84201 0.27631,-0.19736 0.59209,-0.31578 0.7105,-0.19736 1.42101,-0.39472 0.74997,-0.23684 1.49995,-0.4342 0.47367,-0.11842 1.26312,-0.35525 0.82892,-0.23684 1.69731,-0.55262 0.86839,-0.31578 1.5789,-0.7105 0.7105,-0.4342 0.94734,-0.94734 0.0789,-1.30259 -0.63156,-1.77626 -0.71051,-0.47367 -1.69732,-0.47367 -0.98681,0 -2.05256,0.35525 -1.06576,0.31578 -1.73679,0.63156 z"
         style="font-style:normal;font-variant:normal;font-weight:normal;font-stretch:normal;font-family:Chalkboard;-inkscape-font-specification:Chalkboard"
         id="path4415" />
      <path
         d="m 342.55226,912.92371 q 0.51314,0.71051 0.39473,1.38154 -0.079,0.63156 -0.51315,1.02628 -0.39472,0.35525 -1.06575,0.35525 -0.63156,-0.0395 -1.26312,-0.67103 -0.19736,-0.19736 -0.35525,-0.39472 -0.15789,-0.23684 -0.23684,-0.4342 -1.18417,1.02629 -2.76307,1.5789 -1.53942,0.59209 -3.15779,0.59209 -1.5789,0 -3.03938,-0.63156 -1.46048,-0.67103 -2.44729,-2.05257 -0.74998,-1.06576 -1.10523,-2.36835 -0.31578,-1.34206 -0.31578,-2.68412 0,-1.38154 0.31578,-2.68413 0.35525,-1.34206 0.8684,-2.48676 0.47366,-1.02628 1.34206,-1.8552 0.90786,-0.82893 1.89467,-1.34207 0.90787,-0.51314 2.0131,-0.82892 1.1447,-0.35525 2.17098,-0.39472 0.94734,0 1.89468,0.0395 0.94734,0.0395 1.8552,0.31578 -0.0395,-2.84202 -0.0789,-4.77617 0,-1.97362 0,-2.64465 0.15789,-0.74997 0.59209,-1.1447 0.47367,-0.39472 0.94733,-0.39472 0.51315,-0.0395 0.98682,0.31578 0.47366,0.35525 0.7105,1.10522 l 0,20.64409 q 0.0789,0.11841 0.15789,0.23683 0.11842,0.0789 0.19736,0.19736 z m -3.47357,-2.84201 0,-0.55261 q 0,-1.46048 0,-3.19727 0,-1.77626 -0.0395,-3.35516 l -0.23683,-0.11842 q -0.11842,-0.0789 -0.23683,-0.15789 -0.0789,-0.0789 -0.19737,-0.15789 -1.18417,-0.35525 -2.48676,-0.31578 -1.30259,0.0395 -2.44729,0.51315 -1.1447,0.43419 -2.05257,1.30259 -0.86839,0.86839 -1.22364,2.21045 -0.31578,1.22365 -0.23684,2.13151 0.0789,0.90787 0.23684,2.13152 0.15789,0.31578 0.2763,0.63155 0.15789,0.31578 0.31578,0.63156 l 0.78945,0.78945 q 0.47367,0.15789 0.90787,0.39473 1.5789,0.15789 2.88149,-0.15789 1.34206,-0.31578 2.5657,-1.38154 0.0395,-0.0789 0.15789,-0.19736 0.15789,-0.15789 0.31578,-0.31578 0.15789,-0.15789 0.27631,-0.27631 0.15789,-0.15789 0.19736,-0.19736 l 0.23684,-0.35525 z"
         style="font-style:normal;font-variant:normal;font-weight:normal;font-stretch:normal;font-family:Chalkboard;-inkscape-font-specification:Chalkboard"
         id="path4417" />
      <path
         d="m 362.44134,913.00266 q 0.4342,0.55261 0.4342,1.22364 0,0.67104 -0.4342,1.10523 -0.4342,0.39473 -1.06575,0.39473 -0.8684,0 -1.49996,-0.78945 -0.63156,-0.82892 -1.06575,-1.85521 -1.02629,1.10523 -2.40782,1.89468 -1.38154,0.74998 -2.84202,0.74998 -1.06575,0 -2.05256,-0.35525 -0.98681,-0.39473 -1.85521,-1.02629 -0.82892,-0.67103 -1.49995,-1.53942 -0.63156,-0.8684 -0.94734,-1.81573 -0.31578,-1.02629 -0.4342,-2.24993 -0.11841,-1.26312 -0.11841,-2.60518 0,-1.61837 0.0789,-3.1578 0.079,-1.53942 0.079,-2.7236 0.19736,-0.78945 0.63156,-1.18417 0.43419,-0.39472 0.98681,-0.39472 0.51314,0 0.94734,0.35525 0.47366,0.35525 0.67103,1.10523 0,1.8552 -0.079,3.59199 -0.0395,1.69731 -0.0395,3.63146 0,2.21046 0.94734,3.63147 0.94734,1.421 2.56571,1.421 0.59208,0 1.18417,-0.23683 0.59209,-0.23684 1.10523,-0.63156 0.51314,-0.39473 0.94734,-0.90787 0.43419,-0.51314 0.78944,-1.02628 0.079,-0.0789 0.19737,-0.11842 0.11841,-0.0789 0.19736,-0.15789 -0.23684,-1.97362 -0.23684,-3.98671 0,-1.1447 0,-2.2894 0.0395,-1.18418 0.19737,-2.13152 0.19736,-0.98681 0.59208,-1.57889 0.4342,-0.63156 1.18418,-0.63156 0.59208,0 1.06575,0.47367 0.47367,0.43419 0.47367,1.30259 0,0.90786 -0.15789,2.21045 -0.11842,1.30259 -0.11842,2.7236 0,1.10523 0.079,2.21046 0.0789,1.10523 0.23683,2.13151 0.19737,0.98681 0.47367,1.81573 0.31578,0.82892 0.78945,1.42101 z"
         style="font-style:normal;font-variant:normal;font-weight:normal;font-stretch:normal;font-family:Chalkboard;-inkscape-font-specification:Chalkboard"
         id="path4419" />
      <path
         d="m 376.06905,911.46323 q 0.67103,-0.55261 1.30259,-0.51314 0.67104,0.0395 1.06576,0.4342 0.39472,0.39472 0.4342,1.06576 0.0395,0.63155 -0.51315,1.30259 -1.30259,1.421 -3.07885,2.01309 -1.73678,0.59209 -3.47357,0.31578 -1.69731,-0.23684 -3.15779,-1.34206 -1.46048,-1.10523 -2.17099,-2.99991 -0.43419,-1.06575 -0.63156,-2.24993 -0.19736,-1.18417 -0.11841,-2.32887 0.11841,-1.89468 0.86839,-3.78935 0.78945,-1.93415 2.09204,-3.35516 1.34206,-1.42101 3.11832,-2.05257 1.81573,-0.67103 3.94724,0 1.06576,0.35525 1.93415,0.8684 0.8684,0.51314 1.65785,1.30259 0.43419,0.63155 0.43419,1.22364 0,0.59209 -0.35525,0.98681 -0.31578,0.35525 -0.90787,0.47367 -0.55261,0.11842 -1.26311,-0.23683 -1.30259,-1.30259 -2.52624,-1.53943 -1.22364,-0.27631 -2.2894,0.19736 -1.02628,0.47367 -1.8552,1.53943 -0.78945,1.02628 -1.22365,2.36834 -0.4342,1.3026 -0.4342,2.76308 0,1.421 0.55262,2.64465 0.47367,1.10523 1.26311,1.69731 0.82893,0.59209 1.73679,0.71051 0.90787,0.0789 1.85521,-0.27631 0.98681,-0.39472 1.73678,-1.22365 z"
         style="font-style:normal;font-variant:normal;font-weight:normal;font-stretch:normal;font-family:Chalkboard;-inkscape-font-specification:Chalkboard"
         id="path4421" />
      <path
         d="m 397.75904,914.02894 q 0,0.0395 -0.0395,0.0395 0.23683,0.55261 0.11841,1.02628 -0.11841,0.47367 -0.47367,0.74997 -0.31578,0.31578 -0.86839,0.39473 -0.51314,0.0789 -1.1447,-0.23684 -0.35525,-0.35525 -0.67103,-0.74997 -0.31578,-0.4342 -0.55262,-0.8684 -0.78944,0.67104 -1.69731,1.26312 -0.90787,0.55262 -1.81573,0.59209 -1.5789,0.0789 -3.11832,0.0395 -1.53943,-0.0395 -2.92096,-1.02628 -1.14471,-0.82892 -1.77626,-1.97362 -0.59209,-1.1447 -0.78945,-2.40782 -0.15789,-1.30259 0.0395,-2.64466 0.19736,-1.34206 0.67103,-2.5657 0.19736,-0.55262 0.51314,-1.06576 0.31578,-0.51314 0.63156,-1.06575 0.4342,-0.78945 0.98681,-1.46049 0.55262,-0.7105 1.26312,-1.22364 0.51314,-0.35525 0.98681,-0.7105 0.51314,-0.35526 1.02628,-0.67104 0.35526,-0.23683 1.06576,-0.47366 0.74998,-0.27631 1.5789,-0.4342 0.86839,-0.19736 1.69731,-0.19736 0.8684,0 1.46048,0.23683 0.55262,-0.0789 1.06576,0.27631 0.55261,0.35525 0.82892,1.1447 0,2.68412 -0.0395,5.40772 -0.0395,2.7236 0.35525,5.40773 0.0395,0.35525 0.27631,0.86839 0.2763,0.47367 0.55261,0.94734 0.31578,0.47367 0.55261,0.86839 0.23684,0.39473 0.23684,0.51314 z m -5.013,-2.7236 q 0.0789,-0.0395 0.11842,-0.0789 0.0395,-0.0395 0.11841,-0.0789 -0.51314,-2.36834 -0.51314,-4.89458 0.0395,-2.56571 0.0789,-4.69722 -0.35526,0 -0.78945,0.0789 -0.4342,0.0789 -0.8684,0.23683 -0.39472,0.11842 -0.74997,0.23684 -0.31578,0.11841 -0.47367,0.19736 -1.18417,0.55261 -2.0131,1.46048 -0.82892,0.86839 -1.38153,1.97362 -0.51314,1.06576 -0.78945,2.2894 -0.27631,1.18418 -0.27631,2.40782 0.079,0.31578 0.19737,0.63156 0.11841,0.31578 0.19736,0.63156 0.19736,0.19736 0.39472,0.4342 0.23684,0.23683 0.47367,0.43419 0.35525,0.15789 0.71051,0.27631 0.35525,0.11842 0.7105,0.23683 0.67103,0 1.30259,0.0395 0.63156,0.0395 1.26312,-0.15789 0.59208,-0.39473 1.1447,-0.78945 0.59208,-0.39473 1.1447,-0.8684 z"
         style="font-style:normal;font-variant:normal;font-weight:normal;font-stretch:normal;font-family:Chalkboard;-inkscape-font-specification:Chalkboard"
         id="path4423" />
      <path
         d="m 401.21094,901.83196 q -0.86839,-0.11842 -1.30259,-0.59209 -0.39472,-0.47367 -0.39472,-1.02628 0,-0.55261 0.4342,-1.06576 0.47366,-0.55261 1.38153,-0.55261 l 2.21046,0 0,-6.23664 q 0.19736,-0.78945 0.63156,-1.18418 0.43419,-0.39472 0.98681,-0.39472 0.51314,0 0.94734,0.35525 0.47366,0.35525 0.67103,1.10523 l 0,6.35506 3.78935,0 q 0.74998,0.19736 1.10523,0.67103 0.35525,0.4342 0.35525,0.94734 0,0.55261 -0.39472,0.98681 -0.39473,0.4342 -1.18418,0.63156 l -3.67093,0 q -0.0395,3.03938 0,6.27612 0.0395,3.19726 0.0395,6.23664 0,0.90787 -0.55261,1.38154 -0.51315,0.43419 -1.06576,0.43419 -0.55261,0 -1.02628,-0.43419 -0.47367,-0.39473 -0.59209,-1.26312 0,-3.07885 -0.0395,-6.31559 0,-3.23674 0,-6.31559 l -2.32888,0 0,0 z"
         style="font-style:normal;font-variant:normal;font-weight:normal;font-stretch:normal;font-family:Chalkboard;-inkscape-font-specification:Chalkboard"
         id="path4425" />
      <path
         d="m 419.08865,914.46314 q -0.0395,0.90787 -0.55261,1.34206 -0.47367,0.47367 -1.06576,0.47367 -0.55261,0 -1.02628,-0.4342 -0.47367,-0.39472 -0.59209,-1.26311 -0.0395,-3.71041 -0.0789,-7.57871 0,-3.8683 -0.0395,-7.57871 0.19737,-0.78945 0.63156,-1.18417 0.4342,-0.39473 0.98681,-0.39473 0.51315,0 0.94734,0.35526 0.47367,0.35525 0.67103,1.10522 0.0395,3.71041 0.0395,7.57871 0.0395,3.8683 0.0789,7.57871 z m -3.63146,-21.473 q 0,-0.8684 0.55261,-1.46049 0.55262,-0.63155 1.34206,-0.63155 0.78945,0 1.34207,0.63155 0.59208,0.59209 0.59208,1.46049 0,0.82892 -0.59208,1.46048 -0.55262,0.59208 -1.34207,0.59208 -0.78944,0 -1.34206,-0.59208 -0.55261,-0.63156 -0.55261,-1.46048 z"
         style="font-style:normal;font-variant:normal;font-weight:normal;font-stretch:normal;font-family:Chalkboard;-inkscape-font-specification:Chalkboard"
         id="path4427" />
      <path
         d="m 423.7122,906.05551 q 0.43419,-1.26312 1.06575,-2.44729 0.63156,-1.22365 1.49996,-2.21046 0.86839,-0.98681 1.97362,-1.69731 1.1447,-0.7105 2.52623,-1.02628 2.28941,-0.51315 3.98672,0.35525 1.73679,0.86839 2.76307,2.48676 1.02628,1.61837 1.34206,3.71041 0.35525,2.05257 -0.15789,3.94724 -0.59208,2.32888 -2.09204,4.34197 -1.49995,2.0131 -3.78935,2.92096 -1.69731,0.67103 -3.27621,0.47367 -1.53943,-0.15789 -2.80254,-0.98681 -1.22365,-0.82892 -2.09204,-2.17098 -0.8684,-1.34207 -1.18418,-3.03938 -0.19736,-1.06576 -0.15789,-2.09204 0.0789,-1.02628 0.27631,-2.05257 l 0.11842,-0.51314 z m 3.07885,0.90787 q -0.15789,0.82892 -0.23684,1.53942 -0.0395,0.67103 0.0789,1.53943 0.11842,1.06575 0.67103,1.93415 0.55261,0.82892 1.34206,1.30259 0.78945,0.43419 1.73679,0.43419 0.98681,-0.0395 1.97362,-0.63156 1.30259,-0.78944 2.05257,-2.05256 0.78945,-1.26312 1.18417,-2.7236 0.31578,-1.18417 0.11842,-2.52624 -0.15789,-1.34206 -0.78945,-2.36834 -0.63156,-1.02629 -1.69732,-1.46048 -1.06575,-0.47367 -2.52623,0.11841 -1.5789,0.67104 -2.48676,2.0131 -0.90787,1.34206 -1.42101,2.88149 z"
         style="font-style:normal;font-variant:normal;font-weight:normal;font-stretch:normal;font-family:Chalkboard;-inkscape-font-specification:Chalkboard"
         id="path4429" />
      <path
         d="m 456.85947,914.54208 q -0.0395,0.90787 -0.55261,1.34207 -0.47367,0.47367 -1.06576,0.47367 -0.55261,0 -1.02628,-0.4342 -0.47367,-0.39472 -0.59209,-1.26312 0,-1.81573 -0.0395,-3.59199 0,-1.81573 0,-3.63146 0,-1.30259 0,-2.60518 0.0395,-1.30259 -0.15789,-2.60519 -0.31578,-0.59208 -0.7105,-0.7105 -0.35526,-0.15789 -0.8684,-0.15789 -1.34206,0 -2.64465,0.67103 -1.30259,0.63156 -2.05257,1.77626 -0.43419,0.67103 -0.7105,1.1447 -0.23684,0.4342 -0.31578,1.30259 0,2.0131 0,4.02619 0,2.0131 0.0395,4.02619 -0.0395,0.90787 -0.55261,1.38153 -0.47367,0.4342 -1.06576,0.4342 -0.55261,0 -1.02628,-0.39472 -0.47367,-0.4342 -0.59209,-1.30259 0,-1.89468 0,-3.67094 0,-1.77626 -0.0395,-3.51305 0,-1.73678 0,-3.51304 0,-1.81573 0,-3.71041 0.19736,-0.78945 0.63156,-1.18417 0.4342,-0.39473 0.98681,-0.39473 0.51314,0 0.94734,0.35525 0.47367,0.35525 0.67103,1.10523 l 0,0.31578 q 1.1447,-0.98681 2.56571,-1.53942 1.46048,-0.59209 2.92096,-0.59209 1.46048,0 2.7236,0.67103 1.30259,0.67103 2.09203,2.17098 0.27631,0.51315 0.35526,1.30259 0.11841,0.74998 0.11841,1.61837 0.0395,0.82893 0,1.73679 -0.0395,0.8684 -0.0395,1.65784 l 0,4.65775 0,2.64465 0,0 z"
         style="font-style:normal;font-variant:normal;font-weight:normal;font-stretch:normal;font-family:Chalkboard;-inkscape-font-specification:Chalkboard"
         id="path4431" />
      <path
         d="m 461.32859,913.71316 q 0,-0.90786 0.63156,-1.53942 0.63155,-0.63156 1.49995,-0.63156 0.90786,0 1.53942,0.63156 0.63156,0.63156 0.63156,1.53942 0,0.8684 -0.63156,1.49996 -0.63156,0.63155 -1.53942,0.63155 -0.8684,0 -1.49995,-0.63155 -0.63156,-0.63156 -0.63156,-1.49996 z m 0.35525,-20.36777 q 0.15789,-0.74998 0.59209,-1.1447 0.47366,-0.39473 0.94733,-0.39473 0.51315,-0.0395 0.98681,0.31578 0.47367,0.35525 0.71051,1.10523 l 0,13.61799 q -0.0395,0.86839 -0.51314,1.34206 -0.47367,0.4342 -1.06576,0.47367 -0.55261,0 -1.06575,-0.39472 -0.47367,-0.4342 -0.59209,-1.30259 l 0,-13.61799 0,0 z"
         style="font-style:normal;font-variant:normal;font-weight:normal;font-stretch:normal;font-family:Chalkboard;-inkscape-font-specification:Chalkboard"
         id="path4433" />
    </g>
    <text
       xml:space="preserve"
       style="font-style:normal;font-weight:normal;font-size:16.15848351px;line-height:0%;font-family:sans-serif;text-align:start;letter-spacing:0px;word-spacing:0px;text-anchor:start;fill:#000000;fill-opacity:1;stroke:none;stroke-width:1px;stroke-linecap:butt;stroke-linejoin:miter;stroke-opacity:1"
       x="-204.82915"
       y="854.13666"
       id="text5261"
       sodipodi:linespacing="0%"
       transform="matrix(0.9639859,-0.26595336,0.26595336,0.9639859,0,0)"><tspan
         sodipodi:role="line"
         id="tspan5263"
         x="-204.82915"
         y="854.13666"
         style="font-style:normal;font-variant:normal;font-weight:normal;font-stretch:normal;font-family:'HanziPen SC';-inkscape-font-specification:'HanziPen SC'">Implied subject &quot;You&quot;</tspan></text>
    <path
       style="opacity:1;fill:#ffffff;fill-opacity:1;stroke:none;stroke-width:5.5999999;stroke-linecap:round;stroke-linejoin:miter;stroke-miterlimit:4;stroke-dasharray:none;stroke-dashoffset:0;stroke-opacity:1"
       id="path5535"
       d="m 34.303771,891.0609 c 0.310021,0.33544 0.59417,0.69329 0.881538,1.04795 0.481156,0.59277 0.92014,1.21701 1.356937,1.8425 0.357199,0.51148 0.760295,0.98721 1.171755,1.45505 0.580511,0.62709 1.226202,1.19008 1.870841,1.74954 0.994069,0.89718 2.002598,1.77774 3.013805,2.65545 1.020823,0.87645 2.055224,1.73704 3.089892,2.59713 0.455085,0.36707 0.904257,0.73969 1.317772,1.15341 0.159335,0.17225 0.316154,0.34501 0.481458,0.51164 0.02251,0.0176 0.04502,0.0361 0.06753,0.0537 0,0 -0.134279,0.0843 -0.134279,0.0843 l 0,0 c -0.0228,-0.0185 -0.04558,-0.0369 -0.06838,-0.0554 -0.164418,-0.16722 -0.320989,-0.33998 -0.479201,-0.51299 -0.409748,-0.41523 -0.855642,-0.78952 -1.307434,-1.15819 -1.029988,-0.86471 -2.062645,-1.72622 -3.08401,-2.60108 -1.011932,-0.87787 -2.023103,-1.75634 -3.019464,-2.65192 -0.646663,-0.55921 -1.295273,-1.12102 -1.879136,-1.74686 -0.412356,-0.46759 -0.81166,-0.94692 -1.168898,-1.45873 -0.436648,-0.62525 -0.876088,-1.24907 -1.359468,-1.83966 -0.288187,-0.35449 -0.572514,-0.71301 -0.888091,-1.04375 0,0 0.136828,-0.0822 0.136828,-0.0822 z"
       inkscape:connector-curvature="0" />
    <path
       style="opacity:1;fill:#ffffff;fill-opacity:1;stroke:none;stroke-width:5.5999999;stroke-linecap:round;stroke-linejoin:miter;stroke-miterlimit:4;stroke-dasharray:none;stroke-dashoffset:0;stroke-opacity:1"
       id="path5537"
       d="m 43.464138,893.83507 c 0.181165,0.13902 0.365972,0.27343 0.543496,0.41708 1.117882,0.90455 2.179855,1.87925 3.252662,2.83575 2.131553,1.90048 1.013293,0.9106 3.216728,2.84724 1.872051,1.64979 3.779204,3.25863 5.697424,4.85421 0,0 -0.09548,0.0596 -0.09548,0.0596 l 0,0 c -1.907749,-1.60464 -3.806653,-3.21978 -5.678609,-4.86629 -3.368664,-2.95128 0.01517,0.0176 -3.227005,-2.84087 -1.079833,-0.95213 -2.150782,-1.92498 -3.283397,-2.81536 -0.180403,-0.1418 -0.369093,-0.27277 -0.55364,-0.40911 0,0 0.127822,-0.0822 0.127822,-0.0822 z"
       inkscape:connector-curvature="0" />
    <path
       style="opacity:1;fill:#ffffff;fill-opacity:1;stroke:none;stroke-width:5;stroke-linecap:round;stroke-linejoin:miter;stroke-miterlimit:4;stroke-dasharray:none;stroke-dashoffset:0;stroke-opacity:1"
       id="path5539"
       d="m 54.749632,906.74689 c -0.61565,-1.29689 -1.581829,-2.38989 -2.488498,-3.48734 -1.772042,-2.07962 -3.651445,-4.06443 -5.564326,-6.01417 -0.602756,-0.59915 -1.20573,-1.19805 -1.816699,-1.78889 0,0 0.123867,-0.0764 0.123867,-0.0764 l 0,0 c 0.607807,0.59244 1.204974,1.19553 1.80302,1.7977 1.900976,1.96056 3.772488,3.95116 5.553958,6.02163 0.916205,1.09393 1.891255,2.17938 2.526887,3.46981 0,0 -0.138209,0.0772 -0.138209,0.0772 z"
       inkscape:connector-curvature="0" />
    <path
       style="opacity:1;fill:#ffffff;fill-opacity:1;stroke:none;stroke-width:5;stroke-linecap:round;stroke-linejoin:miter;stroke-miterlimit:4;stroke-dasharray:none;stroke-dashoffset:0;stroke-opacity:1"
       id="path5541"
       d="m 44.631847,893.91721 c 1.035029,1.39287 2.035817,2.81083 3.049015,4.21956 1.018813,1.38809 2.065918,2.75487 3.131883,4.10696 0.509422,0.63548 0.993999,1.29035 1.510111,1.92046 0.0634,0.0755 0.126804,0.15094 0.190206,0.22637 0,0 -0.13015,0.078 -0.13015,0.078 l 0,0 c -0.06311,-0.0755 -0.126216,-0.15145 -0.189324,-0.22713 -0.513887,-0.63162 -0.998145,-1.28631 -1.503456,-1.92482 -1.056532,-1.35872 -2.098092,-2.72911 -3.117353,-4.11611 -1.014689,-1.40856 -2.015717,-2.82803 -3.07419,-4.20412 0,0 0.133258,-0.0797 0.133258,-0.0797 z"
       inkscape:connector-curvature="0" />
    <path
       style="opacity:1;fill:#ffffff;fill-opacity:1;stroke:none;stroke-width:5;stroke-linecap:round;stroke-linejoin:miter;stroke-miterlimit:4;stroke-dasharray:none;stroke-dashoffset:0;stroke-opacity:1"
       id="path5543"
       d="m 37.026346,894.98571 c 0.170786,0.16462 0.35924,0.30943 0.546347,0.45475 0.363194,0.27823 0.726047,0.55678 1.083444,0.84239 0.499344,0.41188 0.986334,0.83844 1.480133,1.25695 0.607388,0.51466 1.228486,1.01271 1.850473,1.5095 0.602186,0.4811 1.20387,0.96278 1.812044,1.43633 0,0 -0.126155,0.0797 -0.126155,0.0797 l 0,0 c -0.608036,-0.47372 -1.209736,-0.9554 -1.811734,-1.43676 -0.622007,-0.49704 -1.242988,-0.9955 -1.851094,-1.50958 -0.494572,-0.41808 -0.98305,-0.84331 -1.483468,-1.25435 -0.357921,-0.28518 -0.720961,-0.56382 -1.085,-0.84112 -0.188614,-0.14541 -0.378209,-0.29047 -0.552006,-0.45367 0,0 0.137016,-0.084 0.137016,-0.084 z"
       inkscape:connector-curvature="0" />
    <path
       style="opacity:1;fill:#ffffff;fill-opacity:1;stroke:none;stroke-width:5;stroke-linecap:round;stroke-linejoin:miter;stroke-miterlimit:4;stroke-dasharray:none;stroke-dashoffset:0;stroke-opacity:1"
       id="path5545"
       d="m 38.26416,892.14157 c 0.273181,0.32 0.563315,0.62499 0.853897,0.92906 0.573234,0.58237 1.13346,1.17715 1.695719,1.77001 0.594012,0.62726 1.194537,1.24831 1.799727,1.86474 0.09612,0.0972 0.192243,0.19432 0.288365,0.29148 0,0 -1.200597,0.73432 -1.200597,0.73432 l 0,0 c -0.09547,-0.0978 -0.19095,-0.19549 -0.286425,-0.29324 -0.601795,-0.61996 -1.199728,-1.24369 -1.795891,-1.8691 -0.565596,-0.59144 -1.130184,-1.18429 -1.720524,-1.75131 -0.307041,-0.2971 -0.60963,-0.59982 -0.931363,-0.88107 0,0 1.297092,-0.79489 1.297092,-0.79489 z"
       inkscape:connector-curvature="0" />
    <path
       style="opacity:1;fill:#000000;fill-opacity:1;stroke:none;stroke-width:5;stroke-linecap:round;stroke-linejoin:miter;stroke-miterlimit:4;stroke-dasharray:none;stroke-dashoffset:0;stroke-opacity:1"
       id="path5547"
       d="m 49.522566,885.62371 c 0.854357,1.17639 1.34672,2.54911 1.814509,3.91122 0.544441,1.65047 0.888136,3.35823 1.422806,5.01165 0.113764,0.35181 0.242359,0.69861 0.363514,1.048 0.586958,1.59991 1.334746,3.13624 2.214018,4.59562 0.156879,0.26042 0.325924,0.51329 0.488886,0.76993 0.563273,0.83966 1.180755,1.644 1.863739,2.39004 0.0718,0.0785 0.704193,0.73717 0.791224,0.82787 0.321073,0.34039 0.656929,0.66673 1.00151,0.98317 0.797717,0.7338 -0.240063,1.86195 -1.037779,1.12814 l 0,0 c -0.367635,-0.33869 -0.727163,-0.68659 -1.070152,-1.05038 -0.138737,-0.14468 -0.722603,-0.75233 -0.834806,-0.87529 -0.735993,-0.80664 -1.402103,-1.67525 -2.008462,-2.58296 -0.17488,-0.27643 -0.355998,-0.54903 -0.524643,-0.82928 -0.927522,-1.54151 -1.713294,-3.16581 -2.332035,-4.85541 -0.127787,-0.36987 -0.263202,-0.73712 -0.383387,-1.10952 -0.527658,-1.63475 -0.871915,-3.32139 -1.40449,-4.95464 -0.415443,-1.2148 -0.841997,-2.44503 -1.597997,-3.49815 -0.643452,-0.87224 0.590093,-1.78225 1.233545,-0.91001 z"
       inkscape:connector-curvature="0" />
    <path
       style="opacity:1;fill:#000000;fill-opacity:1;stroke:none;stroke-width:5;stroke-linecap:round;stroke-linejoin:miter;stroke-miterlimit:4;stroke-dasharray:none;stroke-dashoffset:0;stroke-opacity:1"
       id="path5549"
       d="m 58.696982,905.96607 c 0.02065,-0.40343 -0.08437,-0.80413 -0.170446,-1.1952 -0.08252,-0.44405 -0.241226,-0.86718 -0.349369,-1.30456 -0.118413,-0.46026 -0.106593,-0.93249 -0.06198,-1.40126 0.01515,-0.2022 0.08068,-0.40188 0.07192,-0.60626 -0.0012,-0.0266 -0.0342,-0.1 -0.03278,-0.0729 0.0017,0.0321 0.01529,0.0615 0.02281,0.0927 0.258186,0.27297 0.1324,0.21321 0.535651,0.30382 0.02065,0.006 0.04341,-0.005 0.06486,-0.002 0.01882,0.006 -0.03232,0.0236 -0.04984,0.0323 -0.03571,0.0182 -0.07223,0.0353 -0.108471,0.0533 -0.05234,0.0202 -0.102208,0.0482 -0.156738,0.0596 -0.100944,0.0222 -0.203612,0.0401 -0.306758,0.0407 -0.08225,7.1e-4 -0.162399,-0.0251 -0.243724,-0.0373 -0.0059,-9.1e-4 -0.02286,-0.007 -0.01721,-0.005 0.237652,0.017 0.133032,0.0268 0.282713,0.003 0.03717,-0.0151 0.07255,-0.0343 0.111282,-0.0446 0.01083,-0.006 -0.01465,0.0149 -0.02223,0.0214 -0.02493,0.0223 -0.05002,0.0437 -0.07541,0.0655 -0.112591,0.0961 -0.228537,0.18797 -0.343199,0.28153 -0.181997,0.16856 -0.35635,0.34301 -0.491789,0.55175 -0.257418,0.42608 -0.631857,0.75446 -1.032487,1.04065 -0.168879,0.11293 -0.347215,0.21444 -0.535683,0.29118 -0.111662,0.0453 -0.228829,0.0714 -0.339759,0.11725 0.175745,-0.0803 -0.03104,0.0599 -0.06043,0.0884 -0.0018,-5.3e-4 0.01166,-0.006 0.01173,-0.005 -0.0017,0.008 -0.01,0.0145 -0.01471,0.021 -0.109947,0.12538 -0.228577,0.24245 -0.343,0.36341 -0.06198,0.12611 -0.188423,0.20299 -0.271445,0.31227 -0.0075,0.009 -0.02965,0.0384 -0.02263,0.0283 0.0232,-0.0333 0.04965,-0.0639 0.07116,-0.0976 0.128338,-0.20185 0.05702,-0.46488 -0.05424,-0.65177 0.170966,0.0829 0.349719,0.1532 0.52891,0.21839 0.235339,0.0829 0.474869,0.15311 0.713769,0.22485 0.247792,0.0738 0.495246,0.14871 0.742869,0.22307 0.186786,0.0648 0.35688,0.1641 0.541148,0.23345 0.251055,0.0877 0.505828,0.16416 0.76022,0.24142 0.201485,0.0609 0.403163,0.12124 0.604841,0.18154 0.148709,0.0445 0.297394,0.089 0.446056,0.13368 0.189536,0.0482 -0.002,-0.019 -0.121928,0.0273 -0.0798,0.0304 -0.152583,0.0774 -0.228862,0.11613 -0.249821,0.26664 -0.06634,0.0493 -0.176086,0.21291 -8.04e-4,-2.4e-4 3.23e-4,-0.009 1.63e-4,-0.009 0.0047,-0.0187 0.0123,-0.0366 0.01577,-0.0557 0.0018,-0.01 -0.01134,0.0176 -0.01536,0.0278 -0.001,-3.1e-4 -0.0051,0.0116 -0.0061,0.009 -0.019,-0.074 -0.02985,-0.27239 -0.07563,-0.31995 -4.6e-4,-1.4e-4 -0.0018,0.01 -0.004,0.008 -0.03577,-0.0353 -0.05502,-0.084 -0.08342,-0.12571 -0.07184,-0.10392 -0.152928,-0.20168 -0.233193,-0.29937 -0.186215,-0.22526 -0.382101,-0.44177 -0.559154,-0.67452 -0.13794,-0.19665 -0.220666,-0.42439 -0.304363,-0.64768 -0.0857,-0.18342 -0.07719,-0.38735 -0.117456,-0.58052 -0.01494,-0.0719 -0.04254,-0.14041 -0.06337,-0.2107 -0.108729,-0.26962 -0.218158,-0.53901 -0.329994,-0.80737 -0.04603,0.009 -0.01685,-0.0943 -0.05489,-0.10672 -0.009,-0.003 0.0046,0.0189 0.01041,0.0268 0.02946,0.0369 0.05468,0.0804 0.09464,0.10551 0.09034,0.0578 0.182488,0.14266 0.289565,0.14039 0.215918,-0.005 0.41819,-0.10885 0.627284,-0.16328 0.131709,-0.15169 0.222476,-0.43228 0.199582,-0.23337 -0.0099,0.0858 -0.02055,0.17149 -0.0311,0.25724 -0.03019,0.21818 -0.09257,0.42994 -0.15354,0.64098 -0.07992,0.29531 -0.171624,0.5835 -0.303654,0.85967 -0.189172,0.35476 -0.505894,0.58081 -0.848285,0.77094 -0.193682,0.10076 -0.403765,0.15979 -0.620971,0.17753 -0.15522,0.013 -0.07713,-0.007 -0.125554,0.005 0.464307,-0.0467 0.674381,-0.51042 0.532598,-0.94275 0.01608,0.0206 0.03181,0.042 0.04799,0.0626 0.04447,0.0572 0.190119,0.20812 0.144583,0.13549 0.06363,0.0279 0.130556,0.048 0.19702,0.0679 0.133584,0.0399 0.26702,0.0802 0.40053,0.12027 1.040507,0.30369 0.605289,1.77712 -0.434242,1.47005 l 0,0 c -0.138737,-0.041 -0.277085,-0.0832 -0.415632,-0.12481 -0.197871,-0.0594 -0.393114,-0.12943 -0.570814,-0.23711 -0.248697,-0.16937 -0.467758,-0.37217 -0.634897,-0.62507 -0.110462,-0.1828 -0.247755,-0.36148 -0.217086,-0.60036 0.07087,-0.55182 0.354148,-0.77092 0.837839,-0.85205 0.248013,-0.0144 0.01411,0.004 0.119117,0.002 0.07627,-0.0411 0.151592,-0.0843 0.217147,-0.1157 0.108699,-0.18059 0.128156,-0.40199 0.20096,-0.59756 0.03847,-0.13308 0.07917,-0.26602 0.104706,-0.40237 0.01603,-0.13045 0.03236,-0.44337 0.07586,-0.54087 0.06543,-0.14662 0.156831,-0.28019 0.235246,-0.42029 0.229661,-0.0735 0.448305,-0.20564 0.688982,-0.22045 0.361892,-0.0222 0.681116,0.462 0.800696,0.75292 0.133816,0.32139 0.268847,0.64271 0.387216,0.96998 0.06485,0.22665 0.112359,0.45581 0.144488,0.68158 0.03007,0.0809 0.09036,0.19288 0.108338,0.27256 0.0025,0.0104 -0.01141,-0.0192 -0.02009,-0.0262 -0.0043,-0.001 0.0022,0.009 0.0035,0.0133 0.163356,0.21865 0.352881,0.41529 0.523052,0.62846 0.216988,0.26664 0.431259,0.54018 0.571697,0.85647 0.09397,0.2785 0.162197,0.56539 0.176257,0.86028 -0.01308,0.25109 -0.04632,0.54755 -0.193875,0.76369 -0.05402,0.0791 -0.122465,0.14737 -0.183723,0.22113 -0.09673,0.0559 -0.187348,0.12316 -0.289912,0.16682 -0.242966,0.10357 -0.536983,0.0476 -0.779647,-0.0209 -0.148182,-0.0445 -0.296389,-0.0889 -0.44462,-0.13325 -0.203763,-0.0609 -0.407551,-0.12177 -0.611097,-0.18341 -0.290708,-0.0882 -0.581894,-0.17561 -0.867681,-0.27895 -0.145706,-0.0569 -0.290165,-0.11779 -0.426751,-0.19472 -0.24783,-0.0741 -0.495709,-0.14798 -0.743201,-0.22317 -0.267984,-0.0801 -0.53594,-0.16093 -0.799966,-0.25336 -0.380427,-0.13964 -0.764617,-0.28917 -1.073375,-0.56015 -0.178539,-0.20281 -0.282488,-0.27379 -0.333095,-0.57642 -0.05177,-0.30972 0.06806,-0.59218 0.263452,-0.8197 0.121015,-0.13222 0.196013,-0.19196 0.311838,-0.35586 0.08532,-0.0879 0.172053,-0.17777 0.255987,-0.26488 0.201412,-0.24193 0.439953,-0.44415 0.72563,-0.58097 0.1815,-0.0646 0.369451,-0.10798 0.527153,-0.22628 0.254981,-0.17118 0.486494,-0.3777 0.642797,-0.64544 0.226209,-0.32621 0.489979,-0.61906 0.791099,-0.87861 0.2542,-0.20725 0.492901,-0.4399 0.791314,-0.58289 0.275855,-0.0765 0.194143,-0.074 0.530891,-0.0592 0.02968,1.5e-4 0.114909,0.0117 0.0865,0.0172 -0.110351,0.0247 -0.235402,-0.0584 -0.338291,0.0455 0.184177,-0.0875 0.400251,-0.23242 0.611245,-0.23074 0.570674,0.005 0.487763,0.0427 0.893892,0.37241 0.05574,0.10346 0.124216,0.20068 0.167362,0.30991 0.162344,0.41082 0.08549,0.85844 0.01952,1.27893 -0.03201,0.2963 -0.0488,0.59436 0.02625,0.88619 0.106274,0.44935 0.279503,0.88122 0.357141,1.33817 0.119615,0.54665 0.246478,1.10459 0.199237,1.66806 -0.10209,1.07911 -1.628115,0.93468 -1.52605,-0.14436 z"
       inkscape:connector-curvature="0" />
    <text
       transform="matrix(0.99959935,-0.02830446,0.02830446,0.99959935,0,0)"
       sodipodi:linespacing="0%"
       id="text5555"
       y="953.35022"
       x="75.633362"
       style="font-style:normal;font-weight:normal;font-size:16.15848351px;line-height:0%;font-family:sans-serif;text-align:start;letter-spacing:0px;word-spacing:0px;text-anchor:start;fill:#000000;fill-opacity:1;stroke:none;stroke-width:1px;stroke-linecap:butt;stroke-linejoin:miter;stroke-opacity:1"
       xml:space="preserve"
       inkscape:transform-center-x="-19.615633"
       inkscape:transform-center-y="-3.8462025"><tspan
         style="font-style:normal;font-variant:normal;font-weight:normal;font-stretch:normal;font-family:'HanziPen SC';-inkscape-font-specification:'HanziPen SC'"
         y="953.35022"
         x="75.633362"
         id="tspan5557"
         sodipodi:role="line">predicate</tspan></text>
    <path
       style="opacity:1;fill:#000000;fill-opacity:1;stroke:none;stroke-width:5;stroke-linecap:round;stroke-linejoin:miter;stroke-miterlimit:4;stroke-dasharray:none;stroke-dashoffset:0;stroke-opacity:1"
       id="path5565"
       d="m 121.41558,935.7994 c -0.003,-0.8864 0.01,-1.7727 -0.0133,-2.6588 -0.0246,-0.934 -0.16967,-1.859 -0.24941,-2.7892 -0.17084,-1.0792 -0.32894,-2.16018 -0.48559,-3.24161 -0.16669,-1.10223 -0.42851,-2.186 -0.67652,-3.27179 -0.10086,-0.24189 -0.0607,-0.55712 -0.15334,-0.79809 -0.009,-0.0226 0.004,0.0487 0.01,0.0722 0.21183,0.36187 0.41766,0.47145 0.85356,0.46843 0.0708,-5e-4 0.13933,-0.0705 0.20674,-0.0487 0.0394,0.0126 -0.0592,0.0579 -0.0888,0.087 -0.53231,0.52725 -1.04703,1.07094 -1.55722,1.6195 -0.32784,0.40768 -0.79672,0.67516 -1.13687,1.06791 -0.12864,0.13677 -0.11836,0.12024 -0.21754,0.24148 -0.0237,0.0285 -0.0479,0.0571 -0.0697,0.0876 -0.005,0.008 -0.0151,0.0336 -0.0116,0.0252 0.0552,-0.13391 0.17314,-0.25666 0.16653,-0.40139 -0.0123,-0.27025 -0.14705,-0.52079 -0.22056,-0.78114 -0.0923,-0.0755 -0.18459,-0.15035 -0.27688,-0.22553 0.002,-0.008 -0.002,-0.0193 0.005,-0.0193 0.15562,-0.008 0.31091,0.0193 0.46657,0.0243 0.25446,0.008 0.42327,0.009 0.67862,0.0126 0.58323,0.008 1.16547,0.0101 1.74745,-0.0294 0.57815,-0.026 1.15051,-0.0843 1.71679,-0.20372 0.31836,-0.0772 0.63531,-0.15933 0.95332,-0.23761 0.12066,-0.0294 0.25644,-0.0294 0.35956,-0.0983 0.0246,-0.0168 -0.0577,0.0126 -0.0866,0.0193 -0.27295,0.13676 -0.42582,0.4785 -0.36622,0.77526 0.0153,0.0764 0.0508,0.14801 0.0761,0.22193 0.0378,0.0529 0.11594,0.18928 0.19143,0.24046 0.0581,0.0394 0.12962,0.0596 0.18119,0.10706 0.0249,0.0227 -0.0649,-0.0193 -0.0971,-0.0294 -0.18215,-0.0587 -0.17558,-0.0587 -0.3657,-0.12947 -0.52155,-0.18173 -0.92909,-0.5389 -1.33177,-0.90145 -0.2688,-0.21697 -0.54566,-0.41607 -0.78888,-0.6651 -0.17826,-0.20514 -0.31248,-0.44074 -0.40587,-0.6953 -0.0244,-0.0663 -0.0419,-0.13534 -0.0646,-0.20246 -0.002,-0.008 -0.0104,-0.0185 -0.008,-0.0134 0.0156,0.0403 0.0331,0.0789 0.0495,0.11864 0.19118,0.29575 0.47785,0.43554 0.83636,0.36699 0.0721,-0.0134 0.13798,-0.0495 0.20698,-0.0747 0.37498,-0.28527 -0.12668,0.20129 -0.17849,0.2617 -0.006,0.008 0.0162,-0.0101 0.0243,-0.0151 -0.0481,0.15405 -0.0674,0.33511 -0.0881,0.502 -0.0477,0.44477 -0.28411,0.79749 -0.57739,1.11574 -0.24802,0.21663 -0.0114,0.0302 0.0383,-0.0554 0.0217,-0.0369 0.0399,-0.0764 0.0597,-0.11469 -0.46962,1.45915 -2.53317,0.79506 -2.06355,-0.6641 l 0,0 c 0.11061,-0.27478 0.20377,-0.48974 0.42528,-0.69161 -0.0756,0.10656 0.0292,-0.0428 0.0422,-0.0503 0.0244,-0.0143 -0.0308,0.0478 -0.0435,0.073 -0.008,0.0151 -0.0782,0.25707 -0.0313,0.11058 0.0695,-0.52867 0.17555,-1.05978 0.48833,-1.5053 0.2346,-0.29601 0.48695,-0.58304 0.78058,-0.82124 0.11928,-0.0554 0.23148,-0.12963 0.35784,-0.16605 0.45879,-0.13215 0.95907,-0.0151 1.31591,0.2997 0.0916,0.0806 0.16134,0.18316 0.24202,0.2747 0.0354,0.0663 0.23414,0.36003 0.2113,0.48102 -0.004,0.021 -0.0806,-0.10077 -0.0525,-0.0352 0.19669,0.2163 0.47114,0.34274 0.67454,0.55426 0.2011,0.18115 0.38132,0.38621 0.6416,0.48236 0.46976,0.17838 0.91529,0.28074 1.20164,0.74808 0.0534,0.12191 0.12361,0.23769 0.16001,0.36565 0.17881,0.6286 -0.1236,1.2525 -0.65012,1.60346 -0.118,0.0587 -0.23241,0.12477 -0.35397,0.17536 -0.11922,0.0495 -0.36148,0.10329 -0.48905,0.13475 -0.34533,0.0849 -0.68927,0.17536 -1.0356,0.25632 -0.6635,0.13534 -1.33269,0.21463 -2.00956,0.24374 -0.64066,0.0428 -1.28156,0.0445 -1.92354,0.0344 -0.4684,-0.008 -1.48274,0.0201 -1.89093,-0.15908 -0.19306,-0.0848 -0.36132,-0.21747 -0.54198,-0.32621 -0.11559,-0.30575 -0.31145,-0.59227 -0.34677,-0.91723 -0.0464,-0.42665 0.42543,-0.90548 0.69356,-1.19746 0.36062,-0.38252 0.78226,-0.69522 1.14454,-1.07623 0.56767,-0.61031 1.13888,-1.21734 1.74047,-1.79468 0.26184,-0.21286 0.47815,-0.42774 0.83159,-0.50602 0.42085,-0.0931 0.92134,-0.008 1.23701,0.30457 0.11233,0.11142 0.19917,0.24592 0.29876,0.36884 0.18704,0.40214 0.23931,0.79171 0.32222,1.22112 0.26094,1.14259 0.53482,2.2835 0.70854,3.44371 0.16274,1.12346 0.33187,2.24575 0.50016,3.36814 0.0826,0.973 0.23695,1.9406 0.25654,2.9182 0.0225,0.9045 0.0122,1.8092 0.014,2.714 0,1.5329 -2.16779,1.5329 -2.16779,0 z"
       inkscape:connector-curvature="0" />
    <text
       inkscape:transform-center-y="-3.8462025"
       inkscape:transform-center-x="-19.615633"
       xml:space="preserve"
       style="font-style:normal;font-weight:normal;font-size:16.15848351px;line-height:0%;font-family:sans-serif;text-align:start;letter-spacing:0px;word-spacing:0px;text-anchor:start;fill:#000000;fill-opacity:1;stroke:none;stroke-width:1px;stroke-linecap:butt;stroke-linejoin:miter;stroke-opacity:1"
       x="194.49687"
       y="875.21985"
       id="text5567"
       sodipodi:linespacing="0%"
       transform="matrix(0.99959935,-0.02830446,0.02830446,0.99959935,0,0)"><tspan
         sodipodi:role="line"
         id="tspan5569"
         x="194.49687"
         y="875.21985"
         style="font-style:normal;font-variant:normal;font-weight:normal;font-stretch:normal;font-family:'HanziPen SC';-inkscape-font-specification:'HanziPen SC'">modifier</tspan></text>
    <path
       style="opacity:1;fill:#000000;fill-opacity:1;stroke:none;stroke-width:5;stroke-linecap:round;stroke-linejoin:miter;stroke-miterlimit:4;stroke-dasharray:none;stroke-dashoffset:0;stroke-opacity:1"
       id="path5579"
       d="m 246.20419,874.97201 c 0,0.63154 0,1.26316 0,1.89486 0,1.03931 0,2.07878 0,3.11817 0.0275,0.79758 -0.0648,1.5913 -0.22652,2.37479 -0.0893,0.35575 -0.1701,0.71309 -0.14843,1.07866 0.0647,0.3836 0.11598,0.76897 0.17872,1.15282 0.0409,0.23543 0.0826,0.47086 0.10435,0.70839 0.0414,0.36003 -0.12839,0.6896 -0.48209,0.88182 -0.0648,0.0352 -0.14001,0.0529 -0.21002,0.0789 -0.26007,0.068 -0.53153,0.0604 -0.79971,0.0604 -0.29951,-0.0109 -0.60581,0.0193 -0.90117,-0.0394 -0.0907,-0.0176 -0.1784,-0.0462 -0.2676,-0.0696 -0.0882,-0.0403 -0.18111,-0.0722 -0.26443,-0.11948 -0.1587,-0.0899 -0.26965,-0.19188 -0.40456,-0.30272 -0.13416,-0.11033 -0.27281,-0.21429 -0.41338,-0.31816 -0.21518,-0.16118 -0.45509,-0.29911 -0.62256,-0.50442 -0.0404,-0.0495 -0.0726,-0.10363 -0.10903,-0.15564 -0.0939,-0.19927 -0.25657,-0.47943 -0.15052,-0.70471 0.078,-0.16554 0.23325,-0.29349 0.34988,-0.44032 0.09,-0.0361 0.17631,-0.0789 0.27007,-0.10664 0.24637,-0.0705 0.62865,-0.0487 0.8894,-0.0487 0.27691,0 0.5526,0.0109 0.82835,-0.0159 0.30172,-0.052 0.60588,-0.0857 0.9121,-0.10597 0.26375,-0.0159 0.52817,-0.0193 0.79245,-0.0201 0.19985,-3.4e-4 0.39969,3.4e-4 0.59953,5e-4 0.17231,0.0109 0.34056,-0.0109 0.50991,-0.0336 0.58058,-0.0369 0.81878,0.15505 0.97821,0.71351 0.0419,0.147 -0.10304,0.34895 -0.19101,0.48328 -0.13975,0.16076 -0.27183,0.32622 -0.4145,0.48496 -0.0238,0.0252 -0.0471,0.052 -0.0711,0.0764 -0.0694,0.073 -0.14169,0.14415 -0.21518,0.21412 -0.0174,0.0168 -0.06,0.0705 -0.0523,0.0495 0.008,-0.0218 0.0352,-0.0336 0.0529,-0.0503 -0.0596,0.11855 -0.13838,0.22846 -0.21848,0.33737 -0.12042,0.12845 -0.17882,0.20573 -0.27126,0.32286 -0.0701,0.12485 -0.23925,0.2293 -0.31453,0.34341 -0.008,0 -0.008,0.0109 -0.0251,0.0941 -0.0562,0.13995 -0.0815,0.28401 -0.11742,0.42807 -0.1016,0.36104 -0.45042,0.65101 -0.89735,0.62214 -0.32563,-0.021 -0.39493,-0.12056 -0.60433,-0.28527 -0.16314,-0.16973 -0.30177,-0.35583 -0.42704,-0.54847 -0.0194,-0.0327 -0.0389,-0.0654 -0.0582,-0.0984 -0.005,-0.0109 -0.0187,-0.0252 -0.0154,-0.0176 0.0183,0.0403 0.0442,0.0512 0.0712,0.0846 0.003,0 -0.008,0 -0.012,0 -0.31438,-0.16403 -0.48367,-0.4347 -0.5845,-0.73399 -0.0728,-0.1501 -0.10303,-0.31161 -0.12539,-0.47245 -0.0364,-0.31749 0.0194,-0.38755 0.17042,-0.68759 0.61059,-0.80177 1.89508,-0.0394 1.28449,0.76226 l 0,0 c 0.029,-0.0722 0.0598,-0.14322 0.087,-0.21563 0.006,-0.0168 0.003,-0.0696 -0.006,-0.0529 -0.008,0.0126 0.003,0.0294 0.003,0.0445 0.006,0.0888 0.0417,0.16638 0.0764,0.25087 8.4e-4,0.0109 0.008,0.0134 0.005,0.0193 -7.2e-4,0 -0.1236,-0.11193 -0.13548,-0.0973 0.25339,0.13382 0.46654,0.30776 0.58971,0.5499 0.0675,0.11125 0.15057,0.21454 0.23833,0.31396 -0.15983,-0.10638 -0.21868,-0.16864 -0.46566,-0.17451 -0.29188,-0.0109 -0.44848,0.0941 -0.6288,0.28342 -0.0404,0.042 -0.0498,0.10152 -0.0753,0.15186 -0.003,0 0.005,-0.0117 0.008,-0.0168 0.0284,-0.13441 0.059,-0.27184 0.11071,-0.40256 0.0613,-0.22822 0.14864,-0.45115 0.3159,-0.63766 0.0879,-0.0962 0.1849,-0.18509 0.26617,-0.28561 0.0758,-0.0952 0.22286,-0.27579 0.24425,-0.2877 0.0566,-0.0764 0.13057,-0.18954 0.20474,-0.3185 0.11897,-0.14473 0.25101,-0.27579 0.38358,-0.41079 0.0675,-0.0738 0.25227,-0.32504 0.31236,-0.36187 0.0149,-0.0109 -0.0171,0.0285 -0.0258,0.042 0.12629,-0.19121 -0.0623,0.092 -0.0181,0.20615 0.14675,0.37949 0.34001,0.69581 0.81905,0.63129 -0.25191,0.0361 -0.50559,0.0621 -0.76129,0.052 -0.19662,-2.6e-4 -0.39326,-7.6e-4 -0.5899,-5.9e-4 -0.22799,0 -0.45611,0 -0.68368,0.0168 -0.29861,0.0193 -0.59288,0.0612 -0.88824,0.10471 -0.32092,0.0252 -0.64155,0.0252 -0.9636,0.021 -0.1436,4.2e-4 -0.2871,7.5e-4 -0.43064,0 -0.0205,5e-4 -0.0466,0.0134 -0.0616,0 -0.0574,-0.047 0.65205,0.0403 0.20954,-0.0931 0.0942,-0.13299 0.22082,-0.25188 0.28231,-0.39896 0.0428,-0.10261 -0.0825,-0.48823 0.0107,-0.21295 0.003,0.0118 -0.0123,-0.0302 -0.0221,-0.0319 -0.01,-0.0109 -0.0389,-0.0294 -0.0317,-0.0201 0.0867,0.11621 0.30567,0.18828 0.40504,0.29794 0.2003,0.14818 0.41612,0.29366 0.59224,0.46499 0.019,0.0185 0.006,0.021 -0.008,0.0285 0.0512,0.0722 0.56537,0.0235 0.67317,0.0369 0.0793,8e-5 0.43566,-0.0151 0.30259,0.0117 -0.15619,0.0747 -0.26041,0.16403 -0.32721,0.31539 -0.0185,0.042 -0.0225,0.0878 -0.0286,0.13316 -0.003,0.0151 0.003,0.0604 0.003,0.0453 0.003,-0.0185 -0.003,-0.0369 -0.003,-0.0554 -0.0174,-0.20841 -0.0602,-0.4144 -0.0935,-0.62122 -0.0697,-0.43428 -0.13609,-0.8694 -0.19357,-1.30502 -0.003,-0.10052 -0.008,-0.20003 -0.006,-0.30012 0.01,-0.36054 0.0991,-0.71477 0.17939,-1.06666 0.14762,-0.7016 0.227,-1.41318 0.20101,-2.12761 0,-1.03948 0,-2.07887 0,-3.11834 0,-0.63154 0,-1.26316 0,-1.89478 0,-0.96614 1.54776,-0.96614 1.54776,0 z"
       inkscape:connector-curvature="0" />
    <text
       transform="matrix(0.99959935,-0.02830446,0.02830446,0.99959935,0,0)"
       sodipodi:linespacing="0%"
       id="text5581"
       y="960.90894"
       x="334.5174"
       style="font-style:normal;font-weight:normal;font-size:16.15848351px;line-height:0%;font-family:sans-serif;text-align:start;letter-spacing:0px;word-spacing:0px;text-anchor:start;fill:#000000;fill-opacity:1;stroke:none;stroke-width:1px;stroke-linecap:butt;stroke-linejoin:miter;stroke-opacity:1"
       xml:space="preserve"
       inkscape:transform-center-x="-19.615633"
       inkscape:transform-center-y="-3.8462025"><tspan
         style="font-style:normal;font-variant:normal;font-weight:normal;font-stretch:normal;font-family:'HanziPen SC';-inkscape-font-specification:'HanziPen SC'"
         y="960.90894"
         x="334.5174"
         id="tspan5583"
         sodipodi:role="line">direct object</tspan></text>
    <path
       style="opacity:1;fill:#000000;fill-opacity:1;stroke:none;stroke-width:5;stroke-linecap:round;stroke-linejoin:miter;stroke-miterlimit:4;stroke-dasharray:none;stroke-dashoffset:0;stroke-opacity:1"
       id="path5587"
       d="m 404.06371,937.2203 c 0,-1.2859 0,-2.5719 0,-3.8579 0.008,-1.3281 -0.0153,-2.6566 0.01,-3.9845 0.026,-0.74435 0.0498,-1.48857 0.0619,-2.2332 0.0171,-0.43756 0.015,-0.87327 -0.0716,-1.30344 -0.0717,-0.34777 -0.19332,-0.68297 -0.34534,-1.00331 -0.18333,-0.27553 -0.002,0.13324 0.36446,0.1517 0.15092,0.008 0.42554,-0.11512 0.61745,-0.19944 -0.21664,0.58313 -0.39714,1.18228 -0.70571,1.72639 -0.0772,0.13617 -0.16782,0.26429 -0.25172,0.39644 -0.45069,0.61786 -1.08974,1.03041 -1.75817,1.37701 -0.11755,0.0646 -0.24162,0.11621 -0.36079,0.17763 -0.12736,0.0654 -0.0851,0.0646 -0.005,-0.0126 0.13968,-0.83492 0.3217,-0.66325 -0.26626,-1.17112 -0.0328,-0.0285 -0.0862,-0.0184 -0.12366,-0.0403 -0.0158,-0.009 0.0366,9e-5 0.0549,3.4e-4 0.24349,0 -0.0249,8.4e-4 0.28775,0 0.63679,-0.008 1.27299,0 1.9094,0.021 0.56126,0.0151 1.12002,0.073 1.67993,0.11126 0.27141,0.0185 0.54346,0.0235 0.81542,0.026 0.27051,8.4e-4 0.54102,3.3e-4 0.81152,0 0.22552,-2.5e-4 0.45105,-3.4e-4 0.67657,-4.2e-4 0.0698,0.0117 0.50218,0.0226 0.55555,0.0596 0.0251,0.0176 -0.0695,-0.0327 -0.0908,-0.0109 -0.27188,0.27973 -0.50788,0.59219 -0.76182,0.8882 -0.17733,0.21219 0.10385,0.20724 0.13811,0.3174 0.002,0 -0.0102,0 -0.0144,-3.3e-4 -0.0295,-0.0143 -0.0567,-0.0336 -0.0858,-0.0487 -0.0949,-0.0503 -0.19181,-0.0968 -0.28746,-0.14574 -0.32167,-0.18735 -0.66775,-0.3591 -0.92962,-0.63078 -0.0634,-0.0654 -0.1181,-0.13936 -0.17715,-0.20908 -0.15169,-0.18711 -0.2461,-0.40844 -0.35935,-0.6182 -0.0743,-0.1376 -0.16648,-0.2648 -0.25768,-0.39141 -0.0276,-0.0361 -0.0529,-0.0747 -0.0829,-0.10932 -0.0356,-0.0411 -0.0879,-0.0747 -0.13068,-0.10908 -0.0829,-0.0671 -0.10277,-0.10311 -0.076,-0.0587 0.057,0.0428 -0.0891,-0.031 -0.0991,-0.0344 -0.056,-0.0201 -0.228,-0.068 0.0357,0 0.28003,-0.0294 0.23082,0.008 0.40373,-0.0789 0.0163,-0.008 0.0577,-0.0403 0.0492,-0.0235 -0.0299,0.0571 -0.0706,0.10731 -0.10626,0.16067 -0.12285,0.16982 -0.26982,0.32202 -0.37888,0.50174 -0.0774,0.16731 -0.18335,0.32018 -0.29553,0.46583 -0.12284,0.1048 -0.19278,0.28695 -0.0582,0.0453 -0.36351,1.0211 -1.8076,0.50702 -1.44409,-0.51407 l 0,0 c 0.0816,-0.20875 0.22211,-0.40744 0.32112,-0.50862 -0.004,0.008 -0.0189,0.0319 -0.0135,0.0243 0.0718,-0.10211 0.13181,-0.21773 0.19935,-0.34014 0.12063,-0.18451 0.25148,-0.36238 0.39649,-0.52859 0.16196,-0.24148 0.35457,-0.55695 0.6464,-0.65428 0.13235,-0.0445 0.27428,-0.0512 0.41142,-0.0772 0.0785,0.0143 0.15753,0.026 0.23543,0.0428 0.18833,0.0411 0.36111,0.15178 0.53281,0.23258 0.26615,0.18677 0.51476,0.40106 0.70097,0.67089 0.21341,0.30096 0.39496,0.61744 0.56673,0.94307 0.12788,0.21647 0.41071,0.295 0.60725,0.4321 0.25876,0.13231 0.71777,0.33519 0.87658,0.58321 0.0733,0.11436 0.11977,0.24382 0.17965,0.36573 -0.25068,0.31271 -0.47059,0.65285 -0.75205,0.9382 -0.0176,0.0176 -0.40178,-0.0495 -0.455,-0.0487 -0.22504,8e-5 -0.45007,1.7e-4 -0.67511,5e-4 -0.27542,2.5e-4 -0.55085,8.4e-4 -0.82627,-8e-5 -0.30237,0 -0.60482,-0.008 -0.90657,-0.0294 -0.54374,-0.0369 -1.08638,-0.0935 -1.6314,-0.10882 -0.62039,-0.0226 -1.24057,-0.0252 -1.86134,-0.0201 -0.41622,0 -1.07881,0.0462 -1.23356,-0.50207 -0.0734,-0.26044 0.0742,-0.53606 0.11138,-0.80404 0.23447,-0.25247 0.53016,-0.4066 0.84212,-0.54655 0.43068,-0.21907 0.85973,-0.46977 1.17201,-0.84607 0.16803,-0.25306 0.20664,-0.29132 0.33863,-0.57684 0.20247,-0.43805 0.3269,-0.90665 0.51217,-1.35142 0.22773,-0.40525 0.26984,-0.64656 0.90657,-0.69027 0.46106,-0.0319 0.71275,0.40777 0.89616,0.73105 0.19925,0.43612 0.36814,0.8871 0.46005,1.35922 0.0994,0.53455 0.1253,1.07396 0.0988,1.61723 -0.0122,0.74607 -0.0356,1.49171 -0.062,2.23734 -0.0256,1.3181 -2.6e-4,2.6369 -0.009,3.9552 0,1.2861 0,2.572 0,3.858 0,1.0839 -1.53286,1.0839 -1.53286,0 z"
       inkscape:connector-curvature="0" />
    <path
       style="opacity:1;fill:#000000;fill-opacity:1;stroke:none;stroke-width:5;stroke-linecap:round;stroke-linejoin:miter;stroke-miterlimit:4;stroke-dasharray:none;stroke-dashoffset:0;stroke-opacity:1"
       id="path5589"
       d="m 406.73396,927.24362 c 0.34831,0 0.69664,0 1.04495,0 0.27375,0.0277 0.72088,0 0.96555,0.13684 0.10603,0.0604 0.19854,0.14247 0.29783,0.2137 0.0211,0.31967 0.17474,0.65873 0.0631,0.95901 -0.16999,0.45728 -0.76889,0.36129 -1.10494,0.27839 -0.24673,-0.0789 -0.10295,-0.0226 -0.41911,-0.19918 -0.89473,-0.61174 -0.0295,-1.87708 0.8652,-1.26534 l 0,0 c -0.10605,-0.0361 -0.12979,-0.0487 -0.0771,-0.0235 0.0226,0.008 0.0452,0.0117 0.0679,0.0168 -0.006,6.7e-4 -0.0222,5e-4 -0.0167,0 0.0136,0 0.0558,0 0.042,0.008 -0.0468,0.008 -0.1,-0.0126 -0.14171,0.0101 -0.75982,0.40668 -0.49829,0.28175 -0.40737,1.25393 0.14167,0.0937 0.18825,0.16882 0.32624,0.18644 0.005,5.8e-4 -0.007,-0.008 -0.0117,-0.008 -0.0431,-0.008 -0.0866,-0.008 -0.13002,-0.0126 -0.1559,-0.0134 -0.16084,-0.0126 -0.3191,-0.021 -0.34831,0 -0.69663,0 -1.04495,0 -1.0839,0 -1.0839,-1.53291 0,-1.53291 z"
       inkscape:connector-curvature="0" />
    <path
       style="opacity:1;fill:#000000;fill-opacity:1;stroke:none;stroke-width:5;stroke-linecap:round;stroke-linejoin:miter;stroke-miterlimit:4;stroke-dasharray:none;stroke-dashoffset:0;stroke-opacity:1"
       id="path5591"
       d="m 407.4958,928.35063 c -0.22467,-0.22007 -0.4635,-0.43109 -0.69151,-0.64974 -0.2438,-0.19566 -0.42939,-0.44687 -0.63878,-0.67492 -0.15608,-0.16453 -0.26275,-0.36464 -0.38766,-0.55166 -0.0653,-0.0806 -0.11865,-0.17561 -0.19575,-0.24676 -0.0329,-0.0302 -0.0737,-0.0512 -0.10888,-0.0789 -0.21514,-0.1381 -0.41458,-0.29257 -0.59246,-0.47606 -0.004,-0.008 -0.073,-0.0764 -0.0806,-0.0831 -0.01,-0.008 0.0164,0.0201 0.0262,0.0285 0.0203,0.0176 0.0902,0.052 0.0639,0.0478 -0.0362,-0.008 -0.0608,-0.042 -0.0954,-0.0545 -0.11955,-0.0713 -0.24679,-0.1282 -0.37045,-0.19205 -0.20775,-0.10253 -0.35829,-0.2773 -0.50748,-0.44805 -0.0909,-0.10806 -0.15907,-0.23249 -0.22934,-0.35415 -0.53437,-0.94307 0.79926,-1.69878 1.33363,-0.75571 l 0,0 c 0.0196,0.0369 0.12023,0.17695 0.0501,0.10135 0.13088,0.14977 -0.0212,-0.0243 0.0762,0.0877 0.044,0.0503 0.0252,0.031 -0.0411,-0.008 -0.0116,-0.008 0.023,0.0134 0.0344,0.0201 0.12134,0.0696 0.25564,0.11796 0.37406,0.1939 0.18503,0.10177 0.36269,0.21588 0.4983,0.38125 0.0916,0.10412 0.29286,0.20875 0.41498,0.31011 0.24376,0.19599 0.45969,0.41431 0.62844,0.67927 0.0835,0.1272 0.15389,0.26329 0.25432,0.37824 0.17825,0.20338 0.34402,0.41742 0.55618,0.589 0.28638,0.27662 0.59483,0.53169 0.85491,0.83458 0.65034,0.86714 -0.57594,1.78677 -1.22628,0.91974 z"
       inkscape:connector-curvature="0" />
    <path
       style="fill:#b3b3b3;fill-opacity:1;stroke:none"
       d="m 115.89186,753.584 -1.70318,13.57917 -66.761994,9.42517 2.660562,6.49839 67.489972,-0.64477 -1.40664,4.36019 -88.006102,0.57761 -3.56682,-8.89867 -5.148206,-6.64576 c 31.812661,-9.24987 64.07709,-14.22747 96.442408,-18.25133 z"
       id="path4540"
       inkscape:connector-curvature="0"
       sodipodi:nodetypes="cccccccccc" />
    <path
       sodipodi:nodetypes="cccc"
       inkscape:connector-curvature="0"
       id="path4548"
       d="m 117.38889,750.81931 c -0.2789,3.14145 -1.6084,9.68137 -1.6084,9.68137 -14.36315,-0.36475 -34.230907,3.51201 -42.686047,-0.35848 6.105283,-4.20318 29.225997,-7.66282 44.294447,-9.32289 z"
       style="fill:#ffffff;fill-opacity:1;stroke:none" />
    <path
       style="fill:#9d9d9d;fill-opacity:1;stroke:none"
       d="m 117.38467,750.07685 c -0.2789,3.14145 -1.6084,9.68137 -1.6084,9.68137 -14.36315,-0.36475 -34.18112,3.56122 -41.990837,0.0336 6.105283,-4.20318 28.530787,-8.05486 43.599237,-9.71493 z"
       id="path4542"
       inkscape:connector-curvature="0"
       sodipodi:nodetypes="cccc" />
    <path
       sodipodi:nodetypes="ccccccc"
       inkscape:connector-curvature="0"
       id="path4546"
       d="m 118.52378,784.77509 -71.996656,-0.3961 -9.055246,-6.85228 -16.724654,-3.38736 6.623185,13.7729 90.654761,-0.62041 z"
       style="fill:#ffffff;fill-opacity:1;stroke:none" />
    <path
       style="fill:#8f8f8f;fill-opacity:1;stroke:none"
       d="m 118.52716,785.36906 -71.99666,-0.3961 -9.055246,-6.85228 -16.724654,-3.38737 6.623185,13.7729 90.654765,-0.62041 z"
       id="path4544"
       inkscape:connector-curvature="0"
       sodipodi:nodetypes="ccccccc" />
    <path
       style="fill:#b3b3b3;stroke:none"
       d="m 32.772076,1033.3267 c 13.199269,3.0485 26.398537,2.7201 39.597806,0 -1.432972,-15.0083 -0.995837,-30.0165 -5.19515,-45.02478 -10.390347,-2.30896 -20.492056,-2.30896 -30.305174,0 -3.402774,15.34778 -3.110004,30.07958 -4.097482,45.02478 z"
       id="path4565"
       inkscape:connector-curvature="0"
       sodipodi:nodetypes="ccccc" />
    <path
       sodipodi:nodetypes="ccccc"
       inkscape:connector-curvature="0"
       id="path4603"
       d="m 43.523359,988.06772 c 6.254509,5.64188 12.728932,3.73733 17.135623,-0.11875 l -5.196033,-12.45923 -6.263053,0.41459 z"
       style="fill:#ffffff;stroke:none" />
    <path
       style="fill:#8a8a8a;fill-opacity:1;stroke:none"
       d="m 45.640916,987.34957 c 4.992417,3.66367 9.134662,2.65125 12.97889,0 l -1.266318,-13.42073 c -2.982216,1.35478 -6.653986,1.48815 -10.060893,0.12438 z"
       id="path4565-1"
       inkscape:connector-curvature="0"
       sodipodi:nodetypes="ccccc" />
    <path
       style="fill:#b3b3b3;stroke:none"
       d="m 48.29665,972.37417 c 2.785241,0.93711 5.422123,0.68737 8.004305,0 l -3.323139,-10.8837 -1.910181,-0.0765 z"
       id="path4565-1-1"
       inkscape:connector-curvature="0"
       sodipodi:nodetypes="ccccc" />
    <path
       style="font-style:normal;font-variant:normal;font-weight:normal;font-stretch:normal;font-size:medium;line-height:125%;font-family:'MS UI Gothic';-inkscape-font-specification:'MS UI Gothic';letter-spacing:0px;word-spacing:0px;fill:#ffffff;fill-opacity:1;stroke:none"
       inkscape:connector-curvature="0"
       id="path4273"
       d="m 37.4978,1016.3042 q 0,-2.1849 1.142134,-3.3271 1.042814,-1.0428 2.532557,-1.0428 1.489738,0 2.433238,0.9435 0.794529,0.7946 0.844186,1.9367 l -1.191791,0 q -0.04966,-0.8442 -0.595895,-1.3904 -0.546238,-0.5463 -1.489738,-0.5463 -0.943505,0 -1.589057,0.6456 -0.893843,0.8938 -0.893843,2.7808 0,1.7877 0.9435,2.7312 0.645552,0.6456 1.78769,0.6456 0.844186,0 1.39042,-0.5463 0.546238,-0.5462 0.645557,-1.1421 l 0,-0.7945 -1.440081,0 0,-0.9435 2.582214,0 0,4.3699 -0.844186,0 -0.297947,-0.8442 q -0.844186,0.8442 -2.135296,0.8442 -1.589052,0 -2.582214,-0.9932 -1.241448,-1.2414 -1.241448,-3.3271 z" />
    <path
       style="font-style:normal;font-variant:normal;font-weight:normal;font-stretch:normal;font-size:medium;line-height:125%;font-family:'MS UI Gothic';-inkscape-font-specification:'MS UI Gothic';letter-spacing:0px;word-spacing:0px;fill:#ffffff;fill-opacity:1;stroke:none"
       inkscape:connector-curvature="0"
       id="path4275"
       d="m 46.33692,1012.0336 1.142133,0 0,7.5481 4.568534,0 0,0.9435 -5.710667,0 0,-8.4916 z" />
    <path
       style="font-style:normal;font-variant:normal;font-weight:normal;font-stretch:normal;font-size:medium;line-height:125%;font-family:'MS UI Gothic';-inkscape-font-specification:'MS UI Gothic';letter-spacing:0px;word-spacing:0px;fill:#ffffff;fill-opacity:1;stroke:none"
       inkscape:connector-curvature="0"
       id="path4277"
       d="m 53.090406,1012.0336 1.142133,0 0,5.959 q 0,0.6952 0.446924,1.1421 0.546238,0.5463 1.589057,0.5463 1.042815,0 1.589053,-0.5463 0.446924,-0.4469 0.446924,-1.1421 l 0,-5.959 1.142133,0 0,6.0087 q 0,1.0924 -0.695214,1.7876 -0.794524,0.7946 -2.482896,0.7946 -1.688371,0 -2.4829,-0.7946 -0.695214,-0.6952 -0.695214,-1.7876 l 0,-6.0087 z" />
    <path
       style="font-style:normal;font-variant:normal;font-weight:normal;font-stretch:normal;font-size:medium;line-height:125%;font-family:'MS UI Gothic';-inkscape-font-specification:'MS UI Gothic';letter-spacing:0px;word-spacing:0px;fill:#ffffff;fill-opacity:1;stroke:none"
       inkscape:connector-curvature="0"
       id="path4279"
       d="m 61.184659,1012.0336 5.462376,0 0,0.9435 -4.320243,0 0,2.6319 4.022296,0 0,0.9435 -4.022296,0 0,3.0292 4.568534,0 0,0.9435 -5.710667,0 0,-8.4916 z" />
    <rect
       style="fill:#ffffff;fill-opacity:1;fill-rule:evenodd;stroke:none"
       id="rect4609"
       width="29.933737"
       height="1.6583787"
       x="37.397583"
       y="1008.6739"
       ry="0.82918936" />
    <rect
       style="fill:#ffffff;fill-opacity:1;fill-rule:evenodd;stroke:none"
       id="rect4611"
       width="30.34833"
       height="1.4925408"
       x="37.397583"
       y="1022.1755"
       ry="0.74627042" />
    <path
       style="fill:#999999;stroke:none"
       d="m 470.35713,994.46605 c 1.72015,0.24168 2.81857,0.83247 4.0492,1.34901 -28.23461,12.53784 -38.28235,16.05864 -45.35742,21.38104 l -3.7173,3.9816 -4.74811,-2.9622 c 2.96284,-1.9352 6.16159,-4.7109 8.9966,-7.6131 13.84956,-7.5595 30.47689,-14.73558 40.77703,-16.13635 z"
       id="path4157-5-5"
       inkscape:connector-curvature="0"
       sodipodi:nodetypes="ccccccc" />
    <path
       style="fill:#7d7d7d;fill-opacity:1;stroke:none"
       d="m 421.82359,1029.4659 c 1.47435,-2.1176 2.35084,-4.3921 3.29096,-6.6497 l -5.94523,-4.0281 c -9.95102,2.9627 -19.10751,7.5966 -15.93491,15.0691 4.36682,4.315 8.99052,2.4196 11.72362,1.3191 3.3223,-1.6336 5.39117,-3.5927 6.86556,-5.7104 z m -3.9757,0.3976 c -0.91031,1.3709 -2.49331,2.7355 -4.71176,3.9048 -1.94122,0.8724 -5.88644,1.9538 -8.77111,-0.9746 -0.82146,-4.5677 3.44908,-8.4434 9.37175,-10.0844 4.85774,1.0874 6.11417,4.1375 4.11112,7.1542 z"
       id="path4161-1-7"
       inkscape:connector-curvature="0" />
    <path
       style="fill:#7d7d7d;fill-opacity:1;stroke:none"
       d="m 416.62187,1015.7909 3.52459,-6.4126 c -4.4794,-1.964 -10.24729,-5.9925 -17.30771,-3.7618 -2.73595,1.0934 -15.35243,6.5705 -15.86198,14.5191 4.63254,6.875 21.07606,0.718 29.6451,-4.3447 z m -4.50346,-2.1523 c -1.48505,2.3085 -4.62318,4.6541 -7.71187,5.5628 -8.24527,2.4641 -12.2954,1.8225 -15.18007,-1.1059 -0.82146,-4.5678 15.77654,-11.949 20.67595,-9.8223 3.5329,0.7908 3.70103,3.0569 2.21599,5.3654 z"
       id="path4161-82-1-1"
       inkscape:connector-curvature="0" />
    <path
       style="fill:#999999;stroke:none"
       d="m 472.78431,1009.3551 c 1.31873,-0.6566 2.2406,-2.325 2.76622,-3.1365 -30.13359,3.4159 -40.29823,6.6514 -48.99045,5.4699 l -5.26276,-1.4053 -2.45554,5.0289 c 3.53814,0.07 7.72196,0.7277 11.66436,1.6855 14.93871,-2.2374 26.27417,-2.185 42.27817,-7.6425 z"
       id="path4157-5-5-2"
       inkscape:connector-curvature="0"
       sodipodi:nodetypes="ccccccc" />
    <path
       sodipodi:nodetypes="ccccc"
       style="fill:#4d4d4d;stroke:none"
       d="m 350.1817,791.43626 116.7677,-21.05211 c 0.67245,2.19177 1.16706,4.4531 1.30238,6.80792 l -123.34315,22.05261 c -1.33015,0.12167 3.9033,-7.56235 5.27307,-7.80842 z"
       id="path3546"
       inkscape:connector-curvature="0" />
    <path
       style="fill:#ffffff;fill-opacity:1;stroke:none"
       d="m 374.26887,786.96222 c -0.71519,2.53189 -0.44448,4.83558 1.17635,6.82668 l -1.82042,0.36368 c -1.11378,-2.07004 -1.74048,-4.25278 -0.82231,-6.79317 z"
       id="path3559"
       inkscape:connector-curvature="0"
       sodipodi:nodetypes="ccccc" />
    <path
       style="fill:#4d4d4d;stroke:none"
       d="m 351.85941,791.63052 3.33492,-4.29266 33.64433,-5.99943 -0.7912,1.56834 -26.72486,4.97474 -0.84149,2.09943 z"
       id="path3561"
       inkscape:connector-curvature="0" />
    <path
       sodipodi:nodetypes="cccccc"
       inkscape:connector-curvature="0"
       id="path3544"
       d="m 337.66425,751.27114 117.76446,-3.21321 c 1.02995,2.83515 0.92488,5.50155 0.20901,7.65547 l -116.83339,3.55791 -13.57469,-4.12071 z"
       style="fill:#8f8f8f;fill-opacity:1;stroke:none" />
    <path
       sodipodi:nodetypes="ccccc"
       inkscape:connector-curvature="0"
       id="path3553"
       d="m 338.66625,751.09847 c -0.61547,2.48546 -0.47226,5.29672 0.14796,7.83099 l -2.02853,-0.60664 c -0.48251,-2.06501 -0.59319,-4.50119 -0.28094,-6.67552 z"
       style="fill:#ffffff;fill-opacity:1;stroke:none" />
    <path
       style="fill:#656565;fill-opacity:1;stroke:none"
       d="m 456.34598,748.04164 c 1.05508,3.05405 0.89188,5.53108 0.22034,7.80489 1.86004,-0.16734 5.32302,-0.68226 5.36653,-1.2458 0.13565,-0.48377 0.10731,-5.25156 -0.18245,-5.46946 -0.32985,-0.61006 -3.76072,-1.17819 -5.40442,-1.08963 z"
       id="path3551-1"
       inkscape:connector-curvature="0"
       sodipodi:nodetypes="ccccc" />
    <rect
       style="fill:#4d4d4d;fill-opacity:1;fill-rule:evenodd;stroke:none"
       id="rect3473-8"
       width="10.265675"
       height="69.472023"
       x="800.62585"
       y="-337.58865"
       ry="0.38419408"
       transform="matrix(0.10385202,0.99459276,-0.99459276,0.10385202,0,0)" />
    <rect
       ry="0.012868449"
       y="-278.42838"
       x="800.62585"
       height="2.3269417"
       width="10.265675"
       id="rect3475-9"
       style="fill:#ffffff;fill-opacity:1;fill-rule:evenodd;stroke:none"
       transform="matrix(0.10385202,0.99459276,-0.99459276,0.10385202,0,0)" />
    <path
       style="fill:#4d4d4d;fill-rule:evenodd;stroke:none"
       d="m 421.20355,761.55712 0.95944,9.18915 19.52131,-3.32854 c 0.96514,-1.97021 0.33689,-5.14626 -0.69984,-6.70037 z"
       id="path3477-0"
       inkscape:connector-curvature="0"
       sodipodi:nodetypes="ccccc" />
    <rect
       style="fill:#ffffff;fill-opacity:1;fill-rule:evenodd;stroke:none"
       id="rect3479-8"
       width="1.7964931"
       height="30.283739"
       x="802.33691"
       y="-313.14594"
       ry="0.012868423"
       transform="matrix(0.10385202,0.99459276,-0.99459276,0.10385202,0,0)" />
    <rect
       ry="0.0088879364"
       y="-303.77853"
       x="805.15997"
       height="20.916309"
       width="1.7964931"
       id="rect3481-8"
       style="fill:#ffffff;fill-opacity:1;fill-rule:evenodd;stroke:none"
       transform="matrix(0.10385202,0.99459276,-0.99459276,0.10385202,0,0)" />
    <path
       inkscape:connector-curvature="0"
       style="fill:#8c8c8c;fill-opacity:1;stroke:none"
       d="m 447.20948,794.19259 -14.67357,14.16652 18.51038,0 0,11.00329 11.83571,-17.17091 0,-7.9989 -15.67252,0 z m 3.04221,2.08109 -10.04224,10.63248 -3.45839,0.0381 10.7914,-10.63248 2.70923,-0.0381 z m 1.29403,1.79346 -8.00652,8.87685 -1.7481,0 8.00652,-8.83894 1.7481,-0.0381 z"
       id="path3526" />
    <path
       style="fill:#dbe3db;stroke:none"
       d="m 449.96065,809.36171 -16.83963,-0.25003 -2.63637,2.63637 c -0.61618,0.48196 -0.70217,1.482 -0.64243,2.11643 l 0.27768,7.06412 c 0.16831,0.93595 0.71583,1.4169 1.43803,1.68806 l 14.56793,0.33345 c 1.0562,-0.09 1.9012,-0.42642 2.2926,-1.29209 l 1.62553,-1.79238 z"
       id="path3528-5"
       inkscape:connector-curvature="0"
       sodipodi:nodetypes="cccccccccc" />
    <path
       style="fill:#656565;fill-opacity:1;fill-rule:evenodd;stroke:none"
       d="m 247.96341,1010.3828 5.48902,13.5863 c 3.41803,6.8201 -4.92516,7.7677 -7.27418,2.2782 l -6.93208,-19.9054 c -2.63878,-5.9399 3.97939,-9.82695 7.74407,-2.8744 l 10.97476,28.7158 c 1.6153,4.2164 -2.63801,12.3447 -9.21395,4.6363 l -7.7892,-20.5353 -1.13087,0.3965 7.68012,20.4828 c 3.01196,6.2573 13.27813,5.8438 11.84386,-4.3791 l -11.84854,-30.9494 c -2.94953,-5.71474 -12.4114,-3.80159 -9.515,4.4245 l 7.49234,20.594 c 2.37581,6.259 11.95519,6.1578 8.75229,-2.9778 l -5.4082,-13.6147 z"
       id="path3862"
       inkscape:connector-curvature="0"
       sodipodi:nodetypes="ccccccccccccccccc"
       inkscape:transform-center-x="13.528416"
       inkscape:transform-center-y="30.989809" />
    <path
       style="fill:#4d4d4d;fill-opacity:1;fill-rule:evenodd;stroke:none"
       d="m 284.4382,1010.851 -5.82062,13.4477 c -2.45663,7.2223 -8.98917,1.9467 -6.72945,-3.5802 l 9.30706,-18.9119 c 2.37697,-6.04945 9.79143,-4.0659 7.48398,3.4962 l -12.74239,27.9764 c -1.86833,4.1106 -10.6425,6.7888 -9.77058,-3.3058 l 9.15385,-19.9644 -1.07636,-0.5269 -9.19305,19.8499 c -2.34089,6.538 5.16144,13.5579 11.43395,5.359 l 13.71928,-30.1667 c 1.99848,-6.11265 -6.00706,-11.50696 -9.83102,-3.669 l -9.40407,19.7943 c -2.78879,6.0862 4.00898,12.8364 8.26544,4.1416 l 5.89751,-13.41 z"
       id="path3862-7"
       inkscape:connector-curvature="0"
       sodipodi:nodetypes="ccccccccccccccccc"
       inkscape:transform-center-x="-1.3673123"
       inkscape:transform-center-y="1.4235722" />
    <path
       inkscape:transform-center-y="30.989809"
       inkscape:transform-center-x="13.528416"
       sodipodi:nodetypes="ccccccccccccccccc"
       inkscape:connector-curvature="0"
       id="path6725"
       d="m 227.48646,1012.1922 -3.60744,14.2023 c -1.27651,7.5212 -8.56505,3.3517 -7.21328,-2.4643 l 6.18031,-20.1514 c 1.38444,-6.35058 9.02004,-5.5717 7.94482,2.2612 l -8.13004,29.6471 c -1.19064,4.3554 -9.4271,8.3952 -10.172,-1.7096 l 5.86159,-21.1663 -1.14642,-0.349 -5.91854,21.0595 c -1.27113,6.8272 7.25236,12.5644 12.1408,3.4721 l 8.74609,-31.9649 c 1.0007,-6.35277 -7.76095,-10.40498 -10.28948,-2.0585 l -6.13573,21.0382 c -1.78515,6.4523 5.99982,12.0352 8.819,2.774 l 3.68937,-14.1774 z"
       style="fill:#656565;fill-opacity:1;fill-rule:evenodd;stroke:none" />
    <path
       inkscape:transform-center-y="1.4235722"
       inkscape:transform-center-x="-1.3673123"
       sodipodi:nodetypes="ccccccccccccccccc"
       inkscape:connector-curvature="0"
       id="path6727"
       d="m 268.12467,1014.5605 -12.64588,7.4027 c -6.25187,4.3717 -8.40029,-3.7456 -3.30979,-6.8665 l 18.68859,-9.7476 c 5.49407,-3.4729 10.30042,2.511 3.96796,7.2449 l -26.81906,15.0262 c -3.93739,2.2101 -12.59684,-0.8185 -5.92449,-8.4435 l 19.18742,-10.6871 -0.55644,-1.0614 -19.15133,10.5716 c -5.75386,3.8882 -3.8548,13.9856 6.05177,11.0828 l 28.90202,-16.2148 c 5.22622,-3.7477 1.96008,-12.8317 -5.7585,-8.7721 l -19.28863,10.4019 c -5.8479,3.259 -4.3575,12.7223 4.21655,8.2274 l 12.6856,-7.3269 z"
       style="fill:#4d4d4d;fill-opacity:1;fill-rule:evenodd;stroke:none" />
    <path
       style="fill:#656565;fill-opacity:1;fill-rule:evenodd;stroke:none"
       d="m 235.82679,1005.8056 5.68765,13.5044 c 3.51768,6.7693 -4.81073,7.8391 -7.24,2.3846 l -7.22321,-19.8016 c -2.7256,-5.9006 3.83485,-9.88423 7.70109,-2.98769 l 11.39465,28.55189 c 1.67696,4.1922 -2.4567,12.382 -9.14497,4.7709 l -8.08948,-20.4189 -1.12494,0.413 7.97965,20.3681 c 3.10339,6.2124 13.36239,5.6484 11.77837,-4.5524 l -12.3011,-30.77229 c -3.03301,-5.67092 -12.46581,-3.61923 -9.44909,4.56349 l 7.79352,20.482 c 2.46733,6.2234 12.0442,5.9818 8.70767,-3.1059 l -5.60725,-13.5339 z"
       id="path6731"
       inkscape:connector-curvature="0"
       sodipodi:nodetypes="ccccccccccccccccc"
       inkscape:transform-center-x="13.528416"
       inkscape:transform-center-y="30.989809" />
    <path
       style="fill:#4d4d4d;fill-opacity:1;fill-rule:evenodd;stroke:none"
       d="m 270.58898,997.49463 -5.6228,13.53157 c -2.35046,7.2576 -8.95966,2.0783 -6.78123,-3.4811 l 9.02874,-19.04637 c 2.28801,-6.08367 9.73076,-4.20906 7.53445,3.38605 l -12.33079,28.16022 c -1.80784,4.1376 -10.54181,6.9441 -9.818,-3.1622 l 8.86011,-20.09645 -1.08397,-0.51106 -8.90099,19.98261 c -2.24477,6.5716 5.3597,13.4808 11.51131,5.1908 l 13.27545,-30.36466 c 1.90862,-6.14132 -6.17515,-11.41766 -9.88377,-3.52443 l -9.11279,19.93009 c -2.69925,6.1264 4.19677,12.7762 8.32528,4.0199 l 5.70023,-13.49505 z"
       id="path6733"
       inkscape:connector-curvature="0"
       sodipodi:nodetypes="ccccccccccccccccc"
       inkscape:transform-center-x="-1.3673123"
       inkscape:transform-center-y="1.4235722" />
    <path
       style="fill:#656565;fill-opacity:1;fill-rule:evenodd;stroke:none"
       d="m 213.09233,1000.7932 11.11209,9.552 c 6.16684,4.4909 -0.81108,9.1616 -5.41746,5.3624 l -15.29413,-14.504 c -5.07051,-4.06645 -0.97432,-10.55724 5.56122,-6.10787 l 22.92941,20.47657 c 3.37017,3.0048 3.32153,12.1786 -6.05861,8.3478 l -16.34478,-14.6703 -0.82281,0.8712 16.22379,14.6738 c 5.54778,4.1771 14.47922,-0.9017 8.51323,-9.3263 l -24.73075,-22.05992 c -5.24327,-3.72379 -12.77186,2.31833 -6.42329,8.29772 l 16.10804,14.8588 c 4.98327,4.4705 13.44782,-0.016 6.40952,-6.6625 l -11.05327,-9.6142 z"
       id="path6741"
       inkscape:connector-curvature="0"
       sodipodi:nodetypes="ccccccccccccccccc"
       inkscape:transform-center-x="-21.932229"
       inkscape:transform-center-y="25.747472" />
  </g>
</svg>
