<?xml version="1.0" encoding="UTF-8" standalone="no"?>
<!-- Created with Inkscape (http://www.inkscape.org/) -->

<svg
   xmlns:dc="http://purl.org/dc/elements/1.1/"
   xmlns:cc="http://creativecommons.org/ns#"
   xmlns:rdf="http://www.w3.org/1999/02/22-rdf-syntax-ns#"
   xmlns:svg="http://www.w3.org/2000/svg"
   xmlns="http://www.w3.org/2000/svg"
   xmlns:sodipodi="http://sodipodi.sourceforge.net/DTD/sodipodi-0.dtd"
   xmlns:inkscape="http://www.inkscape.org/namespaces/inkscape"
   width="6in"
   height="4in"
   viewBox="0 0 540.00001 360.00001"
   id="svg4154"
   version="1.1"
   inkscape:version="0.91 r13725"
   sodipodi:docname="make-america-sick-again.svg"
   inkscape:export-filename="/Users/jslate/personal/postcards/defend-public-education-books.png"
   inkscape:export-xdpi="93.5"
   inkscape:export-ydpi="93.5">
  <defs
     id="defs4156">
    <marker
       inkscape:stockid="Arrow1Lend"
       orient="auto"
       refY="0"
       refX="0"
       id="marker5531"
       style="overflow:visible"
       inkscape:isstock="true">
      <path
         id="path5533"
         d="M 0,0 5,-5 -12.5,0 5,5 0,0 Z"
         style="fill:#000000;fill-opacity:1;fill-rule:evenodd;stroke:#000000;stroke-width:1pt;stroke-opacity:1"
         transform="matrix(-0.8,0,0,-0.8,-10,0)"
         inkscape:connector-curvature="0" />
    </marker>
    <marker
       inkscape:stockid="Arrow1Lstart"
       orient="auto"
       refY="0"
       refX="0"
       id="Arrow1Lstart"
       style="overflow:visible"
       inkscape:isstock="true">
      <path
         id="path5271"
         d="M 0,0 5,-5 -12.5,0 5,5 0,0 Z"
         style="fill:#000000;fill-opacity:1;fill-rule:evenodd;stroke:#000000;stroke-width:1pt;stroke-opacity:1"
         transform="matrix(0.8,0,0,0.8,10,0)"
         inkscape:connector-curvature="0" />
    </marker>
    <marker
       inkscape:stockid="Arrow1Lend"
       orient="auto"
       refY="0"
       refX="0"
       id="Arrow1Lend"
       style="overflow:visible"
       inkscape:isstock="true">
      <path
         id="path5274"
         d="M 0,0 5,-5 -12.5,0 5,5 0,0 Z"
         style="fill:#000000;fill-opacity:1;fill-rule:evenodd;stroke:#000000;stroke-width:1pt;stroke-opacity:1"
         transform="matrix(-0.8,0,0,-0.8,-10,0)"
         inkscape:connector-curvature="0" />
    </marker>
  </defs>
  <sodipodi:namedview
     id="base"
     pagecolor="#ffffff"
     bordercolor="#666666"
     borderopacity="1.0"
     inkscape:pageopacity="1"
     inkscape:pageshadow="2"
     inkscape:zoom="1.1906786"
     inkscape:cx="304.15575"
     inkscape:cy="179.97378"
     inkscape:document-units="px"
     inkscape:current-layer="layer1"
     showgrid="false"
     units="in"
     inkscape:window-width="1436"
     inkscape:window-height="855"
     inkscape:window-x="0"
     inkscape:window-y="1"
     inkscape:window-maximized="1"
     fit-margin-top="0.25"
     fit-margin-left="0.25"
     fit-margin-right="0.25"
     fit-margin-bottom="0.25" />
  <metadata
     id="metadata4159">
    <rdf:RDF>
      <cc:Work
         rdf:about="">
        <dc:format>image/svg+xml</dc:format>
        <dc:type
           rdf:resource="http://purl.org/dc/dcmitype/StillImage" />
        <dc:title />
      </cc:Work>
    </rdf:RDF>
  </metadata>
  <g
     inkscape:label="Layer 1"
     inkscape:groupmode="layer"
     id="layer1"
     transform="translate(22.500007,-714.86211)">
    <g
       style="font-style:normal;font-weight:normal;font-size:87.97978973px;line-height:120.00000477%;font-family:sans-serif;text-align:center;letter-spacing:0px;word-spacing:0px;text-anchor:middle;fill:#000000;fill-opacity:1;stroke:none;stroke-width:1px;stroke-linecap:butt;stroke-linejoin:miter;stroke-opacity:1"
       id="text4181">
      <path
         d="m 106.72281,784.44232 q 0.65985,0.18329 1.24638,0.25661 0.6232,0.0367 1.06309,0.0367 0.69651,0 1.3197,-0.14664 0.65985,-0.18329 1.13641,-0.58653 0.47655,-0.40324 0.76982,-1.06309 0.29327,-0.6965 0.29327,-1.75959 0,-1.09975 -0.32993,-1.79626 -0.29326,-0.73316 -0.80648,-1.1364 -0.51322,-0.40324 -1.20972,-0.54988 -0.65985,-0.14663 -1.39302,-0.14663 -1.06308,0 -2.08952,0.21995 l 0,6.6718 z m -6.26856,16.86279 q 0.10998,-3.48253 0.14664,-6.9284 0.0367,-3.48254 0.0367,-6.59849 0,-4.43565 -0.0733,-8.4314 -0.0367,-3.99575 -0.10998,-8.02815 1.79626,-0.18329 3.59251,-0.29327 1.83291,-0.14663 3.59251,-0.14663 2.52942,0 4.72891,0.40324 2.1995,0.40324 3.81246,1.50299 1.64962,1.06309 2.60274,3.00597 0.95311,1.90623 0.95311,4.91221 0,2.78603 -0.80648,4.76557 -0.80648,1.94289 -2.27281,3.18927 -1.42967,1.20972 -3.44588,1.75959 -2.0162,0.54988 -4.4723,0.54988 -0.62319,0 -1.09975,-0.0367 -0.4399,-0.0367 -0.98977,-0.10997 0,2.63939 0.0367,5.24213 0.0366,2.60273 0.21995,5.24212 l -6.45186,0 z"
         style="font-style:normal;font-variant:normal;font-weight:normal;font-stretch:normal;font-size:36.6582489px;font-family:Ranchers;-inkscape-font-specification:Ranchers"
         id="path4162" />
      <path
         d="m 126.57669,770.47553 q -0.18329,5.09549 -0.29326,10.33762 -0.0733,5.24213 -0.0733,11.14411 0,2.49276 0,4.03241 0,1.50299 0,2.49276 0,0.95311 0,1.5763 0.0367,0.58654 0.0367,1.24638 l -5.49874,0 q 0.10998,-3.22592 0.14663,-7.55159 0.0367,-4.32568 0.0367,-10.04436 0,-2.49277 0,-4.2157 0,-1.7596 -0.0367,-3.18927 0,-1.42967 0,-2.74937 0,-1.35635 0,-3.07929 l 5.68203,0 z"
         style="font-style:normal;font-variant:normal;font-weight:normal;font-stretch:normal;font-size:36.6582489px;font-family:Ranchers;-inkscape-font-specification:Ranchers"
         id="path4164" />
      <path
         d="m 135.60436,789.75777 q 0.47656,1.5763 1.5763,2.56607 1.09975,0.98978 3.04264,0.98978 0.58653,0 1.24638,-0.0733 0.69651,-0.10997 1.35635,-0.25661 0.65985,-0.18329 1.24638,-0.36658 0.58654,-0.21995 1.02644,-0.40324 0.0733,1.06309 0.0733,2.27281 0.0367,1.17306 0.0367,2.34613 0,1.94289 -0.10997,3.48253 -2.85935,1.39302 -6.4152,1.39302 -1.64962,0 -3.3359,-0.36659 -1.68628,-0.36658 -3.26258,-1.39301 -1.39302,-0.91646 -2.30947,-2.12618 -0.8798,-1.24638 -1.39302,-2.52942 -0.51321,-1.3197 -0.6965,-2.56608 -0.18329,-1.24638 -0.18329,-2.23615 0,-1.46633 0.32992,-3.04263 0.36658,-1.61297 1.09975,-3.04264 0.73316,-1.46633 1.86957,-2.67605 1.1364,-1.20972 2.67605,-1.90623 1.86957,-0.84314 3.95909,-0.84314 2.1995,0 3.95909,0.8798 1.7596,0.8798 2.85935,2.41944 1.06309,1.46633 1.31969,3.26259 0.29327,1.79625 0.29327,4.2157 l -10.26431,0 z m 2.08952,-6.81844 q -0.76982,0 -1.46633,0.65985 -0.69651,0.62319 -0.91646,2.23615 l 4.80223,0 q -0.14663,-1.46633 -0.87979,-2.16283 -0.69651,-0.73317 -1.53965,-0.73317 z"
         style="font-style:normal;font-variant:normal;font-weight:normal;font-stretch:normal;font-size:36.6582489px;font-family:Ranchers;-inkscape-font-specification:Ranchers"
         id="path4166" />
      <path
         d="m 165.02031,801.30511 -5.02218,0 0,-1.79625 q -1.3197,1.06309 -2.78603,1.64962 -1.46633,0.54988 -2.85934,0.54988 -1.64962,0 -3.04263,-0.80649 -1.39302,-0.80648 -2.41945,-2.23615 -0.98977,-1.46633 -1.5763,-3.48253 -0.58653,-2.01621 -0.58653,-4.39899 0,-2.49276 0.62319,-4.6556 0.62319,-2.16284 1.68628,-3.73914 1.09974,-1.61296 2.56607,-2.49276 1.50299,-0.91646 3.22593,-0.91646 1.50299,0 2.85934,0.65985 1.35636,0.62319 2.30947,1.5763 l 0,-1.83291 5.20547,0 -0.18329,21.92163 z m -11.29074,-13.23362 q 0,1.50299 0.80648,2.41944 0.84314,0.91646 2.12618,0.91646 1.39301,0 2.34613,-0.98978 0.98977,-0.98977 0.98977,-2.52941 0,-0.69651 -0.25661,-1.3197 -0.21995,-0.62319 -0.65984,-1.06309 -0.4399,-0.47656 -1.02644,-0.73317 -0.58653,-0.2566 -1.24638,-0.2566 -1.31969,0 -2.19949,0.98977 -0.8798,0.98977 -0.8798,2.56608 z"
         style="font-style:normal;font-variant:normal;font-weight:normal;font-stretch:normal;font-size:36.6582489px;font-family:Ranchers;-inkscape-font-specification:Ranchers"
         id="path4168" />
      <path
         d="m 168.98513,780.73984 q 1.24638,-0.98978 2.67605,-1.35636 1.42967,-0.40324 2.896,-0.40324 1.06309,0 2.08952,0.18329 1.06309,0.18329 2.01621,0.47656 0.0733,2.23615 0.0733,3.66582 0.0367,1.39302 0.0367,2.16284 0,1.09975 -0.0367,1.57631 -0.0367,0.43989 -0.0733,0.84314 -0.0733,0 -0.36659,-0.0733 -0.29326,-0.0733 -0.6965,-0.14663 -0.40324,-0.0733 -0.8798,-0.10998 -0.4399,-0.0733 -0.8798,-0.0733 -0.65985,0 -1.1364,0.1833 -0.4399,0.14663 -0.4399,0.62319 0,0.40324 0.29326,0.76982 0.29327,0.32992 0.69651,0.69651 0.4399,0.32992 0.91646,0.65984 0.51321,0.29327 0.95311,0.54988 0.98977,0.65985 1.83291,1.79625 0.8798,1.09975 0.8798,2.93266 0,1.61297 -0.73316,2.74937 -0.69651,1.13641 -1.79626,1.86957 -1.09975,0.73317 -2.49276,1.06309 -1.35635,0.32993 -2.67605,0.32993 -0.51322,0 -1.17307,-0.0367 -0.65984,-0.0367 -1.35635,-0.14664 -0.65985,-0.10997 -1.3197,-0.2566 -0.65985,-0.18329 -1.20972,-0.4399 -0.18329,-0.62319 -0.25661,-1.3197 -0.0733,-0.73316 -0.0733,-1.42967 0,-0.32993 0,-0.80648 0.0367,-0.47656 0.0733,-0.95312 0.0367,-0.51321 0.10998,-0.98977 0.0733,-0.47656 0.14663,-0.80648 0.40324,0.18329 0.91646,0.40324 0.54987,0.18329 1.1364,0.36658 0.58653,0.18329 1.13641,0.32993 0.58653,0.10997 1.09974,0.10997 0.73317,0 1.13641,-0.29327 0.40324,-0.29326 0.40324,-0.80648 0,-0.4399 -0.25661,-0.76982 -0.2566,-0.36658 -0.62319,-0.65985 -0.36658,-0.32992 -0.80648,-0.54987 -0.4399,-0.25661 -0.80648,-0.4399 -0.69651,-0.36658 -1.42967,-0.80648 -0.73317,-0.4399 -1.3197,-1.06309 -0.58653,-0.65985 -0.95311,-1.57631 -0.36659,-0.91645 -0.36659,-2.23615 0,-1.53965 0.58654,-3.07929 0.62319,-1.53965 2.05286,-2.71271 z"
         style="font-style:normal;font-variant:normal;font-weight:normal;font-stretch:normal;font-size:36.6582489px;font-family:Ranchers;-inkscape-font-specification:Ranchers"
         id="path4170" />
      <path
         d="m 188.30059,789.75777 q 0.47656,1.5763 1.57631,2.56607 1.09975,0.98978 3.04263,0.98978 0.58654,0 1.24638,-0.0733 0.69651,-0.10997 1.35636,-0.25661 0.65985,-0.18329 1.24638,-0.36658 0.58653,-0.21995 1.02643,-0.40324 0.0733,1.06309 0.0733,2.27281 0.0367,1.17306 0.0367,2.34613 0,1.94289 -0.10998,3.48253 -2.85934,1.39302 -6.41519,1.39302 -1.64962,0 -3.3359,-0.36659 -1.68628,-0.36658 -3.26259,-1.39301 -1.39301,-0.91646 -2.30947,-2.12618 -0.87979,-1.24638 -1.39301,-2.52942 -0.51322,-1.3197 -0.69651,-2.56608 -0.18329,-1.24638 -0.18329,-2.23615 0,-1.46633 0.32993,-3.04263 0.36658,-1.61297 1.09974,-3.04264 0.73317,-1.46633 1.86957,-2.67605 1.13641,-1.20972 2.67606,-1.90623 1.86957,-0.84314 3.95909,-0.84314 2.19949,0 3.95909,0.8798 1.75959,0.8798 2.85934,2.41944 1.06309,1.46633 1.3197,3.26259 0.29326,1.79625 0.29326,4.2157 l -10.26431,0 z m 2.08953,-6.81844 q -0.76983,0 -1.46633,0.65985 -0.69651,0.62319 -0.91646,2.23615 l 4.80223,0 q -0.14663,-1.46633 -0.8798,-2.16283 -0.69651,-0.73317 -1.53964,-0.73317 z"
         style="font-style:normal;font-variant:normal;font-weight:normal;font-stretch:normal;font-size:36.6582489px;font-family:Ranchers;-inkscape-font-specification:Ranchers"
         id="path4172" />
      <path
         d="m 221.79764,801.30511 -5.02218,0 0,-1.79625 q -1.3197,1.06309 -2.78603,1.64962 -1.46633,0.54988 -2.85934,0.54988 -1.64962,0 -3.04263,-0.80649 -1.39302,-0.80648 -2.41945,-2.23615 -0.98977,-1.46633 -1.5763,-3.48253 -0.58654,-2.01621 -0.58654,-4.39899 0,-2.49276 0.62319,-4.6556 0.62319,-2.16284 1.68628,-3.73914 1.09975,-1.61296 2.56608,-2.49276 1.50299,-0.91646 3.22593,-0.91646 1.50299,0 2.85934,0.65985 1.35636,0.62319 2.30947,1.5763 l 0,-10.74086 5.20547,0 -0.18329,30.82958 z M 210.5069,788.07149 q 0,1.50299 0.80648,2.41944 0.84314,0.91646 2.12618,0.91646 1.39301,0 2.34613,-0.98978 0.98977,-0.98977 0.98977,-2.52941 0,-0.69651 -0.25661,-1.3197 -0.21995,-0.62319 -0.65985,-1.06309 -0.4399,-0.47656 -1.02643,-0.73317 -0.58653,-0.2566 -1.24638,-0.2566 -1.31969,0 -2.19949,0.98977 -0.8798,0.98977 -0.8798,2.56608 z"
         style="font-style:normal;font-variant:normal;font-weight:normal;font-stretch:normal;font-size:36.6582489px;font-family:Ranchers;-inkscape-font-specification:Ranchers"
         id="path4174" />
      <path
         d="m 231.55446,778.98024 q 4.47231,0 6.37854,2.93266 1.94288,2.93266 1.94288,8.4314 0,5.53539 -1.94288,8.46805 -1.90623,2.89601 -6.37854,2.89601 -4.50896,0 -6.45185,-2.89601 -1.90623,-2.93266 -1.90623,-8.46805 0,-5.49874 1.90623,-8.4314 1.94289,-2.93266 6.45185,-2.93266 z m 0,14.11343 q 0.73317,0 1.28304,-0.29327 0.58653,-0.29326 0.95311,-0.76982 0.36659,-0.47656 0.54988,-1.06309 0.18329,-0.62319 0.18329,-1.28304 0,-0.65985 -0.18329,-1.28304 -0.18329,-0.62319 -0.54988,-1.09975 -0.36658,-0.47655 -0.95311,-0.76982 -0.54987,-0.29327 -1.28304,-0.29327 -1.50299,0 -2.27281,1.06309 -0.73317,1.06309 -0.73317,2.38279 0,0.65985 0.1833,1.28304 0.18329,0.58653 0.54987,1.06309 0.40324,0.47656 0.95311,0.76982 0.54988,0.29327 1.3197,0.29327 z"
         style="font-style:normal;font-variant:normal;font-weight:normal;font-stretch:normal;font-size:36.6582489px;font-family:Ranchers;-inkscape-font-specification:Ranchers"
         id="path4176" />
      <path
         d="m 246.52993,779.38348 0,1.97955 q 0.87979,-1.09975 2.12617,-1.72294 1.28304,-0.65985 2.60274,-0.65985 1.61296,0 2.85934,0.8798 1.24638,0.8798 1.64962,2.08952 0.1833,0.54987 0.29327,1.53965 0.14663,0.95311 0.14663,2.16283 l 0,15.65307 -5.38876,0 0,-10.63089 q 0,-1.64962 -0.62319,-2.19949 -0.58653,-0.58653 -1.39301,-0.58653 -1.06309,0 -1.68628,0.6965 -0.58653,0.65985 -0.58653,1.72294 l 0,10.99747 -5.31545,0 q 0,-1.20972 0,-2.52941 0.0367,-1.35636 0.0367,-2.67606 0,-1.35635 0,-2.67605 0,-1.3197 0,-2.49276 0,-0.69651 0,-2.08952 0,-1.39301 -0.0367,-3.04263 0,-1.64963 0,-3.37256 0,-1.72294 0,-3.04264 l 5.31545,0 z"
         style="font-style:normal;font-variant:normal;font-weight:normal;font-stretch:normal;font-size:36.6582489px;font-family:Ranchers;-inkscape-font-specification:Ranchers"
         id="path4178" />
      <path
         d="m 257.20722,770.47553 5.05884,0 -0.80648,10.99747 -3.44588,0 -0.80648,-10.99747 z"
         style="font-style:normal;font-variant:normal;font-weight:normal;font-stretch:normal;font-size:36.6582489px;font-family:Ranchers;-inkscape-font-specification:Ranchers"
         id="path4180" />
      <path
         d="m 265.52922,775.13113 5.02218,0 0,4.25235 2.82268,0 0,9.7511 -2.896,0 0,5.13215 q 0,1.50299 0.25661,2.0162 0.25661,0.47656 1.17306,0.47656 0.25661,0 0.69651,-0.0367 0.4399,-0.0367 0.65985,-0.10997 0.0733,0.25661 0.0733,1.06309 0,0.76982 0,1.5763 0,0.69651 0,1.28304 0,0.54988 -0.0367,0.76982 -0.4399,0.0733 -0.98978,0.10998 -0.51321,0.0733 -1.02643,0.10997 -0.47655,0.0367 -0.91645,0.0367 -0.40324,0.0367 -0.65985,0.0367 -1.3197,0 -2.16284,-0.51321 -0.84314,-0.51322 -1.31969,-1.35636 -0.47656,-0.8798 -0.65985,-1.94289 -0.18329,-1.09974 -0.18329,-2.23615 0,-0.4399 0,-1.28304 0.0367,-0.8798 0.0367,-1.83291 0.0367,-0.95312 0.0733,-1.83291 0.0367,-0.91646 0.0367,-1.46633 l -2.1995,0 0,-9.7511 2.1995,0 0,-4.25235 z"
         style="font-style:normal;font-variant:normal;font-weight:normal;font-stretch:normal;font-size:36.6582489px;font-family:Ranchers;-inkscape-font-specification:Ranchers"
         id="path4182" />
      <path
         d="m 285.02338,770.47553 q -0.1833,5.09549 -0.29327,10.33762 -0.0733,5.24213 -0.0733,11.14411 0,2.49276 0,4.03241 0,1.50299 0,2.49276 0,0.95311 0,1.5763 0.0367,0.58654 0.0367,1.24638 l -5.49874,0 q 0.10998,-3.22592 0.14664,-7.55159 0.0367,-4.32568 0.0367,-10.04436 0,-2.49277 0,-4.2157 0,-1.7596 -0.0367,-3.18927 0,-1.42967 0,-2.74937 0,-1.35635 0,-3.07929 l 5.68203,0 z"
         style="font-style:normal;font-variant:normal;font-weight:normal;font-stretch:normal;font-size:36.6582489px;font-family:Ranchers;-inkscape-font-specification:Ranchers"
         id="path4184" />
      <path
         d="m 294.05104,789.75777 q 0.47656,1.5763 1.57631,2.56607 1.09975,0.98978 3.04263,0.98978 0.58654,0 1.24638,-0.0733 0.69651,-0.10997 1.35636,-0.25661 0.65985,-0.18329 1.24638,-0.36658 0.58653,-0.21995 1.02643,-0.40324 0.0733,1.06309 0.0733,2.27281 0.0367,1.17306 0.0367,2.34613 0,1.94289 -0.10998,3.48253 -2.85934,1.39302 -6.41519,1.39302 -1.64962,0 -3.3359,-0.36659 -1.68628,-0.36658 -3.26259,-1.39301 -1.39301,-0.91646 -2.30947,-2.12618 -0.87979,-1.24638 -1.39301,-2.52942 -0.51322,-1.3197 -0.69651,-2.56608 -0.18329,-1.24638 -0.18329,-2.23615 0,-1.46633 0.32993,-3.04263 0.36658,-1.61297 1.09974,-3.04264 0.73317,-1.46633 1.86957,-2.67605 1.13641,-1.20972 2.67606,-1.90623 1.86957,-0.84314 3.95909,-0.84314 2.19949,0 3.95909,0.8798 1.75959,0.8798 2.85934,2.41944 1.06309,1.46633 1.3197,3.26259 0.29326,1.79625 0.29326,4.2157 l -10.26431,0 z m 2.08953,-6.81844 q -0.76983,0 -1.46633,0.65985 -0.69651,0.62319 -0.91646,2.23615 l 4.80223,0 q -0.14663,-1.46633 -0.8798,-2.16283 -0.69651,-0.73317 -1.53964,-0.73317 z"
         style="font-style:normal;font-variant:normal;font-weight:normal;font-stretch:normal;font-size:36.6582489px;font-family:Ranchers;-inkscape-font-specification:Ranchers"
         id="path4186" />
      <path
         d="m 307.55733,775.13113 5.02218,0 0,4.25235 2.82268,0 0,9.7511 -2.896,0 0,5.13215 q 0,1.50299 0.25661,2.0162 0.2566,0.47656 1.17306,0.47656 0.25661,0 0.69651,-0.0367 0.4399,-0.0367 0.65985,-0.10997 0.0733,0.25661 0.0733,1.06309 0,0.76982 0,1.5763 0,0.69651 0,1.28304 0,0.54988 -0.0367,0.76982 -0.4399,0.0733 -0.98977,0.10998 -0.51321,0.0733 -1.02643,0.10997 -0.47656,0.0367 -0.91646,0.0367 -0.40324,0.0367 -0.65984,0.0367 -1.3197,0 -2.16284,-0.51321 -0.84314,-0.51322 -1.3197,-1.35636 -0.47656,-0.8798 -0.65985,-1.94289 -0.18329,-1.09974 -0.18329,-2.23615 0,-0.4399 0,-1.28304 0.0367,-0.8798 0.0367,-1.83291 0.0367,-0.95312 0.0733,-1.83291 0.0367,-0.91646 0.0367,-1.46633 l -2.1995,0 0,-9.7511 2.1995,0 0,-4.25235 z"
         style="font-style:normal;font-variant:normal;font-weight:normal;font-stretch:normal;font-size:36.6582489px;font-family:Ranchers;-inkscape-font-specification:Ranchers"
         id="path4188" />
      <path
         d="m 323.16572,775.13113 5.02218,0 0,4.25235 2.82269,0 0,9.7511 -2.896,0 0,5.13215 q 0,1.50299 0.2566,2.0162 0.25661,0.47656 1.17307,0.47656 0.25661,0 0.69651,-0.0367 0.43989,-0.0367 0.65984,-0.10997 0.0733,0.25661 0.0733,1.06309 0,0.76982 0,1.5763 0,0.69651 0,1.28304 0,0.54988 -0.0367,0.76982 -0.4399,0.0733 -0.98977,0.10998 -0.51322,0.0733 -1.02643,0.10997 -0.47656,0.0367 -0.91646,0.0367 -0.40324,0.0367 -0.65985,0.0367 -1.31969,0 -2.16283,-0.51321 -0.84314,-0.51322 -1.3197,-1.35636 -0.47656,-0.8798 -0.65985,-1.94289 -0.18329,-1.09974 -0.18329,-2.23615 0,-0.4399 0,-1.28304 0.0367,-0.8798 0.0367,-1.83291 0.0367,-0.95312 0.0733,-1.83291 0.0367,-0.91646 0.0367,-1.46633 l -2.19949,0 0,-9.7511 2.19949,0 0,-4.25235 z"
         style="font-style:normal;font-variant:normal;font-weight:normal;font-stretch:normal;font-size:36.6582489px;font-family:Ranchers;-inkscape-font-specification:Ranchers"
         id="path4190" />
      <path
         d="m 338.1492,770.47553 q -0.10997,2.05286 -0.18329,3.59251 -0.0733,1.50298 -0.10998,2.78602 -0.0367,1.24638 -0.0733,2.34613 0,1.06309 0,2.16284 0.8798,-1.09975 2.12618,-1.72294 1.24638,-0.65985 2.52942,-0.65985 0.80648,0 1.53964,0.25661 0.76982,0.21995 1.39301,0.62319 0.6232,0.40324 1.06309,0.98977 0.47656,0.54988 0.69651,1.20972 0.14663,0.51322 0.21995,1.50299 0.10998,0.95312 0.10998,2.08952 l 0,15.65307 -5.38877,0 0,-10.99747 q 0,-1.09975 -0.54987,-1.72294 -0.51322,-0.65985 -1.39301,-0.65985 -0.91646,0 -1.64963,0.58654 -0.6965,0.58653 -0.6965,1.42967 l 0,11.36405 -5.38877,0 q 0.0733,-4.87554 0.0733,-10.41094 0,-5.57205 0,-11.95059 0,-1.97954 0,-3.29924 0,-1.35635 0,-2.27281 0,-0.91646 -0.0367,-1.57631 0,-0.65984 0,-1.31969 l 5.71869,0 z"
         style="font-style:normal;font-variant:normal;font-weight:normal;font-stretch:normal;font-size:36.6582489px;font-family:Ranchers;-inkscape-font-specification:Ranchers"
         id="path4192" />
      <path
         d="m 356.77103,789.75777 q 0.47656,1.5763 1.57631,2.56607 1.09974,0.98978 3.04263,0.98978 0.58653,0 1.24638,-0.0733 0.69651,-0.10997 1.35636,-0.25661 0.65984,-0.18329 1.24638,-0.36658 0.58653,-0.21995 1.02643,-0.40324 0.0733,1.06309 0.0733,2.27281 0.0367,1.17306 0.0367,2.34613 0,1.94289 -0.10997,3.48253 -2.85935,1.39302 -6.4152,1.39302 -1.64962,0 -3.3359,-0.36659 -1.68628,-0.36658 -3.26258,-1.39301 -1.39301,-0.91646 -2.30947,-2.12618 -0.8798,-1.24638 -1.39301,-2.52942 -0.51322,-1.3197 -0.69651,-2.56608 -0.18329,-1.24638 -0.18329,-2.23615 0,-1.46633 0.32992,-3.04263 0.36658,-1.61297 1.09975,-3.04264 0.73316,-1.46633 1.86957,-2.67605 1.13641,-1.20972 2.67605,-1.90623 1.86957,-0.84314 3.95909,-0.84314 2.1995,0 3.95909,0.8798 1.7596,0.8798 2.85935,2.41944 1.06309,1.46633 1.31969,3.26259 0.29327,1.79625 0.29327,4.2157 l -10.26431,0 z m 2.08952,-6.81844 q -0.76982,0 -1.46633,0.65985 -0.69651,0.62319 -0.91646,2.23615 l 4.80224,0 q -0.14664,-1.46633 -0.8798,-2.16283 -0.69651,-0.73317 -1.53965,-0.73317 z"
         style="font-style:normal;font-variant:normal;font-weight:normal;font-stretch:normal;font-size:36.6582489px;font-family:Ranchers;-inkscape-font-specification:Ranchers"
         id="path4194" />
      <path
         d="m 373.75983,779.38348 0,1.94289 q 0.73316,-1.17306 1.94289,-1.7596 1.24638,-0.58653 2.63939,-0.58653 1.3197,0 2.41944,0.58653 1.09975,0.54988 1.68628,1.79626 0.65985,-1.17307 1.97955,-1.7596 1.35636,-0.62319 2.93266,-0.62319 2.38279,0 3.62917,1.53965 1.28304,1.50299 1.28304,5.09549 l 0,15.68973 -5.38877,0 0,-11.25408 q 0,-1.35635 -0.58653,-1.94288 -0.54987,-0.6232 -1.28304,-0.6232 -0.73316,0 -1.35635,0.6232 -0.62319,0.58653 -0.62319,1.64962 l 0,11.54734 -5.38877,0 0,-10.81418 q 0,-1.42967 -0.65984,-2.08952 -0.62319,-0.65985 -1.35636,-0.65985 -0.73316,0 -1.3197,0.65985 -0.54987,0.62319 -0.54987,1.68628 l 0,11.21742 -5.31545,0 q 0,-1.09974 0,-2.4561 0,-1.35635 0,-2.74937 0.0367,-1.39301 0.0367,-2.63939 0,-1.28304 0,-2.23615 0,-0.91646 0,-2.34613 0,-1.46633 -0.0367,-3.11595 0,-1.64962 0,-3.29925 0,-1.68627 0,-3.07929 l 5.31545,0 z"
         style="font-style:normal;font-variant:normal;font-weight:normal;font-stretch:normal;font-size:36.6582489px;font-family:Ranchers;-inkscape-font-specification:Ranchers"
         id="path4196" />
      <path
         d="m 48.566696,852.70291 -11.349393,40.99858 -8.18212,0 -10.645555,-39.85484 q 0.08798,10.73353 0.351919,21.64303 0.35192,10.90949 0.527879,21.29111 l -13.9008065,0 q 0.1759595,-9.06192 0.2639393,-17.94788 0.08798,-8.97394 0.08798,-18.03586 0,-9.06192 -0.08798,-17.94787 -0.08798,-8.97394 -0.2639393,-18.03586 l 18.8276745,0 9.325858,41.26252 10.469595,-41.26252 17.771918,0 q -0.26394,17.94788 -0.26394,35.98373 0,18.03586 0.26394,35.98374 l -14.076767,0 0.879798,-44.07788 z"
         style="font-style:normal;font-variant:normal;font-weight:normal;font-stretch:normal;font-family:Ranchers;-inkscape-font-specification:Ranchers"
         id="path4198" />
      <path
         d="m 108.94832,896.78079 -12.053226,0 0,-4.31101 q -3.167273,2.55141 -6.686464,3.95909 -3.519192,1.31969 -6.862424,1.31969 -3.959091,0 -7.302323,-1.93555 -3.343232,-1.93556 -5.806666,-5.36677 -2.375454,-3.51919 -3.783131,-8.35808 -1.407676,-4.83889 -1.407676,-10.55757 0,-5.98263 1.495656,-11.17344 1.495657,-5.1908 4.04707,-8.97393 2.639394,-3.87112 6.158586,-5.98263 3.607171,-2.19949 7.742221,-2.19949 3.607172,0 6.862424,1.58363 3.255252,1.49566 5.542727,3.78313 l 0,-4.39899 12.493126,0 -0.4399,52.61192 z M 81.85055,865.02008 q 0,3.60717 1.935555,5.80667 2.023535,2.19949 5.102828,2.19949 3.343232,0 5.630706,-2.37545 2.375455,-2.37545 2.375455,-6.07061 0,-1.67161 -0.615859,-3.16727 -0.527879,-1.49565 -1.583636,-2.55141 -1.055758,-1.14374 -2.463434,-1.7596 -1.407677,-0.61586 -2.991313,-0.61586 -3.167273,0 -5.278788,2.37546 -2.111514,2.37545 -2.111514,6.15858 z"
         style="font-style:normal;font-variant:normal;font-weight:normal;font-stretch:normal;font-family:Ranchers;-inkscape-font-specification:Ranchers"
         id="path4200" />
      <path
         d="m 154.18368,844.16887 -14.07677,24.89828 15.04455,27.71364 -15.04455,0 -12.22919,-21.99495 -0.61585,0 q 0,2.55141 0,5.10283 0,2.46343 0,5.10283 0.088,2.63939 0.17595,5.54272 0.088,2.90333 0.17596,6.24657 l -14.51666,0 q 0.4399,-10.82152 0.52788,-24.19445 0.088,-13.4609 0.088,-29.47322 0,-5.36677 0,-8.71 0,-3.34324 0,-5.45475 0,-2.11152 -0.088,-3.43121 0,-1.3197 -0.088,-2.72738 l 14.95656,0 q -0.26394,8.09414 -0.4399,14.60465 -0.17596,6.42252 -0.35192,11.70131 -0.088,5.19081 -0.17596,9.41384 -0.088,4.13505 -0.17596,7.65424 l 0.61586,0 12.14121,-21.99495 14.07677,0 z"
         style="font-style:normal;font-variant:normal;font-weight:normal;font-stretch:normal;font-family:Ranchers;-inkscape-font-specification:Ranchers"
         id="path4202" />
      <path
         d="m 170.31973,869.06715 q 1.14374,3.78313 3.78313,6.15859 2.6394,2.37545 7.30233,2.37545 1.40767,0 2.99131,-0.17596 1.67162,-0.26394 3.25525,-0.61586 1.58364,-0.43989 2.99132,-0.87979 1.40767,-0.52788 2.46343,-0.96778 0.17596,2.55141 0.17596,5.45475 0.088,2.81535 0.088,5.6307 0,4.66293 -0.26394,8.35808 -6.86242,3.34323 -15.39646,3.34323 -3.95909,0 -8.00616,-0.87979 -4.04708,-0.8798 -7.83021,-3.34324 -3.34323,-2.19949 -5.54272,-5.10282 -2.11152,-2.99132 -3.34323,-6.07061 -1.23172,-3.16727 -1.67162,-6.15858 -0.4399,-2.99132 -0.4399,-5.36677 0,-3.51919 0.79182,-7.30232 0.8798,-3.87111 2.63939,-7.30233 1.7596,-3.51919 4.48697,-6.42252 2.72737,-2.90333 6.42253,-4.57495 4.48697,-2.02353 9.50181,-2.02353 5.27879,0 9.50182,2.11151 4.22303,2.11151 6.86242,5.80667 2.55142,3.51919 3.16728,7.8302 0.70383,4.31101 0.70383,10.11767 l -24.63434,0 z m 5.01485,-16.36424 q -1.84757,0 -3.51919,1.58364 -1.67162,1.49565 -2.19949,5.36677 l 11.52535,0 q -0.35192,-3.5192 -2.11152,-5.19081 -1.67161,-1.7596 -3.69515,-1.7596 z"
         style="font-style:normal;font-variant:normal;font-weight:normal;font-stretch:normal;font-family:Ranchers;-inkscape-font-specification:Ranchers"
         id="path4204" />
      <path
         d="m 204.54798,896.78079 13.02101,-71.96747 21.73101,0 12.93303,71.96747 -14.86858,0 -2.1995,-14.42869 -13.54889,0 -2.11151,14.42869 -14.95657,0 z m 19.44354,-30.17707 8.79798,0 -4.39899,-29.03333 -4.39899,29.03333 z"
         style="font-style:normal;font-variant:normal;font-weight:normal;font-stretch:normal;font-family:Ranchers;-inkscape-font-specification:Ranchers"
         id="path4206" />
      <path
         d="m 266.76757,844.16887 0,4.66293 q 1.7596,-2.81535 4.66293,-4.22303 2.99131,-1.40767 6.33454,-1.40767 3.16728,0 5.80667,1.40767 2.63939,1.3197 4.04707,4.31101 1.58364,-2.81535 4.75091,-4.22303 3.25525,-1.49565 7.03838,-1.49565 5.71869,0 8.71,3.69515 3.07929,3.60717 3.07929,12.22919 l 0,37.65535 -12.93303,0 0,-27.0098 q 0,-3.25525 -1.40767,-4.66293 -1.3197,-1.49565 -3.07929,-1.49565 -1.7596,0 -3.25526,1.49565 -1.49565,1.40768 -1.49565,3.95909 l 0,27.71364 -12.93303,0 0,-25.95404 q 0,-3.43121 -1.58364,-5.01485 -1.49565,-1.58364 -3.25525,-1.58364 -1.7596,0 -3.16727,1.58364 -1.3197,1.49566 -1.3197,4.04707 l 0,26.92182 -12.75707,0 q 0,-2.6394 0,-5.89465 0,-3.25525 0,-6.59848 0.088,-3.34324 0.088,-6.33455 0,-3.07929 0,-5.36677 0,-2.19949 0,-5.6307 0,-3.51919 -0.088,-7.47828 0,-3.95909 0,-7.91818 0,-4.04708 0,-7.39031 l 12.75707,0 z"
         style="font-style:normal;font-variant:normal;font-weight:normal;font-stretch:normal;font-family:Ranchers;-inkscape-font-specification:Ranchers"
         id="path4208" />
      <path
         d="m 333.56348,869.06715 q 1.14373,3.78313 3.78313,6.15859 2.63939,2.37545 7.30232,2.37545 1.40768,0 2.99131,-0.17596 1.67162,-0.26394 3.25526,-0.61586 1.58363,-0.43989 2.99131,-0.87979 1.40768,-0.52788 2.46343,-0.96778 0.17596,2.55141 0.17596,5.45475 0.088,2.81535 0.088,5.6307 0,4.66293 -0.26394,8.35808 -6.86242,3.34323 -15.39646,3.34323 -3.95909,0 -8.00616,-0.87979 -4.04707,-0.8798 -7.8302,-3.34324 -3.34323,-2.19949 -5.54273,-5.10282 -2.11151,-2.99132 -3.34323,-6.07061 -1.23172,-3.16727 -1.67162,-6.15858 -0.4399,-2.99132 -0.4399,-5.36677 0,-3.51919 0.79182,-7.30232 0.8798,-3.87111 2.6394,-7.30233 1.75959,-3.51919 4.48697,-6.42252 2.72737,-2.90333 6.42252,-4.57495 4.48697,-2.02353 9.50182,-2.02353 5.27878,0 9.50181,2.11151 4.22303,2.11151 6.86243,5.80667 2.55141,3.51919 3.16727,7.8302 0.70384,4.31101 0.70384,10.11767 l -24.63434,0 z m 5.01485,-16.36424 q -1.84758,0 -3.5192,1.58364 -1.67161,1.49565 -2.19949,5.36677 l 11.52535,0 q -0.35192,-3.5192 -2.11151,-5.19081 -1.67162,-1.7596 -3.69515,-1.7596 z"
         style="font-style:normal;font-variant:normal;font-weight:normal;font-stretch:normal;font-family:Ranchers;-inkscape-font-specification:Ranchers"
         id="path4210" />
      <path
         d="m 372.75296,844.16887 0.61586,6.68647 q 1.05576,-1.67162 2.55142,-3.0793 1.49565,-1.40767 3.07929,-2.37545 1.67162,-1.05576 3.25525,-1.58364 1.67162,-0.61585 3.07929,-0.61585 0.17596,2.28747 0.26394,5.27878 0.17596,2.90334 0.17596,5.98263 0,3.51919 -0.17596,6.9504 -0.088,3.43121 -0.26394,6.33455 -0.79181,-0.35192 -2.19949,-0.52788 -1.40768,-0.17596 -2.37545,-0.17596 -3.25526,0 -4.83889,1.58363 -1.49566,1.49566 -1.49566,3.78314 l 0,24.3704 -12.93303,0 q 0.088,-14.25273 0.088,-27.0098 0.088,-12.84505 0.088,-25.60212 l 11.08545,0 z"
         style="font-style:normal;font-variant:normal;font-weight:normal;font-stretch:normal;font-family:Ranchers;-inkscape-font-specification:Ranchers"
         id="path4212" />
      <path
         d="m 389.33304,845.57655 12.93303,0 0,51.20424 -12.93303,0 0,-51.20424 z m 6.77444,-21.81899 q 2.11152,0 3.78313,0.8798 1.7596,0.79182 2.90334,2.11151 1.14373,1.3197 1.75959,2.99132 0.61586,1.58363 0.61586,3.07929 0,2.02354 -0.79182,3.78313 -0.70384,1.67162 -2.02353,2.99131 -1.23172,1.23172 -2.90334,2.02354 -1.58363,0.70384 -3.43121,0.70384 -2.28747,0 -4.04707,-0.70384 -1.75959,-0.79182 -2.99131,-1.93556 -1.14374,-1.23171 -1.7596,-2.81535 -0.52788,-1.58364 -0.52788,-3.25525 0,-1.67162 0.61586,-3.43121 0.70384,-1.7596 1.84758,-3.16728 1.23172,-1.49565 2.99131,-2.37545 1.7596,-0.8798 3.95909,-0.8798 z"
         style="font-style:normal;font-variant:normal;font-weight:normal;font-stretch:normal;font-family:Ranchers;-inkscape-font-specification:Ranchers"
         id="path4214" />
      <path
         d="m 431.22655,843.2011 q 5.1908,0 9.41383,1.49565 0,1.49566 0,3.25525 0.088,1.67162 0.088,3.43122 0,1.84757 -0.088,3.69515 0,1.84757 0,3.43121 -2.90333,-2.46344 -7.12636,-2.46344 -2.63939,0 -4.39899,0.8798 -1.75959,0.79182 -2.90333,2.11152 -1.05576,1.31969 -1.49566,2.90333 -0.4399,1.49566 -0.4399,2.90333 0,1.93556 0.70384,3.69515 0.70384,1.67162 1.93556,2.99132 1.23171,1.31969 2.81535,2.11151 1.67162,0.70384 3.51919,0.70384 1.7596,0 3.69515,-0.70384 1.93556,-0.70384 3.69515,-1.93555 0,2.90333 0,6.0706 0.088,3.0793 0.088,6.24657 0,3.07929 -0.088,6.33454 0,3.16727 0,6.33455 -4.92686,1.05575 -9.76575,1.05575 -5.98263,0 -10.64556,-1.84757 -4.66293,-1.93556 -7.91818,-5.45475 -3.25525,-3.51919 -5.01485,-8.53404 -1.67161,-5.10283 -1.67161,-11.34939 0,-5.89465 1.58363,-10.90949 1.58364,-5.10283 4.75091,-8.71 3.25525,-3.60717 8.00616,-5.63071 4.83889,-2.11151 11.26142,-2.11151 z"
         style="font-style:normal;font-variant:normal;font-weight:normal;font-stretch:normal;font-family:Ranchers;-inkscape-font-specification:Ranchers"
         id="path4216" />
      <path
         d="m 487.33015,896.78079 -12.05324,0 0,-4.31101 q -3.16727,2.55141 -6.68646,3.95909 -3.51919,1.31969 -6.86242,1.31969 -3.95909,0 -7.30233,-1.93555 -3.34323,-1.93556 -5.80666,-5.36677 -2.37546,-3.51919 -3.78313,-8.35808 -1.40768,-4.83889 -1.40768,-10.55757 0,-5.98263 1.49566,-11.17344 1.49565,-5.1908 4.04707,-8.97393 2.63939,-3.87112 6.15858,-5.98263 3.60717,-2.19949 7.74222,-2.19949 3.60718,0 6.86243,1.58363 3.25525,1.49566 5.54272,3.78313 l 0,-4.39899 12.49313,0 -0.43989,52.61192 z m -27.09778,-31.76071 q 0,3.60717 1.93556,5.80667 2.02353,2.19949 5.10282,2.19949 3.34324,0 5.63071,-2.37545 2.37545,-2.37545 2.37545,-6.07061 0,-1.67161 -0.61585,-3.16727 -0.52788,-1.49565 -1.58364,-2.55141 -1.05576,-1.14374 -2.46343,-1.7596 -1.40768,-0.61586 -2.99132,-0.61586 -3.16727,0 -5.27878,2.37546 -2.11152,2.37545 -2.11152,6.15858 z"
         style="font-style:normal;font-variant:normal;font-weight:normal;font-stretch:normal;font-family:Ranchers;-inkscape-font-specification:Ranchers"
         id="path4218" />
      <path
         d="m 63.170654,948.24897 q 0,-5.63071 2.111515,-9.23788 2.199495,-3.69515 5.454747,-5.80667 3.343232,-2.19949 7.302322,-2.99131 4.047071,-0.8798 7.742222,-0.8798 1.055757,0 2.639394,0.088 1.671616,0.088 3.431211,0.26394 1.847576,0.17596 3.695152,0.52788 1.935555,0.26394 3.607171,0.79182 0.17596,2.28747 0.263939,4.31101 0.08798,1.93555 0.08798,4.48697 0,2.55141 -0.08798,4.92687 -0.08798,2.28747 -0.263939,4.39899 -0.703838,-0.088 -1.847576,-0.26394 -1.055757,-0.17596 -2.287474,-0.26394 -1.143737,-0.088 -2.375454,-0.17596 -1.143738,-0.088 -2.199495,-0.088 -4.22303,0 -6.158585,1.31969 -1.935556,1.3197 -1.935556,3.60718 0,1.31969 0.615859,2.55141 0.615858,1.14374 1.583636,2.19949 1.055757,1.05576 2.287474,2.02354 1.319697,0.96778 2.639394,1.84758 2.111515,1.49565 4.22303,3.34323 2.199495,1.75959 3.959091,4.31101 1.759595,2.46343 2.903328,5.80666 1.14374,3.25526 1.14374,7.56627 0,5.6307 -1.935553,9.50181 -1.935556,3.87111 -5.014849,6.33455 -2.991312,2.37543 -6.774443,3.51923 -3.695151,1.0557 -7.390303,1.0557 -1.671616,0 -4.13505,-0.2639 -2.375454,-0.176 -4.838888,-0.6159 -2.463434,-0.3519 -4.662929,-0.8798 -2.199495,-0.6158 -3.519192,-1.4077 -0.351919,-1.58359 -0.615858,-3.25521 -0.17596,-1.67161 -0.17596,-3.69515 0,-1.40768 0.08798,-3.43121 0.17596,-2.02354 0.351919,-4.13505 0.17596,-2.11152 0.351919,-4.04707 0.26394,-1.93556 0.439899,-3.25525 0.967778,0.52788 2.815354,1.23171 1.847575,0.61586 3.95909,1.23172 2.199495,0.61586 4.39899,1.05576 2.199494,0.4399 3.87111,0.4399 2.815354,0 4.22303,-1.14374 1.407677,-1.23172 1.407677,-3.25525 0,-2.1995 -1.583636,-3.87111 -1.583637,-1.7596 -3.959091,-3.43122 -2.375454,-1.67161 -5.190807,-3.51919 -2.727374,-1.93555 -5.102828,-4.48697 -2.375455,-2.55141 -3.959091,-5.98262 -1.583636,-3.51919 -1.583636,-8.35808 z"
         style="font-style:normal;font-variant:normal;font-weight:normal;font-stretch:normal;font-family:Ranchers;-inkscape-font-specification:Ranchers"
         id="path4220" />
      <path
         d="m 104.51566,951.1523 12.93303,0 0,51.2042 -12.93303,0 0,-51.2042 z m 6.77444,-21.81899 q 2.11152,0 3.78313,0.8798 1.7596,0.79182 2.90333,2.11152 1.14374,1.31969 1.7596,2.99131 0.61586,1.58364 0.61586,3.07929 0,2.02354 -0.79182,3.78313 -0.70384,1.67162 -2.02353,2.99132 -1.23172,1.23171 -2.90334,2.02353 -1.58363,0.70384 -3.43121,0.70384 -2.28747,0 -4.04707,-0.70384 -1.7596,-0.79182 -2.99131,-1.93555 -1.14374,-1.23172 -1.7596,-2.81536 -0.52788,-1.58363 -0.52788,-3.25525 0,-1.67162 0.61586,-3.43121 0.70384,-1.7596 1.84758,-3.16727 1.23171,-1.49566 2.99131,-2.37546 1.7596,-0.8798 3.95909,-0.8798 z"
         style="font-style:normal;font-variant:normal;font-weight:normal;font-stretch:normal;font-family:Ranchers;-inkscape-font-specification:Ranchers"
         id="path4222" />
      <path
         d="m 146.40916,948.77685 q 5.1908,0 9.41383,1.49565 0,1.49566 0,3.25526 0.088,1.67161 0.088,3.43121 0,1.84757 -0.088,3.69515 0,1.84757 0,3.43121 -2.90333,-2.46343 -7.12636,-2.46343 -2.63939,0 -4.39899,0.87979 -1.75959,0.79182 -2.90333,2.11152 -1.05576,1.3197 -1.49566,2.90333 -0.4399,1.49566 -0.4399,2.90334 0,1.93555 0.70384,3.69515 0.70384,1.67161 1.93556,2.99131 1.23171,1.3197 2.81535,2.11151 1.67162,0.70384 3.51919,0.70384 1.7596,0 3.69515,-0.70384 1.93556,-0.70383 3.69515,-1.93555 0,2.90333 0,6.0706 0.088,3.0793 0.088,6.24657 0,3.07929 -0.088,6.33454 0,3.16728 0,6.33459 -4.92686,1.0557 -9.76575,1.0557 -5.98263,0 -10.64556,-1.8476 -4.66293,-1.93551 -7.91818,-5.45471 -3.25525,-3.51919 -5.01485,-8.53404 -1.67161,-5.10282 -1.67161,-11.34939 0,-5.89464 1.58363,-10.90949 1.58364,-5.10283 4.75091,-8.71 3.25526,-3.60717 8.00616,-5.63071 4.83889,-2.11151 11.26142,-2.11151 z"
         style="font-style:normal;font-variant:normal;font-weight:normal;font-stretch:normal;font-family:Ranchers;-inkscape-font-specification:Ranchers"
         id="path4224" />
      <path
         d="m 200.6652,949.74462 -14.07677,24.89829 15.04454,27.71359 -15.04454,0 -12.22919,-21.99491 -0.61586,0 q 0,2.55142 0,5.10283 0,2.46343 0,5.10283 0.088,2.63939 0.17596,5.54272 0.088,2.90334 0.17596,6.24653 l -14.51667,0 q 0.4399,-10.82148 0.52788,-24.1944 0.088,-13.46091 0.088,-29.47323 0,-5.36677 0,-8.71 0,-3.34323 0,-5.45475 0,-2.11151 -0.088,-3.43121 0,-1.3197 -0.088,-2.72737 l 14.95657,0 q -0.26394,8.09414 -0.4399,14.60464 -0.17596,6.42253 -0.35192,11.70131 -0.088,5.19081 -0.17596,9.41384 -0.088,4.13505 -0.17596,7.65424 l 0.61586,0 12.14121,-21.99495 14.07677,0 z"
         style="font-style:normal;font-variant:normal;font-weight:normal;font-stretch:normal;font-family:Ranchers;-inkscape-font-specification:Ranchers"
         id="path4226" />
      <path
         d="m 209.4453,1002.3565 13.02101,-71.96743 21.73101,0 12.93303,71.96743 -14.86859,0 -2.19949,-14.42865 -13.54889,0 -2.11151,14.42865 -14.95657,0 z m 19.44353,-30.17703 8.79798,0 -4.39899,-29.03333 -4.39899,29.03333 z"
         style="font-style:normal;font-variant:normal;font-weight:normal;font-stretch:normal;font-family:Ranchers;-inkscape-font-specification:Ranchers"
         id="path4228" />
      <path
         d="m 288.74946,996.19795 q -3.34323,2.6394 -6.15859,3.78313 -2.72737,1.14372 -5.98262,1.14372 -4.39899,0 -8.00616,-1.75957 -3.60718,-1.84758 -6.24657,-5.01485 -2.55141,-3.25525 -4.04707,-7.74222 -1.40768,-4.48697 -1.40768,-9.85374 0,-5.80667 1.58364,-10.82151 1.67162,-5.10283 4.48697,-8.88596 2.90333,-3.87111 6.68646,-6.07061 3.78313,-2.19949 8.09414,-2.19949 6.42253,0 10.99748,5.36676 l 0,-4.39899 12.49313,0 0,28.3295 q 0,7.8302 -0.26394,13.28495 -0.17596,5.45474 -0.61586,8.62201 -1.3197,9.32582 -7.12636,14.25272 -5.71869,5.0149 -15.13253,5.0149 -3.95909,0 -7.56626,-0.8798 -3.51919,-0.8798 -6.5105,-2.5515 l 0,-10.8215 q 6.42252,3.2553 12.84505,3.2553 5.80666,0 8.79797,-2.4634 3.0793,-2.4635 3.0793,-7.03843 l 0,-2.55142 z m -15.04455,-25.60212 q 0,3.60718 1.93556,5.80667 1.93555,2.1995 5.10283,2.1995 1.67161,0 3.07929,-0.61586 1.49566,-0.70384 2.55141,-1.84758 1.14374,-1.14374 1.7596,-2.63939 0.61586,-1.58364 0.61586,-3.34323 0,-1.67162 -0.61586,-3.16728 -0.52788,-1.49565 -1.58364,-2.55141 -1.05576,-1.14374 -2.46343,-1.7596 -1.40768,-0.61585 -2.99131,-0.61585 -3.16728,0 -5.27879,2.37545 -2.11152,2.37545 -2.11152,6.15858 z"
         style="font-style:normal;font-variant:normal;font-weight:normal;font-stretch:normal;font-family:Ranchers;-inkscape-font-specification:Ranchers"
         id="path4230" />
      <path
         d="m 348.05746,1002.3565 -12.05323,0 0,-4.31097 q -3.16727,2.55137 -6.68646,3.95907 -3.51919,1.3197 -6.86242,1.3197 -3.9591,0 -7.30233,-1.9355 -3.34323,-1.93559 -5.80666,-5.36681 -2.37546,-3.51919 -3.78313,-8.35808 -1.40768,-4.83888 -1.40768,-10.55757 0,-5.98263 1.49566,-11.17343 1.49565,-5.19081 4.04707,-8.97394 2.63939,-3.87111 6.15858,-5.98263 3.60717,-2.19949 7.74222,-2.19949 3.60717,0 6.86243,1.58363 3.25525,1.49566 5.54272,3.78313 l 0,-4.39899 12.49313,0 -0.4399,52.61188 z m -27.09777,-31.76067 q 0,3.60718 1.93555,5.80667 2.02354,2.1995 5.10283,2.1995 3.34323,0 5.63071,-2.37546 2.37545,-2.37545 2.37545,-6.0706 0,-1.67162 -0.61586,-3.16728 -0.52787,-1.49565 -1.58363,-2.55141 -1.05576,-1.14374 -2.46344,-1.7596 -1.40767,-0.61585 -2.99131,-0.61585 -3.16727,0 -5.27879,2.37545 -2.11151,2.37545 -2.11151,6.15858 z"
         style="font-style:normal;font-variant:normal;font-weight:normal;font-stretch:normal;font-family:Ranchers;-inkscape-font-specification:Ranchers"
         id="path4232" />
      <path
         d="m 352.64616,951.1523 12.93303,0 0,51.2042 -12.93303,0 0,-51.2042 z m 6.77444,-21.81899 q 2.11152,0 3.78313,0.8798 1.7596,0.79182 2.90334,2.11152 1.14373,1.31969 1.75959,2.99131 0.61586,1.58364 0.61586,3.07929 0,2.02354 -0.79182,3.78313 -0.70384,1.67162 -2.02353,2.99132 -1.23172,1.23171 -2.90334,2.02353 -1.58363,0.70384 -3.43121,0.70384 -2.28747,0 -4.04707,-0.70384 -1.75959,-0.79182 -2.99131,-1.93555 -1.14374,-1.23172 -1.7596,-2.81536 -0.52788,-1.58363 -0.52788,-3.25525 0,-1.67162 0.61586,-3.43121 0.70384,-1.7596 1.84758,-3.16727 1.23171,-1.49566 2.99131,-2.37546 1.7596,-0.8798 3.95909,-0.8798 z"
         style="font-style:normal;font-variant:normal;font-weight:normal;font-stretch:normal;font-family:Ranchers;-inkscape-font-specification:Ranchers"
         id="path4234" />
      <path
         d="m 383.01431,949.74462 0,4.75091 q 2.11152,-2.63939 5.10283,-4.13505 3.07929,-1.58363 6.24657,-1.58363 3.87111,0 6.86242,2.11151 2.99131,2.11152 3.95909,5.01485 0.4399,1.3197 0.70384,3.69515 0.35192,2.28748 0.35192,5.19081 l 0,37.56733 -12.93303,0 0,-25.5141 q 0,-3.95909 -1.49566,-5.27879 -1.40767,-1.40767 -3.34323,-1.40767 -2.55141,0 -4.04707,1.67161 -1.40768,1.58364 -1.40768,4.13505 l 0,26.3939 -12.75707,0 q 0,-2.90329 0,-6.07057 0.088,-3.25525 0.088,-6.42252 0,-3.25525 0,-6.42253 0,-3.16727 0,-5.98262 0,-1.67162 0,-5.01485 0,-3.34323 -0.088,-7.30232 0,-3.95909 0,-8.09414 0,-4.13505 0,-7.30233 l 12.75707,0 z"
         style="font-style:normal;font-variant:normal;font-weight:normal;font-stretch:normal;font-family:Ranchers;-inkscape-font-specification:Ranchers"
         id="path4236" />
      <path
         d="m 429.29442,929.86119 -4.31101,45.83747 -10.64555,0 0,-47.33312 14.95656,1.49565 z m -10.46959,54.54747 q 2.19949,0 3.87111,0.8798 1.75959,0.8798 2.90333,2.28747 1.23172,1.3197 1.84758,2.99132 0.61585,1.58363 0.61585,3.07929 0,1.93556 -0.79181,3.69515 -0.70384,1.7596 -2.02354,3.07931 -1.23172,1.3197 -2.99131,2.1115 -1.67162,0.7918 -3.51919,0.7918 -2.37546,0 -4.13505,-0.7918 -1.7596,-0.7038 -2.90334,-1.9356 -1.14373,-1.31965 -1.75959,-2.90329 -0.52788,-1.58364 -0.52788,-3.25525 0,-1.7596 0.61586,-3.51919 0.61586,-1.84758 1.75959,-3.25526 1.23172,-1.49565 2.99132,-2.37545 1.75959,-0.8798 4.04707,-0.8798 z"
         style="font-style:normal;font-variant:normal;font-weight:normal;font-stretch:normal;font-family:Ranchers;-inkscape-font-specification:Ranchers"
         id="path4238" />
    </g>
  </g>
</svg>
