<?xml version="1.0" encoding="UTF-8" standalone="no"?>
<!-- Created with Inkscape (http://www.inkscape.org/) -->

<svg
   xmlns:dc="http://purl.org/dc/elements/1.1/"
   xmlns:cc="http://creativecommons.org/ns#"
   xmlns:rdf="http://www.w3.org/1999/02/22-rdf-syntax-ns#"
   xmlns:svg="http://www.w3.org/2000/svg"
   xmlns="http://www.w3.org/2000/svg"
   xmlns:sodipodi="http://sodipodi.sourceforge.net/DTD/sodipodi-0.dtd"
   xmlns:inkscape="http://www.inkscape.org/namespaces/inkscape"
   width="28in"
   height="22in"
   viewBox="0 0 2520 1980"
   id="svg2"
   version="1.1"
   inkscape:version="0.91 r13725"
   sodipodi:docname="reading-on-phone.svg">
  <defs
     id="defs4" />
  <sodipodi:namedview
     id="base"
     pagecolor="#ffffff"
     bordercolor="#666666"
     borderopacity="1.0"
     inkscape:pageopacity="0.0"
     inkscape:pageshadow="2"
     inkscape:zoom="0.175"
     inkscape:cx="1939.7031"
     inkscape:cy="634.28571"
     inkscape:document-units="px"
     inkscape:current-layer="g4238"
     showgrid="false"
     inkscape:window-width="1436"
     inkscape:window-height="855"
     inkscape:window-x="0"
     inkscape:window-y="1"
     inkscape:window-maximized="1"
     units="in" />
  <metadata
     id="metadata7">
    <rdf:RDF>
      <cc:Work
         rdf:about="">
        <dc:format>image/svg+xml</dc:format>
        <dc:type
           rdf:resource="http://purl.org/dc/dcmitype/StillImage" />
        <dc:title></dc:title>
      </cc:Work>
    </rdf:RDF>
  </metadata>
  <g
     inkscape:label="Layer 1"
     inkscape:groupmode="layer"
     id="layer1"
     transform="translate(0,927.63785)">
    <g
       id="g4208"
       transform="matrix(1.2244498,0,0,1.2244498,-282.80676,-55.679224)">
      <g
         id="g4238"
         transform="matrix(1.2737446,0,0,1.2737446,-344.91819,-134.42626)">
        <g
           id="g4375"
           transform="matrix(11.780413,0,0,11.780413,565.46964,-277.93638)">
          <rect
             ry="3.5433068"
             rx="17.716532"
             y="0"
             x="0"
             height="77.952759"
             width="46.062992"
             id="rect5015"
             style="opacity:1;fill:#000000;fill-opacity:1;fill-rule:nonzero;stroke:none;stroke-width:2.0999999;stroke-linecap:round;stroke-linejoin:round;stroke-miterlimit:4;stroke-dasharray:none;stroke-opacity:1" />
          <circle
             r="3.5433083"
             cy="70.86615"
             cx="23.227612"
             id="path5017"
             style="opacity:1;fill:#ffffff;fill-opacity:1;fill-rule:nonzero;stroke:none;stroke-width:2.0999999;stroke-linecap:round;stroke-linejoin:round;stroke-miterlimit:4;stroke-dasharray:none;stroke-opacity:1" />
          <rect
             ry="5.042969e-06"
             rx="0"
             y="7.0866089"
             x="3.5433083"
             height="56.692932"
             width="38.976376"
             id="rect5019"
             style="opacity:1;fill:#ffffff;fill-opacity:1;fill-rule:nonzero;stroke:none;stroke-width:2.0999999;stroke-linecap:round;stroke-linejoin:round;stroke-miterlimit:4;stroke-dasharray:none;stroke-opacity:1" />
        </g>
        <g
           transform="scale(0.75961054,1.3164641)"
           style="font-style:normal;font-weight:normal;font-size:141.49443054px;line-height:117.99999475%;font-family:sans-serif;text-align:start;letter-spacing:0px;word-spacing:0px;text-anchor:start;fill:#000000;fill-opacity:1;stroke:none;stroke-width:1px;stroke-linecap:butt;stroke-linejoin:miter;stroke-opacity:1"
           id="text4380">
          <path
             d="m 923.94169,-28.331215 -8.63614,7.116175 q -1.51996,-1.589049 -10.77789,-11.95241 -9.25794,-10.432451 -28.53379,-32.471867 l 0.0691,-0.621801 q 2.62538,-0.690891 6.97799,-2.970831 4.35261,-2.349028 7.32344,-5.043502 2.5563,-2.349029 4.42171,-5.803483 1.93449,-3.454454 1.93449,-9.257936 0,-5.319859 -2.83265,-9.119758 -2.76357,-3.868992 -7.66889,-5.665302 -4.00717,-1.51996 -8.42887,-1.79632 -4.4217,-0.34544 -8.15251,-0.34544 -2.48721,0 -3.7999,0.0691 -1.31269,0 -1.93449,0 -0.13818,13.12693 -0.20727,23.144846 0,10.017916 0,14.163261 0,9.465203 0.0691,25.701137 0.13818,16.235933 0.20727,20.381277 l -11.3997,0 q 0.0691,-4.145344 0.20727,-16.028666 0.13817,-11.95241 0.13817,-29.708303 0,-3.454454 0,-12.781479 0,-9.327026 -0.34544,-33.991823 0.69089,0 6.90891,-0.13818 6.21801,-0.13818 11.46878,-0.13818 6.01075,0 11.67606,0.69089 5.6653,0.69089 11.05425,2.97083 6.83982,2.90174 10.84699,8.56705 4.00716,5.596212 4.00716,13.196011 0,9.810649 -6.07984,16.374111 -6.01075,6.494374 -11.39969,9.672471 l 0,0.345446 q 9.4652,11.054252 20.72672,22.799395 11.33061,11.745143 12.15968,12.643301 z"
             style="font-style:normal;font-variant:normal;font-weight:100;font-stretch:normal;font-family:Skia;-inkscape-font-specification:'Skia Thin'"
             id="path5031" />
          <path
             d="m 992.8235,-60.319458 -49.9514,0 q 0.0691,7.323443 3.10901,13.47237 3.03991,6.079839 9.32702,10.087006 4.00717,2.556296 9.11976,3.868988 5.11259,1.243603 12.29785,1.243603 3.93808,0 7.18527,-0.207267 3.31627,-0.207267 4.07625,-0.276356 l -1.2436,9.188847 q -0.55271,0.06909 -3.66172,0.207267 -3.10901,0.207268 -7.32344,0.207268 -11.05425,0 -19.27586,-2.832652 -8.15251,-2.901742 -13.40328,-7.945244 -4.49079,-4.214434 -7.66888,-10.777896 -3.10901,-6.563463 -3.10901,-14.577796 0,-7.876155 2.34903,-14.23235 2.34903,-6.356195 7.04708,-11.814232 4.07626,-4.698057 10.08701,-7.254353 6.07984,-2.556296 12.57421,-2.556296 6.42528,0 11.3997,1.934494 4.97441,1.934494 8.63613,5.872572 4.07626,4.421701 6.21802,10.916074 2.14176,6.425284 2.21085,15.475953 z m -10.70881,-7.737976 q -1.10542,-8.567046 -5.87257,-13.403281 -4.69806,-4.905325 -12.43603,-4.905325 -7.73798,0 -12.91966,4.974414 -5.18168,4.905324 -7.18526,13.334192 l 38.41352,0 z"
             style="font-style:normal;font-variant:normal;font-weight:100;font-stretch:normal;font-family:Skia;-inkscape-font-specification:'Skia Thin'"
             id="path5033" />
          <path
             d="m 1059.3563,-62.184863 q 0,17.134091 -0.069,27.911988 -0.069,10.777896 -0.069,11.606965 -0.6909,0.06909 -6.4253,0.483623 -5.7344,0.483624 -14.785,0.483624 -5.6653,0 -11.3997,-1.036337 -5.7344,-1.036336 -9.8798,-2.97083 -5.5271,-2.556296 -8.9816,-6.977997 -3.3853,-4.421701 -3.3853,-10.639718 0,-6.563462 4.0071,-11.330608 4.0763,-4.836236 11.2616,-7.807066 4.4908,-1.865405 11.9524,-3.316276 7.5307,-1.519959 17.1341,-2.279939 -0.4146,-5.388948 -2.6945,-8.843402 -2.2799,-3.454454 -6.7016,-5.25077 -3.04,-1.243603 -6.7708,-1.727227 -3.7308,-0.552713 -8.7052,-0.552713 -3.109,0 -5.3199,0.138179 -2.1417,0.138178 -5.8725,0.345445 l 1.1054,-9.188847 q 1.0363,-0.06909 4.0762,-0.207268 3.1091,-0.207267 8.4289,-0.207267 8.1525,0 14.5087,1.727227 6.4253,1.658138 10.6397,5.458037 3.9381,3.592632 5.9417,8.912491 2.0036,5.25077 2.0036,15.268686 z m -10.5706,16.650468 q 0,-2.349029 0,-5.941661 0,-3.592632 -0.069,-8.290689 -3.04,0.138178 -10.6398,1.243603 -7.5997,1.036337 -12.7814,3.03992 -3.869,1.45087 -6.9089,4.352612 -2.9709,2.901741 -2.9709,7.185264 0,4.698057 2.5563,7.599798 2.5563,2.832652 6.978,4.352612 3.3854,1.174514 7.4616,1.727227 4.1454,0.483624 8.7053,0.483624 1.3818,0 3.3853,-0.06909 2.0036,-0.06909 4.2145,-0.138179 0,-0.483623 0,-4.559879 0.069,-4.076255 0.069,-10.985163 z"
             style="font-style:normal;font-variant:normal;font-weight:100;font-stretch:normal;font-family:Skia;-inkscape-font-specification:'Skia Thin'"
             id="path5035" />
          <path
             d="m 1137.1506,-21.698663 q -0.4146,0 -2.6254,0 -2.2109,0.06909 -3.5235,0.06909 -13.0579,0 -20.4504,-1.174515 -7.3925,-1.105425 -14.4396,-4.49079 -9.1889,-4.421701 -13.956,-11.745143 -4.7672,-7.323442 -4.7672,-16.305022 0,-10.50154 5.3199,-18.584962 5.3198,-8.152511 15.3378,-12.71239 5.8725,-2.763563 13.4723,-4.145345 7.5998,-1.45087 14.9233,-1.45087 l -0.2073,-31.850069 10.9161,0 q 0,1.38179 -0.1382,19.34495 -0.1382,17.963156 -0.1382,36.409939 0,14.577796 0.069,26.392028 0.1382,11.745143 0.2073,20.2431 z m -10.7088,-48.569622 q 0,-2.763563 0,-6.079839 0,-3.316275 0,-6.70164 -6.9089,0 -13.0579,1.174514 -6.0798,1.174515 -10.4324,3.178098 -6.9089,3.178097 -10.7088,9.119758 -3.7999,5.872572 -3.7999,13.817815 0,7.116175 3.6617,12.228767 3.6617,5.112592 9.1198,8.014333 4.7671,2.556296 10.7088,3.868988 6.0107,1.243604 12.5742,1.243604 0.4836,0 0.8981,0 0.4146,0 0.8982,0 0,-0.621802 0.069,-10.294273 0.069,-9.74156 0.069,-29.570125 z"
             style="font-style:normal;font-variant:normal;font-weight:100;font-stretch:normal;font-family:Skia;-inkscape-font-specification:'Skia Thin'"
             id="path5037" />
          <path
             d="m 1174.8041,-106.12552 -12.1596,0 0,-11.88332 12.1596,0 0,11.88332 z m -0.6218,83.321431 -10.916,0 q 0.069,-1.105425 0.1381,-13.610548 0.1382,-12.505123 0.1382,-20.657634 0,-7.116175 -0.069,-15.614131 0,-8.567046 -0.2072,-20.035833 l 10.916,0 q -0.1381,9.948827 -0.2763,18.654051 -0.069,8.636135 -0.069,15.406864 0,16.097755 0.1382,25.839315 0.2072,9.74156 0.2072,10.017916 z"
             style="font-style:normal;font-variant:normal;font-weight:100;font-stretch:normal;font-family:Skia;-inkscape-font-specification:'Skia Thin'"
             id="path5039" />
          <path
             d="m 1257.4347,-22.804089 -10.9161,0 q 0.069,-1.934494 0.1382,-12.781479 0.1381,-10.846985 0.1381,-13.403281 0,-3.592632 -0.069,-10.570629 0,-7.047086 -0.069,-10.294272 -0.2073,-7.945244 -3.04,-11.399698 -2.8326,-3.454454 -9.8106,-3.454454 -4.2144,0 -10.4325,2.487207 -6.218,2.487207 -12.5742,6.356195 0,0.75998 -0.069,8.2216 -0.069,7.461621 -0.069,13.610548 0,8.014333 0.1382,19.344942 0.2073,11.330609 0.2073,11.883321 l -10.9161,0 q 0,-0.483623 0.1382,-8.428867 0.1382,-8.014333 0.1382,-23.766643 0,-7.254353 -0.069,-16.995913 0,-9.74156 -0.2073,-20.726723 l 10.7779,0 -0.069,7.945244 0.069,0.138178 q 9.6725,-5.527126 16.0978,-7.668887 6.4943,-2.210851 10.7779,-2.210851 8.8434,0 14.1632,5.596215 5.389,5.527127 5.389,15.199597 0,8.705224 -0.1382,15.061419 -0.069,6.287106 -0.069,10.225184 0,6.287106 0.1382,15.752309 0.2073,9.396115 0.2073,9.879738 z"
             style="font-style:normal;font-variant:normal;font-weight:100;font-stretch:normal;font-family:Skia;-inkscape-font-specification:'Skia Thin'"
             id="path5041" />
          <path
             d="m 1335.0217,-93.344037 q 0,1.51996 -0.1382,13.679638 -0.069,12.159677 -0.069,23.144841 0,7.46162 0.069,15.199597 0.069,7.737976 0.069,14.163261 0,11.814232 -4.0762,18.5158723 -4.0072,6.7016405 -11.4688,10.708807 -5.8726,3.0399194 -14.3015,4.7671463 -8.4288,1.796316 -20.4503,1.796316 l -1.1054,-8.7743128 q 8.0834,-0.13817816 14.5087,-0.898158 6.4252,-0.6908908 11.676,-2.6253849 8.0834,-3.0399195 11.2615,-8.0834219 3.1781,-4.974414 3.3163,-12.159678 -0.8291,0 -1.6581,0 -0.8291,0 -1.6582,0 -8.2216,0 -16.9268,-1.934494 -8.7052,-2.003583 -14.8541,-6.287106 -6.0799,-4.076256 -9.8798,-10.639718 -3.7999,-6.563462 -3.7999,-16.235933 0,-9.672471 5.3199,-17.065002 5.3198,-7.392532 14.2323,-11.745143 6.3562,-3.109009 13.8178,-4.283523 7.5308,-1.243604 18.1705,-1.243604 1.9345,0 3.7999,0 1.9345,0 4.1453,0 z m -10.5706,36.75539 q 0,-4.974414 -0.069,-12.436034 0,-7.461621 -0.1382,-15.545043 -0.4145,0 -0.8981,0 -0.4837,0 -0.8982,0 -6.4253,0 -11.2615,0.829069 -4.7672,0.829069 -10.087,3.109009 -7.0471,3.039919 -10.7779,8.912491 -3.7308,5.872571 -3.7308,13.265102 0,7.599799 3.6617,12.988747 3.7308,5.388948 9.9488,8.359778 4.2145,2.003584 9.7416,3.247187 5.5962,1.243603 11.8142,1.243603 0.76,0 1.3818,0 0.6218,0 1.1745,0 0,-0.829069 0.069,-7.668887 0.069,-6.908908 0.069,-16.305022 z"
             style="font-style:normal;font-variant:normal;font-weight:100;font-stretch:normal;font-family:Skia;-inkscape-font-specification:'Skia Thin'"
             id="path5043" />
          <path
             d="m 887.11721,135.59229 -1.24361,8.77431 q -0.48362,0.0691 -2.41811,0.13818 -1.86541,0.0691 -3.24719,0.0691 -14.16326,0 -21.41761,-5.87258 -7.25436,-5.94166 -7.25436,-18.17042 0,-7.66889 0.0691,-16.4432 0.13818,-8.774316 0.13818,-21.763062 l -11.60696,0 0,-8.083422 12.22876,0 0,-16.374112 10.01792,0 0,16.374112 24.73389,0 0,8.083422 -24.73389,0 q 0,1.45087 -0.13818,8.636134 -0.0691,7.185264 -0.0691,10.639718 0,2.90174 0,7.11618 0,4.21443 0,10.01791 0,8.98158 4.83624,12.98875 4.83623,3.93808 14.92324,3.93808 1.2436,0 2.97083,0 1.72722,-0.0691 2.21085,-0.0691 z"
             style="font-style:normal;font-variant:normal;font-weight:100;font-stretch:normal;font-family:Skia;-inkscape-font-specification:'Skia Thin'"
             id="path5045" />
          <path
             d="m 962.00977,144.15933 -10.91608,0 q 0.0691,-2.07267 0.13818,-12.43603 0.13818,-10.43245 0.13818,-13.74873 0,-3.59263 -0.0691,-10.57063 0,-7.04708 -0.0691,-10.29427 -0.20726,-7.945244 -3.03992,-11.399697 -2.83265,-3.454454 -9.81065,-3.454454 -3.93807,0 -10.087,2.418117 -6.14893,2.349029 -12.98875,6.425285 l 0.27636,53.060409 -10.91608,0 q 0.0691,-2.69447 0.13818,-21.69397 0.13818,-19.06858 0.13818,-31.366439 0,-8.014333 -0.0691,-20.174011 0,-12.228767 -0.20727,-28.050165 l 10.91608,0 -0.27636,39.311685 0.0691,0.06909 q 9.87974,-5.527127 16.16685,-7.668888 6.2871,-2.141761 10.77789,-2.141761 8.8434,0 14.16326,5.596215 5.38895,5.527126 5.38895,15.199597 0,8.705228 -0.13818,15.061418 -0.0691,6.28711 -0.0691,10.22518 0,6.28711 0.13818,14.43962 0.13818,8.15251 0.20727,11.19243 z"
             style="font-style:normal;font-variant:normal;font-weight:100;font-stretch:normal;font-family:Skia;-inkscape-font-specification:'Skia Thin'"
             id="path5047" />
          <path
             d="m 999.04151,60.837905 -12.15967,0 0,-11.883322 12.15967,0 0,11.883322 z m -0.6218,83.321425 -10.91607,0 q 0.0691,-1.10542 0.13818,-13.61055 0.13817,-12.50512 0.13817,-20.65763 0,-7.11618 -0.0691,-15.614132 0,-8.567045 -0.20727,-20.035832 l 10.91607,0 q -0.13818,9.948827 -0.27635,18.654051 -0.0691,8.636133 -0.0691,15.406863 0,16.09776 0.13818,25.83932 0.20726,9.74156 0.20726,10.01791 z"
             style="font-style:normal;font-variant:normal;font-weight:100;font-stretch:normal;font-family:Skia;-inkscape-font-specification:'Skia Thin'"
             id="path5049" />
          <path
             d="m 1062.3271,123.91623 q 0,5.11259 -2.4872,9.11976 -2.4872,4.00717 -6.4944,6.49437 -4.2144,2.62539 -10.0179,4.00717 -5.7344,1.31269 -12.7124,1.31269 -3.3853,0 -7.0471,-0.34544 -3.5926,-0.27636 -4.0762,-0.34545 l -0.4146,-9.05067 q 0.6218,0.0691 4.7672,0.41454 4.2144,0.27635 8.3598,0.27635 2.4181,0 6.218,-0.41453 3.7999,-0.41454 6.2871,-1.51996 3.4544,-1.51996 5.1126,-3.73081 1.6581,-2.21085 1.6581,-5.31986 0,-2.83265 -1.4508,-4.55988 -1.4509,-1.79631 -4.0072,-3.45445 -2.7636,-1.86541 -7.5998,-3.93808 -4.7672,-2.14176 -8.0143,-4.07626 -4.629,-2.83265 -7.1162,-6.70164 -2.4181,-3.868984 -2.4181,-8.981576 0,-5.112592 2.7635,-9.188847 2.8327,-4.076256 7.5307,-6.563463 4.0763,-2.21085 8.9816,-2.901741 4.9744,-0.75998 9.6034,-0.75998 4.2144,0 6.9089,0.138178 2.6945,0.138178 3.109,0.138178 l 0.76,9.188848 q -0.4836,0 -4.2835,-0.276357 -3.7308,-0.276356 -8.2216,-0.276356 -3.1781,0 -6.0799,0.552713 -2.8326,0.552712 -4.8362,1.589048 -2.9708,1.51996 -4.2835,3.661722 -1.2436,2.141761 -1.2436,4.145344 0,2.763563 1.7963,4.767147 1.7963,2.003583 4.2144,3.385362 2.8327,1.65814 7.738,3.93808 4.9053,2.27994 7.1162,3.66172 4.8362,3.03992 7.3234,6.77073 2.5563,3.73081 2.5563,8.8434 z"
             style="font-style:normal;font-variant:normal;font-weight:100;font-stretch:normal;font-family:Skia;-inkscape-font-specification:'Skia Thin'"
             id="path5051" />
          <path
             d="m 1178.604,109.20026 q 0,8.01433 -2.9017,15.33777 -2.8327,7.32345 -8.2216,12.50513 -4.5599,4.35261 -10.1561,6.63255 -5.5271,2.27994 -12.5742,2.27994 -6.6326,0 -12.4361,-2.21085 -5.8034,-2.27994 -10.3633,-6.63255 -5.2508,-5.04351 -8.1525,-12.43604 -2.8327,-7.39253 -2.8327,-15.61413 0,-7.94524 2.4181,-14.577795 2.4872,-6.70164 7.6689,-12.021499 4.629,-4.836236 10.7779,-7.392531 6.1489,-2.625385 12.9888,-2.625385 7.1852,0 12.9887,2.418117 5.8726,2.349029 10.4325,7.116175 5.2507,5.458037 7.807,12.297856 2.5563,6.770732 2.5563,14.923242 z m -11.0542,0.48362 q 0,-6.49437 -2.1418,-12.643299 -2.0727,-6.148928 -6.4944,-10.363361 -2.6944,-2.625385 -6.4253,-4.007167 -3.6617,-1.45087 -7.6688,-1.45087 -4.7672,0 -8.2907,1.519959 -3.5236,1.51996 -6.6326,4.767147 -3.6617,3.73081 -5.8035,9.534292 -2.0726,5.803479 -2.0726,12.021499 0,7.04709 2.1417,12.98875 2.1418,5.87257 6.9089,10.15609 2.6945,2.41812 6.2181,3.73081 3.5235,1.24361 7.4616,1.24361 4.3526,0 8.0834,-1.51996 3.7999,-1.51996 6.6325,-4.42171 3.9381,-4.00716 6.0108,-9.67247 2.0727,-5.6653 2.0727,-11.88332 z"
             style="font-style:normal;font-variant:normal;font-weight:100;font-stretch:normal;font-family:Skia;-inkscape-font-specification:'Skia Thin'"
             id="path5053" />
          <path
             d="m 1254.9475,144.15933 -10.9161,0 q 0.069,-1.93449 0.1382,-12.78148 0.1382,-10.84698 0.1382,-13.40328 0,-3.59263 -0.069,-10.57063 0,-7.04708 -0.069,-10.29427 -0.2073,-7.945244 -3.0399,-11.399697 -2.8327,-3.454454 -9.8107,-3.454454 -4.2144,0 -10.4324,2.487206 -6.2181,2.487207 -12.5743,6.356196 0,0.759979 -0.069,8.2216 -0.069,7.461619 -0.069,13.610549 0,8.01433 0.1381,19.34494 0.2073,11.33061 0.2073,11.88332 l -10.9161,0 q 0,-0.48362 0.1382,-8.42887 0.1382,-8.01433 0.1382,-23.76664 0,-7.25435 -0.069,-16.995911 0,-9.74156 -0.2073,-20.726723 l 10.7779,0 -0.069,7.945244 0.069,0.138178 q 9.6725,-5.527126 16.0978,-7.668888 6.4944,-2.21085 10.7779,-2.21085 8.8434,0 14.1632,5.596215 5.389,5.527126 5.389,15.199597 0,8.705228 -0.1382,15.061418 -0.069,6.28711 -0.069,10.22518 0,6.28711 0.1382,15.75231 0.2073,9.39612 0.2073,9.87974 z"
             style="font-style:normal;font-variant:normal;font-weight:100;font-stretch:normal;font-family:Skia;-inkscape-font-specification:'Skia Thin'"
             id="path5055" />
          <path
             d="m 1363.0719,104.77856 q 0,17.13409 -0.069,27.91199 -0.069,10.77789 -0.069,11.60696 -0.6909,0.0691 -6.4253,0.48362 -5.7344,0.48363 -14.7851,0.48363 -5.6653,0 -11.3997,-1.03634 -5.7344,-1.03634 -9.8797,-2.97083 -5.5271,-2.5563 -8.9816,-6.978 -3.3853,-4.4217 -3.3853,-10.63971 0,-6.56347 4.0071,-11.33061 4.0763,-4.83624 11.2615,-7.80707 4.4908,-1.8654 11.9525,-3.31627 7.5307,-1.519964 17.134,-2.279944 -0.4145,-5.388948 -2.6944,-8.843402 -2.28,-3.454453 -6.7017,-5.250769 -3.0399,-1.243604 -6.7707,-1.727227 -3.7308,-0.552713 -8.7052,-0.552713 -3.109,0 -5.3199,0.138178 -2.1417,0.138178 -5.8726,0.345446 l 1.1055,-9.188848 q 1.0363,-0.06909 4.0762,-0.207267 3.109,-0.207267 8.4289,-0.207267 8.1525,0 14.5087,1.727227 6.4253,1.658138 10.6397,5.458037 3.9381,3.592632 5.9417,8.912491 2.0036,5.25077 2.0036,15.268688 z m -10.5707,16.65047 q 0,-2.34903 0,-5.94167 0,-3.59263 -0.069,-8.29068 -3.0399,0.13817 -10.6397,1.2436 -7.5998,1.03634 -12.7815,3.03992 -3.8689,1.45087 -6.9089,4.35261 -2.9708,2.90174 -2.9708,7.18526 0,4.69806 2.5563,7.5998 2.5563,2.83266 6.978,4.35261 3.3854,1.17452 7.4616,1.72723 4.1454,0.48363 8.7052,0.48363 1.3818,0 3.3854,-0.0691 2.0036,-0.0691 4.2144,-0.13818 0,-0.48363 0,-4.55988 0.069,-4.07626 0.069,-10.98516 z"
             style="font-style:normal;font-variant:normal;font-weight:100;font-stretch:normal;font-family:Skia;-inkscape-font-specification:'Skia Thin'"
             id="path5057" />
          <path
             d="m 908.94936,274.02192 q 0,10.70881 -4.76715,18.23951 -4.76715,7.46162 -12.85057,11.81424 -7.04708,3.73081 -15.47595,5.25077 -8.42887,1.51996 -16.02867,1.51996 l 0.27636,31.71188 -10.98516,0 q 0.0691,-1.17451 0.13817,-19.13767 0.13818,-17.89407 0.13818,-35.92632 0,-9.05067 -0.0691,-21.00308 -0.0691,-12.0215 -0.20726,-25.83932 2.21085,-0.0691 4.35261,-0.0691 2.21085,0 3.38536,0 14.50871,0 22.52304,1.51996 8.01433,1.51996 14.5778,5.38895 6.97799,4.07626 10.98516,10.91608 4.00717,6.77073 4.00717,15.61413 z m -11.05426,0.34544 q 0,-6.77073 -3.17809,-11.88332 -3.1781,-5.11259 -8.29069,-8.08342 -4.62897,-2.62538 -10.57063,-3.7999 -5.87257,-1.2436 -12.78148,-1.2436 -0.75998,0 -1.51996,0 -0.75998,0 -1.58905,0 0,1.17451 -0.13818,8.2216 -0.0691,6.97799 -0.0691,24.18117 0,3.59264 0,10.08701 0.0691,6.49437 0.0691,10.36336 6.49438,0 12.98875,-1.17451 6.49437,-1.24361 10.70881,-3.31628 7.04708,-3.45445 10.7088,-9.18885 3.66172,-5.73439 3.66172,-14.16326 z"
             style="font-style:normal;font-variant:normal;font-weight:100;font-stretch:normal;font-family:Skia;-inkscape-font-specification:'Skia Thin'"
             id="path5059" />
          <path
             d="m 984.94734,311.12275 -10.91607,0 q 0.0691,-2.07267 0.13818,-12.43603 0.13817,-10.43245 0.13817,-13.74873 0,-3.59263 -0.0691,-10.57063 0,-7.04708 -0.0691,-10.29427 -0.20727,-7.94524 -3.03992,-11.3997 -2.83266,-3.45445 -9.81065,-3.45445 -3.93808,0 -10.08701,2.41812 -6.14893,2.34903 -12.98875,6.42528 l 0.27636,53.06041 -10.91607,0 q 0.0691,-2.69447 0.13818,-21.69397 0.13817,-19.06858 0.13817,-31.36644 0,-8.01433 -0.0691,-20.17401 0,-12.22877 -0.20726,-28.05016 l 10.91607,0 -0.27636,39.31168 0.0691,0.0691 q 9.87974,-5.52713 16.16685,-7.66889 6.2871,-2.14176 10.77789,-2.14176 8.84341,0 14.16327,5.59622 5.38894,5.52712 5.38894,15.19959 0,8.70523 -0.13817,15.06142 -0.0691,6.28711 -0.0691,10.22518 0,6.28711 0.13817,14.43962 0.13818,8.15251 0.20727,11.19243 z"
             style="font-style:normal;font-variant:normal;font-weight:100;font-stretch:normal;font-family:Skia;-inkscape-font-specification:'Skia Thin'"
             id="path5061" />
          <path
             d="m 1071.1014,276.16368 q 0,8.01433 -2.9017,15.33777 -2.8327,7.32345 -8.2216,12.50513 -4.5599,4.35261 -10.1561,6.63255 -5.5271,2.27994 -12.5742,2.27994 -6.6326,0 -12.4361,-2.21085 -5.8034,-2.27994 -10.3633,-6.63255 -5.2508,-5.04351 -8.1525,-12.43604 -2.8327,-7.39253 -2.8327,-15.61413 0,-7.94524 2.4181,-14.57779 2.4872,-6.70164 7.6689,-12.0215 4.629,-4.83624 10.7779,-7.39253 6.1489,-2.62539 12.9888,-2.62539 7.1852,0 12.9887,2.41812 5.8726,2.34903 10.4325,7.11617 5.2507,5.45804 7.807,12.29786 2.5563,6.77073 2.5563,14.92324 z m -11.0542,0.48362 q 0,-6.49437 -2.1418,-12.6433 -2.0727,-6.14893 -6.4944,-10.36336 -2.6944,-2.62538 -6.4252,-4.00717 -3.6618,-1.45087 -7.6689,-1.45087 -4.7672,0 -8.2907,1.51996 -3.5236,1.51996 -6.6326,4.76715 -3.6617,3.73081 -5.8035,9.53429 -2.0726,5.80348 -2.0726,12.0215 0,7.04709 2.1417,12.98875 2.1418,5.87257 6.9089,10.15609 2.6945,2.41812 6.2181,3.73081 3.5235,1.24361 7.4616,1.24361 4.3526,0 8.0834,-1.51996 3.7999,-1.51996 6.6325,-4.4217 3.9381,-4.00717 6.0108,-9.67248 2.0727,-5.6653 2.0727,-11.88332 z"
             style="font-style:normal;font-variant:normal;font-weight:100;font-stretch:normal;font-family:Skia;-inkscape-font-specification:'Skia Thin'"
             id="path5063" />
          <path
             d="m 1147.4448,311.12275 -10.916,0 q 0.069,-1.93449 0.1382,-12.78148 0.1381,-10.84698 0.1381,-13.40328 0,-3.59263 -0.069,-10.57063 0,-7.04708 -0.069,-10.29427 -0.2073,-7.94524 -3.04,-11.3997 -2.8326,-3.45445 -9.8106,-3.45445 -4.2145,0 -10.4325,2.48721 -6.218,2.4872 -12.5742,6.35619 0,0.75998 -0.069,8.2216 -0.069,7.46162 -0.069,13.61055 0,8.01433 0.1382,19.34494 0.2073,11.33061 0.2073,11.88332 l -10.9161,0 q 0,-0.48362 0.1382,-8.42886 0.1382,-8.01434 0.1382,-23.76665 0,-7.25435 -0.069,-16.99591 0,-9.74156 -0.2073,-20.72672 l 10.7779,0 -0.069,7.94524 0.069,0.13818 q 9.6725,-5.52713 16.0978,-7.66889 6.4943,-2.21085 10.7779,-2.21085 8.8434,0 14.1632,5.59622 5.389,5.52712 5.389,15.19959 0,8.70523 -0.1382,15.06142 -0.069,6.28711 -0.069,10.22518 0,6.28711 0.1382,15.75231 0.2072,9.39612 0.2072,9.87974 z"
             style="font-style:normal;font-variant:normal;font-weight:100;font-stretch:normal;font-family:Skia;-inkscape-font-specification:'Skia Thin'"
             id="path5065" />
          <path
             d="m 1226.0682,273.60738 -49.9514,0 q 0.069,7.32345 3.109,13.47237 3.04,6.07984 9.3271,10.08701 4.0071,2.55629 9.1197,3.86899 5.1126,1.2436 12.2979,1.2436 3.9381,0 7.1853,-0.20727 3.3162,-0.20726 4.0762,-0.27635 l -1.2436,9.18884 q -0.5527,0.0691 -3.6617,0.20727 -3.109,0.20727 -7.3235,0.20727 -11.0542,0 -19.2758,-2.83265 -8.1525,-2.90174 -13.4033,-7.94525 -4.4908,-4.21443 -7.6689,-10.77789 -3.109,-6.56347 -3.109,-14.5778 0,-7.87615 2.349,-14.23235 2.3491,-6.35619 7.0471,-11.81423 4.0763,-4.69806 10.087,-7.25435 6.0799,-2.5563 12.5742,-2.5563 6.4253,0 11.3997,1.93449 4.9745,1.9345 8.6362,5.87258 4.0762,4.4217 6.218,10.91607 2.1418,6.42528 2.2108,15.47595 z m -10.7088,-7.73797 q -1.1054,-8.56705 -5.8725,-13.40328 -4.6981,-4.90533 -12.4361,-4.90533 -7.7379,0 -12.9196,4.97441 -5.1817,4.90533 -7.1853,13.3342 l 38.4135,0 z"
             style="font-style:normal;font-variant:normal;font-weight:100;font-stretch:normal;font-family:Skia;-inkscape-font-specification:'Skia Thin'"
             id="path5067" />
          <path
             d="m 1299.3026,243.48455 q 0,6.2871 -2.9017,11.19243 -2.8326,4.90532 -7.5307,8.63613 -4.5599,3.52354 -10.087,6.56346 -5.458,2.97083 -9.4652,5.18168 l 0.1382,13.12693 -10.2252,0 0,-18.65405 q 3.7308,-1.72723 9.6034,-4.4217 5.8725,-2.76357 9.1888,-5.25077 5.1817,-3.86899 7.4616,-7.39253 2.28,-3.59264 2.28,-8.29069 0,-6.42529 -3.7308,-9.87974 -3.7308,-3.52354 -10.1561,-5.0435 -4.8363,-1.17452 -9.9489,-1.3127 -5.1126,-0.13817 -10.2251,-0.13817 l 1.3126,-9.87974 q 0.2764,0 2.6945,0 2.4181,-0.0691 4.629,-0.0691 6.4944,0 11.8142,0.89816 5.389,0.82907 10.5707,3.24718 6.5634,3.03992 10.5706,8.35978 4.0071,5.25077 4.0071,13.12693 z m -27.6356,67.6382 -13.2651,0 0,-13.8869 13.2651,0 0,13.8869 z"
             style="font-style:normal;font-variant:normal;font-weight:100;font-stretch:normal;font-family:Skia;-inkscape-font-specification:'Skia Thin'"
             id="path5069" />
        </g>
        <g
           style="font-style:normal;font-weight:normal;font-size:211.78662109px;line-height:117.99999475%;font-family:sans-serif;text-align:start;letter-spacing:0px;word-spacing:0px;text-anchor:start;fill:#000000;fill-opacity:1;stroke:none;stroke-width:1px;stroke-linecap:butt;stroke-linejoin:miter;stroke-opacity:1"
           id="text4402">
          <path
             d="m 1392.6041,7.7682314 -24.3554,0 q -0.4236,18.8490096 -0.6354,38.3333786 -0.2118,19.272582 -0.2118,41.721964 0,14.401486 0,23.296526 0,8.68325 0,14.40149 0,5.50645 0,9.10683 0.2118,3.38858 0.2118,7.20074 l -35.5801,0 q 0.2118,-9.31861 0.4235,-19.27258 0.2118,-10.16576 0.2118,-21.81402 0.2118,-11.860053 0.2118,-25.414396 0.2118,-13.766131 0.2118,-30.285487 0,-12.071838 0,-20.966876 0,-8.895038 -0.2118,-16.3075696 l -24.3554,0 0,-39.1805244 84.0792,0 0,39.1805244 z"
             style="font-style:normal;font-variant:normal;font-weight:normal;font-stretch:normal;font-family:Ranchers;-inkscape-font-specification:Ranchers;text-align:center;text-anchor:middle"
             id="path5004" />
          <path
             d="m 1502.2931,-31.412293 q -0.6354,13.342557 -1.059,25.2026075 -0.2118,11.8600507 -0.4235,23.5083145 -0.2118,11.436478 -0.4236,23.296529 0,11.648264 0,24.990821 0,15.67221 0,34.097646 0.2118,18.425435 0.4236,42.145535 l -35.1566,0 q 0.4236,-12.70719 0.6353,-26.47333 0.2118,-13.97791 0.4236,-31.767988 l -31.3444,0 q 0,12.49541 0,26.896898 0.2118,14.18971 0.4236,31.34442 l -35.1566,0 q 0.2118,-9.31861 0.4236,-19.06079 0.2117,-9.74219 0.4235,-20.96688 0.2118,-11.22469 0.2118,-24.567247 0,-13.342557 0,-29.650127 0,-14.40149 0,-24.779034 0,-10.589332 -0.2118,-19.272583 0,-8.6832514 0,-16.731143 0,-8.259678 0,-18.213649 l 35.792,0 q -0.8472,17.578289 -1.2707,32.6151392 -0.4236,14.8250638 -0.6354,30.0736998 l 31.3444,0 q 0,-9.742184 0,-17.578289 0,-8.0478918 -0.2118,-15.2486369 0,-7.4125317 0,-14.4014901 0,-7.200745 0,-15.460423 l 35.792,0 z"
             style="font-style:normal;font-variant:normal;font-weight:normal;font-stretch:normal;font-family:Ranchers;-inkscape-font-specification:Ranchers;text-align:center;text-anchor:middle"
             id="path5006" />
          <path
             d="m 1505.9662,141.82916 31.3445,-173.241453 52.3113,0 31.1326,173.241453 -35.7919,0 -5.2947,-34.733 -32.6151,0 -5.0829,34.733 -36.0038,0 z m 46.8049,-72.642808 21.1787,0 -10.5894,-69.8895854 -10.5893,69.8895854 z"
             style="font-style:normal;font-variant:normal;font-weight:normal;font-stretch:normal;font-family:Ranchers;-inkscape-font-specification:Ranchers;text-align:center;text-anchor:middle"
             id="path5008" />
          <path
             d="m 1709.9598,-31.412293 30.2854,0 q -0.6353,43.20447 -0.6353,86.620728 0,43.416257 0.6353,86.620725 l -40.8748,0 -44.8987,-103.563655 0,103.563655 -29.0148,0 q 0.4236,-21.81402 0.6354,-43.204468 0.2117,-21.602235 0.2117,-43.416257 0,-21.814022 -0.2117,-43.204471 -0.2118,-21.6022355 -0.6354,-43.416257 l 42.7809,0 41.722,103.351871 0,-103.351871 z"
             style="font-style:normal;font-variant:normal;font-weight:normal;font-stretch:normal;font-family:Ranchers;-inkscape-font-specification:Ranchers;text-align:center;text-anchor:middle"
             id="path5010" />
          <path
             d="m 1790.164,-31.412293 q -0.6353,12.707197 -1.0589,22.4493814 -0.2118,9.74218455 -0.4236,18.6372226 -0.2118,8.895038 -0.4236,18.425436 0,9.318611 0,21.390449 l 0.8472,0 37.698,-81.114276 39.3923,0 -41.5102,84.502862 44.0517,88.950378 -39.6041,0 -40.0277,-83.867499 -0.8472,0 q 0,7.836105 0,17.790076 0,9.953971 0,20.966875 0.2118,10.801118 0.2118,22.449378 0.2118,11.43648 0.2118,22.66117 l -37.2744,0 q 0.2118,-9.31861 0.4235,-19.27258 0.2118,-10.16576 0.4236,-21.81402 0.2118,-11.860053 0.2118,-25.414396 0,-13.766131 0,-30.285487 0,-14.40149 0,-24.355462 0,-10.165757 -0.2118,-18.4254357 0,-8.2596782 0,-15.8839963 0,-7.836105 0,-17.790076 l 37.9098,0 z"
             style="font-style:normal;font-variant:normal;font-weight:normal;font-stretch:normal;font-family:Ranchers;-inkscape-font-specification:Ranchers;text-align:center;text-anchor:middle"
             id="path5012" />
          <path
             d="m 1215.0707,261.48859 q 0,-13.55434 5.0829,-22.23759 5.2946,-8.89504 13.1307,-13.97792 8.0479,-5.29467 17.5783,-7.20074 9.7422,-2.11787 18.6373,-2.11787 2.5414,0 6.3536,0.21179 4.0239,0.21178 8.2596,0.63536 4.4476,0.42357 8.8951,1.27072 4.6593,0.63535 8.6832,1.90607 0.4236,5.50646 0.6354,10.37755 0.2118,4.6593 0.2118,10.80112 0,6.14181 -0.2118,11.86005 -0.2118,5.50645 -0.6354,10.58933 -1.6943,-0.21179 -4.4475,-0.63536 -2.5414,-0.42357 -5.5064,-0.63536 -2.7533,-0.21179 -5.7183,-0.42357 -2.7532,-0.21179 -5.2947,-0.21179 -10.1657,0 -14.825,3.1768 -4.6593,3.1768 -4.6593,8.68325 0,3.1768 1.4825,6.14181 1.4825,2.75323 3.8121,5.29467 2.5415,2.54144 5.5065,4.87109 3.1768,2.32965 6.3536,4.44752 5.0829,3.60037 10.1658,8.04789 5.2946,4.23573 9.5304,10.37754 4.2357,5.93003 6.9889,13.97792 2.7532,7.83611 2.7532,18.21365 0,13.55434 -4.6593,22.87296 -4.6593,9.31861 -12.0718,15.24863 -7.2008,5.71824 -16.3076,8.47147 -8.895,2.54144 -17.7901,2.54144 -4.0239,0 -9.9539,-0.63536 -5.7183,-0.42358 -11.6483,-1.48251 -5.93,-0.84715 -11.2247,-2.11787 -5.2946,-1.4825 -8.4714,-3.38858 -0.8472,-3.81216 -1.4825,-7.83611 -0.4236,-4.02394 -0.4236,-8.89503 0,-3.38859 0.2118,-8.25968 0.4235,-4.87109 0.8471,-9.95397 0.4236,-5.08288 0.8472,-9.74219 0.6353,-4.6593 1.0589,-7.8361 2.3296,1.27072 6.7772,2.96501 4.4475,1.48251 9.5304,2.96501 5.2946,1.48251 10.5893,2.54144 5.2947,1.05893 9.3186,1.05893 6.7772,0 10.1658,-2.75322 3.3885,-2.96501 3.3885,-7.83611 0,-5.29466 -3.8121,-9.31861 -3.8122,-4.23573 -9.5304,-8.25968 -5.7182,-4.02394 -12.4954,-8.47146 -6.5654,-4.65931 -12.2836,-10.80112 -5.7183,-6.14181 -9.5304,-14.40149 -3.8122,-8.47146 -3.8122,-20.11973 z"
             style="font-style:normal;font-variant:normal;font-weight:normal;font-stretch:normal;font-family:Ranchers;-inkscape-font-specification:Ranchers;text-align:center;text-anchor:middle"
             id="path5014" />
          <path
             d="m 1389.8112,215.95447 q 7.6243,0 13.1308,1.05893 5.7182,0.84715 10.5893,2.54144 0,3.60037 0,7.62432 0.2118,4.02395 0.2118,8.68325 0,4.65931 -0.2118,9.95397 0,5.08288 0,9.5304 -8.0479,-5.08288 -19.2726,-5.08288 -10.5893,0 -17.7901,4.02395 -6.9889,3.81216 -11.4364,9.95397 -4.2358,6.14181 -6.1418,13.55434 -1.6943,7.20075 -1.6943,13.76613 0,8.89504 2.7532,16.73115 2.7532,7.8361 7.6243,13.76613 5.0829,5.71823 11.6483,9.10682 6.7771,3.38859 14.6132,3.38859 3.6004,0 9.1069,-1.05894 5.7182,-1.05893 10.5893,-4.02394 0,7.41253 0,15.46042 0.2118,8.04789 0.2118,15.67221 0,8.04789 -0.2118,15.67221 0,7.62432 0,15.24864 -11.86,2.54144 -24.1437,2.54144 -18.6372,0 -33.4623,-6.14181 -14.6132,-6.14182 -24.9908,-17.57829 -10.1657,-11.64827 -15.6722,-27.95584 -5.2947,-16.51935 -5.2947,-36.85087 0,-19.48437 5.0829,-35.79194 5.0829,-16.51936 15.0369,-28.37941 10.1657,-12.07183 24.9908,-18.63722 15.0368,-6.77717 34.733,-6.77717 z"
             style="font-style:normal;font-variant:normal;font-weight:normal;font-stretch:normal;font-family:Ranchers;-inkscape-font-specification:Ranchers;text-align:center;text-anchor:middle"
             id="path5016" />
          <path
             d="m 1438.0191,331.80175 0,-34.30943 q 0,-13.55435 -0.2117,-23.08474 0,-9.5304 0,-17.57829 l -15.6723,0 q -0.2117,-4.8711 -0.4235,-9.5304 -0.2118,-4.65931 -0.2118,-9.5304 0,-4.87109 0.2118,-9.74218 0.2118,-4.8711 0.4235,-9.5304 l 65.2303,0 q 0.2118,4.87109 0.2118,9.74218 0,4.65931 0,9.5304 0,4.87109 0,9.5304 0,4.6593 -0.2118,9.5304 l -15.4604,0 q -0.4236,14.1897 -0.6354,27.95583 0,13.76613 0,30.70906 l 0,16.30757 16.0958,0 q 0.2118,7.62432 0.2118,15.03685 0,7.41253 0,15.03685 0,7.41253 0,15.03685 0,7.41253 -0.2118,14.82506 l -65.2303,0 q -0.2117,-7.41253 -0.4235,-14.82506 -0.2118,-7.62432 -0.2118,-15.03685 0,-7.62432 0.2118,-15.03685 0.2118,-7.41253 0.4235,-15.03685 l 15.884,0 z"
             style="font-style:normal;font-variant:normal;font-weight:normal;font-stretch:normal;font-family:Ranchers;-inkscape-font-specification:Ranchers;text-align:center;text-anchor:middle"
             id="path5018" />
          <path
             d="m 1576.6268,392.37272 q -5.93,-0.21178 -15.6722,-0.42357 -9.7421,0 -20.9668,-0.21179 -11.0129,0 -22.2376,0 -11.0129,0 -19.4844,0 0.2118,-4.44751 0.2118,-11.86005 0.2118,-7.41253 0.2118,-16.94293 0,-9.53039 0,-20.5433 0,-11.22469 0,-23.08474 0,-16.09578 -0.2118,-32.19157 0,-16.09578 0,-29.86191 0,-13.97792 -0.2118,-24.14367 0,-10.16576 0,-14.4015 8.2597,0 18.2136,0 9.954,0 20.3316,0 10.3775,-0.21178 20.3315,-0.42357 9.9539,-0.21178 18.6372,-0.42357 0,2.75322 0,4.87109 0.2118,1.90608 0.2118,5.50645 0,2.54144 -0.2118,6.14181 0,3.38859 -0.2118,7.20075 0,3.60037 -0.2118,7.41253 0,3.60037 -0.2118,6.77717 l -42.5691,0 0,24.56725 37.0627,0 0,31.55621 -37.0627,0 0,23.7201 43.2045,0 q 0.2118,4.87109 0.4236,9.95397 0.2118,5.08288 0.2118,11.43648 0.2117,6.3536 0.2117,15.03685 0,8.47146 0,20.33151 z"
             style="font-style:normal;font-variant:normal;font-weight:normal;font-stretch:normal;font-family:Ranchers;-inkscape-font-specification:Ranchers;text-align:center;text-anchor:middle"
             id="path5020" />
          <path
             d="m 1670.6634,218.49591 30.2855,0 q -0.6354,43.20447 -0.6354,86.62073 0,43.41625 0.6354,86.62072 l -40.8748,0 -44.8988,-103.56365 0,103.56365 -29.0148,0 q 0.4236,-21.81402 0.6354,-43.20447 0.2118,-21.60223 0.2118,-43.41625 0,-21.81403 -0.2118,-43.20447 -0.2118,-21.60224 -0.6354,-43.41626 l 42.7809,0 41.722,103.35187 0,-103.35187 z"
             style="font-style:normal;font-variant:normal;font-weight:normal;font-stretch:normal;font-family:Ranchers;-inkscape-font-specification:Ranchers;text-align:center;text-anchor:middle"
             id="path5022" />
          <path
             d="m 1788.5657,215.95447 q 7.6243,0 13.1308,1.05893 5.7182,0.84715 10.5893,2.54144 0,3.60037 0,7.62432 0.2118,4.02395 0.2118,8.68325 0,4.65931 -0.2118,9.95397 0,5.08288 0,9.5304 -8.0479,-5.08288 -19.2726,-5.08288 -10.5893,0 -17.7901,4.02395 -6.9889,3.81216 -11.4364,9.95397 -4.2358,6.14181 -6.1419,13.55434 -1.6943,7.20075 -1.6943,13.76613 0,8.89504 2.7533,16.73115 2.7532,7.8361 7.6243,13.76613 5.0829,5.71823 11.6483,9.10682 6.7771,3.38859 14.6132,3.38859 3.6004,0 9.1069,-1.05894 5.7182,-1.05893 10.5893,-4.02394 0,7.41253 0,15.46042 0.2118,8.04789 0.2118,15.67221 0,8.04789 -0.2118,15.67221 0,7.62432 0,15.24864 -11.8601,2.54144 -24.1437,2.54144 -18.6372,0 -33.4623,-6.14181 -14.6132,-6.14182 -24.9908,-17.57829 -10.1657,-11.64827 -15.6722,-27.95584 -5.2947,-16.51935 -5.2947,-36.85087 0,-19.48437 5.0829,-35.79194 5.0829,-16.51936 15.0369,-28.37941 10.1657,-12.07183 24.9908,-18.63722 15.0368,-6.77717 34.733,-6.77717 z"
             style="font-style:normal;font-variant:normal;font-weight:normal;font-stretch:normal;font-family:Ranchers;-inkscape-font-specification:Ranchers;text-align:center;text-anchor:middle"
             id="path5024" />
          <path
             d="m 1900.0978,392.37272 q -5.93,-0.21178 -15.6722,-0.42357 -9.7422,0 -20.9669,-0.21179 -11.0129,0 -22.2376,0 -11.0129,0 -19.4843,0 0.2118,-4.44751 0.2118,-11.86005 0.2117,-7.41253 0.2117,-16.94293 0,-9.53039 0,-20.5433 0,-11.22469 0,-23.08474 0,-16.09578 -0.2117,-32.19157 0,-16.09578 0,-29.86191 0,-13.97792 -0.2118,-24.14367 0,-10.16576 0,-14.4015 8.2597,0 18.2136,0 9.954,0 20.3315,0 10.3776,-0.21178 20.3316,-0.42357 9.9539,-0.21178 18.6372,-0.42357 0,2.75322 0,4.87109 0.2118,1.90608 0.2118,5.50645 0,2.54144 -0.2118,6.14181 0,3.38859 -0.2118,7.20075 0,3.60037 -0.2118,7.41253 0,3.60037 -0.2118,6.77717 l -42.5691,0 0,24.56725 37.0627,0 0,31.55621 -37.0627,0 0,23.7201 43.2045,0 q 0.2118,4.87109 0.4236,9.95397 0.2117,5.08288 0.2117,11.43648 0.2118,6.3536 0.2118,15.03685 0,8.47146 0,20.33151 z"
             style="font-style:normal;font-variant:normal;font-weight:normal;font-stretch:normal;font-family:Ranchers;-inkscape-font-specification:Ranchers;text-align:center;text-anchor:middle"
             id="path5026" />
          <path
             d="m 1954.5303,217.22519 -10.3775,110.34083 -25.6262,0 0,-113.9412 36.0037,3.60037 z m -25.2026,131.3077 q 5.2947,0 9.3186,2.11787 4.2358,2.11787 6.989,5.50645 2.965,3.1768 4.4475,7.20075 1.4825,3.81216 1.4825,7.41253 0,4.6593 -1.9061,8.89504 -1.6943,4.23573 -4.8711,7.41253 -2.965,3.1768 -7.2007,5.08288 -4.024,1.90608 -8.4715,1.90608 -5.7182,0 -9.9539,-1.90608 -4.2358,-1.6943 -6.989,-4.65931 -2.7532,-3.1768 -4.2357,-6.98896 -1.2708,-3.81216 -1.2708,-7.8361 0,-4.23573 1.4826,-8.47147 1.4825,-4.44752 4.2357,-7.8361 2.965,-3.60037 7.2007,-5.71824 4.2358,-2.11787 9.7422,-2.11787 z"
             style="font-style:normal;font-variant:normal;font-weight:normal;font-stretch:normal;font-family:Ranchers;-inkscape-font-specification:Ranchers;text-align:center;text-anchor:middle"
             id="path5028" />
        </g>
      </g>
    </g>
  </g>
</svg>
