<?xml version="1.0" encoding="UTF-8" standalone="no"?>
<!-- Created with Inkscape (http://www.inkscape.org/) -->

<svg
   xmlns:dc="http://purl.org/dc/elements/1.1/"
   xmlns:cc="http://creativecommons.org/ns#"
   xmlns:rdf="http://www.w3.org/1999/02/22-rdf-syntax-ns#"
   xmlns:svg="http://www.w3.org/2000/svg"
   xmlns="http://www.w3.org/2000/svg"
   xmlns:sodipodi="http://sodipodi.sourceforge.net/DTD/sodipodi-0.dtd"
   xmlns:inkscape="http://www.inkscape.org/namespaces/inkscape"
   width="6in"
   height="4in"
   viewBox="0 0 540.00001 360.00001"
   id="svg4154"
   version="1.1"
   inkscape:version="0.91 r13725"
   sodipodi:docname="save-our-planet.svg"
   inkscape:export-filename="/Users/jslate/personal/postcards/save-our-planet-bear.png"
   inkscape:export-xdpi="93.5"
   inkscape:export-ydpi="93.5">
  <defs
     id="defs4156" />
  <sodipodi:namedview
     id="base"
     pagecolor="#ffffff"
     bordercolor="#666666"
     borderopacity="1.0"
     inkscape:pageopacity="1"
     inkscape:pageshadow="2"
     inkscape:zoom="1.2100764"
     inkscape:cx="246.6339"
     inkscape:cy="164.33044"
     inkscape:document-units="px"
     inkscape:current-layer="layer1"
     showgrid="false"
     units="in"
     inkscape:window-width="1436"
     inkscape:window-height="855"
     inkscape:window-x="0"
     inkscape:window-y="1"
     inkscape:window-maximized="1" />
  <metadata
     id="metadata4159">
    <rdf:RDF>
      <cc:Work
         rdf:about="">
        <dc:format>image/svg+xml</dc:format>
        <dc:type
           rdf:resource="http://purl.org/dc/dcmitype/StillImage" />
        <dc:title />
      </cc:Work>
    </rdf:RDF>
  </metadata>
  <g
     inkscape:label="Layer 1"
     inkscape:groupmode="layer"
     id="layer1"
     transform="translate(0,-692.36215)">
    <g
       style="font-style:normal;font-weight:normal;font-size:55.5014534px;line-height:0%;font-family:sans-serif;text-align:start;letter-spacing:0px;word-spacing:0px;text-anchor:start;fill:#000000;fill-opacity:1;stroke:none;stroke-width:1px;stroke-linecap:butt;stroke-linejoin:miter;stroke-opacity:1"
       id="text4803">
      <path
         d="m 80.724859,988.29318 q 0,-3.55209 1.332035,-5.82765 1.387536,-2.33106 3.44109,-3.6631 2.109055,-1.38753 4.60662,-1.88705 2.553067,-0.55501 4.884128,-0.55501 0.666018,0 1.665044,0.0555 1.054527,0.0555 2.164556,0.1665 1.165531,0.11101 2.331058,0.33301 1.22104,0.16651 2.27556,0.49952 0.11101,1.44303 0.16651,2.71957 0.0555,1.22103 0.0555,2.83057 0,1.60954 -0.0555,3.10808 -0.0555,1.44304 -0.16651,2.77508 -0.44401,-0.0555 -1.16553,-0.16651 -0.66601,-0.111 -1.44304,-0.1665 -0.72151,-0.0555 -1.498534,-0.11101 -0.721519,-0.0555 -1.387537,-0.0555 -2.66407,0 -3.885102,0.83252 -1.221032,0.83253 -1.221032,2.27556 0,0.83253 0.388511,1.60955 0.38851,0.72151 0.999026,1.38753 0.666017,0.66602 1.443038,1.27654 0.832521,0.61051 1.665043,1.16553 1.332035,0.94352 2.66407,2.10905 1.387537,1.11004 2.497567,2.71954 1.11003,1.5541 1.83155,3.6631 0.72152,2.0536 0.72152,4.7732 0,3.552 -1.22104,5.9941 -1.22103,2.4421 -3.16358,3.9961 -1.887049,1.4986 -4.273612,2.2201 -2.331061,0.666 -4.662122,0.666 -1.054527,0 -2.608568,-0.1665 -1.498539,-0.111 -3.05258,-0.3885 -1.554041,-0.222 -2.941577,-0.555 -1.387536,-0.3885 -2.220058,-0.8881 -0.222006,-0.999 -0.38851,-2.0535 -0.111003,-1.0545 -0.111003,-2.3311 0,-0.888 0.0555,-2.1645 0.111003,-1.2766 0.222006,-2.6086 0.111003,-1.332 0.222006,-2.5531 0.166504,-1.221 0.277507,-2.0535 0.610516,0.333 1.776047,0.777 1.16553,0.3885 2.497565,0.777 1.387537,0.3885 2.775073,0.666 1.387536,0.2775 2.442064,0.2775 1.776046,0 2.66407,-0.7215 0.888023,-0.777 0.888023,-2.0535 0,-1.3876 -0.999026,-2.4421 -0.999027,-1.11 -2.497566,-2.1645 -1.498539,-1.0546 -3.274586,-2.2201 -1.720545,-1.22104 -3.219084,-2.83058 -1.498539,-1.60954 -2.497565,-3.7741 -0.999026,-2.22006 -0.999026,-5.27264 z"
         style="font-style:normal;font-variant:normal;font-weight:normal;font-stretch:normal;font-family:Ranchers;-inkscape-font-specification:Ranchers"
         id="path4137" />
      <path
         d="m 104.70842,1022.4266 8.21422,-45.40021 13.70886,0 8.15871,45.40021 -9.37974,0 -1.38754,-9.1023 -8.54722,0 -1.33204,9.1023 -9.43525,0 z m 12.26582,-19.037 5.55015,0 -2.77507,-18.3155 -2.77508,18.3155 z"
         style="font-style:normal;font-variant:normal;font-weight:normal;font-stretch:normal;font-family:Ranchers;-inkscape-font-specification:Ranchers"
         id="path4139" />
      <path
         d="m 154.17323,977.02639 9.43525,0 -8.99124,45.40021 -13.76436,0 -8.99123,-45.40021 9.49074,0 6.38267,34.52191 6.43817,-34.52191 z"
         style="font-style:normal;font-variant:normal;font-weight:normal;font-stretch:normal;font-family:Ranchers;-inkscape-font-specification:Ranchers"
         id="path4141" />
      <path
         d="m 185.4483,1022.5931 q -1.55404,-0.056 -4.10711,-0.111 -2.55307,0 -5.49464,-0.055 -2.88608,0 -5.82766,0 -2.88607,0 -5.10613,0 0.0555,-1.1656 0.0555,-3.1081 0.0555,-1.9426 0.0555,-4.4401 0,-2.4976 0,-5.3837 0,-2.9415 0,-6.0496 0,-4.21813 -0.0555,-8.43624 0,-4.21811 0,-7.82571 0,-3.66309 -0.0555,-6.32716 0,-2.66407 0,-3.7741 2.16456,0 4.77312,0 2.60857,0 5.32814,0 2.71958,-0.0555 5.32814,-0.11101 2.60857,-0.0555 4.88413,-0.111 0,0.72152 0,1.27653 0.0555,0.49952 0.0555,1.44304 0,0.66602 -0.0555,1.60954 0,0.88803 -0.0555,1.88705 0,0.94353 -0.0555,1.94256 0,0.94352 -0.0555,1.77604 l -11.15579,0 0,6.43817 9.71275,0 0,8.26969 -9.71275,0 0,6.2162 11.32229,0 q 0.0555,1.2765 0.111,2.6086 0.0555,1.332 0.0555,2.997 0.0555,1.6651 0.0555,3.9406 0,2.2201 0,5.3282 z"
         style="font-style:normal;font-variant:normal;font-weight:normal;font-stretch:normal;font-family:Ranchers;-inkscape-font-specification:Ranchers"
         id="path4143" />
      <path
         d="m 210.14992,976.36037 q 8.26971,0 12.21032,5.88315 3.9406,5.88316 3.9406,17.09445 0,11.37783 -3.8851,17.53843 -3.8296,6.1607 -12.26582,6.1607 -4.16261,0 -7.21519,-1.5541 -3.05258,-1.6095 -5.05064,-4.6066 -1.99805,-3.0526 -2.94157,-7.4372 -0.94353,-4.4401 -0.94353,-10.10123 0,-11.3778 3.94061,-17.14995 3.9406,-5.82765 12.21032,-5.82765 z m 0,32.35733 q 1.77604,0 3.10808,-0.777 1.38753,-0.8325 2.27556,-2.2201 0.88802,-1.443 1.33203,-3.3856 0.44401,-1.998 0.44401,-4.38457 0,-2.38656 -0.44401,-4.38461 -0.44401,-2.05355 -1.33203,-3.55209 -0.88803,-1.49854 -2.27556,-2.33107 -1.33204,-0.83252 -3.10808,-0.83252 -1.77605,0 -3.10809,0.88803 -1.27653,0.83252 -2.22005,2.33106 -0.88803,1.49854 -1.33204,3.55209 -0.44401,1.99805 -0.44401,4.32911 0,2.38657 0.44401,4.38457 0.44401,1.9426 1.33204,3.3856 0.94352,1.3876 2.22005,2.2201 1.33204,0.777 3.10809,0.777 z"
         style="font-style:normal;font-variant:normal;font-weight:normal;font-stretch:normal;font-family:Ranchers;-inkscape-font-specification:Ranchers"
         id="path4145" />
      <path
         d="m 258.51249,976.97088 q 0.11101,8.10322 0.33301,14.04187 0.22201,5.88316 0.22201,10.04575 0,2.7196 -0.16651,5.4392 -0.1665,2.664 -0.72152,5.1061 -0.55501,2.4421 -1.60954,4.5511 -0.99902,2.0536 -2.71957,3.6076 -1.66504,1.554 -4.16261,2.4421 -2.49756,0.8325 -5.93865,0.8325 -3.5521,0 -6.10516,-0.888 -2.49757,-0.9436 -4.21811,-2.4976 -1.72055,-1.554 -2.77508,-3.6631 -0.99902,-2.1646 -1.55404,-4.6066 -0.55501,-2.4421 -0.72152,-5.0506 -0.1665,-2.6086 -0.1665,-5.2172 0,-2.05354 0.0555,-4.3846 0.0555,-2.33106 0.16651,-5.21713 0.111,-2.88608 0.222,-6.43817 0.16651,-3.5521 0.33301,-8.04771 l 9.76826,0 q -0.16651,4.99513 -0.27751,8.49172 -0.111,3.44109 -0.22201,5.77215 -0.0555,2.33106 -0.111,3.7186 0,1.33203 -0.0555,2.05355 0,0.72152 0,1.05453 0,0.27751 0,0.44401 0,5.38365 1.22103,8.10325 1.22103,2.7195 4.38462,2.7195 3.21908,0 4.32911,-2.9415 1.16553,-2.9416 1.16553,-8.93578 0,-0.27751 0,-0.61051 0,-0.38851 -0.0555,-1.16553 0,-0.77702 -0.0555,-2.05356 0,-1.33203 -0.11101,-3.49659 -0.0555,-2.22006 -0.1665,-5.38364 -0.111,-3.21908 -0.27751,-7.7702 l 9.99026,-0.0555 z"
         style="font-style:normal;font-variant:normal;font-weight:normal;font-stretch:normal;font-family:Ranchers;-inkscape-font-specification:Ranchers"
         id="path4147" />
      <path
         d="m 261.768,1022.4266 q 0.16651,-5.2727 0.22201,-10.4898 0.0555,-5.2726 0.0555,-9.9903 0,-6.71564 -0.111,-12.7653 -0.0555,-6.04965 -0.16651,-12.15481 2.71957,-0.27751 5.43914,-0.44402 2.77508,-0.222 5.60565,-0.222 4.05161,0 7.6037,0.61051 3.55209,0.55502 6.16066,2.16456 2.60857,1.55404 4.10711,4.32911 1.55404,2.77508 1.55404,7.15969 0,5.43914 -2.27556,8.54723 -2.22006,3.10803 -6.04966,4.66213 l 9.04674,18.593 -9.87926,0 -7.38169,-16.928 q -2.27556,0.1665 -4.71763,0.1665 0,4.2736 0.0555,8.3808 0.0555,4.1071 0.33301,8.3807 l -9.60175,0 z m 9.21324,-25.19769 q 1.72055,0.16651 3.16359,0.16651 3.77409,0 5.32814,-1.38754 1.60954,-1.44303 1.60954,-4.27361 0,-1.72054 -0.49952,-2.77507 -0.44401,-1.05453 -1.27653,-1.66505 -0.77702,-0.61051 -1.88705,-0.83252 -1.05453,-0.222 -2.27556,-0.222 -0.88802,0 -1.99805,0.111 -1.05453,0.0555 -2.16456,0.22201 l 0,10.65627 z"
         style="font-style:normal;font-variant:normal;font-weight:normal;font-stretch:normal;font-family:Ranchers;-inkscape-font-specification:Ranchers"
         id="path4149" />
      <path
         d="m 310.82522,996.89591 q 0.99902,0.2775 1.88705,0.38851 0.94352,0.0555 1.60954,0.0555 1.05453,0 1.99805,-0.22201 0.99903,-0.27751 1.72055,-0.88802 0.72152,-0.61052 1.16553,-1.60954 0.44401,-1.05453 0.44401,-2.66407 0,-1.66505 -0.49951,-2.71957 -0.44402,-1.11003 -1.22104,-1.72055 -0.77702,-0.61052 -1.83154,-0.83252 -0.99903,-0.22201 -2.10906,-0.22201 -1.60954,0 -3.16358,0.33301 l 0,10.10127 z m -9.49075,25.53069 q 0.1665,-5.2727 0.222,-10.4898 0.0555,-5.2726 0.0555,-9.9903 0,-6.71564 -0.11101,-12.7653 -0.0555,-6.04965 -0.1665,-12.15481 2.71957,-0.27751 5.43914,-0.44402 2.77507,-0.222 5.43914,-0.222 3.8296,0 7.15969,0.61051 3.33009,0.61052 5.77215,2.27556 2.49757,1.60955 3.94061,4.55112 1.44303,2.88608 1.44303,7.4372 0,4.21811 -1.22103,7.21519 -1.22103,2.94155 -3.44109,4.82865 -2.16456,1.8315 -5.21714,2.664 -3.05258,0.8326 -6.77117,0.8326 -0.94353,0 -1.66505,-0.056 -0.66601,-0.055 -1.49854,-0.1665 0,3.9961 0.0555,7.9367 0.0555,3.9406 0.333,7.9367 l -9.76825,0 z"
         style="font-style:normal;font-variant:normal;font-weight:normal;font-stretch:normal;font-family:Ranchers;-inkscape-font-specification:Ranchers"
         id="path4151" />
      <path
         d="m 341.93898,977.02639 q -0.1665,7.60369 -0.2775,12.54332 -0.0555,4.93963 -0.11101,8.32522 -0.0555,3.33007 -0.0555,5.60567 0,2.2755 0,4.6066 l 8.71373,-0.333 q 0.111,1.8315 0.1665,3.6076 0.0555,1.776 0.0555,3.5521 0,1.8315 -0.0555,3.7186 -0.0555,1.8315 -0.1665,3.7741 l -17.92697,0 q 0.1665,-7.7702 0.22201,-15.9289 0.111,-8.15876 0.111,-15.92896 0,-3.60759 0,-6.99318 0,-3.38559 -0.0555,-6.54917 l 9.37974,0 z"
         style="font-style:normal;font-variant:normal;font-weight:normal;font-stretch:normal;font-family:Ranchers;-inkscape-font-specification:Ranchers"
         id="path4153" />
      <path
         d="m 350.99613,1022.4266 8.21421,-45.40021 13.70886,0 8.15871,45.40021 -9.37974,0 -1.38754,-9.1023 -8.54722,0 -1.33204,9.1023 -9.43524,0 z m 12.26582,-19.037 5.55014,0 -2.77507,-18.3155 -2.77507,18.3155 z"
         style="font-style:normal;font-variant:normal;font-weight:normal;font-stretch:normal;font-family:Ranchers;-inkscape-font-specification:Ranchers"
         id="path4155" />
      <path
         d="m 404.45529,977.02639 7.93671,0 q -0.16651,11.32229 -0.16651,22.70009 0,11.37782 0.16651,22.70012 l -10.71179,0 -11.7663,-27.14024 0,27.14024 -7.6037,0 q 0.111,-5.7167 0.1665,-11.3223 0.0555,-5.6612 0.0555,-11.37782 0,-5.71665 -0.0555,-11.3223 -0.0555,-5.66114 -0.1665,-11.37779 l 11.21129,0 10.93379,27.08471 0,-27.08471 z"
         style="font-style:normal;font-variant:normal;font-weight:normal;font-stretch:normal;font-family:Ranchers;-inkscape-font-specification:Ranchers"
         id="path4157" />
      <path
         d="m 435.96366,1022.5931 q -1.55405,-0.056 -4.10711,-0.111 -2.55307,0 -5.49465,-0.055 -2.88607,0 -5.82765,0 -2.88607,0 -5.10613,0 0.0555,-1.1656 0.0555,-3.1081 0.0555,-1.9426 0.0555,-4.4401 0,-2.4976 0,-5.3837 0,-2.9415 0,-6.0496 0,-4.21813 -0.0555,-8.43624 0,-4.21811 0,-7.82571 0,-3.66309 -0.0555,-6.32716 0,-2.66407 0,-3.7741 2.16455,0 4.77312,0 2.60857,0 5.32814,0 2.71957,-0.0555 5.32814,-0.11101 2.60857,-0.0555 4.88413,-0.111 0,0.72152 0,1.27653 0.0555,0.49952 0.0555,1.44304 0,0.66602 -0.0555,1.60954 0,0.88803 -0.0555,1.88705 0,0.94353 -0.0555,1.94256 0,0.94352 -0.0555,1.77604 l -11.1558,0 0,6.43817 9.71276,0 0,8.26969 -9.71276,0 0,6.2162 11.3223,0 q 0.0555,1.2765 0.111,2.6086 0.0555,1.332 0.0555,2.997 0.0555,1.6651 0.0555,3.9406 0,2.2201 0,5.3282 z"
         style="font-style:normal;font-variant:normal;font-weight:normal;font-stretch:normal;font-family:Ranchers;-inkscape-font-specification:Ranchers"
         id="path4159" />
      <path
         d="m 459.60815,987.29415 -6.38267,0 q -0.111,4.93963 -0.1665,10.04577 -0.0555,5.05068 -0.0555,10.93378 0,3.7741 0,6.1052 0,2.2755 0,3.7741 0,1.443 0,2.3865 0.0555,0.888 0.0555,1.8871 l -9.32425,0 q 0.0555,-2.4421 0.111,-5.0507 0.0555,-2.664 0.0555,-5.7166 0.0555,-3.1081 0.0555,-6.6602 0.0555,-3.6076 0.0555,-7.93669 0,-3.16358 0,-5.49464 0,-2.33106 -0.0555,-4.27362 l -6.38267,0 0,-10.26776 22.03408,0 0,10.26776 z"
         style="font-style:normal;font-variant:normal;font-weight:normal;font-stretch:normal;font-family:Ranchers;-inkscape-font-specification:Ranchers"
         id="path4161" />
    </g>
    <path
       id="path5568"
       d="m 87.832642,858.50857 c -13.946001,-68.247 9.9938,-101.44 89.427998,-128.34 40.743,1.1785 77.464,9.5643 122.23,3.5355 29.073,-21.162 34.225,-7.3943 43.505,-2.1213 25.205,21.92 48.084,43.841 75.616,65.761 5.2072,0.73993 12.331,-0.59888 15.197,0.32385 3.5254,1.1352 -6.635,7.2355 -2.193,10.621 1.1956,0.91119 -3.939,2.618 -2.917,4.1014 4.563,6.6237 12.886,20.447 9.9396,33.39 3.0172,8.3611 10.27,18.378 16.919,25.809 l -11.394,12.374 c -9.3727,2.0731 -17.315,0.48389 -24.86,-2.1213 l -3.1074,5.6568 c -15.674,-3.6832 -31.628,-4.1067 -49.03,-14.496 -32.811,-5.2391 -51.041,6.5815 -40.052,36.77 3.7838,9.6638 -0.4566,22.156 10.013,31.82 l 22.443,14.142 2.7623,5.6568 c -9.0898,6.6135 -23.256,9.122 -58.007,3.5356 -19.164,-23.855 -38.662,-45.321 -56.971,-75.307 -10.122,3.9133 -20.843,5.3756 -32.802,1.7678 -4.0373,15.122 -8.1145,30.407 -10.358,38.184 1.1164,6.4724 6.5257,11.186 21.407,12.021 -1.0828,3.8061 6.0486,11.818 -4.8339,10.607 -2.7136,3.9963 -10.215,0.4184 -20.026,2.8285 -4.2748,7.5416 -6.9209,3.4096 -10.358,4.9497 -5.2943,2.8284 -11.049,2.8284 -17.264,0 -4.0283,2.7167 -8.0565,0.4035 -12.085,-0.3535 -3.0907,3.6993 -24.306,-0.9078 -33.147,-1.4142 -0.31735,-3.9721 -2.9287,-13.605 -3.1075,-19.44602 -8.8469,-27.767 -21.661,-54.373 -36.944998,-80.257 z"
       inkscape:connector-curvature="0"
       style="fill-rule:evenodd;stroke:#000000;stroke-width:2" />
  </g>
</svg>
