<?xml version="1.0" encoding="UTF-8" standalone="no"?>
<!-- Created with Inkscape (http://www.inkscape.org/) -->

<svg
   xmlns:dc="http://purl.org/dc/elements/1.1/"
   xmlns:cc="http://creativecommons.org/ns#"
   xmlns:rdf="http://www.w3.org/1999/02/22-rdf-syntax-ns#"
   xmlns:svg="http://www.w3.org/2000/svg"
   xmlns="http://www.w3.org/2000/svg"
   xmlns:xlink="http://www.w3.org/1999/xlink"
   xmlns:sodipodi="http://sodipodi.sourceforge.net/DTD/sodipodi-0.dtd"
   xmlns:inkscape="http://www.inkscape.org/namespaces/inkscape"
   width="160"
   height="160"
   id="svg3098"
   version="1.1"
   inkscape:version="0.91 r13725"
   sodipodi:docname="pencil_in_fist.svg"
   inkscape:export-filename="/Users/jslate/personal/code/artofresistance.design/pencil_in_fist-300px.png"
   inkscape:export-xdpi="168.75"
   inkscape:export-ydpi="168.75">
  <defs
     id="defs3100">
    <linearGradient
       x1="154.67"
       y1="373.07999"
       gradientTransform="matrix(1,0,0,-1,-18,678.03)"
       x2="155.72"
       gradientUnits="userSpaceOnUse"
       y2="415.04999"
       id="linearGradient4091">
      <stop
         offset="0"
         stop-opacity=".082353"
         stop-color="#FFF"
         id="stop9974" />
      <stop
         offset=".48605"
         stop-opacity=".88627"
         stop-color="#FFF"
         id="stop9976" />
      <stop
         offset="1"
         stop-opacity=".082353"
         stop-color="#FFF"
         id="stop9978" />
    </linearGradient>
    <linearGradient
       x1="807.75"
       y1="947.40002"
       gradientTransform="matrix(-1.018,0,0,1.018,919.74,-899.06)"
       x2="837.84003"
       gradientUnits="userSpaceOnUse"
       y2="964.72998"
       id="linearGradient4089">
      <stop
         offset="0"
         stop-color="#5a5a5a"
         id="stop10081" />
      <stop
         offset="1"
         stop-color="#1e1e1e"
         id="stop10083" />
    </linearGradient>
    <linearGradient
       x1="322.98999"
       y1="465.22"
       gradientTransform="matrix(0.21625,-0.12485,-0.12485,-0.21625,129.9,148.39)"
       x2="318.98999"
       gradientUnits="userSpaceOnUse"
       spreadMethod="reflect"
       y2="360.72"
       id="linearGradient4087">
      <stop
         offset="0"
         stop-color="#6d674f"
         id="stop4900" />
      <stop
         offset=".57397"
         stop-color="#BBB"
         id="stop4902-0" />
      <stop
         offset="1"
         stop-color="#6d674f"
         id="stop4904-7" />
    </linearGradient>
    <linearGradient
       x1="314.82999"
       y1="379.72"
       gradientTransform="matrix(0.21625,-0.12485,-0.12485,-0.21625,120.98,154.41)"
       x2="314.82999"
       gradientUnits="userSpaceOnUse"
       spreadMethod="reflect"
       y2="455.22"
       id="linearGradient4085">
      <stop
         offset="0"
         stop-color="#6d674f"
         id="stop4056" />
      <stop
         offset=".69708"
         stop-color="#BBB"
         id="stop4062" />
      <stop
         offset="1"
         stop-color="#6d674f"
         id="stop4058" />
    </linearGradient>
    <radialGradient
       r="60"
       gradientTransform="matrix(0.26645,-0.15383,-0.15383,-0.26645,133.14,169.15)"
       cx="300.67999"
       cy="435.79999"
       gradientUnits="userSpaceOnUse"
       id="radialGradient4083">
      <stop
         offset="0"
         stop-color="#4d4d4d"
         id="stop4824-7" />
      <stop
         offset="1"
         stop-opacity="0"
         stop-color="#4d4d4d"
         id="stop4826-8" />
    </radialGradient>
    <radialGradient
       r="60"
       gradientTransform="matrix(0.26645,-0.15383,-0.15383,-0.26645,133.14,169.15)"
       cx="286.07001"
       cy="357.89001"
       gradientUnits="userSpaceOnUse"
       id="radialGradient4081">
      <stop
         offset="0"
         stop-opacity=".67254"
         stop-color="#f9f9f9"
         id="stop4812" />
      <stop
         offset="1"
         stop-opacity="0"
         stop-color="#f9f9f9"
         id="stop4814" />
    </radialGradient>
    <linearGradient
       x1="1257.6"
       y1="384.48999"
       gradientTransform="matrix(1.018,0,0,1.018,-1252.1,-294.1)"
       x2="1257.6"
       gradientUnits="userSpaceOnUse"
       y2="374.97"
       id="linearGradient4079">
      <stop
         offset="0"
         stop-color="#a0a0a0"
         id="stop10016" />
      <stop
         offset=".15578"
         stop-color="#c4c4c4"
         id="stop10027" />
      <stop
         offset=".31156"
         stop-color="#b8b8b8"
         id="stop10022" />
      <stop
         offset=".94505"
         stop-color="#ebebeb"
         id="stop10025" />
      <stop
         offset="1"
         stop-color="#b6b6b6"
         id="stop10018" />
    </linearGradient>
    <linearGradient
       x1="819.89001"
       y1="998.23999"
       gradientTransform="matrix(-1.018,0,0,1.018,919.49,-899.06)"
       x2="829.44"
       gradientUnits="userSpaceOnUse"
       y2="998.23999"
       id="linearGradient4077">
      <stop
         offset="0"
         stop-color="#cbcbcb"
         id="stop10073" />
      <stop
         offset="1"
         stop-color="#868686"
         id="stop10075" />
    </linearGradient>
    <filter
       id="filter10101"
       style="color-interpolation-filters:sRGB">
      <feGaussianBlur
         stdDeviation="4.9801895"
         id="feGaussianBlur10103" />
    </filter>
    <filter
       id="filter5184"
       style="color-interpolation-filters:sRGB">
      <feGaussianBlur
         stdDeviation="2.3536243"
         id="feGaussianBlur5186" />
    </filter>
    <filter
       id="filter10006"
       style="color-interpolation-filters:sRGB">
      <feGaussianBlur
         stdDeviation="1.2652113"
         id="feGaussianBlur10008" />
    </filter>
    <linearGradient
       inkscape:collect="always"
       xlink:href="#linearGradient4087"
       id="linearGradient3268"
       gradientUnits="userSpaceOnUse"
       gradientTransform="matrix(0.21625,-0.12485,-0.12485,-0.21625,348.05656,605.39225)"
       spreadMethod="reflect"
       x1="322.98999"
       y1="465.22"
       x2="318.98999"
       y2="360.72" />
    <radialGradient
       inkscape:collect="always"
       xlink:href="#radialGradient4083"
       id="radialGradient3276"
       gradientUnits="userSpaceOnUse"
       gradientTransform="matrix(0.26645,-0.15383,-0.15383,-0.26645,351.29656,626.15225)"
       cx="300.67999"
       cy="435.79999"
       r="60" />
    <radialGradient
       inkscape:collect="always"
       xlink:href="#radialGradient4081"
       id="radialGradient3279"
       gradientUnits="userSpaceOnUse"
       gradientTransform="matrix(0.26645,-0.15383,-0.15383,-0.26645,351.29656,626.15225)"
       cx="286.07001"
       cy="357.89001"
       r="60" />
  </defs>
  <sodipodi:namedview
     id="base"
     pagecolor="#ffffff"
     bordercolor="#666666"
     borderopacity="1.0"
     inkscape:pageopacity="0.0"
     inkscape:pageshadow="2"
     inkscape:zoom="3.0831574"
     inkscape:cx="102.22042"
     inkscape:cy="71.454546"
     inkscape:document-units="px"
     inkscape:current-layer="layer1"
     showgrid="false"
     inkscape:window-width="1436"
     inkscape:window-height="855"
     inkscape:window-x="0"
     inkscape:window-y="1"
     inkscape:window-maximized="1"
     fit-margin-top="5"
     fit-margin-left="5"
     fit-margin-right="5"
     fit-margin-bottom="5" />
  <metadata
     id="metadata3103">
    <rdf:RDF>
      <cc:Work
         rdf:about="">
        <dc:format>image/svg+xml</dc:format>
        <dc:type
           rdf:resource="http://purl.org/dc/dcmitype/StillImage" />
        <dc:title></dc:title>
      </cc:Work>
    </rdf:RDF>
  </metadata>
  <g
     inkscape:label="Layer 1"
     inkscape:groupmode="layer"
     id="layer1"
     transform="translate(282.55815,-351.42746)">
    <path
       style="display:none;fill:#00ff00;stroke:none"
       inkscape:connector-curvature="0"
       display="none"
       d="m -51.9274,1211.4308 c 0,0 -19.0836,-0.022 -0.6989,-132.6935 C -34.2417,946.066 -24.045,899.1052 -5.3234,791.0001 1.7346,774.8563 -73.7096,698.777 -134.2387,593.2597 -195.9902,485.6117 -277.9101,357.4473 -322.9681,312.8139 c 0,0 174.6051,-335.4541 237.819,-349.6864 0,0 301.3812,108.86 337.0663,144.5451 0,0 -1.6885,91.6752 -28.6427,104.2204 -26.9543,12.5452 -108.8787,44.596 -154.5442,34.6042 0,0 -66.5129,-72.4035 -90.3392,-83.5027 0,0 -6.2708,4.3005 1.4514,23.8679 7.7223,19.5674 -10.4012,69.4088 -39.2782,89.5321 0,0 -21.8448,3.1385 -20.069,6.7997 1.7759,3.6612 5.1862,8.7151 30.2112,12.0414 25.0249,3.3263 41.4226,16.8926 51.1404,21.7706 9.7179,4.8781 39.9987,16.8593 64.2749,23.7075 0,0 237.1202,313.2578 237.1202,342.053 0,0 -71.9669,66.2099 -101.9054,69.0026 0,0 -4.9395,0.036 0,4.9752 4.9395,4.9394 64.5757,-0.9453 70.8878,5.3668 6.3121,6.3121 2.0121,22.6842 6.6121,38.0059 4.6,15.3218 22.4229,131.2911 18.4923,150.0347 0,0 -2.1134,15.7976 3.9779,28.4371 2.6931,15.3368 7.0638,82.1619 5.3597,88.0372 -1.7042,5.8755 3.834,11.4138 3.834,11.4138 0,0 6.1136,-2.9048 6.1136,-14.1914 0,-11.2867 -14.7137,-261.0466 -3.911,-270.7197 0,0 10.1158,-12.895 18.9054,-12.895 8.7897,0 24.7629,-16.0286 32.1096,-20.0052 0,0 4.1583,-5.0769 -6.9741,-10.9508 -11.1323,-5.8739 -31.7252,-18.7007 -41.3689,-59.7083 -11.6437,-20.0076 -24.2794,-66.0872 -42.3224,-107.9173 -18.043,-41.8301 -13.7299,-36.4236 -13.7299,-36.4236 0,0 -95.3713,-114.5455 -124.6481,-153.1061 0,0 -16.1036,-21.2645 0,-20.3709 16.1036,0.8935 144.0354,21.6741 160.3262,34.7954 0,0 53.0165,4.6835 81.2068,39.6826 32.7279,29.0347 57.3043,56.3031 68.4141,60.4844 0,0 8.8715,5.9367 12.4072,14.309 3.5357,8.3723 10.1061,8.5808 13.7668,3.4523 3.6608,-5.1286 12.3208,-17.4926 16.6698,-17.4926 4.3491,0 116.9965,-105.4218 123.0477,-105.4218 6.0514,0 12.3269,-9.6339 14.3142,6.1003 1.9872,15.7341 -14.4666,140.5987 -25.387,151.5191 -1.9001,9.1588 -23.234,109.7161 -34.1799,133.0906 -10.9459,23.3745 -15.9235,16.6872 -38.3097,46.5308 0,0 -18.4618,35.0239 -29.6478,46.21 -11.186,11.1861 -20.6222,22.6746 -22.309,29.0284 -1.6869,6.3539 -13.3855,144.1783 -8.6575,181.5168 0,39.3384 0.7406,137.007 -2.4326,150.9333 -3.1732,13.9263 -6.3809,32.405 -6.3809,48.0717 0,0 1.8606,13.4637 -7.7947,14.3201 -9.6553,0.8564 -501.6557,2.5487 -501.6557,2.5487 z"
       id="path3" />
    <path
       style="display:none;fill:#ff0000"
       d="m -51.9274,1211.4308 c 0,0 -19.0836,-0.022 -0.6989,-132.6935 C -34.2417,946.066 -24.045,899.1052 -5.3234,791.0001 1.7346,774.8563 -73.7096,698.777 -134.2387,593.2597 -195.9902,485.6117 -277.9101,357.4473 -322.9681,312.8139 c 0,0 174.6051,-335.4541 237.819,-349.6864 0,0 301.3812,108.86 337.0663,144.5451 0,0 -1.6885,91.6752 -28.6427,104.2204 -26.9543,12.5452 -108.8787,44.596 -154.5442,34.6042 0,0 -66.5129,-72.4035 -90.3392,-83.5027 0,0 -6.2708,4.3005 1.4514,23.8679 7.7223,19.5674 -10.4012,69.4088 -39.2782,89.5321 0,0 -21.8448,3.1385 -20.069,6.7997 1.7759,3.6612 5.1862,8.7151 30.2112,12.0414 25.0249,3.3263 41.4226,16.8926 51.1404,21.7706 9.7179,4.8781 39.9987,16.8593 64.2749,23.7075 0,0 237.1202,313.2578 237.1202,342.053 0,0 -71.9669,66.2099 -101.9054,69.0026 0,0 -4.9395,0.036 0,4.9752 4.9395,4.9394 64.5757,-0.9453 70.8878,5.3668 6.3121,6.3121 2.0121,22.6842 6.6121,38.0059 4.6,15.3218 22.4229,131.2911 18.4923,150.0347 0,0 -2.1134,15.7976 3.9779,28.4371 2.6931,15.3368 7.0638,82.1619 5.3597,88.0372 -1.7042,5.8755 3.834,11.4138 3.834,11.4138 0,0 6.1136,-2.9048 6.1136,-14.1914 0,-11.2867 -14.7137,-261.0466 -3.911,-270.7197 0,0 10.1158,-12.895 18.9054,-12.895 8.7897,0 24.7629,-16.0286 32.1096,-20.0052 0,0 4.1583,-5.0769 -6.9741,-10.9508 -11.1323,-5.8739 -31.7252,-18.7007 -41.3689,-59.7083 -11.6437,-20.0076 -24.2794,-66.0872 -42.3224,-107.9173 -18.043,-41.8301 -13.7299,-36.4236 -13.7299,-36.4236 0,0 -95.3713,-114.5455 -124.6481,-153.1061 0,0 -16.1036,-21.2645 0,-20.3709 16.1036,0.8935 144.0354,21.6741 160.3262,34.7954 0,0 53.0165,4.6835 81.2068,39.6826 32.7279,29.0347 57.3043,56.3031 68.4141,60.4844 0,0 8.8715,5.9367 12.4072,14.309 3.5357,8.3723 10.1061,8.5808 13.7668,3.4523 3.6608,-5.1286 12.3208,-17.4926 16.6698,-17.4926 4.3491,0 116.9965,-105.4218 123.0477,-105.4218 6.0514,0 12.3269,-9.6339 14.3142,6.1003 1.9872,15.7341 -14.4666,140.5987 -25.387,151.5191 -1.9001,9.1588 -23.234,109.7161 -34.1799,133.0906 -10.9459,23.3745 -15.9235,16.6872 -38.3097,46.5308 0,0 -18.4618,35.0239 -29.6478,46.21 -11.186,11.1861 -20.6222,22.6746 -22.309,29.0284 -1.6869,6.3539 -13.3855,144.1783 -8.6575,181.5168 0,39.3384 0.7406,137.007 -2.4326,150.9333 -3.1732,13.9263 -6.3809,32.405 -6.3809,48.0717 0,0 1.8606,13.4637 -7.7947,14.3201 -9.6553,0.8564 -501.6557,2.5487 -501.6557,2.5487 z"
       id="path3451"
       inkscape:connector-curvature="0" />
    <path
       style="display:none;fill:#ff0000"
       inkscape:connector-curvature="0"
       display="none"
       d="m -221.4424,520.264 c 0,0 -2.03596,-0.002 -0.0746,-14.15659 1.96139,-14.15423 3.04924,-19.16431 5.04658,-30.69766 0.75299,-1.72233 -7.29588,-9.83896 -13.75351,-21.09622 -6.58805,-11.48458 -15.32779,-25.15799 -20.13487,-29.91977 0,0 18.62799,-35.7884 25.37206,-37.30679 0,0 32.15329,11.61388 35.9604,15.421 0,0 -0.18014,9.7805 -3.05578,11.1189 -2.87566,1.33841 -11.61589,4.75779 -16.48777,3.6918 0,0 -7.09603,-7.72447 -9.63797,-8.9086 0,0 -0.66901,0.4588 0.15484,2.54638 0.82387,2.08757 -1.10966,7.40498 -4.19045,9.55186 0,0 -2.33054,0.33483 -2.14109,0.72543 0.18947,0.3906 0.5533,0.92979 3.22313,1.28466 2.66981,0.35487 4.41923,1.80221 5.45598,2.32263 1.03677,0.52042 4.26732,1.79866 6.85726,2.52927 0,0 25.29751,33.42035 25.29751,36.49241 0,0 -7.67789,7.0637 -10.87192,7.36164 0,0 -0.52698,0.004 0,0.53079 0.52698,0.52697 6.88935,-0.10085 7.56277,0.57257 0.67341,0.67341 0.21466,2.42009 0.70542,4.05471 0.49076,1.63463 2.39222,14.00698 1.97288,16.00667 0,0 -0.22548,1.68539 0.42438,3.03385 0.28732,1.63623 0.75362,8.76556 0.57181,9.39238 -0.18181,0.62683 0.40904,1.21769 0.40904,1.21769 0,0 0.65223,-0.3099 0.65223,-1.51403 0,-1.20413 -1.56975,-27.85013 -0.41725,-28.88212 0,0 1.07922,-1.37572 2.01695,-1.37572 0.93775,0 2.64187,-1.71003 3.42566,-2.13428 0,0 0.44364,-0.54164 -0.74404,-1.1683 -1.18766,-0.62667 -3.38465,-1.99512 -4.4135,-6.37007 -1.24222,-2.13454 -2.59028,-7.05061 -4.51523,-11.51331 -1.92494,-4.46271 -1.46479,-3.88591 -1.46479,-3.88591 0,0 -10.17482,-12.22045 -13.29826,-16.33434 0,0 -1.71804,-2.26864 0,-2.1733 1.71803,0.0953 15.36662,2.31233 17.10463,3.7122 0,0 5.65614,0.49966 8.66366,4.23359 3.49163,3.09761 6.1136,6.00678 7.29886,6.45287 0,0 0.94647,0.63336 1.32368,1.52657 0.37721,0.89321 1.07818,0.91546 1.46873,0.36832 0.39056,-0.54716 1.31446,-1.86623 1.77844,-1.86623 0.46399,0 12.48194,-11.24707 13.12752,-11.24707 0.64561,0 1.31512,-1.02781 1.52714,0.65082 0.212,1.67861 -1.54339,14.99997 -2.70845,16.16503 -0.20272,0.97712 -2.47876,11.70522 -3.64654,14.19896 -1.16777,2.49374 -1.69882,1.7803 -4.08712,4.96421 0,0 -1.96962,3.73657 -3.16302,4.92998 -1.19339,1.1934 -2.20011,2.41907 -2.38007,3.09693 -0.17997,0.67788 -1.42805,15.38187 -0.92363,19.36539 0,4.19687 0.079,14.61678 -0.25953,16.10253 -0.33854,1.48575 -0.68076,3.45718 -0.68076,5.1286 0,0 0.19851,1.43639 -0.83158,1.52776 -1.03009,0.0914 -53.51987,0.27191 -53.51987,0.27191 z"
       id="path3-3" />
    <path
       style="fill:#000000;stroke:none"
       d="m -279.95583,356.30251 c -0.18541,-0.002 -0.36223,0.0554 -0.46875,0.1875 -0.13127,0.16282 -0.15441,0.28604 -0.0313,0.5625 0.45862,1.02536 3.06855,5.73295 9.1875,16.71875 l 4.34375,7.8125 11.53125,9.15625 c 3.86446,3.06853 7.91637,6.36295 11.84375,9.53125 0.44366,-0.66852 0.87023,-1.33476 1.3125,-2 -2.76676,-2.22311 -5.66381,-4.54753 -8.40625,-6.75 -15.18197,-12.18574 -9.62143,-7.56272 -9.9375,-8 -0.0667,-0.0924 -0.1308,-0.23536 -0.0937,-0.28125 0.12822,-0.15903 3.66663,-1.09506 4.25,-1.125 0.19628,-0.0102 1.56394,1.07455 15.46875,12.21875 0.99182,0.79487 -5.57137,-4.79915 1.0625,0.53125 1.79429,-2.16087 3.7323,-5.1779 6.09375,-7.21875 -7.9522,-6.37124 6.10405,5.24707 -1.84375,-1.125 l -14.1875,-11.375 -0.125,-1.96875 c -0.19559,-2.91625 -0.18722,-3.50776 0.0313,-3.53125 0.0996,-0.0106 -2.87162,-2.78392 20.40625,15.875 1.02894,-0.13438 2.13343,-0.0331 3.3125,0.4375 -0.0231,-0.14427 -0.0247,-0.29726 -0.0313,-0.4375 -3.89687,-3.13119 -8.48093,-6.80851 -12.21875,-9.8125 l -14.75,-11.5625 -0.6875,-0.1875 c -0.38477,-0.10704 -4.51512,-1.33914 -9.1875,-2.75 -11.97127,-3.6147 -16.33457,-4.89979 -16.875,-4.90625 z m 18.0625,7.8125 c 0.43242,-0.0874 4.83131,1.1174 7.125,1.96875 0.39936,0.14822 0.71644,0.29806 0.96875,0.46875 0.42052,0.28449 0.66433,0.63315 0.75,1.03125 0.10958,0.50927 0.0605,1.47749 -0.0937,3.34375 -0.1505,1.81989 -0.25387,2.51589 -0.625,3.53125 -0.27349,0.74899 -0.40008,0.93236 -1.03125,1.75 -0.75743,0.98113 -1.0469,1.25866 -2.15625,1.96875 -1.70828,1.09334 -7.18029,3.10707 -7.75,2.84375 -0.14598,-0.0675 -0.3626,-0.45155 -0.78125,-1.28125 -0.32111,-0.63638 -1.06331,-2.03001 -1.625,-3.125 -1.23067,-2.39917 -1.86259,-3.7515 -1.8125,-3.90625 0.0203,-0.0632 0.63862,-0.47301 1.34375,-0.90625 1.69111,-1.03899 2.14768,-1.35461 2.8125,-2 0.96042,-0.93246 1.27058,-1.51664 2.375,-4.71875 0.27922,-0.80966 0.34376,-0.93719 0.5,-0.96875 z m 52.78125,1.9375 c -1.61094,0.0402 -3.19456,0.86155 -4.125,2.3125 l -7.90625,12.34375 c -0.7985,1.24521 -3.46214,3.51472 -3.09375,4.84375 0.31842,1.14874 2.98619,2.49731 4.0625,3.1875 l 10.1875,4.375 c 2.32152,1.4887 4.3863,0.8215 5.875,-1.5 l 7.90625,-12.34375 c 0.6638,-1.03514 1.71463,-2.45706 1.5625,-3.59375 -0.18906,-1.41256 -1.77613,-2.4876 -3.0625,-3.3125 l -8.59375,-5.5 c -0.87057,-0.55826 -1.84594,-0.83662 -2.8125,-0.8125 z m 19.5,9.84375 c -1.60894,0.0897 -3.14586,0.92739 -4.03125,2.40625 l -7.375,12.375 c -0.75221,1.25647 -2.55055,3.2867 -2.15625,4.59375 0.34827,1.15441 2.76528,1.61687 3.875,2.28125 1.75365,0.90525 8.2884,2.65126 8.375,5 0.0979,2.65453 -2.50092,7.53978 -0.65625,10.375 0.92783,0.55549 3.79777,-3.19824 5.65625,-5.9375 0.79924,-1.178 1.70071,-1.87685 2,-2.25 0.70696,-0.88144 1.50274,-1.52314 2.125,-2.5625 l 7.40625,-12.34375 c 1.41661,-2.3662 0.64746,-5.45838 -1.71875,-6.875 l -10.65625,-6.375 c -0.88732,-0.53123 -1.87839,-0.74133 -2.84375,-0.6875 z m -39.3125,11.5 c -0.19947,-0.01 -0.40275,0.009 -0.59375,0.0312 -0.01,0.002 -0.0215,-0.002 -0.0313,0 -1.27328,0.2986 -2.92316,1.63 -4.78125,3.65625 -1.46336,1.70516 -2.80937,3.52102 -4.21875,5.28125 -0.63745,0.87265 -1.26255,1.77878 -1.90625,2.71875 -0.023,1.24715 -0.7666,2.5959 -2.625,4.125 -0.0229,-0.0183 -0.0396,-0.0442 -0.0625,-0.0625 -5.82789,9.16521 -11,19.31744 -11,21.53125 0,4.27688 13.53696,18.42164 20.125,29.90625 6.45763,11.25726 14.503,19.40267 13.75,21.125 -1.99734,11.53334 -3.06984,2.5333 -5.03125,16.6875 -1.96137,14.15461 0.0625,14.15625 0.0625,14.15625 0,0 52.50116,-0.18985 53.53125,-0.28125 1.03009,-0.0914 0.8125,-1.53125 0.8125,-1.53125 0,-1.67143 0.34896,-3.63925 0.6875,-5.125 0.33851,-1.48576 0.28125,-3.89687 0.28125,-8.09375 -0.50441,-3.9835 0.72629,-12.69713 0.90625,-13.375 0.17996,-0.67788 1.1816,-1.90035 2.375,-3.09375 1.19339,-1.19339 3.1875,-4.9375 3.1875,-4.9375 0.59708,-0.79597 1.06486,-1.33018 1.46875,-1.75 -9.40164,-7.56946 -18.79516,-15.14532 -28.21875,-22.6875 -4.20449,-3.93317 -9.15545,-7.19293 -13.75,-10.78125 3.92179,4.97222 11.85645,14.47167 11.90625,14.53125 -0.0381,0.0527 0.0563,0.59048 1.5,3.9375 1.92494,4.46271 3.25778,9.36546 4.5,11.5 1.02885,4.37496 3.21857,5.74834 4.40625,6.375 1.18766,0.62666 0.75,1.15625 0.75,1.15625 -0.7838,0.42427 -2.46852,2.15625 -3.40625,2.15625 -0.93773,0 -2.03125,1.375 -2.03125,1.375 -1.15252,1.03199 0.40625,23.67086 0.40625,24.875 0,1.20413 -0.625,1.5 -0.625,1.5 0,0 -0.61931,-0.59191 -0.4375,-1.21875 0.18182,-0.62684 -0.2752,0.26121 -0.5625,-1.375 -0.64987,-1.34848 -0.40625,-3.03125 -0.40625,-3.03125 0.41935,-1.99967 -1.50925,-18.36537 -2,-20 -0.49076,-1.63461 -0.0141,-3.38908 -0.6875,-4.0625 -0.67341,-0.67342 -7.03552,-0.0355 -7.5625,-0.5625 -0.52697,-0.5268 0,-0.53125 0,-0.53125 3.19405,-0.29793 10.44405,-5.6988 10.46875,-7.3125 0.0247,-1.6137 -22.78437,-35.31654 -24.90625,-36.5625 -2.12189,-1.24596 -5.80699,-2.01083 -6.84375,-2.53125 -1.03676,-0.52042 -2.79892,-1.95763 -5.46875,-2.3125 -2.66982,-0.35487 -3.02929,-0.89065 -3.21875,-1.28125 -0.18947,-0.3906 2.15625,-0.71875 2.15625,-0.71875 1.08175,-0.75382 1.9896,-1.92896 2.71875,-3.1875 -0.046,-0.87699 0.23526,-1.73871 1.0625,-2.46875 0.16462,-0.54126 0.28534,-0.93796 0.40625,-1.28125 0.21325,-1.05034 0.25017,-1.99109 0,-2.625 -0.82387,-2.08757 -0.15625,-2.53125 -0.15625,-2.53125 2.54194,1.18414 9.625,8.90625 9.625,8.90625 4.8719,1.066 13.62435,-2.38035 16.5,-3.71875 2.87565,-1.3384 3.55259,-9.41668 3.0625,-11.09375 -0.41488,-1.41973 -22.15328,-10.91719 -31.96875,-14.28125 -0.0492,-0.0169 -0.10767,-0.0147 -0.15625,-0.0312 -1.05426,-0.23452 -2.60372,-1.02418 -4,-1.09375 z m 57.34375,5.8125 c -1.60709,-0.1183 -3.24396,0.55378 -4.3125,1.90625 l -19.0625,27.25 c -1.70966,2.16397 -1.32021,5.32158 0.84375,7.03125 l 8.96875,4.3125 c 2.16396,1.70966 5.32159,1.32021 7.03125,-0.84375 l 18.4375,-23.3125 c 1.70968,-2.16397 1.32023,-5.32159 -0.84375,-7.03125 l -8.34375,-8.25 c -0.81149,-0.64112 -1.75449,-0.99151 -2.71875,-1.0625 z m 15.8125,16.34375 c -0.42813,0.0127 -0.80836,0.16311 -1.125,0.46875 l -20.5,24.53125 c -1.26655,1.22258 -1.41555,3.16978 -0.3125,4.3125 l 5.59375,5.78125 c 1.10305,1.14273 3.04596,1.06632 4.3125,-0.15625 l 22.40625,-21.625 c 1.26654,-1.22259 1.41554,-3.16979 0.3125,-4.3125 l -6.96875,-7.125 c -0.82729,-0.85704 -2.43435,-1.91316 -3.71875,-1.875 z m -38.03125,6.28125 -11.9375,3.28125 c -1.9737,0.53343 -6.17478,1.84412 -7.375,-0.15625 -1.20023,-2.00038 -1.21324,-2.54905 -2.71875,-2.46875 -2.47746,0.48873 -1.8588,2.63981 -1.28125,3.3125 1.16765,1.36 9.11916,6.68906 13.3125,8.15625 0.51422,0.17991 0.93194,-0.13895 1.71875,-1.3125 0.78682,-1.17355 7.69905,-8.92358 8.3125,-9.84375 0.4801,-0.94688 -0.0313,-0.96875 -0.0313,-0.96875 z m -26.5625,0.0312 c -0.28523,0.77032 -0.58906,1.56569 -0.9375,2.34375 0.54657,0.4388 1.10901,0.87326 1.65625,1.3125 -0.33139,-0.93187 0.0598,-1.83014 0.53125,-2.65625 -0.41737,-0.33565 -0.83285,-0.66454 -1.25,-1 z m 21.96875,9.53125 c -0.3278,0.0773 -0.82801,0.73183 -1.46875,1.625 1.6465,1.32325 1.94957,1.58485 3.59375,2.90625 -0.58637,-0.68113 -1.0613,-1.46281 -1.40625,-2.375 -0.1032,-1.61378 -0.31774,-2.25086 -0.71875,-2.15625 z m -12.1875,1.375 c 27.78959,22.28153 25.93058,20.82188 50.90625,41.0625 l 20.34375,16.4375 2.28125,-0.1875 c 2.37826,-0.21583 3.77553,-0.4863 5.15625,-0.9375 1.4991,-0.48972 2.95565,-1.25234 4,-2.15625 0.7218,-0.62287 1.5303,-1.65273 2,-2.5 1.2544,-2.26362 1.53753,-4.71581 1.15625,-9.8125 l -0.0937,-1.5 -13.78125,-11.09375 c -16.55849,-13.33609 -3.7772,-3.21802 -20.84375,-16.9375 -0.50142,0.46674 -1.00046,0.93848 -1.5,1.40625 8.59399,6.90032 -9.85387,-7.85356 -3.5,-2.75 l -0.0313,0.0313 c 3.6488,2.93066 8.06618,6.44376 10.4375,8.34375 l 14.2188,11.4062 0.15625,1.53125 c 0.0888,0.85177 0.26559,1.95008 0.375,2.4375 0.10933,0.48745 0.2088,1.04813 0.21875,1.25 0.0188,0.38341 -0.0227,0.51682 -0.15625,0.5 -0.23694,-0.03 -4.97471,-3.69033 -14.03125,-10.8125 -2.33157,-1.83347 -5.35992,-4.27244 -8.40625,-6.71875 -10.79371,-8.75281 8.35904,6.53623 -2.46875,-2.1875 -0.99609,0.95833 -1.99827,1.9311 -2.96875,2.90625 -5.47413,3.55236 -9.6719,-3.9544 -12.78125,-7.28125 -0.14985,-2.87701 -1.33302,-2.5681 -3.875,-2.625 -2.83737,-1.70677 -6.65444,-2.62886 -9.65625,-4.375 23.15158,18.60651 14.15746,11.47056 21,16.96875 0.6463,0.51932 4.45356,3.58662 4.8125,3.875 14.78424,11.86938 21.92711,17.63123 21.96875,17.75 0.0969,0.26836 -0.49605,0.4772 -2.71875,0.90625 -0.86645,0.16723 -1.6676,0.31307 -1.78125,0.34375 -0.19651,0.053 -0.34764,-0.0329 -3.25,-2.28125 -25.34373,-20.2948 -22.48575,-18.11429 -49.65625,-39.96875 -2.39935,0.32212 -5.33514,-1.75715 -7.53125,-3.03125 z m 57.03125,6.90625 c -0.24642,-0.007 -0.56457,0.25056 -1,0.46875 l -3.78125,3.3125 c 1.53403,1.23622 3.05958,2.4827 4.59375,3.71875 0.46053,-2.98813 0.80721,-5.67465 0.71875,-6.375 -0.106,-0.8393 -0.28483,-1.11758 -0.53125,-1.125 z m 17.59375,27.34375 c 0.005,-0.008 0.017,0.004 0.0313,0 0.0142,-0.004 0.0441,-0.005 0.0625,0 0.25934,0.0691 1.25334,0.78197 4.4375,3.21875 0.82568,0.63189 1.47724,1.18306 2.03125,1.625 1.66201,1.32584 2.25399,1.89472 2.46875,2.375 0.19513,0.43655 0.31981,2.02298 0.25,3.34375 -0.0668,1.26856 -0.49274,3.07238 -0.9375,4.09375 -0.44152,1.01364 -1.66527,2.66512 -2.5,3.375 -1.34315,1.14248 -3.20126,2.07397 -5.84375,2.9375 l -1.65625,0.53125 -0.34375,-0.1875 c -0.19056,-0.11164 -1.89511,-1.42831 -3.78125,-2.90625 -3.33357,-2.61166 -5.69138,-4.62008 -5.71875,-4.875 -0.006,-0.0583 0.42924,-0.15598 0.96875,-0.21875 1.76735,-0.20552 4.71767,-1.26165 6.03125,-2.15625 1.88358,-1.28301 2.99927,-2.69687 3.625,-4.59375 0.383,-1.16112 0.55385,-2.25283 0.6875,-4.46875 0.0661,-1.09838 0.15092,-2.04849 0.1875,-2.09375 z"
       id="path4139"
       inkscape:connector-curvature="0"
       sodipodi:nodetypes="cccccscccccccccccccccccccscccsccccccssccccccsccsccccsccssccccscssccccsccccccccsscscscccsscccccscscscsccccssccsssscccccsccssccccsccccccccssccccccccsccscscsccccccccccccccccccccccccccccccccccccccccsccccccccccccccccscccccccccccccccc" />
  </g>
</svg>
